<svg width="182" height="433" viewBox="0 0 182 433" fill="none" xmlns="http://www.w3.org/2000/svg">
<path d="M126.5 15C124.334 -2.05 107.015 17.7893 65.5002 20.5217L51.0002 430.302C69.9528 430.849 150.409 438.403 162.008 425.534C166.215 420.866 155.372 425.862 172.993 392.559C181.615 376.264 180.223 330.517 181.126 292.81C182.028 255.103 186.375 143.632 162.008 118.752C150.16 106.655 140.348 86.802 140.348 76.9655V35.352C159.842 35.352 161.105 30.9046 162.008 20.5217C162.91 10.1387 128.666 32.05 126.5 15Z" fill="#ECE4E4"/>
<path d="M80 20.5218C82.1825 3.47181 90.168 4.76762 132 7.49999V430.302C112.903 430.849 31.8328 438.403 20.145 425.534C15.9054 420.867 26.832 425.862 9.07631 392.559C0.388519 376.264 1.79079 330.517 0.881393 292.81C-0.0279999 255.103 -4.40862 143.632 20.145 118.752C32.0838 106.655 41.9703 86.8021 41.9703 76.9656V35.3521C22.3275 35.3521 21.0543 30.9047 20.145 20.5217C19.2356 10.1388 77.8175 37.5718 80 20.5218Z" fill="#ECE4E4"/>
<path d="M77.2186 247.008C43.3684 247.008 12.1823 237.67 0.820557 233C1.00049 340 3.09673 379 9.04804 390.594C21.2717 414.409 21.9594 422.527 20.0004 423.5C20.4706 432.839 69.0005 432.5 93.5005 431C152.738 434.736 162.784 426.975 162 422.5C157.769 419.231 169.5 396.5 174 387.5C181.5 362.5 180.021 290.559 181.001 239L176.536 241.172C169.68 241.95 152.324 241.989 137.749 235.918C119.531 228.331 119.531 247.008 77.2186 247.008Z" fill="#CF6300" fill-opacity="0.4"/>
<path d="M161.503 10.5231C160.603 1.46718 113.511 -0.486761 91.7651 0.0937467C64.102 0.0937402 19.0001 2.3895 19 10.5231V31.4214C19 37.3528 36.8381 38.2423 43.3993 37.9521C67.0198 37.8069 118.985 37.6038 137.881 37.9521C156.778 38.3004 160.941 36.1908 161.503 32.2723C161.878 29.66 162.403 19.579 161.503 10.5231Z" fill="white"/>
<rect x="6.5" y="171.5" width="168.714" height="197" fill="#F3E9E3" stroke="#A7A7A7"/>
<rect x="6" y="303.094" width="169.714" height="27.1543" fill="#80558E"/>
<path d="M64.2593 313.494V312.864H65.9593V320.034H65.2493V313.494H64.2593ZM67.5193 316.384C67.5193 315.238 67.6959 314.348 68.0493 313.714C68.4026 313.081 69.0359 312.764 69.9493 312.764C70.8626 312.764 71.4959 313.081 71.8493 313.714C72.2026 314.348 72.3793 315.238 72.3793 316.384C72.3793 317.551 72.2026 318.454 71.8493 319.094C71.4959 319.734 70.8626 320.054 69.9493 320.054C69.0293 320.054 68.3926 319.734 68.0393 319.094C67.6926 318.454 67.5193 317.551 67.5193 316.384ZM71.6893 316.384C71.6893 315.764 71.6459 315.241 71.5593 314.814C71.4726 314.388 71.3026 314.044 71.0493 313.784C70.7959 313.524 70.4293 313.394 69.9493 313.394C69.4693 313.394 69.1026 313.524 68.8493 313.784C68.5959 314.044 68.4259 314.388 68.3393 314.814C68.2526 315.241 68.2093 315.764 68.2093 316.384C68.2093 317.024 68.2526 317.561 68.3393 317.994C68.4259 318.421 68.5959 318.764 68.8493 319.024C69.1026 319.284 69.4693 319.414 69.9493 319.414C70.4293 319.414 70.7959 319.284 71.0493 319.024C71.3026 318.764 71.4726 318.421 71.5593 317.994C71.6459 317.561 71.6893 317.024 71.6893 316.384ZM73.6814 316.384C73.6814 315.238 73.858 314.348 74.2114 313.714C74.5647 313.081 75.198 312.764 76.1114 312.764C77.0247 312.764 77.658 313.081 78.0114 313.714C78.3647 314.348 78.5414 315.238 78.5414 316.384C78.5414 317.551 78.3647 318.454 78.0114 319.094C77.658 319.734 77.0247 320.054 76.1114 320.054C75.1914 320.054 74.5547 319.734 74.2014 319.094C73.8547 318.454 73.6814 317.551 73.6814 316.384ZM77.8514 316.384C77.8514 315.764 77.808 315.241 77.7214 314.814C77.6347 314.388 77.4647 314.044 77.2114 313.784C76.958 313.524 76.5914 313.394 76.1114 313.394C75.6314 313.394 75.2647 313.524 75.0114 313.784C74.758 314.044 74.588 314.388 74.5014 314.814C74.4147 315.241 74.3714 315.764 74.3714 316.384C74.3714 317.024 74.4147 317.561 74.5014 317.994C74.588 318.421 74.758 318.764 75.0114 319.024C75.2647 319.284 75.6314 319.414 76.1114 319.414C76.5914 319.414 76.958 319.284 77.2114 319.024C77.4647 318.764 77.6347 318.421 77.7214 317.994C77.808 317.561 77.8514 317.024 77.8514 316.384ZM79.6235 314.364C79.6235 313.938 79.7535 313.594 80.0135 313.334C80.2801 313.068 80.6168 312.934 81.0235 312.934C81.4368 312.934 81.7735 313.068 82.0335 313.334C82.3001 313.594 82.4335 313.938 82.4335 314.364C82.4335 314.798 82.3001 315.148 82.0335 315.414C81.7735 315.674 81.4368 315.804 81.0235 315.804C80.6168 315.804 80.2801 315.674 80.0135 315.414C79.7535 315.148 79.6235 314.798 79.6235 314.364ZM85.2235 313.034L81.1235 320.034H80.4135L84.5235 313.034H85.2235ZM81.0235 313.384C80.7701 313.384 80.5668 313.471 80.4135 313.644C80.2668 313.811 80.1935 314.051 80.1935 314.364C80.1935 314.678 80.2668 314.921 80.4135 315.094C80.5668 315.268 80.7701 315.354 81.0235 315.354C81.2768 315.354 81.4801 315.268 81.6335 315.094C81.7868 314.921 81.8635 314.678 81.8635 314.364C81.8635 314.058 81.7868 313.818 81.6335 313.644C81.4801 313.471 81.2768 313.384 81.0235 313.384ZM83.2235 318.704C83.2235 318.271 83.3535 317.924 83.6135 317.664C83.8801 317.398 84.2168 317.264 84.6235 317.264C85.0301 317.264 85.3635 317.398 85.6235 317.664C85.8901 317.924 86.0235 318.271 86.0235 318.704C86.0235 319.138 85.8901 319.488 85.6235 319.754C85.3635 320.014 85.0301 320.144 84.6235 320.144C84.2168 320.144 83.8801 320.014 83.6135 319.754C83.3535 319.488 83.2235 319.138 83.2235 318.704ZM84.6235 317.724C84.3701 317.724 84.1668 317.811 84.0135 317.984C83.8601 318.158 83.7835 318.398 83.7835 318.704C83.7835 319.011 83.8601 319.251 84.0135 319.424C84.1668 319.598 84.3701 319.684 84.6235 319.684C84.8768 319.684 85.0768 319.601 85.2235 319.434C85.3768 319.261 85.4535 319.018 85.4535 318.704C85.4535 318.391 85.3768 318.151 85.2235 317.984C85.0768 317.811 84.8768 317.724 84.6235 317.724ZM92.5535 314.474C93.2068 314.474 93.7401 314.678 94.1535 315.084C94.5668 315.484 94.7735 316.068 94.7735 316.834V320.034H94.0835V316.914C94.0835 316.321 93.9335 315.868 93.6335 315.554C93.3401 315.241 92.9368 315.084 92.4235 315.084C91.8968 315.084 91.4768 315.251 91.1635 315.584C90.8501 315.918 90.6935 316.408 90.6935 317.054V320.034H89.9935V314.574H90.6935V315.504C90.8668 315.171 91.1168 314.918 91.4435 314.744C91.7701 314.564 92.1401 314.474 92.5535 314.474ZM96.0016 317.294C96.0016 316.734 96.1116 316.244 96.3316 315.824C96.5583 315.398 96.8683 315.071 97.2616 314.844C97.6616 314.611 98.1116 314.494 98.6116 314.494C99.1316 314.494 99.5783 314.614 99.9516 314.854C100.332 315.094 100.605 315.401 100.772 315.774V314.574H101.472V320.034H100.772V318.824C100.598 319.198 100.322 319.508 99.9416 319.754C99.5683 319.994 99.1216 320.114 98.6016 320.114C98.1083 320.114 97.6616 319.998 97.2616 319.764C96.8683 319.531 96.5583 319.201 96.3316 318.774C96.1116 318.348 96.0016 317.854 96.0016 317.294ZM100.772 317.304C100.772 316.864 100.682 316.478 100.502 316.144C100.322 315.811 100.075 315.554 99.7616 315.374C99.4549 315.194 99.1149 315.104 98.7416 315.104C98.3549 315.104 98.0083 315.191 97.7016 315.364C97.3949 315.538 97.1516 315.791 96.9716 316.124C96.7983 316.451 96.7116 316.841 96.7116 317.294C96.7116 317.741 96.7983 318.134 96.9716 318.474C97.1516 318.808 97.3949 319.064 97.7016 319.244C98.0083 319.418 98.3549 319.504 98.7416 319.504C99.1149 319.504 99.4549 319.414 99.7616 319.234C100.075 319.054 100.322 318.798 100.502 318.464C100.682 318.131 100.772 317.744 100.772 317.304ZM103.98 315.164V318.554C103.98 318.888 104.043 319.118 104.17 319.244C104.296 319.371 104.52 319.434 104.84 319.434H105.48V320.034H104.73C104.236 320.034 103.87 319.921 103.63 319.694C103.39 319.461 103.27 319.081 103.27 318.554V315.164H102.51V314.574H103.27V313.204H103.98V314.574H105.48V315.164H103.98ZM111.364 314.574V320.034H110.664V319.074C110.504 319.414 110.257 319.674 109.924 319.854C109.591 320.034 109.217 320.124 108.804 320.124C108.151 320.124 107.617 319.924 107.204 319.524C106.791 319.118 106.584 318.531 106.584 317.764V314.574H107.274V317.684C107.274 318.278 107.421 318.731 107.714 319.044C108.014 319.358 108.421 319.514 108.934 319.514C109.461 319.514 109.881 319.348 110.194 319.014C110.507 318.681 110.664 318.191 110.664 317.544V314.574H111.364ZM113.662 315.544C113.816 315.204 114.049 314.941 114.362 314.754C114.682 314.568 115.072 314.474 115.532 314.474V315.204H115.342C114.836 315.204 114.429 315.341 114.122 315.614C113.816 315.888 113.662 316.344 113.662 316.984V320.034H112.962V314.574H113.662V315.544Z" fill="white"/>
<path d="M44.4956 200.567L45.4869 200.463L45.3825 199.11L45.3304 196.663L45.4869 192.862L45.8521 189.53L46.3738 185.469L46.5825 183.231L46.739 182.033L47.8346 181.721L49.4519 181.513L50.8605 181.617L51.9561 182.138L52.7387 182.918L53.2604 184.012V184.741L53.1039 185.99L52.5822 187.292L51.6953 188.437L50.7562 189.166L49.7128 189.686L48.0433 190.103L47.052 190.207L47.1564 191.092H48.6693L49.3997 193.279L50.4432 195.882L51.904 198.641L52.8952 199.891L53.9908 200.828L55.1908 201.244H56.6515L57.2254 201.088L56.2342 200.047L55.4516 199.11L54.7212 197.964L54.3038 197.287L53.5213 196.038L52.53 194.112L51.6953 191.977L51.2257 190.519L52.3735 189.999L53.4169 189.374L54.4082 188.437L55.1908 187.188L55.6603 186.198L55.9212 184.741L55.8168 183.491L55.2951 182.138L54.7734 181.409L53.6778 180.419L52.3735 179.795L50.7562 179.587L48.9302 179.795L47.7824 180.055L46.5303 180.419L45.6956 180.315L44.8086 179.795L44.4956 179.326L44.2348 178.962L44.0782 178.597L43.7652 177.712L43.9739 179.014L44.0782 179.951L44.1826 181.617L44.0782 184.324L43.2957 190.884L42.6696 195.361L42.4609 197.964V199.11L42.8261 199.891L43.4 200.307L44.4956 200.567Z" fill="black" stroke="black"/>
<path d="M61.8164 193.201C62.3903 191.24 63.2685 189.591 64.451 188.255C65.651 186.901 66.7727 186.224 67.8161 186.224C68.8595 186.224 69.5986 186.545 70.0334 187.188C70.4682 187.812 70.6855 188.671 70.6855 189.765C70.6855 190.84 70.5116 192.359 70.1638 194.32C69.8334 196.281 69.6682 197.713 69.6682 198.615C69.6682 199.5 69.7812 200.151 70.0073 200.567C70.2334 200.966 70.6159 201.314 71.1551 201.609C70.929 201.626 70.6073 201.635 70.1899 201.635C69.0769 201.635 68.2509 201.409 67.7118 200.958C67.19 200.489 66.9292 199.7 66.9292 198.589C66.9292 197.947 67.1031 196.654 67.4509 194.71C67.7987 192.749 67.9726 191.309 67.9726 190.389C67.9726 189.244 67.5727 188.671 66.7727 188.671C66.3031 188.671 65.7814 188.923 65.2075 189.426C64.6336 189.912 64.0772 190.58 63.538 191.431C63.0163 192.264 62.5729 193.331 62.2077 194.632C61.8599 195.916 61.686 197.192 61.686 198.459C61.686 199.708 61.7381 200.637 61.8425 201.244C61.4251 201.279 61.1903 201.296 61.1382 201.296C60.3208 201.296 59.7121 201.123 59.3122 200.776C58.9295 200.429 58.7383 199.891 58.7383 199.162C58.7383 198.415 58.8948 196.993 59.2078 194.893C60.1295 188.437 60.5904 183.535 60.5904 180.185C60.5904 178.675 60.486 177.66 60.2773 177.14C61.286 177.504 61.9903 178.042 62.3903 178.754C62.8076 179.465 63.0163 180.446 63.0163 181.695C63.0163 182.563 62.8424 184.385 62.4946 187.161C62.1642 189.938 61.9382 191.951 61.8164 193.201ZM78.1745 201.635C77.1833 201.288 76.4877 200.758 76.0877 200.047C75.7052 199.318 75.5138 198.441 75.5138 197.418C75.5138 196.394 75.653 194.927 75.9312 193.018C76.2094 191.11 76.3485 189.626 76.3485 188.567C76.3485 187.509 76.2964 186.693 76.192 186.12C76.505 186.086 76.7572 186.068 76.9485 186.068C77.7311 186.068 78.2963 186.242 78.6441 186.589C78.9919 186.936 79.1658 187.509 79.1658 188.307C79.1658 188.567 78.9484 189.938 78.5136 192.42C78.0963 194.884 77.8789 196.923 77.8615 198.537C77.8615 200.133 77.9658 201.166 78.1745 201.635ZM78.5658 183.491C77.105 183.491 76.3746 182.997 76.3746 182.007C76.3746 181.66 76.505 181.174 76.7659 180.55C77.1485 180.48 77.479 180.446 77.7572 180.446C79.218 180.446 79.9484 180.94 79.9484 181.929C79.9484 182.276 79.8179 182.762 79.5571 183.387C79.1745 183.456 78.8441 183.491 78.5658 183.491ZM95.3987 189.921C95.3987 190.719 95.2248 192.133 94.877 194.164C94.5465 196.177 94.3814 197.643 94.3814 198.563C94.3814 199.483 94.4944 200.151 94.7205 200.567C94.9465 200.966 95.3291 201.314 95.8682 201.609C95.6421 201.626 95.3204 201.635 94.9031 201.635C93.7205 201.635 92.8771 201.418 92.3728 200.984C91.8858 200.533 91.6424 199.734 91.6424 198.589C91.6424 197.947 91.8162 196.654 92.1641 194.71C92.5119 192.749 92.6858 191.309 92.6858 190.389C92.6858 189.244 92.3379 188.671 91.6424 188.671C90.5293 188.671 89.3729 189.652 88.173 191.613C86.9903 193.574 86.3991 195.934 86.3991 198.693C86.3991 199.786 86.4513 200.637 86.5557 201.244C86.1034 201.279 85.8339 201.296 85.747 201.296C84.2166 201.296 83.4515 200.55 83.4515 199.058C83.4515 198.711 83.6341 197.374 83.9993 195.049C84.3645 192.723 84.5471 190.875 84.5471 189.504C84.5471 188.116 84.3992 186.84 84.1036 185.678C85.1296 186.077 85.8426 186.649 86.2426 187.396C86.66 188.125 86.8687 188.966 86.8687 189.921C86.8687 190.858 86.7643 191.951 86.5557 193.201C87.1295 191.24 88.0251 189.591 89.2425 188.255C90.4772 186.901 91.6249 186.224 92.6858 186.224C94.4944 186.224 95.3987 187.456 95.3987 189.921ZM109.406 192.706C109.406 191.005 109.189 189.791 108.754 189.062C108.337 188.315 107.728 187.942 106.928 187.942C106.145 187.942 105.354 188.333 104.554 189.114C103.754 189.877 103.119 190.832 102.65 191.977C102.198 193.105 101.972 194.285 101.972 195.517C101.972 196.732 102.206 197.791 102.676 198.693C103.146 199.578 103.859 200.021 104.815 200.021C106.171 200.021 107.276 199.222 108.128 197.626C108.98 196.029 109.406 194.389 109.406 192.706ZM101.841 191.691C102.502 189.817 103.389 188.454 104.502 187.604C105.632 186.736 106.771 186.302 107.919 186.302C109.084 186.302 110.05 186.814 110.815 187.838C111.58 188.845 111.962 190.216 111.962 191.951C111.962 193.86 111.597 195.63 110.867 197.261C110.05 199.066 108.867 200.324 107.319 201.036C106.485 201.435 105.563 201.635 104.554 201.635C103.146 201.635 101.911 201.053 100.85 199.891C99.7891 198.711 99.2588 197.036 99.2588 194.867C99.2588 192.68 99.7283 190.788 100.667 189.192C101.606 187.595 102.885 186.485 104.502 185.86C104.85 185.86 105.024 186.034 105.024 186.381C103.302 187.509 102.241 189.279 101.841 191.691Z" fill="black"/>
<path d="M164.385 179.639H114.197V203.17H164.385V179.639Z" fill="black" stroke="black"/>
<path d="M140.359 189.377L140.359 189.377C140.806 188.548 141.426 187.908 142.214 187.468L142.214 187.468C142.999 187.031 143.882 186.816 144.856 186.816C146.179 186.816 147.296 187.157 148.173 187.87C149.056 188.564 149.593 189.486 149.779 190.613L149.855 191.078H149.384H149.019H148.678L148.624 190.742C148.482 189.868 148.078 189.197 147.412 188.704C146.737 188.205 145.894 187.944 144.856 187.944C144.127 187.944 143.46 188.106 142.851 188.427L142.848 188.428C142.266 188.729 141.791 189.193 141.424 189.838C141.065 190.467 140.873 191.269 140.873 192.264C140.873 193.258 141.065 194.06 141.424 194.689C141.791 195.333 142.266 195.805 142.849 196.118C143.459 196.427 144.126 196.583 144.856 196.583C145.894 196.583 146.737 196.322 147.412 195.823L140.359 189.377ZM140.359 189.377L140.357 189.381C139.92 190.214 139.708 191.179 139.708 192.264C139.708 193.349 139.92 194.314 140.357 195.146L140.357 195.146L140.359 195.15C140.806 195.979 141.426 196.619 142.214 197.059L142.214 197.059C142.999 197.497 143.882 197.711 144.856 197.711C146.178 197.711 147.295 197.377 148.173 196.676L148.173 196.676C149.055 195.969 149.593 195.042 149.779 193.914L149.855 193.449H149.384H149.019H148.678L148.624 193.785C148.482 194.659 148.078 195.33 147.412 195.823L140.359 189.377ZM123.262 184.355V183.955H122.862H122.497H122.097V184.355V194.578C122.097 195.136 121.936 195.613 121.617 196.025C121.343 196.367 120.864 196.583 120.068 196.583C119.239 196.583 118.715 196.333 118.4 195.907C118.047 195.431 117.857 194.815 117.857 194.031V193.631H117.457H117.092H116.692V194.031C116.692 195.117 116.965 196.023 117.558 196.7L117.558 196.7L117.561 196.704C118.177 197.389 119.031 197.711 120.068 197.711C121.026 197.711 121.823 197.429 122.403 196.822L122.403 196.822C122.98 196.218 123.262 195.46 123.262 194.578V184.355ZM134.379 187.344V186.944H133.979H133.614H133.214V187.344V192.537C133.214 193.96 132.874 194.97 132.262 195.636C131.641 196.296 130.816 196.638 129.743 196.638C128.707 196.638 127.939 196.332 127.383 195.759C126.833 195.177 126.527 194.307 126.527 193.084V187.344V186.944H126.127H125.78H125.38V187.344V193.047C125.38 194.557 125.768 195.76 126.616 196.578C127.442 197.376 128.495 197.766 129.743 197.766C130.774 197.766 131.684 197.504 132.454 196.965C132.745 196.765 132.998 196.531 133.214 196.265V197.183V197.583H133.614H133.979H134.379V197.183V187.344ZM136.623 184.966L136.64 184.985L136.66 185.002C136.833 185.154 137.043 185.229 137.27 185.229C137.496 185.229 137.712 185.154 137.881 184.985C138.06 184.807 138.145 184.58 138.145 184.337C138.145 184.103 138.065 183.878 137.882 183.708C137.719 183.533 137.505 183.445 137.27 183.445C137.028 183.445 136.811 183.538 136.641 183.708C136.465 183.883 136.395 184.109 136.395 184.337C136.395 184.567 136.465 184.786 136.623 184.966ZM137.852 187.344V186.944H137.452H137.087H136.687V187.344V197.183V197.583H137.087H137.452H137.852V197.183V187.344ZM158.877 195.823L158.877 195.823C158.203 196.322 157.36 196.583 156.322 196.583C155.602 196.583 154.946 196.432 154.348 196.134C153.763 195.831 153.282 195.375 152.903 194.755C152.598 194.237 152.411 193.599 152.356 192.828H160.832H161.209L161.231 192.45C161.244 192.22 161.25 191.883 161.25 191.444C161.25 190.659 161.057 189.914 160.672 189.213C160.295 188.5 159.73 187.927 158.991 187.492C158.236 187.035 157.341 186.816 156.322 186.816C155.348 186.816 154.464 187.03 153.68 187.468C152.892 187.908 152.273 188.548 151.825 189.376L151.824 189.376L151.822 189.381C151.385 190.214 151.174 191.179 151.174 192.264C151.174 193.348 151.385 194.313 151.822 195.146L151.822 195.146L151.825 195.151C152.273 195.979 152.892 196.619 153.68 197.059C154.464 197.497 155.348 197.711 156.322 197.711C157.644 197.711 158.762 197.377 159.639 196.676L159.64 196.676C160.521 195.969 161.059 195.042 161.245 193.914L161.322 193.449H160.85H160.485H160.145L160.09 193.784C159.948 194.659 159.544 195.33 158.877 195.823ZM159.681 189.766C159.976 190.281 160.134 190.92 160.134 191.7H152.356C152.411 190.928 152.598 190.29 152.903 189.772C153.282 189.152 153.762 188.703 154.346 188.412L154.346 188.412L154.351 188.41C154.949 188.1 155.603 187.944 156.322 187.944C157.027 187.944 157.675 188.1 158.274 188.41L158.274 188.41L158.282 188.414C158.875 188.704 159.339 189.149 159.678 189.761L159.678 189.761L159.681 189.766Z" fill="white" stroke="white" stroke-width="0.8"/>
<path d="M24.3778 202.014L25.4332 202.91H25.8797L26.4074 202.516L27.0163 202.086L29.4519 202.588L32.2935 202.803L35.4192 202.588L38.3825 201.907L41.1429 201.226L45.4348 200.515L44.1062 179.719L43.974 178.806L43.8627 177.868C43.9169 177.713 43.9613 177.416 44.0262 177.244C44.1074 177.029 44.1131 176.994 44.2349 176.671C44.3324 176.413 43.9845 176.386 43.8627 176.422H42.1172L41.6301 176.852L40.9805 177.963L40.2904 180.114L40.0063 180.974L39.6816 181.153H39.3568L38.7047 180.68L38.1308 180.159L37.7135 179.639L37.4526 179.222L37.2459 178.787L36.7588 179.038L36.3123 179.378L36.0281 179.951L35.9918 180.472L36.0281 180.974L36.2527 182.19L36.3123 183.335L36.3934 183.96L36.6179 184.637L36.8787 184.897L37.2459 185.06L36.0281 185.777L33.8361 186.996L31.5222 188.286L30.3856 187.605L28.7619 186.243L27.6252 184.988L26.6104 183.34L26.3668 185.419L26.2045 187.426L26.3668 188.573L26.448 189.899L24.4995 188.393L23.0382 186.422L21.3332 183.662L20.0748 181.153L18.3293 177.605L17.3145 175.526L17.4362 178.429L17.8422 181.762L18.7758 185.777L19.9124 189.576L21.5768 194.2L22.5104 196.602L22.7946 197.856L23.0382 199.756L23.3629 200.975L24.3778 202.014Z" fill="black" stroke="black"/>
<path d="M27.344 210.66C27.344 210.998 27.262 211.293 27.0979 211.543C26.9338 211.793 26.6943 211.985 26.3792 212.121C26.0667 212.256 25.6864 212.324 25.2385 212.324C25.0406 212.324 24.8466 212.311 24.6565 212.285C24.469 212.259 24.288 212.221 24.1135 212.172C23.9417 212.119 23.7776 212.056 23.6213 211.98V210.855C23.8922 210.975 24.1734 211.083 24.4651 211.179C24.7568 211.276 25.0458 211.324 25.3323 211.324C25.5302 211.324 25.689 211.298 25.8088 211.246C25.9312 211.194 26.0198 211.122 26.0745 211.031C26.1292 210.94 26.1565 210.836 26.1565 210.718C26.1565 210.575 26.1083 210.453 26.012 210.351C25.9156 210.25 25.7828 210.155 25.6135 210.066C25.4469 209.977 25.2581 209.882 25.0471 209.781C24.9143 209.718 24.7698 209.643 24.6135 209.554C24.4573 209.463 24.3088 209.352 24.1682 209.222C24.0276 209.092 23.9117 208.935 23.8206 208.75C23.732 208.562 23.6877 208.338 23.6877 208.078C23.6877 207.737 23.7659 207.445 23.9221 207.203C24.0784 206.961 24.301 206.776 24.5901 206.648C24.8818 206.518 25.2255 206.453 25.6213 206.453C25.9182 206.453 26.2008 206.488 26.469 206.558C26.7398 206.626 27.0224 206.725 27.3167 206.855L26.926 207.797C26.663 207.69 26.4273 207.608 26.219 207.55C26.0107 207.491 25.7984 207.461 25.5823 207.461C25.4312 207.461 25.3023 207.485 25.1956 207.535C25.0888 207.582 25.0081 207.649 24.9534 207.738C24.8987 207.824 24.8713 207.924 24.8713 208.039C24.8713 208.174 24.9104 208.289 24.9885 208.382C25.0693 208.474 25.189 208.562 25.3479 208.648C25.5094 208.734 25.7099 208.834 25.9495 208.949C26.2411 209.087 26.4898 209.231 26.6956 209.382C26.9039 209.531 27.064 209.707 27.176 209.91C27.288 210.11 27.344 210.36 27.344 210.66ZM30.0745 207.789C30.6604 207.789 31.1096 207.916 31.4221 208.172C31.7346 208.427 31.8909 208.815 31.8909 209.336V212.246H31.0588L30.8284 211.652H30.7971C30.6721 211.808 30.5445 211.936 30.4143 212.035C30.2841 212.134 30.1344 212.207 29.9651 212.254C29.7958 212.3 29.5901 212.324 29.3479 212.324C29.0901 212.324 28.8583 212.274 28.6526 212.175C28.4495 212.076 28.2893 211.925 28.1721 211.722C28.0549 211.517 27.9963 211.256 27.9963 210.941C27.9963 210.477 28.1591 210.136 28.4846 209.918C28.8101 209.696 29.2984 209.574 29.9495 209.55L30.7073 209.527V209.336C30.7073 209.106 30.6474 208.938 30.5276 208.832C30.4078 208.725 30.2411 208.672 30.0276 208.672C29.8167 208.672 29.6096 208.701 29.4065 208.761C29.2034 208.821 29.0002 208.897 28.7971 208.988L28.4026 208.183C28.6344 208.061 28.8935 207.964 29.1799 207.894C29.469 207.824 29.7672 207.789 30.0745 207.789ZM30.7073 210.222L30.2463 210.238C29.8609 210.248 29.5927 210.317 29.4417 210.445C29.2932 210.573 29.219 210.741 29.219 210.949C29.219 211.131 29.2724 211.261 29.3792 211.339C29.4859 211.415 29.6252 211.453 29.7971 211.453C30.0523 211.453 30.2672 211.377 30.4417 211.226C30.6187 211.075 30.7073 210.86 30.7073 210.582V210.222ZM34.1604 212.246L32.4963 207.879H33.7424L34.5862 210.367C34.6331 210.513 34.6695 210.666 34.6956 210.828C34.7242 210.989 34.7437 211.134 34.7542 211.261H34.7854C34.7932 211.123 34.8114 210.976 34.8401 210.82C34.8713 210.664 34.9117 210.513 34.9612 210.367L35.801 207.879H37.0471L35.3831 212.246H34.1604ZM39.4768 207.797C39.8805 207.797 40.2281 207.875 40.5198 208.031C40.8114 208.185 41.0367 208.408 41.1956 208.703C41.3544 208.997 41.4338 209.356 41.4338 209.781V210.359H38.6174C38.6305 210.695 38.7307 210.959 38.9182 211.152C39.1083 211.342 39.3713 211.437 39.7073 211.437C39.9859 211.437 40.2411 211.408 40.4729 211.351C40.7047 211.294 40.943 211.208 41.1877 211.093V212.015C40.9716 212.122 40.745 212.2 40.5081 212.25C40.2737 212.299 39.9885 212.324 39.6526 212.324C39.2151 212.324 38.8271 212.243 38.4885 212.082C38.1526 211.92 37.8883 211.674 37.6956 211.343C37.5055 211.013 37.4104 210.596 37.4104 210.093C37.4104 209.583 37.4963 209.158 37.6682 208.82C37.8427 208.479 38.0849 208.224 38.3948 208.054C38.7047 207.882 39.0653 207.797 39.4768 207.797ZM39.4846 208.644C39.2528 208.644 39.0601 208.718 38.9065 208.867C38.7555 209.015 38.6682 209.248 38.6448 209.566H40.3167C40.314 209.389 40.2815 209.231 40.219 209.093C40.1591 208.955 40.068 208.846 39.9456 208.765C39.8258 208.685 39.6721 208.644 39.4846 208.644ZM46.3206 211.375C46.4508 211.375 46.5771 211.362 46.6995 211.336C46.8245 211.31 46.9482 211.277 47.0706 211.238V212.125C46.943 212.182 46.7841 212.229 46.594 212.265C46.4065 212.304 46.2008 212.324 45.9768 212.324C45.7164 212.324 45.482 212.282 45.2737 212.199C45.068 212.113 44.9052 211.966 44.7854 211.757C44.6682 211.547 44.6096 211.254 44.6096 210.879V208.773H44.0393V208.269L44.6956 207.871L45.0393 206.949H45.801V207.879H47.0237V208.773H45.801V210.879C45.801 211.045 45.8479 211.17 45.9417 211.254C46.038 211.334 46.1643 211.375 46.3206 211.375ZM49.1487 206.168V207.406C49.1487 207.622 49.1409 207.828 49.1252 208.023C49.1122 208.218 49.1018 208.356 49.094 208.437H49.1565C49.2502 208.286 49.3609 208.164 49.4885 208.07C49.6187 207.976 49.762 207.907 49.9182 207.863C50.0745 207.819 50.2424 207.797 50.4221 207.797C50.7372 207.797 51.012 207.852 51.2463 207.964C51.4807 208.074 51.663 208.247 51.7932 208.484C51.9234 208.718 51.9885 209.023 51.9885 209.398V212.246H50.7971V209.695C50.7971 209.382 50.7398 209.147 50.6252 208.988C50.5107 208.829 50.3336 208.75 50.094 208.75C49.8544 208.75 49.6656 208.806 49.5276 208.918C49.3896 209.027 49.2919 209.19 49.2346 209.406C49.1773 209.619 49.1487 209.881 49.1487 210.191V212.246H47.9573V206.168H49.1487ZM55.0159 207.797C55.4195 207.797 55.7672 207.875 56.0588 208.031C56.3505 208.185 56.5758 208.408 56.7346 208.703C56.8935 208.997 56.9729 209.356 56.9729 209.781V210.359H54.1565C54.1695 210.695 54.2698 210.959 54.4573 211.152C54.6474 211.342 54.9104 211.437 55.2463 211.437C55.525 211.437 55.7802 211.408 56.012 211.351C56.2437 211.294 56.482 211.208 56.7268 211.093V212.015C56.5107 212.122 56.2841 212.2 56.0471 212.25C55.8127 212.299 55.5276 212.324 55.1917 212.324C54.7542 212.324 54.3661 212.243 54.0276 212.082C53.6917 211.92 53.4273 211.674 53.2346 211.343C53.0445 211.013 52.9495 210.596 52.9495 210.093C52.9495 209.583 53.0354 209.158 53.2073 208.82C53.3818 208.479 53.6239 208.224 53.9338 208.054C54.2437 207.882 54.6044 207.797 55.0159 207.797ZM55.0237 208.644C54.7919 208.644 54.5992 208.718 54.4456 208.867C54.2945 209.015 54.2073 209.248 54.1838 209.566H55.8557C55.8531 209.389 55.8206 209.231 55.7581 209.093C55.6982 208.955 55.607 208.846 55.4846 208.765C55.3648 208.685 55.2112 208.644 55.0237 208.644ZM62.4573 207.797C62.5172 207.797 62.5862 207.8 62.6643 207.808C62.745 207.813 62.8101 207.821 62.8596 207.832L62.7698 208.949C62.7307 208.936 62.6747 208.927 62.6018 208.922C62.5315 208.914 62.4703 208.91 62.4182 208.91C62.2646 208.91 62.1148 208.929 61.969 208.968C61.8258 209.007 61.6969 209.071 61.5823 209.16C61.4677 209.246 61.3765 209.36 61.3088 209.504C61.2437 209.644 61.2112 209.817 61.2112 210.023V212.246H60.0198V207.879H60.9221L61.0979 208.613H61.1565C61.2424 208.464 61.3492 208.329 61.4768 208.207C61.607 208.082 61.7542 207.983 61.9182 207.91C62.0849 207.834 62.2646 207.797 62.4573 207.797ZM64.844 206.168V207.406C64.844 207.622 64.8362 207.828 64.8206 208.023C64.8075 208.218 64.7971 208.356 64.7893 208.437H64.8518C64.9456 208.286 65.0562 208.164 65.1838 208.07C65.314 207.976 65.4573 207.907 65.6135 207.863C65.7698 207.819 65.9377 207.797 66.1174 207.797C66.4325 207.797 66.7073 207.852 66.9417 207.964C67.176 208.074 67.3583 208.247 67.4885 208.484C67.6187 208.718 67.6838 209.023 67.6838 209.398V212.246H66.4924V209.695C66.4924 209.382 66.4351 209.147 66.3206 208.988C66.206 208.829 66.0289 208.75 65.7893 208.75C65.5497 208.75 65.3609 208.806 65.2229 208.918C65.0849 209.027 64.9872 209.19 64.9299 209.406C64.8726 209.619 64.844 209.881 64.844 210.191V212.246H63.6526V206.168H64.844ZM70.1018 207.879V212.246H68.9104V207.879H70.1018ZM69.5081 206.168C69.6851 206.168 69.8375 206.209 69.9651 206.293C70.0927 206.373 70.1565 206.526 70.1565 206.75C70.1565 206.971 70.0927 207.125 69.9651 207.211C69.8375 207.294 69.6851 207.336 69.5081 207.336C69.3284 207.336 69.1747 207.294 69.0471 207.211C68.9221 207.125 68.8596 206.971 68.8596 206.75C68.8596 206.526 68.9221 206.373 69.0471 206.293C69.1747 206.209 69.3284 206.168 69.5081 206.168ZM73.8362 207.797C74.3023 207.797 74.6773 207.924 74.9612 208.179C75.245 208.432 75.387 208.838 75.387 209.398V212.246H74.1956V209.695C74.1956 209.382 74.1383 209.147 74.0237 208.988C73.9117 208.829 73.7346 208.75 73.4924 208.75C73.1278 208.75 72.8792 208.873 72.7463 209.121C72.6135 209.368 72.5471 209.725 72.5471 210.191V212.246H71.3557V207.879H72.2659L72.426 208.437H72.4924C72.5862 208.286 72.7021 208.164 72.8401 208.07C72.9807 207.976 73.1357 207.907 73.3049 207.863C73.4768 207.819 73.6539 207.797 73.8362 207.797ZM80.5823 210.054C80.5823 210.419 80.5328 210.742 80.4338 211.023C80.3375 211.304 80.1956 211.543 80.0081 211.738C79.8232 211.931 79.5992 212.076 79.3362 212.175C79.0758 212.274 78.7815 212.324 78.4534 212.324C78.1461 212.324 77.8635 212.274 77.6057 212.175C77.3505 212.076 77.1278 211.931 76.9377 211.738C76.7502 211.543 76.6044 211.304 76.5002 211.023C76.3987 210.742 76.3479 210.419 76.3479 210.054C76.3479 209.57 76.4338 209.16 76.6057 208.824C76.7776 208.488 77.0224 208.233 77.3401 208.058C77.6578 207.884 78.0367 207.797 78.4768 207.797C78.8857 207.797 79.2476 207.884 79.5627 208.058C79.8805 208.233 80.1292 208.488 80.3088 208.824C80.4911 209.16 80.5823 209.57 80.5823 210.054ZM77.5627 210.054C77.5627 210.341 77.594 210.582 77.6565 210.777C77.719 210.972 77.8167 211.119 77.9495 211.218C78.0823 211.317 78.2555 211.367 78.469 211.367C78.6799 211.367 78.8505 211.317 78.9807 211.218C79.1135 211.119 79.2099 210.972 79.2698 210.777C79.3323 210.582 79.3635 210.341 79.3635 210.054C79.3635 209.765 79.3323 209.526 79.2698 209.336C79.2099 209.143 79.1135 208.998 78.9807 208.902C78.8479 208.806 78.6747 208.757 78.4612 208.757C78.1461 208.757 77.9169 208.866 77.7737 209.082C77.6331 209.298 77.5627 209.622 77.5627 210.054ZM84.6135 210.949C84.6135 211.246 84.5432 211.497 84.4026 211.703C84.2646 211.906 84.0575 212.061 83.7815 212.168C83.5055 212.272 83.1617 212.324 82.7502 212.324C82.4456 212.324 82.1838 212.304 81.9651 212.265C81.7489 212.226 81.5302 212.161 81.3088 212.07V211.086C81.5458 211.192 81.7997 211.281 82.0706 211.351C82.344 211.419 82.5836 211.453 82.7893 211.453C83.0211 211.453 83.1864 211.419 83.2854 211.351C83.387 211.281 83.4377 211.19 83.4377 211.078C83.4377 211.005 83.4169 210.94 83.3752 210.882C83.3362 210.823 83.2502 210.756 83.1174 210.683C82.9846 210.608 82.7763 210.51 82.4924 210.39C82.219 210.276 81.9937 210.16 81.8167 210.043C81.6422 209.925 81.512 209.787 81.426 209.629C81.3427 209.467 81.301 209.263 81.301 209.015C81.301 208.612 81.4573 208.308 81.7698 208.105C82.0849 207.899 82.5055 207.797 83.0315 207.797C83.3023 207.797 83.5601 207.824 83.8049 207.879C84.0523 207.933 84.3062 208.02 84.5667 208.14L84.2073 209C83.9911 208.906 83.7867 208.829 83.594 208.769C83.4039 208.709 83.2099 208.679 83.012 208.679C82.8375 208.679 82.706 208.703 82.6174 208.75C82.5289 208.797 82.4846 208.868 82.4846 208.964C82.4846 209.035 82.5068 209.097 82.551 209.152C82.5979 209.207 82.6864 209.268 82.8167 209.336C82.9495 209.401 83.1435 209.485 83.3987 209.589C83.6461 209.691 83.8609 209.798 84.0432 209.91C84.2255 210.019 84.3661 210.156 84.4651 210.32C84.564 210.481 84.6135 210.691 84.6135 210.949ZM85.3752 211.687C85.3752 211.442 85.4417 211.27 85.5745 211.172C85.7099 211.073 85.8726 211.023 86.0627 211.023C86.2476 211.023 86.4065 211.073 86.5393 211.172C86.6747 211.27 86.7424 211.442 86.7424 211.687C86.7424 211.922 86.6747 212.091 86.5393 212.195C86.4065 212.299 86.2476 212.351 86.0627 212.351C85.8726 212.351 85.7099 212.299 85.5745 212.195C85.4417 212.091 85.3752 211.922 85.3752 211.687ZM93.3674 210.66C93.3674 210.998 93.2854 211.293 93.1213 211.543C92.9573 211.793 92.7177 211.985 92.4026 212.121C92.0901 212.256 91.7099 212.324 91.262 212.324C91.064 212.324 90.87 212.311 90.6799 212.285C90.4924 212.259 90.3114 212.221 90.137 212.172C89.9651 212.119 89.801 212.056 89.6448 211.98V210.855C89.9156 210.975 90.1969 211.083 90.4885 211.179C90.7802 211.276 91.0693 211.324 91.3557 211.324C91.5536 211.324 91.7125 211.298 91.8323 211.246C91.9547 211.194 92.0432 211.122 92.0979 211.031C92.1526 210.94 92.1799 210.836 92.1799 210.718C92.1799 210.575 92.1318 210.453 92.0354 210.351C91.939 210.25 91.8062 210.155 91.637 210.066C91.4703 209.977 91.2815 209.882 91.0706 209.781C90.9377 209.718 90.7932 209.643 90.637 209.554C90.4807 209.463 90.3323 209.352 90.1917 209.222C90.051 209.092 89.9351 208.935 89.844 208.75C89.7555 208.562 89.7112 208.338 89.7112 208.078C89.7112 207.737 89.7893 207.445 89.9456 207.203C90.1018 206.961 90.3245 206.776 90.6135 206.648C90.9052 206.518 91.2489 206.453 91.6448 206.453C91.9417 206.453 92.2242 206.488 92.4924 206.558C92.7633 206.626 93.0458 206.725 93.3401 206.855L92.9495 207.797C92.6864 207.69 92.4508 207.608 92.2424 207.55C92.0341 207.491 91.8219 207.461 91.6057 207.461C91.4547 207.461 91.3258 207.485 91.219 207.535C91.1122 207.582 91.0315 207.649 90.9768 207.738C90.9221 207.824 90.8948 207.924 90.8948 208.039C90.8948 208.174 90.9338 208.289 91.012 208.382C91.0927 208.474 91.2125 208.562 91.3713 208.648C91.5328 208.734 91.7333 208.834 91.9729 208.949C92.2646 209.087 92.5133 209.231 92.719 209.382C92.9273 209.531 93.0875 209.707 93.1995 209.91C93.3114 210.11 93.3674 210.36 93.3674 210.66ZM96.0979 207.789C96.6838 207.789 97.1331 207.916 97.4456 208.172C97.7581 208.427 97.9143 208.815 97.9143 209.336V212.246H97.0823L96.8518 211.652H96.8206C96.6956 211.808 96.568 211.936 96.4377 212.035C96.3075 212.134 96.1578 212.207 95.9885 212.254C95.8193 212.3 95.6135 212.324 95.3713 212.324C95.1135 212.324 94.8818 212.274 94.676 212.175C94.4729 212.076 94.3127 211.925 94.1956 211.722C94.0784 211.517 94.0198 211.256 94.0198 210.941C94.0198 210.477 94.1825 210.136 94.5081 209.918C94.8336 209.696 95.3219 209.574 95.9729 209.55L96.7307 209.527V209.336C96.7307 209.106 96.6708 208.938 96.551 208.832C96.4312 208.725 96.2646 208.672 96.051 208.672C95.8401 208.672 95.6331 208.701 95.4299 208.761C95.2268 208.821 95.0237 208.897 94.8206 208.988L94.426 208.183C94.6578 208.061 94.9169 207.964 95.2034 207.894C95.4924 207.824 95.7906 207.789 96.0979 207.789ZM96.7307 210.222L96.2698 210.238C95.8844 210.248 95.6161 210.317 95.4651 210.445C95.3167 210.573 95.2424 210.741 95.2424 210.949C95.2424 211.131 95.2958 211.261 95.4026 211.339C95.5094 211.415 95.6487 211.453 95.8206 211.453C96.0758 211.453 96.2906 211.377 96.4651 211.226C96.6422 211.075 96.7307 210.86 96.7307 210.582V210.222ZM100.184 212.246L98.5198 207.879H99.7659L100.61 210.367C100.656 210.513 100.693 210.666 100.719 210.828C100.748 210.989 100.767 211.134 100.778 211.261H100.809C100.817 211.123 100.835 210.976 100.864 210.82C100.895 210.664 100.935 210.513 100.985 210.367L101.824 207.879H103.071L101.406 212.246H100.184ZM105.5 207.797C105.904 207.797 106.252 207.875 106.543 208.031C106.835 208.185 107.06 208.408 107.219 208.703C107.378 208.997 107.457 209.356 107.457 209.781V210.359H104.641C104.654 210.695 104.754 210.959 104.942 211.152C105.132 211.342 105.395 211.437 105.731 211.437C106.009 211.437 106.265 211.408 106.496 211.351C106.728 211.294 106.966 211.208 107.211 211.093V212.015C106.995 212.122 106.768 212.2 106.531 212.25C106.297 212.299 106.012 212.324 105.676 212.324C105.239 212.324 104.851 212.243 104.512 212.082C104.176 211.92 103.912 211.674 103.719 211.343C103.529 211.013 103.434 210.596 103.434 210.093C103.434 209.583 103.52 209.158 103.692 208.82C103.866 208.479 104.108 208.224 104.418 208.054C104.728 207.882 105.089 207.797 105.5 207.797ZM105.508 208.644C105.276 208.644 105.084 208.718 104.93 208.867C104.779 209.015 104.692 209.248 104.668 209.566H106.34C106.337 209.389 106.305 209.231 106.242 209.093C106.183 208.955 106.091 208.846 105.969 208.765C105.849 208.685 105.696 208.644 105.508 208.644ZM112.344 211.375C112.474 211.375 112.601 211.362 112.723 211.336C112.848 211.31 112.972 211.277 113.094 211.238V212.125C112.966 212.182 112.808 212.229 112.617 212.265C112.43 212.304 112.224 212.324 112 212.324C111.74 212.324 111.505 212.282 111.297 212.199C111.091 212.113 110.929 211.966 110.809 211.757C110.692 211.547 110.633 211.254 110.633 210.879V208.773H110.063V208.269L110.719 207.871L111.063 206.949H111.824V207.879H113.047V208.773H111.824V210.879C111.824 211.045 111.871 211.17 111.965 211.254C112.061 211.334 112.188 211.375 112.344 211.375ZM115.172 206.168V207.406C115.172 207.622 115.164 207.828 115.149 208.023C115.136 208.218 115.125 208.356 115.117 208.437H115.18C115.274 208.286 115.384 208.164 115.512 208.07C115.642 207.976 115.785 207.907 115.942 207.863C116.098 207.819 116.266 207.797 116.446 207.797C116.761 207.797 117.035 207.852 117.27 207.964C117.504 208.074 117.686 208.247 117.817 208.484C117.947 208.718 118.012 209.023 118.012 209.398V212.246H116.821V209.695C116.821 209.382 116.763 209.147 116.649 208.988C116.534 208.829 116.357 208.75 116.117 208.75C115.878 208.75 115.689 208.806 115.551 208.918C115.413 209.027 115.315 209.19 115.258 209.406C115.201 209.619 115.172 209.881 115.172 210.191V212.246H113.981V206.168H115.172ZM121.039 207.797C121.443 207.797 121.791 207.875 122.082 208.031C122.374 208.185 122.599 208.408 122.758 208.703C122.917 208.997 122.996 209.356 122.996 209.781V210.359H120.18C120.193 210.695 120.293 210.959 120.481 211.152C120.671 211.342 120.934 211.437 121.27 211.437C121.548 211.437 121.804 211.408 122.035 211.351C122.267 211.294 122.505 211.208 122.75 211.093V212.015C122.534 212.122 122.308 212.2 122.071 212.25C121.836 212.299 121.551 212.324 121.215 212.324C120.778 212.324 120.39 212.243 120.051 212.082C119.715 211.92 119.451 211.674 119.258 211.343C119.068 211.013 118.973 210.596 118.973 210.093C118.973 209.583 119.059 209.158 119.231 208.82C119.405 208.479 119.647 208.224 119.957 208.054C120.267 207.882 120.628 207.797 121.039 207.797ZM121.047 208.644C120.815 208.644 120.623 208.718 120.469 208.867C120.318 209.015 120.231 209.248 120.207 209.566H121.879C121.877 209.389 121.844 209.231 121.781 209.093C121.722 208.955 121.63 208.846 121.508 208.765C121.388 208.685 121.235 208.644 121.047 208.644ZM128.457 208.773H127.426V212.246H126.235V208.773H125.578V208.199L126.235 207.879V207.558C126.235 207.186 126.297 206.897 126.422 206.691C126.55 206.483 126.728 206.337 126.957 206.254C127.189 206.168 127.462 206.125 127.778 206.125C128.009 206.125 128.22 206.144 128.41 206.183C128.601 206.22 128.755 206.261 128.875 206.308L128.571 207.183C128.479 207.155 128.38 207.129 128.274 207.105C128.167 207.082 128.045 207.07 127.906 207.07C127.74 207.07 127.617 207.121 127.539 207.222C127.464 207.321 127.426 207.449 127.426 207.605V207.879H128.457V208.773ZM131.582 207.797C131.642 207.797 131.711 207.8 131.789 207.808C131.87 207.813 131.935 207.821 131.985 207.832L131.895 208.949C131.856 208.936 131.8 208.927 131.727 208.922C131.656 208.914 131.595 208.91 131.543 208.91C131.39 208.91 131.24 208.929 131.094 208.968C130.951 209.007 130.822 209.071 130.707 209.16C130.593 209.246 130.502 209.36 130.434 209.504C130.369 209.644 130.336 209.817 130.336 210.023V212.246H129.145V207.879H130.047L130.223 208.613H130.281C130.367 208.464 130.474 208.329 130.602 208.207C130.732 208.082 130.879 207.983 131.043 207.91C131.21 207.834 131.39 207.797 131.582 207.797ZM136.785 207.879V212.246H135.871L135.711 211.687H135.649C135.555 211.836 135.438 211.957 135.297 212.05C135.156 212.144 135.002 212.213 134.832 212.257C134.663 212.302 134.487 212.324 134.305 212.324C133.992 212.324 133.72 212.269 133.489 212.16C133.257 212.048 133.076 211.875 132.946 211.64C132.818 211.406 132.754 211.101 132.754 210.726V207.879H133.946V210.429C133.946 210.742 134.002 210.977 134.114 211.136C134.226 211.295 134.404 211.375 134.649 211.375C134.891 211.375 135.081 211.32 135.219 211.211C135.357 211.099 135.453 210.936 135.508 210.722C135.565 210.506 135.594 210.243 135.594 209.933V207.879H136.785ZM139.227 207.879V212.246H138.035V207.879H139.227ZM138.633 206.168C138.81 206.168 138.962 206.209 139.09 206.293C139.218 206.373 139.281 206.526 139.281 206.75C139.281 206.971 139.218 207.125 139.09 207.211C138.962 207.294 138.81 207.336 138.633 207.336C138.453 207.336 138.3 207.294 138.172 207.211C138.047 207.125 137.985 206.971 137.985 206.75C137.985 206.526 138.047 206.373 138.172 206.293C138.3 206.209 138.453 206.168 138.633 206.168ZM142.321 211.375C142.451 211.375 142.577 211.362 142.699 211.336C142.824 211.31 142.948 211.277 143.071 211.238V212.125C142.943 212.182 142.784 212.229 142.594 212.265C142.406 212.304 142.201 212.324 141.977 212.324C141.716 212.324 141.482 212.282 141.274 212.199C141.068 212.113 140.905 211.966 140.785 211.757C140.668 211.547 140.61 211.254 140.61 210.879V208.773H140.039V208.269L140.696 207.871L141.039 206.949H141.801V207.879H143.024V208.773H141.801V210.879C141.801 211.045 141.848 211.17 141.942 211.254C142.038 211.334 142.164 211.375 142.321 211.375ZM147.004 210.949C147.004 211.246 146.934 211.497 146.793 211.703C146.655 211.906 146.448 212.061 146.172 212.168C145.896 212.272 145.552 212.324 145.141 212.324C144.836 212.324 144.574 212.304 144.356 212.265C144.14 212.226 143.921 212.161 143.699 212.07V211.086C143.936 211.192 144.19 211.281 144.461 211.351C144.735 211.419 144.974 211.453 145.18 211.453C145.412 211.453 145.577 211.419 145.676 211.351C145.778 211.281 145.828 211.19 145.828 211.078C145.828 211.005 145.808 210.94 145.766 210.882C145.727 210.823 145.641 210.756 145.508 210.683C145.375 210.608 145.167 210.51 144.883 210.39C144.61 210.276 144.384 210.16 144.207 210.043C144.033 209.925 143.903 209.787 143.817 209.629C143.733 209.467 143.692 209.263 143.692 209.015C143.692 208.612 143.848 208.308 144.16 208.105C144.476 207.899 144.896 207.797 145.422 207.797C145.693 207.797 145.951 207.824 146.196 207.879C146.443 207.933 146.697 208.02 146.957 208.14L146.598 209C146.382 208.906 146.177 208.829 145.985 208.769C145.795 208.709 145.601 208.679 145.403 208.679C145.228 208.679 145.097 208.703 145.008 208.75C144.92 208.797 144.875 208.868 144.875 208.964C144.875 209.035 144.897 209.097 144.942 209.152C144.989 209.207 145.077 209.268 145.207 209.336C145.34 209.401 145.534 209.485 145.789 209.589C146.037 209.691 146.252 209.798 146.434 209.91C146.616 210.019 146.757 210.156 146.856 210.32C146.955 210.481 147.004 210.691 147.004 210.949ZM147.766 211.687C147.766 211.442 147.832 211.27 147.965 211.172C148.101 211.073 148.263 211.023 148.453 211.023C148.638 211.023 148.797 211.073 148.93 211.172C149.065 211.27 149.133 211.442 149.133 211.687C149.133 211.922 149.065 212.091 148.93 212.195C148.797 212.299 148.638 212.351 148.453 212.351C148.263 212.351 148.101 212.299 147.965 212.195C147.832 212.091 147.766 211.922 147.766 211.687Z" fill="black"/>
<path d="M139.613 361.049H134.432V359.779L136.175 358.016C136.537 357.639 136.817 357.336 137.015 357.108C137.217 356.88 137.359 356.687 137.44 356.527C137.521 356.368 137.562 356.202 137.562 356.029C137.562 355.817 137.494 355.664 137.357 355.57C137.22 355.476 137.059 355.428 136.874 355.428C136.649 355.428 136.421 355.494 136.19 355.624C135.962 355.751 135.703 355.94 135.414 356.19L134.354 354.95C134.569 354.758 134.797 354.576 135.038 354.403C135.278 354.227 135.563 354.084 135.892 353.973C136.221 353.863 136.621 353.807 137.093 353.807C137.578 353.807 137.998 353.892 138.353 354.061C138.711 354.231 138.988 354.463 139.183 354.76C139.378 355.052 139.476 355.386 139.476 355.76C139.476 356.174 139.4 356.543 139.247 356.869C139.097 357.191 138.871 357.515 138.568 357.841C138.265 358.163 137.888 358.529 137.435 358.939L136.913 359.408V359.457H139.613V361.049ZM143.236 356.371C143.633 356.371 143.994 356.46 144.32 356.639C144.645 356.818 144.906 357.079 145.101 357.421C145.296 357.762 145.394 358.179 145.394 358.671C145.394 359.201 145.287 359.652 145.072 360.023C144.86 360.391 144.54 360.671 144.11 360.863C143.683 361.052 143.145 361.146 142.494 361.146C142.08 361.146 141.703 361.114 141.361 361.049C141.022 360.987 140.72 360.891 140.453 360.76V359.178C140.703 359.292 141.004 359.397 141.356 359.491C141.711 359.582 142.036 359.628 142.333 359.628C142.57 359.628 142.772 359.594 142.938 359.525C143.104 359.457 143.229 359.356 143.314 359.222C143.402 359.089 143.446 358.925 143.446 358.729C143.446 358.459 143.348 358.247 143.153 358.094C142.958 357.938 142.661 357.86 142.264 357.86C142.085 357.86 141.909 357.878 141.737 357.914C141.564 357.95 141.413 357.989 141.283 358.031L140.575 357.679L140.843 353.91H144.916V355.516H142.484L142.396 356.459C142.5 356.439 142.606 356.42 142.713 356.4C142.824 356.381 142.998 356.371 143.236 356.371ZM151.361 357.489C151.361 358.062 151.315 358.575 151.224 359.027C151.133 359.476 150.986 359.859 150.785 360.175C150.586 360.49 150.322 360.731 149.994 360.897C149.665 361.063 149.261 361.146 148.783 361.146C148.187 361.146 147.699 361.001 147.318 360.712C146.937 360.419 146.655 360 146.473 359.457C146.294 358.91 146.205 358.254 146.205 357.489C146.205 356.718 146.286 356.058 146.449 355.511C146.615 354.961 146.887 354.54 147.264 354.247C147.642 353.954 148.148 353.807 148.783 353.807C149.378 353.807 149.865 353.954 150.243 354.247C150.624 354.537 150.905 354.956 151.087 355.507C151.27 356.053 151.361 356.714 151.361 357.489ZM148.124 357.489C148.124 357.955 148.14 358.345 148.172 358.661C148.208 358.977 148.273 359.214 148.368 359.374C148.465 359.53 148.604 359.608 148.783 359.608C148.962 359.608 149.098 359.53 149.193 359.374C149.287 359.214 149.352 358.978 149.388 358.666C149.424 358.35 149.442 357.958 149.442 357.489C149.442 357.017 149.424 356.623 149.388 356.307C149.352 355.992 149.287 355.754 149.193 355.594C149.098 355.432 148.962 355.35 148.783 355.35C148.604 355.35 148.465 355.432 148.368 355.594C148.273 355.754 148.208 355.992 148.172 356.307C148.14 356.623 148.124 357.017 148.124 357.489ZM161.722 355.419C162.354 355.419 162.835 355.58 163.167 355.902C163.503 356.224 163.67 356.74 163.67 357.45V361.049H161.761V358.041C161.761 357.621 161.704 357.33 161.59 357.167C161.48 357.001 161.314 356.918 161.092 356.918C160.783 356.918 160.568 357.053 160.448 357.323C160.331 357.593 160.272 357.976 160.272 358.47V361.049H158.358V358.041C158.358 357.774 158.333 357.559 158.285 357.396C158.239 357.23 158.169 357.11 158.075 357.035C157.98 356.957 157.861 356.918 157.718 356.918C157.5 356.918 157.329 356.984 157.206 357.118C157.085 357.248 157 357.44 156.952 357.694C156.903 357.948 156.878 358.259 156.878 358.627V361.049H154.969V355.516H156.41L156.688 356.2H156.742C156.839 356.05 156.965 355.917 157.118 355.8C157.274 355.682 157.458 355.59 157.669 355.521C157.884 355.453 158.128 355.419 158.402 355.419C158.809 355.419 159.144 355.487 159.408 355.624C159.671 355.76 159.886 355.949 160.052 356.19H160.111C160.287 355.943 160.513 355.752 160.79 355.619C161.066 355.485 161.377 355.419 161.722 355.419ZM166.878 361.049H164.969V353.451H166.878V361.049Z" fill="#482F50"/>
<path d="M24.2905 256.714C23.5011 256.714 22.8078 256.65 22.2105 256.522C21.6131 256.394 21.0905 256.084 20.6425 255.594C20.2158 255.103 20.0025 254.346 20.0025 253.322C20.0025 251.892 20.4291 249.972 21.2825 247.562C22.1571 245.151 23.2985 242.73 24.7065 240.298C23.6398 240.362 22.7971 240.522 22.1785 240.778C21.5598 241.034 21.1545 241.428 20.9625 241.962C21.0478 241.962 21.1331 242.068 21.2185 242.282C21.3251 242.495 21.3785 242.719 21.3785 242.954C21.3785 243.338 21.2078 243.647 20.8665 243.882C20.5251 244.095 20.0985 244.202 19.5865 244.202C18.9891 244.202 18.5091 244.042 18.1465 243.722C17.7838 243.402 17.6025 242.943 17.6025 242.346C17.6025 241.62 17.8798 240.959 18.4345 240.362C19.0105 239.764 19.7998 239.295 20.8025 238.954C21.8051 238.591 22.9145 238.41 24.1305 238.41C24.5785 238.41 25.1331 238.442 25.7945 238.506C27.5438 235.732 29.3891 233.471 31.3305 231.722C33.2931 229.951 35.1598 229.066 36.9305 229.066C37.9545 229.066 38.7971 229.215 39.4585 229.514L34.4345 253.066H29.8265L32.2905 241.45C31.5011 241.087 30.7758 240.82 30.1145 240.65C29.4531 240.479 28.7491 240.362 28.0025 240.298C26.7865 242.922 25.7838 245.61 24.9945 248.362C24.2265 251.092 23.8425 253.279 23.8425 254.922C23.8425 255.732 23.9918 256.33 24.2905 256.714ZM34.4345 231.338C33.5171 231.828 32.5571 232.746 31.5545 234.09C30.5731 235.412 29.6131 237.023 28.6745 238.922C30.2105 239.22 31.5118 239.594 32.5785 240.042L34.4345 231.338ZM39.8735 243.434H46.2735L45.7295 245.962H39.2975L39.8735 243.434ZM60.3547 253.61C59.5014 253.61 58.7547 253.428 58.1147 253.066C57.496 252.724 57.1867 252.116 57.1867 251.242C57.1867 250.687 57.3254 250.068 57.6027 249.386C57.9867 249.812 58.3387 250.111 58.6587 250.282C59 250.452 59.3627 250.538 59.7467 250.538C60.8134 250.538 61.6027 249.94 62.1147 248.746C62.648 247.551 62.9147 246.228 62.9147 244.778C62.9147 242.068 61.9014 240.714 59.8747 240.714C59.2987 240.714 58.808 240.746 58.4027 240.81L55.7787 253.066H51.1707L55.5227 232.714L60.2587 232.074L58.7547 239.178H58.9467C59.7574 239.178 60.5147 238.922 61.2187 238.41C61.9227 237.876 62.488 237.215 62.9147 236.426C63.3414 235.615 63.5547 234.804 63.5547 233.994C63.5547 233.012 63.2027 232.191 62.4987 231.53C61.816 230.868 60.76 230.538 59.3307 230.538C58.0294 230.538 56.76 230.836 55.5227 231.434C54.2854 232.01 53.272 232.884 52.4827 234.058C51.7147 235.231 51.3307 236.65 51.3307 238.314C51.3307 239.103 51.4054 239.658 51.5547 239.978C51.704 240.276 51.7787 240.447 51.7787 240.49C50.648 240.49 49.7947 240.266 49.2187 239.818C48.6427 239.348 48.3547 238.591 48.3547 237.546C48.3547 236.095 48.8987 234.719 49.9867 233.418C51.0747 232.116 52.5147 231.071 54.3067 230.282C56.0987 229.471 57.9867 229.066 59.9707 229.066C61.464 229.066 62.7227 229.3 63.7467 229.77C64.7707 230.239 65.528 230.858 66.0187 231.626C66.5307 232.394 66.7867 233.236 66.7867 234.154C66.7867 235.135 66.5094 236.084 65.9547 237.002C65.4 237.919 64.6107 238.666 63.5867 239.242C64.8667 239.476 65.816 240.074 66.4347 241.034C67.0534 241.972 67.3627 243.092 67.3627 244.394C67.3627 245.61 67.128 246.932 66.6587 248.362C66.2107 249.791 65.4534 251.028 64.3867 252.074C63.3414 253.098 61.9974 253.61 60.3547 253.61ZM73.8147 235.338C73.1107 235.338 72.5134 235.092 72.0227 234.602C71.532 234.111 71.2867 233.514 71.2867 232.81C71.2867 232.106 71.532 231.508 72.0227 231.018C72.5134 230.506 73.1107 230.25 73.8147 230.25C74.5187 230.25 75.116 230.506 75.6067 231.018C76.1187 231.508 76.3747 232.106 76.3747 232.81C76.3747 233.514 76.1187 234.111 75.6067 234.602C75.116 235.092 74.5187 235.338 73.8147 235.338ZM71.6387 253.258C70.6147 253.258 69.7827 252.938 69.1427 252.298C68.524 251.658 68.2147 250.698 68.2147 249.418C68.2147 248.884 68.3 248.191 68.4707 247.338L70.6467 237.066H75.2547L72.9507 247.946C72.8654 248.266 72.8227 248.607 72.8227 248.97C72.8227 249.396 72.9187 249.706 73.1107 249.898C73.324 250.068 73.6654 250.154 74.1347 250.154C74.5187 250.154 74.86 250.09 75.1587 249.962C75.0734 251.028 74.6894 251.85 74.0067 252.426C73.3454 252.98 72.556 253.258 71.6387 253.258Z" fill="#80558E"/>
<path d="M107.683 286.69C107.882 288.595 107.998 290.53 108.416 292.401C108.58 293.135 108.876 293.726 108.954 294.47C109.017 295.072 109.153 295.743 109.338 296.322C109.497 296.818 109.488 297.386 109.542 297.902" stroke="black" stroke-width="2" stroke-linecap="round"/>
<path d="M97.536 287.83C97.9752 292.021 102.788 296.719 96.364 296.494" stroke="black" stroke-width="2" stroke-linecap="round"/>
<path d="M109.807 298.254C110.643 298.191 111.478 298.307 112.313 298.22" stroke="black" stroke-width="2" stroke-linecap="round"/>
<path d="M96.0878 296.505C96.2676 297.111 96.2945 297.751 96.3601 298.378" stroke="black" stroke-width="2" stroke-linecap="round"/>
<path d="M108.095 262.463C106.581 262.562 103.739 263.118 102.284 264.098L99.4088 264.285L97.6837 264.397C95.2686 264.553 94.7896 263.983 91.7003 264.183C88.611 264.384 86.7535 265.421 85.3117 268.156C83.7261 271.164 84.0906 274.252 84.2534 276.429C84.4162 278.606 86.4741 283.432 87.7791 285.717C89.6473 288.987 90.5285 289.257 92.4898 290.072C94.0792 290.733 97.658 290.47 98.649 289.673C99.1174 289.296 100.225 289.113 101.294 289.501C103.65 290.357 106.47 289.269 109.999 287.94C113.529 286.611 116.14 283.175 116.873 281.477C117.606 279.78 119.221 276.559 119.043 274.172C118.493 266.824 117.576 266.87 115.629 264.831C113.681 262.792 109.608 262.365 108.095 262.463Z" fill="#931F1F"/>
<path d="M100.046 265.85L99.486 258.362C98.7171 258.138 97.2248 258.136 97.4077 259.912C97.4105 260.002 97.4212 260.098 97.4423 260.187C97.7109 262.024 98.8514 265.209 99.4152 266.636L100.046 265.85Z" fill="#6D4635"/>
<path d="M100.019 265.482L99.5096 258.674C99.1366 258.45 98.4265 258.406 98.571 260.022C98.5753 260.104 98.5835 260.191 98.5964 260.273C98.7837 261.946 99.4295 264.867 99.744 266.177L100.019 265.482Z" fill="#5B3B2D"/>
<path d="M107.875 263.134C106.534 263.221 103.374 263.666 102.087 264.55L100.49 265.601C99.6745 265.654 98.6155 265.356 97.5619 264.844C96.5083 264.332 94.0738 264.029 90.6952 264.248C87.3166 264.468 86.3141 265.361 85.0403 267.832C83.6396 270.549 83.9667 273.34 84.1138 275.308C84.261 277.276 85.6802 281.899 87.25 283.707C88.613 285.276 88.6578 285.875 91.2662 286.759C92.2206 287.082 95.7267 287.37 96.8858 287.295L99.2291 287.143C101.466 286.998 103.814 286.939 106.94 285.742C110.066 284.545 112.374 281.442 113.021 279.909C113.668 278.376 115.095 275.466 114.933 273.308C114.437 266.666 113.624 266.706 111.896 264.861C110.168 263.017 109.215 263.047 107.875 263.134Z" fill="#B32222"/>
<path d="M107.012 263.19C105.876 263.263 103.833 263.648 101.969 264.373C100.105 265.097 98.907 265.302 98.907 265.302C98.907 265.302 98.4355 265.178 97.2426 264.679C96.0497 264.181 93.3129 264.078 90.4511 264.264C87.5894 264.45 86.5409 264.518 84.7712 267.276C83.0016 270.035 83.8517 271.806 83.9726 273.423C84.0936 275.041 85.635 278.626 86.613 280.323C88.0129 282.752 88.6739 282.952 90.1451 283.557C91.3373 284.046 93.2662 284.229 94.1353 284.173L97.528 283.953C99.4122 283.831 100.635 282.953 103.284 281.964C105.934 280.975 107.986 279.316 109.002 278.211C110.017 277.106 110.445 275.109 110.595 272.474C110.82 268.521 110.586 266.699 109.126 265.186C108.673 264.716 108.148 263.116 107.012 263.19Z" fill="#C92121"/>
<path d="M107.295 263.883C108.128 264.211 109.326 265.282 109.614 265.537L111.199 266.637L111.671 272.951L111.988 277.197L114.083 276.623C114.455 275.669 115.211 273.465 115.261 272.281C115.324 270.8 114.784 267.444 113.964 265.747C113.143 264.05 110.988 263.041 108.996 262.678C107.004 262.315 105.373 262.913 103.455 263.53C101.536 264.147 101.43 264.263 100.768 264.689C100.106 265.115 99.478 265.21 98.5254 264.834C97.7633 264.534 95.2401 264.172 94.201 264.185C94.3692 264.375 96.181 264.855 97.4979 265.776C98.8149 266.697 99.7222 266.416 100.011 266.16C101.137 265.759 103.262 264.144 104.305 264.077C105.11 264.024 106.461 263.554 107.295 263.883Z" fill="#B32222"/>
<path d="M93.1053 269.019C92.6413 266.861 91.055 271.561 90.213 272.098C89.3711 272.635 87.7283 273.032 87.0672 272.764C85.8476 272.271 86.6728 273.428 87.3328 275.299C87.9929 277.17 89.3123 277.741 90.2715 278.553C91.2308 279.366 92.782 278.609 94.2826 276.543C95.7832 274.477 93.6852 271.715 93.1053 269.019Z" fill="#EB3333"/>
<path d="M92.326 272.747C92.3666 271.171 91.4363 272.315 90.8472 272.565C90.7135 272.551 90.1047 272.98 88.9062 273.33C88.3695 273.487 87.706 273.378 87.9648 273.99C88.3615 274.58 89.5318 275.372 90.9595 275.872C92.7441 276.497 92.2753 274.717 92.326 272.747Z" fill="#FF4E4E"/>
<path d="M87.5798 265.187C88.2113 264.784 90.4327 264.552 91.0113 264.715C91.5899 264.879 91.6832 265.768 91.7181 266.101C91.8366 267.234 91.7117 267.112 91.4949 268.258C91.2781 269.404 90.0321 271.443 89.2896 271.858C88.547 272.272 86.6123 272.026 85.9226 271.874C85.2329 271.722 84.485 271.014 84.5146 270.225C84.5442 269.436 85.018 268.6 85.4919 267.764C85.9657 266.929 86.9484 265.59 87.5798 265.187Z" fill="#EDC45B"/>
<path d="M91.0116 264.715C90.433 264.552 91.239 265.814 90.835 267.317C90.7079 267.789 90.6793 267.929 90.6752 267.964C90.6599 267.98 90.5796 268.139 90.2322 269.064C89.8318 270.13 89.9688 269.765 89.4305 271.057C89.1267 271.786 85.2332 271.721 85.9228 271.874C86.6125 272.026 88.5473 272.272 89.2898 271.858C90.0324 271.443 91.2783 269.404 91.4951 268.258C91.7119 267.112 91.8368 267.234 91.7183 266.101C91.6835 265.768 91.5902 264.879 91.0116 264.715Z" fill="#D7AC3E"/>
<path d="M97.7341 275.945C95.4755 276.902 93.1037 277.395 90.6752 277.725C89.0632 277.943 87.4302 278.122 85.8078 278.243C84.4071 278.347 83.2046 278.275 81.9144 277.696C80.4722 277.05 78.9114 276.272 77.6253 275.349C77.2959 275.113 77.0315 274.817 76.821 274.487" stroke="black" stroke-width="2" stroke-linecap="round"/>
<path d="M117.55 271.283C118.434 270.536 119.458 269.704 120.087 268.727C120.25 268.475 120.269 268.026 120.339 267.738C120.471 267.193 120.539 266.64 120.617 266.086C120.779 264.944 120.518 263.631 120.426 262.486C120.386 261.984 120.267 261.459 120.316 260.955C120.355 260.563 120.419 260.204 120.378 259.808" stroke="black" stroke-width="2" stroke-linecap="round"/>
<path d="M120.335 262.301C120.086 261.482 119.369 260.895 119.112 260.071" stroke="black" stroke-width="2" stroke-linecap="round"/>
<path d="M120.725 261.673C121.11 261.462 121.348 261.226 121.632 260.897C121.771 260.737 121.907 260.56 122.127 260.537" stroke="black" stroke-width="2" stroke-linecap="round"/>
<path d="M78.416 275.917C78.3787 275.561 78.4121 275.059 78.2414 274.736C78.1319 274.528 78.0238 274.359 77.9259 274.143" stroke="black" stroke-width="2" stroke-linecap="round"/>
<path d="M78.2813 276.083C77.8777 275.939 77.428 275.94 77.049 275.773C76.7046 275.621 76.3812 275.549 76.0132 275.485" stroke="black" stroke-width="2" stroke-linecap="round"/>
<path d="M110.553 274.906C109.986 275.22 109.423 275.557 108.872 275.881C108.566 276.061 108.003 276.01 107.648 276.047C106.975 276.118 106.571 276.087 105.921 275.899C105.589 275.802 105.386 275.603 105.062 275.482" stroke="black" stroke-width="2" stroke-linecap="round"/>
<path d="M109.209 270.789C109.561 270.83 109.624 270.851 109.594 271.2C109.575 271.426 109.552 271.726 109.442 271.926C109.384 272.031 109.13 272.021 109.025 272.02C108.713 272.018 108.714 271.876 108.686 271.608C108.663 271.39 108.459 270.679 108.738 270.614C108.919 270.572 109.436 270.464 109.595 270.562C109.814 270.698 109.654 271.304 109.585 271.476C109.508 271.668 109.092 271.853 109.062 271.564C109.045 271.403 108.994 271.301 109.152 271.217C109.359 271.108 109.582 271.266 109.38 271.455C109.016 271.797 109.031 271.268 109.007 271.038" stroke="white" stroke-width="2" stroke-linecap="round"/>
<path d="M105.852 270.871C106.204 270.912 106.267 270.933 106.237 271.283C106.218 271.508 106.195 271.808 106.085 272.008C106.027 272.114 105.773 272.103 105.668 272.103C105.356 272.101 105.357 271.958 105.329 271.69C105.306 271.472 105.102 270.761 105.381 270.696C105.562 270.654 106.08 270.546 106.238 270.645C106.457 270.781 106.297 271.387 106.228 271.558C106.151 271.75 105.735 271.935 105.705 271.647C105.688 271.485 105.637 271.383 105.795 271.299C106.002 271.19 106.225 271.348 106.023 271.537C105.659 271.879 105.674 271.351 105.65 271.12" stroke="white" stroke-width="2" stroke-linecap="round"/>
<path d="M105.908 272.293C105.364 272.132 105.322 271.908 105.884 272.068" stroke="black" stroke-width="2" stroke-linecap="round"/>
<path d="M109.524 272.075C108.981 271.913 108.938 271.69 109.501 271.849" stroke="black" stroke-width="2" stroke-linecap="round"/>
<path d="M142.488 255.343C141.251 254.581 140.095 253.552 138.78 252.938C137.3 252.249 135.317 252.318 133.738 252.153C132.043 251.976 130.287 251.596 128.63 252.183C128.042 252.391 127.466 252.631 126.915 252.921" stroke="black" stroke-width="2" stroke-linecap="round"/>
<path d="M129.386 252.154C128.39 252.05 127.526 251.822 126.617 251.41" stroke="black" stroke-width="2" stroke-linecap="round"/>
<path d="M129.362 252.379C128.491 252.812 128.523 253.571 127.823 254.04" stroke="black" stroke-width="2" stroke-linecap="round"/>
<path d="M146.3 289.8C146.095 290.47 145.847 291.06 146.099 291.73" stroke="black" stroke-width="2" stroke-linecap="round"/>
<path d="M146.3 289.8C146.095 290.47 145.847 291.06 146.099 291.73" stroke="black" stroke-width="2" stroke-linecap="round"/>
<path d="M141.477 283.655C141.313 285.537 139.86 288.2 140.696 289.817C141.078 290.556 141.85 291.034 142.592 291.213C143.828 291.51 144.735 290.708 145.946 289.855" stroke="black" stroke-width="2" stroke-linecap="round"/>
<path d="M141.477 283.655C141.313 285.537 139.86 288.2 140.696 289.817C141.078 290.556 141.85 291.034 142.592 291.213C143.828 291.51 144.735 290.708 145.946 289.855" stroke="black" stroke-width="2" stroke-linecap="round"/>
<path d="M149.626 228.611C152.692 226.177 155.212 226.389 157.829 227.458C161.819 231.289 160.679 234.51 160.403 239.057C160.2 242.393 161.818 242.334 162.291 247.221C162.584 250.259 164.216 250.497 167.225 255.52C170.54 261.052 170.727 262.88 170.468 267.13C170.027 274.4 167.954 277.159 166.334 279.992C165.039 282.259 163.502 284.913 159.183 285.713C154.863 286.513 151.966 284.729 151.966 284.729C150.885 284.372 149.066 285.552 146.169 285.505C140.227 285.411 139.678 283.42 136.369 280.039C132.909 276.503 131.273 266.352 133.733 259.866C134.798 257.06 135.93 253.137 140.296 249.953C142.773 245.968 143.132 242.392 144.265 237.345C145.682 231.036 147.694 230.145 149.626 228.611Z" fill="#607D3A"/>
<path d="M150.181 229.37C153.158 227.151 155.401 226.457 157.954 227.435C161.853 230.935 160.429 236.789 160.177 240.939C159.992 243.984 160.343 244.209 160.821 248.671C161.118 251.443 165.476 252.691 167.99 255.305C172.037 259.513 170.754 262.345 170.519 266.224C170.116 272.859 168.107 275.375 166.541 277.96C165.288 280.027 163.801 282.448 159.598 283.174C155.394 283.9 152.566 282.269 152.566 282.269C151.512 281.941 149.794 282.225 146.973 282.18C141.187 282.087 141.591 280.599 138.356 277.51C134.974 274.28 133.939 265.779 136.311 259.861C137.337 257.301 138.001 254.365 142.24 251.463C144.638 247.828 144.897 244.574 145.982 239.968C147.339 234.212 148.306 230.768 150.181 229.37Z" fill="#67883D"/>
<path d="M155.015 228.396L155.727 216.686C154.779 216.245 152.858 216.06 152.753 218.844C152.74 218.984 152.735 219.135 152.745 219.275C152.74 222.164 153.599 227.254 154.052 229.542L155.015 228.396Z" fill="#6D4635"/>
<path d="M155.009 228.497L155.658 217.805C155.216 217.409 154.302 217.254 154.178 219.795C154.168 219.923 154.162 220.061 154.163 220.189C154.084 222.825 154.361 227.465 154.518 229.549L155.009 228.497Z" fill="#5B3B2D"/>
<path d="M153.193 229.507C155.785 227.376 155.957 226.619 158.163 227.553C161.607 229.642 161.767 232.584 162.08 236.52C162.543 242.35 162.624 244.502 163.014 248.779C163.256 251.436 166.485 252.2 167.895 254.649C169.305 257.098 170.666 257.765 170.44 261.483C170.054 267.844 167.334 270.435 165.536 272.535C162.578 275.989 163.246 276 159.528 278.518C155.81 281.037 154.277 279.376 154.277 279.376C153.366 279.064 152.669 278.409 150.224 278.37C145.211 278.29 145.933 277.275 143.148 274.319C140.235 271.227 138.915 264.433 141.003 258.757C141.907 256.301 142.499 253.485 146.188 250.697C148.286 247.21 148.529 244.089 149.495 239.673C150.703 234.153 151.56 230.85 153.193 229.507Z" fill="#6B8F3C"/>
<path d="M153.62 229.529C152.183 229.577 152.062 228.95 152.181 228.631C152.195 228.398 152.522 227.936 153.716 227.955C154.91 227.974 155.386 227.515 155.474 227.283L155.986 228.692C155.796 228.951 155.057 229.482 153.62 229.529Z" fill="#538043"/>
<path d="M154.622 239.205C155.338 235.479 157.787 237.407 158.331 237.512C162.056 240.632 159.654 251.346 161.541 252.778C164.177 254.779 164.669 254.626 165.292 256.413C166.439 259.706 163.88 264.891 158.94 260.449C157.177 258.864 155.178 256.037 154.032 253.05C153.322 251.2 153.92 249.585 154.226 246.49C154.532 243.396 153.884 243.051 154.622 239.205Z" fill="#71993E"/>
<path d="M159.297 244.645C159.271 244.393 159.22 244.143 159.158 243.897C159.173 243.503 159.068 242.729 159.05 242.552C159 242.046 158.997 241.367 158.822 240.919C158.748 240.728 158.693 240.541 158.621 240.355C158.538 240.14 158.427 240.004 158.333 239.807C158.259 239.653 158.066 239.535 157.96 239.431C157.837 239.311 157.649 239.277 157.514 239.304C157.282 239.349 156.95 239.309 156.784 239.594C156.595 239.92 156.617 240.523 156.72 241.07C156.728 241.914 156.902 243.782 157.362 247.298C157.45 247.465 160.692 252.623 159.377 245.167C159.393 245.13 159.391 245.088 159.354 245.043C159.362 245.084 159.369 245.126 159.377 245.167C159.375 245.17 159.373 245.174 159.372 245.177C159.349 244.973 159.309 244.765 159.297 244.645Z" fill="#81A651"/>
<path d="M154.873 295.805C154.793 296.571 154.464 297.9 155.571 298.016" stroke="black" stroke-width="2" stroke-linecap="round"/>
<path d="M154.873 295.805C154.793 296.571 154.464 297.9 155.571 298.016" stroke="black" stroke-width="2" stroke-linecap="round"/>
<path d="M150.493 278.884C150.21 281.597 150.008 284.299 149.784 287.012C149.687 288.188 149.644 289.664 149.943 290.806C150.118 291.474 150.02 292.158 150.235 292.81C150.845 294.669 152.572 296.125 154.568 295.683" stroke="black" stroke-width="2" stroke-linecap="round"/>
<path d="M150.493 278.884C150.21 281.597 150.008 284.299 149.784 287.012C149.687 288.188 149.644 289.664 149.943 290.806C150.118 291.474 150.02 292.158 150.235 292.81C150.845 294.669 152.572 296.125 154.568 295.683" stroke="black" stroke-width="2" stroke-linecap="round"/>
<path d="M153.32 261.612C152.486 262.504 151.846 263.288 150.763 263.869C149.403 264.598 148.056 265.347 146.715 266.109C143.486 267.945 139.446 268.851 135.719 268.428C134.488 268.288 133.579 267.498 132.348 267.393C131.292 267.303 130.231 267.286 129.17 267.175" stroke="#0A0000" stroke-width="2" stroke-linecap="round"/>
<path d="M131.683 267.096C131.172 266.832 130.616 266.619 130.177 266.256" stroke="#0A0000" stroke-width="2" stroke-linecap="round"/>
<path d="M131.548 267.309C131.244 268.344 130.716 268.488 129.795 268.834" stroke="#0A0000" stroke-width="2" stroke-linecap="round"/>
<path d="M140.187 249.994C140.336 250.537 140.417 251.807 139.683 252.035C138.821 252.302 138.792 251.361 138.849 250.815C138.889 250.429 139.872 250.239 139.901 250.489C139.926 250.704 139.905 251.345 139.741 251.478C139.277 251.854 139.075 250.831 139.101 250.576C139.213 249.508 139.876 250.276 140.04 250.915C140.317 251.987 139.37 252.363 139.506 251.061C139.544 250.7 139.244 249.569 140.021 249.888C140.893 250.246 140.318 251.423 139.774 251.772" stroke="white" stroke-width="2" stroke-linecap="round"/>
<path d="M142.797 253.374C142.947 253.918 143.027 255.187 142.293 255.415C141.431 255.683 141.402 254.741 141.459 254.196C141.5 253.809 142.483 253.62 142.512 253.869C142.537 254.084 142.515 254.726 142.352 254.858C141.888 255.234 141.685 254.211 141.712 253.957C141.823 252.888 142.486 253.656 142.651 254.295C142.927 255.367 141.981 255.744 142.117 254.442C142.154 254.08 141.855 252.949 142.631 253.268C143.504 253.627 142.929 254.803 142.384 255.153" stroke="white" stroke-width="2" stroke-linecap="round"/>
<path d="M136.267 254.822C136.417 255.7 136.333 256.592 137.071 257.183C137.236 257.316 137.513 257.449 137.723 257.479C138.074 257.529 138.175 257.828 138.513 257.909C139.278 258.094 139.993 258.399 140.781 258.481C141.569 258.564 142.358 258.646 143.146 258.728" stroke="black" stroke-width="2" stroke-linecap="round"/>
<path d="M141.372 253.713C141.926 253.396 141.589 253.855 141.488 254.144C141.463 254.216 141.448 254.595 141.321 254.567C141.178 254.536 141.237 254.276 141.246 254.191C141.266 253.999 141.228 253.609 141.5 253.578C141.845 253.538 141.742 253.819 141.718 254.054" stroke="black" stroke-width="2" stroke-linecap="round"/>
<path d="M141.372 253.713C141.926 253.396 141.589 253.855 141.488 254.144C141.463 254.216 141.448 254.595 141.321 254.567C141.178 254.536 141.237 254.276 141.246 254.191C141.266 253.999 141.228 253.609 141.5 253.578C141.845 253.538 141.742 253.819 141.718 254.054" stroke="black" stroke-width="2" stroke-linecap="round"/>
<path d="M138.785 250.523C139.339 250.207 139.002 250.665 138.901 250.955C138.877 251.026 138.861 251.406 138.734 251.378C138.591 251.347 138.65 251.087 138.659 251.002C138.679 250.81 138.642 250.42 138.914 250.389C139.259 250.349 139.156 250.629 139.131 250.865" stroke="black" stroke-width="2" stroke-linecap="round"/>
<path d="M138.785 250.523C139.339 250.207 139.002 250.665 138.901 250.955C138.877 251.026 138.861 251.406 138.734 251.378C138.591 251.347 138.65 251.087 138.659 251.002C138.679 250.81 138.642 250.42 138.914 250.389C139.259 250.349 139.156 250.629 139.131 250.865" stroke="black" stroke-width="2" stroke-linecap="round"/>
<path d="M115.931 236.866C115.641 235.518 115.716 234.163 115.716 232.807C115.716 232.353 115.716 231.9 115.716 231.446C115.716 230.894 115.716 231.613 115.716 231.059" stroke="black" stroke-linecap="round"/>
<path d="M115.931 236.866C115.641 235.518 115.716 234.163 115.716 232.807C115.716 232.353 115.716 231.9 115.716 231.446C115.716 230.894 115.716 231.613 115.716 231.059" stroke="black" stroke-linecap="round"/>
<path d="M120.915 229.807C121.969 229.725 123.489 229.63 123.496 229.878C123.506 230.196 123.556 230.533 123.453 230.758C123.38 230.916 123.232 231.018 122.941 231.018C120.779 231.018 118.635 231.138 116.488 231.138C115.971 231.138 115.066 231.37 115.702 230.435C115.969 230.043 116.52 229.825 116.975 229.825H120.084C120.218 229.825 120.532 229.814 120.915 229.807Z" fill="black"/>
<path d="M116.812 230.246C117.67 230.246 117.902 230.2 118.743 230.051C119.278 229.955 118.47 230.246 119.069 230.246C119.575 230.246 119.45 229.878 119.956 229.878C120.305 229.878 123.485 229.519 123.496 229.878C123.513 230.419 123.645 231.018 122.941 231.018C120.779 231.018 118.635 231.138 116.488 231.138C115.971 231.138 115.066 231.37 115.702 230.435C115.969 230.043 116.52 229.825 116.975 229.825C118.011 229.825 119.047 229.825 120.084 229.825C120.558 229.825 123.267 229.681 123.368 230.123C123.58 231.06 123.374 232.271 123.374 233.233C123.374 233.989 123.429 234.62 123.713 235.315C123.77 235.454 123.74 236.431 123.74 236.866" stroke="black" stroke-linecap="round"/>
<path d="M116.812 230.246C117.67 230.246 117.902 230.2 118.743 230.051C119.278 229.955 118.47 230.246 119.069 230.246C119.575 230.246 119.45 229.878 119.956 229.878C120.305 229.878 123.485 229.519 123.496 229.878C123.513 230.419 123.645 231.018 122.941 231.018C120.779 231.018 118.635 231.138 116.488 231.138C115.971 231.138 115.066 231.37 115.702 230.435C115.969 230.043 116.52 229.825 116.975 229.825C118.011 229.825 119.047 229.825 120.084 229.825C120.558 229.825 123.267 229.681 123.368 230.123C123.58 231.06 123.374 232.271 123.374 233.233C123.374 233.989 123.429 234.62 123.713 235.315C123.77 235.454 123.74 236.431 123.74 236.866" stroke="black" stroke-linecap="round"/>
<path d="M113.257 236.522C113.643 236.276 114.721 236.543 115.085 236.585C116.042 236.585 115.926 237.308 115.926 238.062C115.926 238.896 114.877 238.876 114.245 238.876C113.149 238.876 113.044 238.483 113.044 237.527C113.044 237.219 112.939 236.724 113.257 236.522Z" fill="black"/>
<path d="M113.257 236.522C113.643 236.276 114.721 236.543 115.085 236.585C116.042 236.585 115.926 237.308 115.926 238.062C115.926 238.896 114.877 238.876 114.245 238.876C113.149 238.876 113.044 238.483 113.044 237.527C113.044 237.219 112.939 236.724 113.257 236.522Z" stroke="black" stroke-linecap="round"/>
<path d="M113.257 236.522C113.643 236.276 114.721 236.543 115.085 236.585C116.042 236.585 115.926 237.308 115.926 238.062C115.926 238.896 114.877 238.876 114.245 238.876C113.149 238.876 113.044 238.483 113.044 237.527C113.044 237.219 112.939 236.724 113.257 236.522Z" stroke="black" stroke-linecap="round"/>
<path d="M99.3636 240.489C98.7627 239.248 98.5154 237.913 98.1947 236.596C98.0872 236.155 97.9798 235.714 97.8724 235.273C97.7419 234.737 97.9121 235.436 97.7808 234.897" stroke="black" stroke-linecap="round"/>
<path d="M99.3636 240.489C98.7627 239.248 98.5154 237.913 98.1947 236.596C98.0872 236.155 97.9798 235.714 97.8724 235.273C97.7419 234.737 97.9121 235.436 97.7808 234.897" stroke="black" stroke-linecap="round"/>
<path d="M96.6847 240.787C97.0019 240.457 98.1126 240.461 98.4763 240.416C99.4055 240.19 99.4642 240.919 99.6425 241.651C99.8401 242.462 98.8162 242.691 98.2015 242.841C97.1373 243.1 96.9415 242.744 96.7152 241.814C96.6424 241.515 96.4236 241.059 96.6847 240.787Z" fill="black"/>
<path d="M96.6847 240.787C97.0019 240.457 98.1126 240.461 98.4763 240.416C99.4055 240.19 99.4642 240.919 99.6425 241.651C99.8401 242.462 98.8162 242.691 98.2015 242.841C97.1373 243.1 96.9415 242.744 96.7152 241.814C96.6424 241.515 96.4236 241.059 96.6847 240.787Z" stroke="black" stroke-linecap="round"/>
<path d="M96.6847 240.787C97.0019 240.457 98.1126 240.461 98.4763 240.416C99.4055 240.19 99.4642 240.919 99.6425 241.651C99.8401 242.462 98.8162 242.691 98.2015 242.841C97.1373 243.1 96.9415 242.744 96.7152 241.814C96.6424 241.515 96.4236 241.059 96.6847 240.787Z" stroke="black" stroke-linecap="round"/>
<path d="M135.173 222.529C134.688 223.82 134.564 225.172 134.365 226.512C134.298 226.961 134.232 227.41 134.165 227.859C134.084 228.405 134.19 227.693 134.108 228.242" stroke="black" stroke-linecap="round"/>
<path d="M135.173 222.529C134.688 223.82 134.564 225.172 134.365 226.512C134.298 226.961 134.232 227.41 134.165 227.859C134.084 228.405 134.19 227.693 134.108 228.242" stroke="black" stroke-linecap="round"/>
<path d="M132.478 222.477C132.824 222.777 133.929 222.671 134.296 222.682C135.242 222.823 135.233 222.091 135.344 221.346C135.466 220.52 134.426 220.386 133.8 220.293C132.717 220.133 132.554 220.505 132.414 221.451C132.369 221.756 132.193 222.23 132.478 222.477Z" fill="black"/>
<path d="M132.478 222.477C132.824 222.777 133.929 222.671 134.296 222.682C135.242 222.823 135.233 222.091 135.344 221.346C135.466 220.52 134.426 220.386 133.8 220.293C132.717 220.133 132.554 220.505 132.414 221.451C132.369 221.756 132.193 222.23 132.478 222.477Z" stroke="black" stroke-linecap="round"/>
<path d="M132.478 222.477C132.824 222.777 133.929 222.671 134.296 222.682C135.242 222.823 135.233 222.091 135.344 221.346C135.466 220.52 134.426 220.386 133.8 220.293C132.717 220.133 132.554 220.505 132.414 221.451C132.369 221.756 132.193 222.23 132.478 222.477Z" stroke="black" stroke-linecap="round"/>
<path d="M121.074 236.522C121.461 236.276 122.539 236.543 122.903 236.585C123.859 236.585 123.743 237.308 123.743 238.062C123.743 238.896 122.695 238.876 122.062 238.876C120.967 238.876 120.861 238.483 120.861 237.527C120.861 237.219 120.756 236.724 121.074 236.522Z" fill="black"/>
<path d="M121.074 236.522C121.461 236.276 122.539 236.543 122.903 236.585C123.859 236.585 123.743 237.308 123.743 238.062C123.743 238.896 122.695 238.876 122.062 238.876C120.967 238.876 120.861 238.483 120.861 237.527C120.861 237.219 120.756 236.724 121.074 236.522Z" stroke="black" stroke-linecap="round"/>
<path d="M121.074 236.522C121.461 236.276 122.539 236.543 122.903 236.585C123.859 236.585 123.743 237.308 123.743 238.062C123.743 238.896 122.695 238.876 122.062 238.876C120.967 238.876 120.861 238.483 120.861 237.527C120.861 237.219 120.756 236.724 121.074 236.522Z" stroke="black" stroke-linecap="round"/>
<path d="M98.0305 234.789C98.4118 234.878 98.5493 235.08 98.7236 235.408C98.9196 235.777 99.1843 236.109 99.3204 236.509C99.4905 237.008 99.6592 237.533 99.7504 238.053C99.8088 238.386 100.076 238.667 100.299 238.91C100.654 239.297 101.059 238.931 101.289 238.658" stroke="black" stroke-linecap="round"/>
<path d="M98.0305 234.789C98.4118 234.878 98.5493 235.08 98.7236 235.408C98.9196 235.777 99.1843 236.109 99.3204 236.509C99.4905 237.008 99.6592 237.533 99.7504 238.053C99.8088 238.386 100.076 238.667 100.299 238.91C100.654 239.297 101.059 238.931 101.289 238.658" stroke="black" stroke-linecap="round"/>
</svg>
