<svg width="182" height="433" viewBox="0 0 182 433" fill="none" xmlns="http://www.w3.org/2000/svg">
<path d="M126.5 15C124.334 -2.05 107.015 17.7893 65.5 20.5217L51 430.302C69.9525 430.849 150.408 438.403 162.008 425.534C166.215 420.866 155.371 425.862 172.992 392.559C181.614 376.264 180.223 330.517 181.125 292.81C182.028 255.103 186.375 143.631 162.008 118.752C150.159 106.655 140.348 86.802 140.348 76.9655V35.352C159.842 35.352 161.105 30.9046 162.008 20.5217C162.91 10.1387 128.666 32.05 126.5 15Z" fill="#ECE4E4"/>
<path d="M80 20.5217C82.1825 3.47175 90.168 4.76756 132 7.49993V430.302C112.903 430.849 31.8328 438.403 20.145 425.534C15.9054 420.866 26.832 425.862 9.07632 392.559C0.388535 376.264 1.7908 330.517 0.881409 292.81C-0.0279846 255.103 -4.4086 143.632 20.145 118.752C32.0838 106.655 41.9703 86.802 41.9703 76.9655V35.352C22.3275 35.352 21.0544 30.9047 20.145 20.5217C19.2356 10.1387 77.8175 37.5717 80 20.5217Z" fill="#ECE4E4"/>
<path d="M77.2181 247.008C43.3679 247.008 12.1818 237.669 0.820068 233C1 340 3.09624 379 9.04755 390.594C21.2712 414.409 21.9589 422.527 20 423.5C20.4701 432.839 69 432.5 93.5 431C152.738 434.736 162.784 426.975 162 422.5C157.769 419.231 169.5 396.5 174 387.5C181.5 362.5 180.021 290.559 181 239L176.536 241.172C169.679 241.95 152.323 241.989 137.749 235.918C119.531 228.331 119.531 247.008 77.2181 247.008Z" fill="#CD7B4D" fill-opacity="0.7"/>
<path d="M161.503 10.5231C160.603 1.46718 113.511 -0.486761 91.7651 0.0937466C64.102 0.0937402 19.0001 2.3895 19 10.5231V31.4214C19 37.3528 36.8381 38.2423 43.3993 37.9521C67.0198 37.8069 118.985 37.6038 137.881 37.9521C156.778 38.3004 160.941 36.1908 161.503 32.2723C161.878 29.66 162.403 19.579 161.503 10.5231Z" fill="#981111"/>
<rect x="7.5" y="170.5" width="167" height="195" fill="#FAF5F2" stroke="#AFAFAF"/>
<rect x="7" y="300.48" width="168" height="26.88" fill="#E93226"/>
<path d="M41.2192 312.46V311.83H42.9192V319H42.2092V312.46H41.2192ZM44.4791 315.35C44.4791 314.203 44.6558 313.313 45.0091 312.68C45.3624 312.047 45.9958 311.73 46.9091 311.73C47.8224 311.73 48.4558 312.047 48.8091 312.68C49.1624 313.313 49.3391 314.203 49.3391 315.35C49.3391 316.517 49.1624 317.42 48.8091 318.06C48.4558 318.7 47.8224 319.02 46.9091 319.02C45.9891 319.02 45.3524 318.7 44.9991 318.06C44.6524 317.42 44.4791 316.517 44.4791 315.35ZM48.6491 315.35C48.6491 314.73 48.6058 314.207 48.5191 313.78C48.4324 313.353 48.2624 313.01 48.0091 312.75C47.7558 312.49 47.3891 312.36 46.9091 312.36C46.4291 312.36 46.0624 312.49 45.8091 312.75C45.5558 313.01 45.3858 313.353 45.2991 313.78C45.2124 314.207 45.1691 314.73 45.1691 315.35C45.1691 315.99 45.2124 316.527 45.2991 316.96C45.3858 317.387 45.5558 317.73 45.8091 317.99C46.0624 318.25 46.4291 318.38 46.9091 318.38C47.3891 318.38 47.7558 318.25 48.0091 317.99C48.2624 317.73 48.4324 317.387 48.5191 316.96C48.6058 316.527 48.6491 315.99 48.6491 315.35ZM50.6412 315.35C50.6412 314.203 50.8179 313.313 51.1712 312.68C51.5245 312.047 52.1579 311.73 53.0712 311.73C53.9845 311.73 54.6179 312.047 54.9712 312.68C55.3245 313.313 55.5012 314.203 55.5012 315.35C55.5012 316.517 55.3245 317.42 54.9712 318.06C54.6179 318.7 53.9845 319.02 53.0712 319.02C52.1512 319.02 51.5145 318.7 51.1612 318.06C50.8145 317.42 50.6412 316.517 50.6412 315.35ZM54.8112 315.35C54.8112 314.73 54.7679 314.207 54.6812 313.78C54.5945 313.353 54.4245 313.01 54.1712 312.75C53.9179 312.49 53.5512 312.36 53.0712 312.36C52.5912 312.36 52.2245 312.49 51.9712 312.75C51.7179 313.01 51.5479 313.353 51.4612 313.78C51.3745 314.207 51.3312 314.73 51.3312 315.35C51.3312 315.99 51.3745 316.527 51.4612 316.96C51.5479 317.387 51.7179 317.73 51.9712 317.99C52.2245 318.25 52.5912 318.38 53.0712 318.38C53.5512 318.38 53.9179 318.25 54.1712 317.99C54.4245 317.73 54.5945 317.387 54.6812 316.96C54.7679 316.527 54.8112 315.99 54.8112 315.35ZM56.5833 313.33C56.5833 312.903 56.7133 312.56 56.9733 312.3C57.24 312.033 57.5767 311.9 57.9833 311.9C58.3967 311.9 58.7333 312.033 58.9933 312.3C59.26 312.56 59.3933 312.903 59.3933 313.33C59.3933 313.763 59.26 314.113 58.9933 314.38C58.7333 314.64 58.3967 314.77 57.9833 314.77C57.5767 314.77 57.24 314.64 56.9733 314.38C56.7133 314.113 56.5833 313.763 56.5833 313.33ZM62.1833 312L58.0833 319H57.3733L61.4833 312H62.1833ZM57.9833 312.35C57.73 312.35 57.5267 312.437 57.3733 312.61C57.2267 312.777 57.1533 313.017 57.1533 313.33C57.1533 313.643 57.2267 313.887 57.3733 314.06C57.5267 314.233 57.73 314.32 57.9833 314.32C58.2367 314.32 58.44 314.233 58.5933 314.06C58.7467 313.887 58.8233 313.643 58.8233 313.33C58.8233 313.023 58.7467 312.783 58.5933 312.61C58.44 312.437 58.2367 312.35 57.9833 312.35ZM60.1833 317.67C60.1833 317.237 60.3133 316.89 60.5733 316.63C60.84 316.363 61.1767 316.23 61.5833 316.23C61.99 316.23 62.3233 316.363 62.5833 316.63C62.85 316.89 62.9833 317.237 62.9833 317.67C62.9833 318.103 62.85 318.453 62.5833 318.72C62.3233 318.98 61.99 319.11 61.5833 319.11C61.1767 319.11 60.84 318.98 60.5733 318.72C60.3133 318.453 60.1833 318.103 60.1833 317.67ZM61.5833 316.69C61.33 316.69 61.1267 316.777 60.9733 316.95C60.82 317.123 60.7433 317.363 60.7433 317.67C60.7433 317.977 60.82 318.217 60.9733 318.39C61.1267 318.563 61.33 318.65 61.5833 318.65C61.8367 318.65 62.0367 318.567 62.1833 318.4C62.3367 318.227 62.4133 317.983 62.4133 317.67C62.4133 317.357 62.3367 317.117 62.1833 316.95C62.0367 316.777 61.8367 316.69 61.5833 316.69ZM71.0033 317.34H67.8233L67.2133 319H66.4733L69.0233 312.1H69.8133L72.3533 319H71.6133L71.0033 317.34ZM70.7933 316.76L69.4133 312.98L68.0333 316.76H70.7933ZM74.1668 314.74C74.3401 314.373 74.6134 314.07 74.9868 313.83C75.3668 313.583 75.8168 313.46 76.3368 313.46C76.8301 313.46 77.2734 313.577 77.6668 313.81C78.0668 314.037 78.3768 314.363 78.5968 314.79C78.8234 315.21 78.9368 315.7 78.9368 316.26C78.9368 316.82 78.8234 317.313 78.5968 317.74C78.3768 318.167 78.0668 318.497 77.6668 318.73C77.2734 318.963 76.8301 319.08 76.3368 319.08C75.8234 319.08 75.3768 318.96 74.9968 318.72C74.6168 318.473 74.3401 318.167 74.1668 317.8V321.58H73.4768V313.54H74.1668V314.74ZM78.2268 316.26C78.2268 315.807 78.1368 315.417 77.9568 315.09C77.7834 314.757 77.5434 314.503 77.2368 314.33C76.9301 314.157 76.5834 314.07 76.1968 314.07C75.8234 314.07 75.4801 314.16 75.1668 314.34C74.8601 314.52 74.6168 314.777 74.4368 315.11C74.2568 315.443 74.1668 315.83 74.1668 316.27C74.1668 316.71 74.2568 317.097 74.4368 317.43C74.6168 317.763 74.8601 318.02 75.1668 318.2C75.4801 318.38 75.8234 318.47 76.1968 318.47C76.5834 318.47 76.9301 318.383 77.2368 318.21C77.5434 318.03 77.7834 317.773 77.9568 317.44C78.1368 317.1 78.2268 316.707 78.2268 316.26ZM82.3748 314.13H81.1048V319H80.4048V314.13H79.6448V313.54H80.4048V313.16C80.4048 312.567 80.5548 312.13 80.8548 311.85C81.1615 311.57 81.6548 311.43 82.3348 311.43V312.03C81.8815 312.03 81.5615 312.117 81.3748 312.29C81.1948 312.463 81.1048 312.753 81.1048 313.16V313.54H82.3748V314.13ZM88.4168 315.99C88.4168 316.23 88.4101 316.413 88.3968 316.54H83.8668C83.8868 316.953 83.9868 317.307 84.1668 317.6C84.3468 317.893 84.5834 318.117 84.8768 318.27C85.1701 318.417 85.4901 318.49 85.8368 318.49C86.2901 318.49 86.6701 318.38 86.9768 318.16C87.2901 317.94 87.4968 317.643 87.5968 317.27H88.3368C88.2034 317.803 87.9168 318.24 87.4768 318.58C87.0434 318.913 86.4968 319.08 85.8368 319.08C85.3234 319.08 84.8634 318.967 84.4568 318.74C84.0501 318.507 83.7301 318.18 83.4968 317.76C83.2701 317.333 83.1568 316.837 83.1568 316.27C83.1568 315.703 83.2701 315.207 83.4968 314.78C83.7234 314.353 84.0401 314.027 84.4468 313.8C84.8534 313.573 85.3168 313.46 85.8368 313.46C86.3568 313.46 86.8101 313.573 87.1968 313.8C87.5901 314.027 87.8901 314.333 88.0968 314.72C88.3101 315.1 88.4168 315.523 88.4168 315.99ZM87.7068 315.97C87.7134 315.563 87.6301 315.217 87.4568 314.93C87.2901 314.643 87.0601 314.427 86.7668 314.28C86.4734 314.133 86.1534 314.06 85.8068 314.06C85.2868 314.06 84.8434 314.227 84.4768 314.56C84.1101 314.893 83.9068 315.363 83.8668 315.97H87.7068ZM90.3975 311.6V319H89.6975V311.6H90.3975ZM91.6626 316.26C91.6626 315.7 91.776 315.21 92.0026 314.79C92.2293 314.363 92.5393 314.037 92.9326 313.81C93.3326 313.577 93.7826 313.46 94.2826 313.46C94.7626 313.46 95.196 313.577 95.5826 313.81C95.9693 314.043 96.2526 314.347 96.4326 314.72V311.6H97.1326V319H96.4326V317.78C96.266 318.16 95.9926 318.473 95.6126 318.72C95.2326 318.96 94.786 319.08 94.2726 319.08C93.7726 319.08 93.3226 318.963 92.9226 318.73C92.5293 318.497 92.2193 318.167 91.9926 317.74C91.7726 317.313 91.6626 316.82 91.6626 316.26ZM96.4326 316.27C96.4326 315.83 96.3426 315.443 96.1626 315.11C95.9826 314.777 95.736 314.52 95.4226 314.34C95.116 314.16 94.776 314.07 94.4026 314.07C94.016 314.07 93.6693 314.157 93.3626 314.33C93.056 314.503 92.8126 314.757 92.6326 315.09C92.4593 315.417 92.3726 315.807 92.3726 316.26C92.3726 316.707 92.4593 317.1 92.6326 317.44C92.8126 317.773 93.056 318.03 93.3626 318.21C93.6693 318.383 94.016 318.47 94.4026 318.47C94.776 318.47 95.116 318.38 95.4226 318.2C95.736 318.02 95.9826 317.763 96.1626 317.43C96.3426 317.097 96.4326 316.71 96.4326 316.27ZM99.0807 312.51C98.9407 312.51 98.8207 312.46 98.7207 312.36C98.6207 312.26 98.5707 312.137 98.5707 311.99C98.5707 311.843 98.6207 311.723 98.7207 311.63C98.8207 311.53 98.9407 311.48 99.0807 311.48C99.2207 311.48 99.3407 311.53 99.4407 311.63C99.5407 311.723 99.5907 311.843 99.5907 311.99C99.5907 312.137 99.5407 312.26 99.4407 312.36C99.3407 312.46 99.2207 312.51 99.0807 312.51ZM99.4307 313.54V319H98.7307V313.54H99.4307ZM101.716 314.51C101.869 314.17 102.102 313.907 102.416 313.72C102.736 313.533 103.126 313.44 103.586 313.44V314.17H103.396C102.889 314.17 102.482 314.307 102.176 314.58C101.869 314.853 101.716 315.31 101.716 315.95V319H101.016V313.54H101.716V314.51ZM109.579 315.99C109.579 316.23 109.572 316.413 109.559 316.54H105.029C105.049 316.953 105.149 317.307 105.329 317.6C105.509 317.893 105.746 318.117 106.039 318.27C106.332 318.417 106.652 318.49 106.999 318.49C107.452 318.49 107.832 318.38 108.139 318.16C108.452 317.94 108.659 317.643 108.759 317.27H109.499C109.366 317.803 109.079 318.24 108.639 318.58C108.206 318.913 107.659 319.08 106.999 319.08C106.486 319.08 106.026 318.967 105.619 318.74C105.212 318.507 104.892 318.18 104.659 317.76C104.432 317.333 104.319 316.837 104.319 316.27C104.319 315.703 104.432 315.207 104.659 314.78C104.886 314.353 105.202 314.027 105.609 313.8C106.016 313.573 106.479 313.46 106.999 313.46C107.519 313.46 107.972 313.573 108.359 313.8C108.752 314.027 109.052 314.333 109.259 314.72C109.472 315.1 109.579 315.523 109.579 315.99ZM108.869 315.97C108.876 315.563 108.792 315.217 108.619 314.93C108.452 314.643 108.222 314.427 107.929 314.28C107.636 314.133 107.316 314.06 106.969 314.06C106.449 314.06 106.006 314.227 105.639 314.56C105.272 314.893 105.069 315.363 105.029 315.97H108.869ZM113.81 319L111.56 316.55V319H110.86V311.6H111.56V315.98L113.76 313.54H114.74L112.15 316.26L114.76 319H113.81ZM116.574 314.13V317.52C116.574 317.853 116.638 318.083 116.764 318.21C116.891 318.337 117.114 318.4 117.434 318.4H118.074V319H117.324C116.831 319 116.464 318.887 116.224 318.66C115.984 318.427 115.864 318.047 115.864 317.52V314.13H115.104V313.54H115.864V312.17H116.574V313.54H118.074V314.13H116.574ZM121.109 319.08C120.482 319.08 119.969 318.937 119.569 318.65C119.175 318.357 118.955 317.96 118.909 317.46H119.629C119.662 317.767 119.805 318.017 120.059 318.21C120.319 318.397 120.665 318.49 121.099 318.49C121.479 318.49 121.775 318.4 121.989 318.22C122.209 318.04 122.319 317.817 122.319 317.55C122.319 317.363 122.259 317.21 122.139 317.09C122.019 316.97 121.865 316.877 121.679 316.81C121.499 316.737 121.252 316.66 120.939 316.58C120.532 316.473 120.202 316.367 119.949 316.26C119.695 316.153 119.479 315.997 119.299 315.79C119.125 315.577 119.039 315.293 119.039 314.94C119.039 314.673 119.119 314.427 119.279 314.2C119.439 313.973 119.665 313.793 119.959 313.66C120.252 313.527 120.585 313.46 120.959 313.46C121.545 313.46 122.019 313.61 122.379 313.91C122.739 314.203 122.932 314.61 122.959 315.13H122.259C122.239 314.81 122.112 314.553 121.879 314.36C121.652 314.16 121.339 314.06 120.939 314.06C120.585 314.06 120.299 314.143 120.079 314.31C119.859 314.477 119.749 314.683 119.749 314.93C119.749 315.143 119.812 315.32 119.939 315.46C120.072 315.593 120.235 315.7 120.429 315.78C120.622 315.853 120.882 315.937 121.209 316.03C121.602 316.137 121.915 316.24 122.149 316.34C122.382 316.44 122.582 316.587 122.749 316.78C122.915 316.973 123.002 317.23 123.009 317.55C123.009 317.843 122.929 318.107 122.769 318.34C122.609 318.567 122.385 318.747 122.099 318.88C121.812 319.013 121.482 319.08 121.109 319.08ZM124.006 316.26C124.006 315.7 124.116 315.21 124.336 314.79C124.563 314.363 124.873 314.037 125.266 313.81C125.666 313.577 126.116 313.46 126.616 313.46C127.136 313.46 127.583 313.58 127.956 313.82C128.336 314.06 128.61 314.367 128.776 314.74V313.54H129.476V319H128.776V317.79C128.603 318.163 128.326 318.473 127.946 318.72C127.573 318.96 127.126 319.08 126.606 319.08C126.113 319.08 125.666 318.963 125.266 318.73C124.873 318.497 124.563 318.167 124.336 317.74C124.116 317.313 124.006 316.82 124.006 316.26ZM128.776 316.27C128.776 315.83 128.686 315.443 128.506 315.11C128.326 314.777 128.08 314.52 127.766 314.34C127.46 314.16 127.12 314.07 126.746 314.07C126.36 314.07 126.013 314.157 125.706 314.33C125.4 314.503 125.156 314.757 124.976 315.09C124.803 315.417 124.716 315.807 124.716 316.26C124.716 316.707 124.803 317.1 124.976 317.44C125.156 317.773 125.4 318.03 125.706 318.21C126.013 318.383 126.36 318.47 126.746 318.47C127.12 318.47 127.46 318.38 127.766 318.2C128.08 318.02 128.326 317.763 128.506 317.43C128.686 317.097 128.776 316.71 128.776 316.27ZM133.224 314.13H131.954V319H131.254V314.13H130.494V313.54H131.254V313.16C131.254 312.567 131.404 312.13 131.704 311.85C132.011 311.57 132.504 311.43 133.184 311.43V312.03C132.731 312.03 132.411 312.117 132.224 312.29C132.044 312.463 131.954 312.753 131.954 313.16V313.54H133.224V314.13ZM135.236 314.13V317.52C135.236 317.853 135.3 318.083 135.426 318.21C135.553 318.337 135.776 318.4 136.096 318.4H136.736V319H135.986C135.493 319 135.126 318.887 134.886 318.66C134.646 318.427 134.526 318.047 134.526 317.52V314.13H133.766V313.54H134.526V312.17H135.236V313.54H136.736V314.13H135.236Z" fill="white"/>
<path d="M45.6667 198.989L46.648 198.886L46.5447 197.546L46.493 195.124L46.648 191.361L47.0095 188.063L47.5259 184.043L47.7325 181.827L47.8874 180.642L48.972 180.333L50.5729 180.127L51.9673 180.23L53.0519 180.745L53.8265 181.518L54.343 182.6V183.322L54.188 184.559L53.6716 185.847L52.7936 186.981L51.864 187.702L50.8312 188.218L49.1785 188.63L48.1973 188.733L48.3006 189.609H49.7983L50.5213 191.774L51.5542 194.351L53.0002 197.082L53.9815 198.319L55.066 199.246L56.2538 199.659H57.6999L58.2679 199.504L57.2867 198.473L56.512 197.546L55.789 196.412L55.3759 195.742L54.6012 194.505L53.62 192.598L52.7936 190.485L52.3288 189.042L53.465 188.527L54.4979 187.909L55.4792 186.981L56.2538 185.744L56.7186 184.765L56.9768 183.322L56.8736 182.085L56.3571 180.745L55.8407 180.024L54.7561 179.044L53.465 178.426L51.864 178.22L50.0565 178.426L48.9203 178.684L47.6809 179.044L46.8545 178.941L45.9766 178.426L45.6667 177.962L45.4085 177.601L45.2536 177.241L44.9437 176.365L45.1503 177.653L45.2536 178.581L45.3569 180.23L45.2536 182.91L44.4789 189.403L43.8592 193.835L43.6526 196.412V197.546L44.0141 198.319L44.5822 198.731L45.6667 198.989Z" fill="black" stroke="black"/>
<path d="M62.8128 191.696C63.3809 189.755 64.2502 188.123 65.4208 186.801C66.6086 185.461 67.719 184.791 68.7519 184.791C69.7848 184.791 70.5164 185.108 70.9468 185.744C71.3772 186.362 71.5923 187.213 71.5923 188.295C71.5923 189.36 71.4201 190.863 71.0759 192.804C70.7488 194.746 70.5853 196.163 70.5853 197.056C70.5853 197.932 70.6971 198.576 70.9209 198.989C71.1448 199.384 71.5234 199.727 72.0571 200.019C71.8333 200.037 71.5149 200.045 71.1017 200.045C69.9999 200.045 69.1823 199.822 68.6486 199.375C68.1321 198.911 67.8739 198.13 67.8739 197.03C67.8739 196.395 68.0461 195.115 68.3904 193.191C68.7346 191.25 68.9068 189.824 68.9068 188.913C68.9068 187.78 68.5109 187.213 67.719 187.213C67.2542 187.213 66.7377 187.462 66.1697 187.96C65.6016 188.441 65.0507 189.102 64.517 189.944C64.0006 190.769 63.5616 191.825 63.2001 193.114C62.8558 194.385 62.6837 195.647 62.6837 196.902C62.6837 198.138 62.7353 199.057 62.8386 199.659C62.4254 199.693 62.193 199.71 62.1414 199.71C61.3323 199.71 60.7297 199.538 60.3338 199.195C59.9551 198.851 59.7657 198.319 59.7657 197.597C59.7657 196.859 59.9207 195.45 60.2305 193.371C61.1429 186.981 61.5991 182.128 61.5991 178.812C61.5991 177.318 61.4958 176.313 61.2893 175.798C62.2878 176.158 62.9849 176.691 63.3809 177.395C63.794 178.1 64.0006 179.07 64.0006 180.307C64.0006 181.166 63.8284 182.97 63.4841 185.718C63.157 188.467 62.9333 190.46 62.8128 191.696ZM79.0057 200.045C78.0244 199.702 77.3359 199.178 76.9399 198.473C76.5612 197.752 76.3718 196.884 76.3718 195.871C76.3718 194.857 76.5096 193.406 76.785 191.516C77.0604 189.626 77.1981 188.158 77.1981 187.11C77.1981 186.062 77.1465 185.254 77.0432 184.688C77.353 184.653 77.6027 184.636 77.792 184.636C78.5667 184.636 79.1262 184.808 79.4705 185.151C79.8148 185.495 79.9869 186.062 79.9869 186.852C79.9869 187.11 79.7718 188.467 79.3414 190.923C78.9282 193.363 78.713 195.381 78.6958 196.979C78.6958 198.559 78.7991 199.581 79.0057 200.045ZM79.393 182.085C77.947 182.085 77.2239 181.595 77.2239 180.616C77.2239 180.273 77.353 179.792 77.6113 179.173C77.99 179.104 78.3171 179.07 78.5925 179.07C80.0386 179.07 80.7616 179.56 80.7616 180.539C80.7616 180.882 80.6325 181.363 80.3742 181.982C79.9956 182.051 79.6685 182.085 79.393 182.085ZM96.0559 188.45C96.0559 189.24 95.8837 190.64 95.5394 192.65C95.2123 194.643 95.0488 196.094 95.0488 197.005C95.0488 197.915 95.1607 198.576 95.3845 198.989C95.6082 199.384 95.987 199.727 96.5207 200.019C96.2968 200.037 95.9784 200.045 95.5652 200.045C94.3946 200.045 93.5597 199.831 93.0605 199.401C92.5784 198.954 92.3375 198.164 92.3375 197.03C92.3375 196.395 92.5095 195.115 92.8539 193.191C93.1982 191.25 93.3704 189.824 93.3704 188.913C93.3704 187.78 93.026 187.213 92.3375 187.213C91.2357 187.213 90.0909 188.183 88.9031 190.125C87.7324 192.066 87.1472 194.402 87.1472 197.133C87.1472 198.216 87.1988 199.057 87.3021 199.659C86.8545 199.693 86.5877 199.71 86.5016 199.71C84.9867 199.71 84.2293 198.972 84.2293 197.494C84.2293 197.151 84.41 195.828 84.7716 193.526C85.1331 191.224 85.3138 189.395 85.3138 188.037C85.3138 186.663 85.1675 185.4 84.8748 184.249C85.8905 184.645 86.5963 185.211 86.9923 185.95C87.4054 186.672 87.612 187.505 87.612 188.45C87.612 189.377 87.5087 190.46 87.3021 191.696C87.8702 189.755 88.7568 188.123 89.9618 186.801C91.184 185.461 92.3202 184.791 93.3704 184.791C95.1607 184.791 96.0559 186.01 96.0559 188.45ZM109.922 191.207C109.922 189.523 109.707 188.321 109.276 187.599C108.863 186.861 108.261 186.491 107.469 186.491C106.694 186.491 105.911 186.878 105.119 187.651C104.327 188.407 103.699 189.352 103.234 190.485C102.786 191.602 102.562 192.77 102.562 193.99C102.562 195.192 102.795 196.24 103.26 197.133C103.724 198.01 104.43 198.448 105.377 198.448C106.72 198.448 107.813 197.657 108.656 196.077C109.5 194.497 109.922 192.873 109.922 191.207ZM102.433 190.202C103.087 188.347 103.965 186.998 105.067 186.156C106.186 185.297 107.314 184.868 108.45 184.868C109.603 184.868 110.559 185.375 111.316 186.388C112.074 187.385 112.452 188.742 112.452 190.46C112.452 192.349 112.091 194.101 111.368 195.716C110.559 197.503 109.388 198.748 107.856 199.453C107.03 199.848 106.117 200.045 105.119 200.045C103.724 200.045 102.502 199.47 101.452 198.319C100.402 197.151 99.8769 195.493 99.8769 193.346C99.8769 191.181 100.342 189.309 101.271 187.728C102.201 186.148 103.466 185.048 105.067 184.43C105.411 184.43 105.584 184.602 105.584 184.945C103.879 186.062 102.829 187.814 102.433 190.202Z" fill="black"/>
<path d="M164.346 178.271H114.664V201.566H164.346V178.271Z" fill="black" stroke="black"/>
<path d="M123.492 182.94V182.69H123.242H122.88H122.63V182.94V193.06C122.63 193.643 122.461 194.148 122.124 194.583C121.815 194.969 121.289 195.191 120.476 195.191C119.625 195.191 119.055 194.932 118.707 194.462C118.336 193.961 118.141 193.319 118.141 192.518V192.268H117.891H117.53H117.28V192.518C117.28 193.57 117.544 194.429 118.101 195.064L118.101 195.064L118.103 195.066C118.679 195.707 119.482 196.015 120.476 196.015C121.395 196.015 122.142 195.746 122.682 195.18L122.682 195.18C123.224 194.612 123.492 193.899 123.492 193.06V182.94ZM134.496 185.899V185.649H134.246H133.885H133.635V185.899V191.039C133.635 192.469 133.293 193.511 132.653 194.206C132.008 194.894 131.15 195.245 130.053 195.245C128.997 195.245 128.195 194.932 127.612 194.33C127.032 193.718 126.724 192.815 126.724 191.58V185.899V185.649H126.474H126.13H125.88V185.899V191.544C125.88 193.015 126.258 194.162 127.059 194.935C127.846 195.695 128.851 196.069 130.053 196.069C131.048 196.069 131.919 195.817 132.654 195.303C133.055 195.026 133.382 194.681 133.635 194.272V195.639V195.889H133.885H134.246H134.496V195.639V185.899ZM136.973 183.448L136.984 183.461L136.996 183.471C137.14 183.597 137.314 183.659 137.504 183.659C137.694 183.659 137.869 183.597 138.006 183.46C138.154 183.313 138.224 183.128 138.224 182.922C138.224 182.723 138.157 182.54 138.006 182.403C137.874 182.258 137.7 182.185 137.504 182.185C137.304 182.185 137.126 182.261 136.984 182.403C136.843 182.543 136.784 182.727 136.784 182.922C136.784 183.119 136.843 183.301 136.973 183.448ZM137.935 185.899V185.649H137.685H137.323H137.073V185.899V195.639V195.889H137.323H137.685H137.935V195.639V185.899ZM140.69 187.98L140.689 187.983C140.269 188.783 140.063 189.714 140.063 190.769C140.063 191.824 140.269 192.755 140.689 193.555L140.689 193.555L140.69 193.557C141.121 194.354 141.715 194.967 142.469 195.388L142.469 195.388C143.222 195.808 144.071 196.015 145.013 196.015C146.297 196.015 147.369 195.691 148.206 195.023L148.206 195.022C149.05 194.346 149.564 193.461 149.742 192.379L149.79 192.088H149.496H149.134H148.922L148.887 192.298C148.741 193.199 148.322 193.897 147.63 194.41C146.933 194.926 146.066 195.191 145.013 195.191C144.268 195.191 143.585 195.031 142.96 194.714C142.355 194.389 141.865 193.902 141.489 193.242C141.118 192.592 140.925 191.772 140.925 190.769C140.925 189.766 141.118 188.946 141.489 188.295C141.865 187.635 142.355 187.155 142.959 186.842L142.96 186.841C143.586 186.512 144.269 186.347 145.013 186.347C146.066 186.347 146.933 186.612 147.63 187.128C148.322 187.64 148.741 188.339 148.887 189.24L148.922 189.45H149.134H149.496H149.79L149.742 189.159C149.564 188.077 149.051 187.198 148.206 186.533C147.369 185.853 146.298 185.522 145.013 185.522C144.071 185.522 143.222 185.73 142.469 186.149L142.469 186.149C141.715 186.571 141.121 187.183 140.69 187.98ZM158.98 194.41L158.98 194.41C158.283 194.926 157.417 195.191 156.363 195.191C155.629 195.191 154.957 195.036 154.344 194.731C153.738 194.417 153.242 193.946 152.854 193.31C152.518 192.739 152.324 192.033 152.283 191.181H160.828H161.064L161.077 190.945C161.09 190.722 161.096 190.391 161.096 189.957C161.096 189.205 160.911 188.491 160.542 187.818C160.182 187.138 159.642 186.589 158.931 186.171C158.211 185.735 157.351 185.522 156.363 185.522C155.422 185.522 154.571 185.729 153.819 186.149C153.065 186.571 152.471 187.183 152.04 187.98L152.038 187.983C151.619 188.783 151.414 189.714 151.414 190.769C151.414 191.823 151.619 192.755 152.038 193.555L152.04 193.557C152.471 194.354 153.065 194.967 153.819 195.388C154.571 195.808 155.422 196.015 156.363 196.015C157.648 196.015 158.719 195.691 159.556 195.023L159.556 195.022C160.401 194.346 160.915 193.461 161.093 192.379L161.141 192.088H160.846H160.485H160.272L160.238 192.298C160.091 193.199 159.672 193.897 158.98 194.41ZM160.281 190.356H152.283C152.324 189.505 152.518 188.799 152.854 188.228C153.242 187.592 153.738 187.127 154.342 186.826L154.345 186.824C154.959 186.507 155.63 186.347 156.363 186.347C157.084 186.347 157.749 186.506 158.363 186.824L158.363 186.824L158.368 186.827C158.983 187.128 159.464 187.59 159.814 188.22L159.815 188.224C160.142 188.793 160.302 189.5 160.281 190.356Z" fill="white" stroke="white" stroke-width="0.5"/>
<path d="M25.752 200.421L26.7967 201.308H27.2388L27.7611 200.918L28.3639 200.492L30.7749 200.989L33.5877 201.201L36.6819 200.989L39.6153 200.314L42.3478 199.64L46.5964 198.937L45.2812 178.351L45.1503 177.447L45.0401 176.519C45.0937 176.365 45.1377 176.071 45.202 175.901C45.2823 175.688 45.288 175.653 45.4085 175.334C45.505 175.078 45.1606 175.052 45.0401 175.087H43.3122L42.83 175.513L42.1871 176.613L41.5039 178.742L41.2226 179.593L40.9012 179.771H40.5797L39.9342 179.302L39.3661 178.787L38.953 178.271L38.6948 177.859L38.4901 177.429L38.008 177.677L37.5659 178.014L37.2847 178.581L37.2487 179.096L37.2847 179.593L37.5069 180.797L37.5659 181.93L37.6463 182.549L37.8684 183.219L38.1267 183.476L38.4901 183.638L37.2847 184.348L35.1148 185.554L32.8242 186.831L31.6991 186.157L30.0918 184.809L28.9667 183.567L27.9621 181.935L27.721 183.993L27.5602 185.98L27.721 187.115L27.8013 188.428L25.8725 186.938L24.4259 184.986L22.7382 182.254L21.4925 179.771L19.7646 176.258L18.76 174.2L18.8806 177.074L19.2824 180.374L20.2066 184.348L21.3318 188.109L22.9793 192.686L23.9035 195.063L24.1848 196.305L24.4259 198.186L24.7474 199.392L25.752 200.421Z" fill="black" stroke="black"/>
<path d="M36.0898 210.414C36.0898 210.753 36.0078 211.047 35.8438 211.297C35.6797 211.547 35.4401 211.74 35.125 211.875C34.8125 212.01 34.4323 212.078 33.9844 212.078C33.7865 212.078 33.5924 212.065 33.4023 212.039C33.2148 212.013 33.0339 211.975 32.8594 211.926C32.6875 211.874 32.5234 211.81 32.3672 211.734V210.609C32.638 210.729 32.9193 210.837 33.2109 210.934C33.5026 211.03 33.7917 211.078 34.0781 211.078C34.276 211.078 34.4349 211.052 34.5547 211C34.6771 210.948 34.7656 210.876 34.8203 210.785C34.875 210.694 34.9023 210.59 34.9023 210.473C34.9023 210.329 34.8542 210.207 34.7578 210.105C34.6615 210.004 34.5286 209.909 34.3594 209.82C34.1927 209.732 34.0039 209.637 33.793 209.535C33.6602 209.473 33.5156 209.397 33.3594 209.309C33.2031 209.217 33.0547 209.107 32.9141 208.977C32.7734 208.846 32.6576 208.689 32.5664 208.504C32.4779 208.316 32.4336 208.092 32.4336 207.832C32.4336 207.491 32.5117 207.199 32.668 206.957C32.8242 206.715 33.0469 206.53 33.3359 206.402C33.6276 206.272 33.9714 206.207 34.3672 206.207C34.6641 206.207 34.9466 206.242 35.2148 206.312C35.4857 206.38 35.7682 206.479 36.0625 206.609L35.6719 207.551C35.4089 207.444 35.1732 207.362 34.9648 207.305C34.7565 207.245 34.5443 207.215 34.3281 207.215C34.1771 207.215 34.0482 207.24 33.9414 207.289C33.8346 207.336 33.7539 207.404 33.6992 207.492C33.6445 207.578 33.6172 207.678 33.6172 207.793C33.6172 207.928 33.6562 208.043 33.7344 208.137C33.8151 208.228 33.9349 208.316 34.0938 208.402C34.2552 208.488 34.4557 208.589 34.6953 208.703C34.987 208.841 35.2357 208.986 35.4414 209.137C35.6497 209.285 35.8099 209.461 35.9219 209.664C36.0339 209.865 36.0898 210.115 36.0898 210.414ZM38.8203 207.543C39.4062 207.543 39.8555 207.671 40.168 207.926C40.4805 208.181 40.6367 208.569 40.6367 209.09V212H39.8047L39.5742 211.406H39.543C39.418 211.562 39.2904 211.69 39.1602 211.789C39.0299 211.888 38.8802 211.961 38.7109 212.008C38.5417 212.055 38.3359 212.078 38.0938 212.078C37.8359 212.078 37.6042 212.029 37.3984 211.93C37.1953 211.831 37.0352 211.68 36.918 211.477C36.8008 211.271 36.7422 211.01 36.7422 210.695C36.7422 210.232 36.9049 209.891 37.2305 209.672C37.556 209.451 38.0443 209.328 38.6953 209.305L39.4531 209.281V209.09C39.4531 208.861 39.3932 208.693 39.2734 208.586C39.1536 208.479 38.987 208.426 38.7734 208.426C38.5625 208.426 38.3555 208.456 38.1523 208.516C37.9492 208.576 37.7461 208.651 37.543 208.742L37.1484 207.938C37.3802 207.815 37.6393 207.719 37.9258 207.648C38.2148 207.578 38.513 207.543 38.8203 207.543ZM39.4531 209.977L38.9922 209.992C38.6068 210.003 38.3385 210.072 38.1875 210.199C38.0391 210.327 37.9648 210.495 37.9648 210.703C37.9648 210.885 38.0182 211.016 38.125 211.094C38.2318 211.169 38.3711 211.207 38.543 211.207C38.7982 211.207 39.013 211.132 39.1875 210.98C39.3646 210.829 39.4531 210.615 39.4531 210.336V209.977ZM42.9062 212L41.2422 207.633H42.4883L43.332 210.121C43.3789 210.267 43.4154 210.421 43.4414 210.582C43.4701 210.743 43.4896 210.888 43.5 211.016H43.5312C43.5391 210.878 43.5573 210.73 43.5859 210.574C43.6172 210.418 43.6576 210.267 43.707 210.121L44.5469 207.633H45.793L44.1289 212H42.9062ZM48.2227 207.551C48.6263 207.551 48.974 207.629 49.2656 207.785C49.5573 207.939 49.7826 208.163 49.9414 208.457C50.1003 208.751 50.1797 209.111 50.1797 209.535V210.113H47.3633C47.3763 210.449 47.4766 210.714 47.6641 210.906C47.8542 211.096 48.1172 211.191 48.4531 211.191C48.7318 211.191 48.987 211.163 49.2188 211.105C49.4505 211.048 49.6888 210.962 49.9336 210.848V211.77C49.7174 211.876 49.4909 211.954 49.2539 212.004C49.0195 212.053 48.7344 212.078 48.3984 212.078C47.9609 212.078 47.5729 211.997 47.2344 211.836C46.8984 211.674 46.6341 211.428 46.4414 211.098C46.2513 210.767 46.1562 210.35 46.1562 209.848C46.1562 209.337 46.2422 208.913 46.4141 208.574C46.5885 208.233 46.8307 207.978 47.1406 207.809C47.4505 207.637 47.8112 207.551 48.2227 207.551ZM48.2305 208.398C47.9987 208.398 47.806 208.473 47.6523 208.621C47.5013 208.77 47.4141 209.003 47.3906 209.32H49.0625C49.0599 209.143 49.0273 208.986 48.9648 208.848C48.9049 208.71 48.8138 208.6 48.6914 208.52C48.5716 208.439 48.418 208.398 48.2305 208.398ZM55.0664 211.129C55.1966 211.129 55.3229 211.116 55.4453 211.09C55.5703 211.064 55.694 211.031 55.8164 210.992V211.879C55.6888 211.936 55.5299 211.983 55.3398 212.02C55.1523 212.059 54.9466 212.078 54.7227 212.078C54.4622 212.078 54.2279 212.036 54.0195 211.953C53.8138 211.867 53.651 211.72 53.5312 211.512C53.4141 211.301 53.3555 211.008 53.3555 210.633V208.527H52.7852V208.023L53.4414 207.625L53.7852 206.703H54.5469V207.633H55.7695V208.527H54.5469V210.633C54.5469 210.799 54.5938 210.924 54.6875 211.008C54.7839 211.089 54.9102 211.129 55.0664 211.129ZM57.8945 205.922V207.16C57.8945 207.376 57.8867 207.582 57.8711 207.777C57.8581 207.973 57.8477 208.111 57.8398 208.191H57.9023C57.9961 208.04 58.1068 207.918 58.2344 207.824C58.3646 207.73 58.5078 207.661 58.6641 207.617C58.8203 207.573 58.9883 207.551 59.168 207.551C59.4831 207.551 59.7578 207.607 59.9922 207.719C60.2266 207.828 60.4089 208.001 60.5391 208.238C60.6693 208.473 60.7344 208.777 60.7344 209.152V212H59.543V209.449C59.543 209.137 59.4857 208.901 59.3711 208.742C59.2565 208.583 59.0794 208.504 58.8398 208.504C58.6003 208.504 58.4115 208.56 58.2734 208.672C58.1354 208.781 58.0378 208.944 57.9805 209.16C57.9232 209.374 57.8945 209.635 57.8945 209.945V212H56.7031V205.922H57.8945ZM63.7617 207.551C64.1654 207.551 64.513 207.629 64.8047 207.785C65.0964 207.939 65.3216 208.163 65.4805 208.457C65.6393 208.751 65.7188 209.111 65.7188 209.535V210.113H62.9023C62.9154 210.449 63.0156 210.714 63.2031 210.906C63.3932 211.096 63.6562 211.191 63.9922 211.191C64.2708 211.191 64.526 211.163 64.7578 211.105C64.9896 211.048 65.2279 210.962 65.4727 210.848V211.77C65.2565 211.876 65.0299 211.954 64.793 212.004C64.5586 212.053 64.2734 212.078 63.9375 212.078C63.5 212.078 63.112 211.997 62.7734 211.836C62.4375 211.674 62.1732 211.428 61.9805 211.098C61.7904 210.767 61.6953 210.35 61.6953 209.848C61.6953 209.337 61.7812 208.913 61.9531 208.574C62.1276 208.233 62.3698 207.978 62.6797 207.809C62.9896 207.637 63.3503 207.551 63.7617 207.551ZM63.7695 208.398C63.5378 208.398 63.3451 208.473 63.1914 208.621C63.0404 208.77 62.9531 209.003 62.9297 209.32H64.6016C64.599 209.143 64.5664 208.986 64.5039 208.848C64.444 208.71 64.3529 208.6 64.2305 208.52C64.1107 208.439 63.957 208.398 63.7695 208.398ZM71.2031 207.551C71.263 207.551 71.332 207.555 71.4102 207.562C71.4909 207.568 71.556 207.576 71.6055 207.586L71.5156 208.703C71.4766 208.69 71.4206 208.681 71.3477 208.676C71.2773 208.668 71.2161 208.664 71.1641 208.664C71.0104 208.664 70.8607 208.684 70.7148 208.723C70.5716 208.762 70.4427 208.826 70.3281 208.914C70.2135 209 70.1224 209.115 70.0547 209.258C69.9896 209.398 69.957 209.572 69.957 209.777V212H68.7656V207.633H69.668L69.8438 208.367H69.9023C69.9883 208.219 70.0951 208.083 70.2227 207.961C70.3529 207.836 70.5 207.737 70.6641 207.664C70.8307 207.589 71.0104 207.551 71.2031 207.551ZM73.5898 205.922V207.16C73.5898 207.376 73.582 207.582 73.5664 207.777C73.5534 207.973 73.543 208.111 73.5352 208.191H73.5977C73.6914 208.04 73.8021 207.918 73.9297 207.824C74.0599 207.73 74.2031 207.661 74.3594 207.617C74.5156 207.573 74.6836 207.551 74.8633 207.551C75.1784 207.551 75.4531 207.607 75.6875 207.719C75.9219 207.828 76.1042 208.001 76.2344 208.238C76.3646 208.473 76.4297 208.777 76.4297 209.152V212H75.2383V209.449C75.2383 209.137 75.181 208.901 75.0664 208.742C74.9518 208.583 74.7747 208.504 74.5352 208.504C74.2956 208.504 74.1068 208.56 73.9688 208.672C73.8307 208.781 73.7331 208.944 73.6758 209.16C73.6185 209.374 73.5898 209.635 73.5898 209.945V212H72.3984V205.922H73.5898ZM78.8477 207.633V212H77.6562V207.633H78.8477ZM78.2539 205.922C78.431 205.922 78.5833 205.964 78.7109 206.047C78.8385 206.128 78.9023 206.28 78.9023 206.504C78.9023 206.725 78.8385 206.879 78.7109 206.965C78.5833 207.048 78.431 207.09 78.2539 207.09C78.0742 207.09 77.9206 207.048 77.793 206.965C77.668 206.879 77.6055 206.725 77.6055 206.504C77.6055 206.28 77.668 206.128 77.793 206.047C77.9206 205.964 78.0742 205.922 78.2539 205.922ZM82.582 207.551C83.0482 207.551 83.4232 207.678 83.707 207.934C83.9909 208.186 84.1328 208.592 84.1328 209.152V212H82.9414V209.449C82.9414 209.137 82.8841 208.901 82.7695 208.742C82.6576 208.583 82.4805 208.504 82.2383 208.504C81.8737 208.504 81.625 208.628 81.4922 208.875C81.3594 209.122 81.293 209.479 81.293 209.945V212H80.1016V207.633H81.0117L81.1719 208.191H81.2383C81.332 208.04 81.4479 207.918 81.5859 207.824C81.7266 207.73 81.8815 207.661 82.0508 207.617C82.2227 207.573 82.3997 207.551 82.582 207.551ZM89.3281 209.809C89.3281 210.173 89.2786 210.496 89.1797 210.777C89.0833 211.059 88.9414 211.297 88.7539 211.492C88.569 211.685 88.3451 211.831 88.082 211.93C87.8216 212.029 87.5273 212.078 87.1992 212.078C86.8919 212.078 86.6094 212.029 86.3516 211.93C86.0964 211.831 85.8737 211.685 85.6836 211.492C85.4961 211.297 85.3503 211.059 85.2461 210.777C85.1445 210.496 85.0938 210.173 85.0938 209.809C85.0938 209.324 85.1797 208.914 85.3516 208.578C85.5234 208.242 85.7682 207.987 86.0859 207.812C86.4036 207.638 86.7826 207.551 87.2227 207.551C87.6315 207.551 87.9935 207.638 88.3086 207.812C88.6263 207.987 88.875 208.242 89.0547 208.578C89.237 208.914 89.3281 209.324 89.3281 209.809ZM86.3086 209.809C86.3086 210.095 86.3398 210.336 86.4023 210.531C86.4648 210.727 86.5625 210.874 86.6953 210.973C86.8281 211.072 87.0013 211.121 87.2148 211.121C87.4258 211.121 87.5964 211.072 87.7266 210.973C87.8594 210.874 87.9557 210.727 88.0156 210.531C88.0781 210.336 88.1094 210.095 88.1094 209.809C88.1094 209.52 88.0781 209.28 88.0156 209.09C87.9557 208.897 87.8594 208.753 87.7266 208.656C87.5938 208.56 87.4206 208.512 87.207 208.512C86.8919 208.512 86.6628 208.62 86.5195 208.836C86.3789 209.052 86.3086 209.376 86.3086 209.809ZM93.3594 210.703C93.3594 211 93.2891 211.251 93.1484 211.457C93.0104 211.66 92.8034 211.815 92.5273 211.922C92.2513 212.026 91.9076 212.078 91.4961 212.078C91.1914 212.078 90.9297 212.059 90.7109 212.02C90.4948 211.98 90.276 211.915 90.0547 211.824V210.84C90.2917 210.947 90.5456 211.035 90.8164 211.105C91.0898 211.173 91.3294 211.207 91.5352 211.207C91.7669 211.207 91.9323 211.173 92.0312 211.105C92.1328 211.035 92.1836 210.944 92.1836 210.832C92.1836 210.759 92.1628 210.694 92.1211 210.637C92.082 210.577 91.9961 210.51 91.8633 210.438C91.7305 210.362 91.5221 210.264 91.2383 210.145C90.9648 210.03 90.7396 209.914 90.5625 209.797C90.388 209.68 90.2578 209.542 90.1719 209.383C90.0885 209.221 90.0469 209.017 90.0469 208.77C90.0469 208.366 90.2031 208.062 90.5156 207.859C90.8307 207.654 91.2513 207.551 91.7773 207.551C92.0482 207.551 92.306 207.578 92.5508 207.633C92.7982 207.688 93.0521 207.775 93.3125 207.895L92.9531 208.754C92.737 208.66 92.5326 208.583 92.3398 208.523C92.1497 208.464 91.9557 208.434 91.7578 208.434C91.5833 208.434 91.4518 208.457 91.3633 208.504C91.2747 208.551 91.2305 208.622 91.2305 208.719C91.2305 208.789 91.2526 208.852 91.2969 208.906C91.3438 208.961 91.4323 209.022 91.5625 209.09C91.6953 209.155 91.8893 209.24 92.1445 209.344C92.3919 209.445 92.6068 209.552 92.7891 209.664C92.9714 209.773 93.112 209.91 93.2109 210.074C93.3099 210.236 93.3594 210.445 93.3594 210.703ZM94.1211 211.441C94.1211 211.197 94.1875 211.025 94.3203 210.926C94.4557 210.827 94.6185 210.777 94.8086 210.777C94.9935 210.777 95.1523 210.827 95.2852 210.926C95.4206 211.025 95.4883 211.197 95.4883 211.441C95.4883 211.676 95.4206 211.845 95.2852 211.949C95.1523 212.053 94.9935 212.105 94.8086 212.105C94.6185 212.105 94.4557 212.053 94.3203 211.949C94.1875 211.845 94.1211 211.676 94.1211 211.441ZM102.113 210.414C102.113 210.753 102.031 211.047 101.867 211.297C101.703 211.547 101.464 211.74 101.148 211.875C100.836 212.01 100.456 212.078 100.008 212.078C99.8099 212.078 99.6159 212.065 99.4258 212.039C99.2383 212.013 99.0573 211.975 98.8828 211.926C98.7109 211.874 98.5469 211.81 98.3906 211.734V210.609C98.6615 210.729 98.9427 210.837 99.2344 210.934C99.526 211.03 99.8151 211.078 100.102 211.078C100.299 211.078 100.458 211.052 100.578 211C100.701 210.948 100.789 210.876 100.844 210.785C100.898 210.694 100.926 210.59 100.926 210.473C100.926 210.329 100.878 210.207 100.781 210.105C100.685 210.004 100.552 209.909 100.383 209.82C100.216 209.732 100.027 209.637 99.8164 209.535C99.6836 209.473 99.5391 209.397 99.3828 209.309C99.2266 209.217 99.0781 209.107 98.9375 208.977C98.7969 208.846 98.681 208.689 98.5898 208.504C98.5013 208.316 98.457 208.092 98.457 207.832C98.457 207.491 98.5352 207.199 98.6914 206.957C98.8477 206.715 99.0703 206.53 99.3594 206.402C99.651 206.272 99.9948 206.207 100.391 206.207C100.688 206.207 100.97 206.242 101.238 206.312C101.509 206.38 101.792 206.479 102.086 206.609L101.695 207.551C101.432 207.444 101.197 207.362 100.988 207.305C100.78 207.245 100.568 207.215 100.352 207.215C100.201 207.215 100.072 207.24 99.9648 207.289C99.8581 207.336 99.7773 207.404 99.7227 207.492C99.668 207.578 99.6406 207.678 99.6406 207.793C99.6406 207.928 99.6797 208.043 99.7578 208.137C99.8385 208.228 99.9583 208.316 100.117 208.402C100.279 208.488 100.479 208.589 100.719 208.703C101.01 208.841 101.259 208.986 101.465 209.137C101.673 209.285 101.833 209.461 101.945 209.664C102.057 209.865 102.113 210.115 102.113 210.414ZM104.844 207.543C105.43 207.543 105.879 207.671 106.191 207.926C106.504 208.181 106.66 208.569 106.66 209.09V212H105.828L105.598 211.406H105.566C105.441 211.562 105.314 211.69 105.184 211.789C105.053 211.888 104.904 211.961 104.734 212.008C104.565 212.055 104.359 212.078 104.117 212.078C103.859 212.078 103.628 212.029 103.422 211.93C103.219 211.831 103.059 211.68 102.941 211.477C102.824 211.271 102.766 211.01 102.766 210.695C102.766 210.232 102.928 209.891 103.254 209.672C103.579 209.451 104.068 209.328 104.719 209.305L105.477 209.281V209.09C105.477 208.861 105.417 208.693 105.297 208.586C105.177 208.479 105.01 208.426 104.797 208.426C104.586 208.426 104.379 208.456 104.176 208.516C103.973 208.576 103.77 208.651 103.566 208.742L103.172 207.938C103.404 207.815 103.663 207.719 103.949 207.648C104.238 207.578 104.536 207.543 104.844 207.543ZM105.477 209.977L105.016 209.992C104.63 210.003 104.362 210.072 104.211 210.199C104.062 210.327 103.988 210.495 103.988 210.703C103.988 210.885 104.042 211.016 104.148 211.094C104.255 211.169 104.395 211.207 104.566 211.207C104.822 211.207 105.036 211.132 105.211 210.98C105.388 210.829 105.477 210.615 105.477 210.336V209.977ZM108.93 212L107.266 207.633H108.512L109.355 210.121C109.402 210.267 109.439 210.421 109.465 210.582C109.493 210.743 109.513 210.888 109.523 211.016H109.555C109.562 210.878 109.581 210.73 109.609 210.574C109.641 210.418 109.681 210.267 109.73 210.121L110.57 207.633H111.816L110.152 212H108.93ZM114.246 207.551C114.65 207.551 114.997 207.629 115.289 207.785C115.581 207.939 115.806 208.163 115.965 208.457C116.124 208.751 116.203 209.111 116.203 209.535V210.113H113.387C113.4 210.449 113.5 210.714 113.688 210.906C113.878 211.096 114.141 211.191 114.477 211.191C114.755 211.191 115.01 211.163 115.242 211.105C115.474 211.048 115.712 210.962 115.957 210.848V211.77C115.741 211.876 115.514 211.954 115.277 212.004C115.043 212.053 114.758 212.078 114.422 212.078C113.984 212.078 113.596 211.997 113.258 211.836C112.922 211.674 112.658 211.428 112.465 211.098C112.275 210.767 112.18 210.35 112.18 209.848C112.18 209.337 112.266 208.913 112.438 208.574C112.612 208.233 112.854 207.978 113.164 207.809C113.474 207.637 113.835 207.551 114.246 207.551ZM114.254 208.398C114.022 208.398 113.829 208.473 113.676 208.621C113.525 208.77 113.438 209.003 113.414 209.32H115.086C115.083 209.143 115.051 208.986 114.988 208.848C114.928 208.71 114.837 208.6 114.715 208.52C114.595 208.439 114.441 208.398 114.254 208.398ZM121.09 211.129C121.22 211.129 121.346 211.116 121.469 211.09C121.594 211.064 121.717 211.031 121.84 210.992V211.879C121.712 211.936 121.553 211.983 121.363 212.02C121.176 212.059 120.97 212.078 120.746 212.078C120.486 212.078 120.251 212.036 120.043 211.953C119.837 211.867 119.674 211.72 119.555 211.512C119.438 211.301 119.379 211.008 119.379 210.633V208.527H118.809V208.023L119.465 207.625L119.809 206.703H120.57V207.633H121.793V208.527H120.57V210.633C120.57 210.799 120.617 210.924 120.711 211.008C120.807 211.089 120.934 211.129 121.09 211.129ZM123.918 205.922V207.16C123.918 207.376 123.91 207.582 123.895 207.777C123.882 207.973 123.871 208.111 123.863 208.191H123.926C124.02 208.04 124.13 207.918 124.258 207.824C124.388 207.73 124.531 207.661 124.688 207.617C124.844 207.573 125.012 207.551 125.191 207.551C125.507 207.551 125.781 207.607 126.016 207.719C126.25 207.828 126.432 208.001 126.562 208.238C126.693 208.473 126.758 208.777 126.758 209.152V212H125.566V209.449C125.566 209.137 125.509 208.901 125.395 208.742C125.28 208.583 125.103 208.504 124.863 208.504C124.624 208.504 124.435 208.56 124.297 208.672C124.159 208.781 124.061 208.944 124.004 209.16C123.947 209.374 123.918 209.635 123.918 209.945V212H122.727V205.922H123.918ZM129.785 207.551C130.189 207.551 130.536 207.629 130.828 207.785C131.12 207.939 131.345 208.163 131.504 208.457C131.663 208.751 131.742 209.111 131.742 209.535V210.113H128.926C128.939 210.449 129.039 210.714 129.227 210.906C129.417 211.096 129.68 211.191 130.016 211.191C130.294 211.191 130.549 211.163 130.781 211.105C131.013 211.048 131.251 210.962 131.496 210.848V211.77C131.28 211.876 131.053 211.954 130.816 212.004C130.582 212.053 130.297 212.078 129.961 212.078C129.523 212.078 129.135 211.997 128.797 211.836C128.461 211.674 128.197 211.428 128.004 211.098C127.814 210.767 127.719 210.35 127.719 209.848C127.719 209.337 127.805 208.913 127.977 208.574C128.151 208.233 128.393 207.978 128.703 207.809C129.013 207.637 129.374 207.551 129.785 207.551ZM129.793 208.398C129.561 208.398 129.368 208.473 129.215 208.621C129.064 208.77 128.977 209.003 128.953 209.32H130.625C130.622 209.143 130.59 208.986 130.527 208.848C130.467 208.71 130.376 208.6 130.254 208.52C130.134 208.439 129.98 208.398 129.793 208.398ZM137.203 208.527H136.172V212H134.98V208.527H134.324V207.953L134.98 207.633V207.312C134.98 206.94 135.043 206.651 135.168 206.445C135.296 206.237 135.474 206.091 135.703 206.008C135.935 205.922 136.208 205.879 136.523 205.879C136.755 205.879 136.966 205.898 137.156 205.938C137.346 205.974 137.501 206.016 137.621 206.062L137.316 206.938C137.225 206.909 137.126 206.883 137.02 206.859C136.913 206.836 136.79 206.824 136.652 206.824C136.486 206.824 136.363 206.875 136.285 206.977C136.21 207.076 136.172 207.203 136.172 207.359V207.633H137.203V208.527ZM140.328 207.551C140.388 207.551 140.457 207.555 140.535 207.562C140.616 207.568 140.681 207.576 140.73 207.586L140.641 208.703C140.602 208.69 140.546 208.681 140.473 208.676C140.402 208.668 140.341 208.664 140.289 208.664C140.135 208.664 139.986 208.684 139.84 208.723C139.697 208.762 139.568 208.826 139.453 208.914C139.339 209 139.247 209.115 139.18 209.258C139.115 209.398 139.082 209.572 139.082 209.777V212H137.891V207.633H138.793L138.969 208.367H139.027C139.113 208.219 139.22 208.083 139.348 207.961C139.478 207.836 139.625 207.737 139.789 207.664C139.956 207.589 140.135 207.551 140.328 207.551ZM145.531 207.633V212H144.617L144.457 211.441H144.395C144.301 211.59 144.184 211.711 144.043 211.805C143.902 211.898 143.747 211.967 143.578 212.012C143.409 212.056 143.233 212.078 143.051 212.078C142.738 212.078 142.466 212.023 142.234 211.914C142.003 211.802 141.822 211.629 141.691 211.395C141.564 211.16 141.5 210.855 141.5 210.48V207.633H142.691V210.184C142.691 210.496 142.747 210.732 142.859 210.891C142.971 211.049 143.15 211.129 143.395 211.129C143.637 211.129 143.827 211.074 143.965 210.965C144.103 210.853 144.199 210.69 144.254 210.477C144.311 210.26 144.34 209.997 144.34 209.688V207.633H145.531ZM147.973 207.633V212H146.781V207.633H147.973ZM147.379 205.922C147.556 205.922 147.708 205.964 147.836 206.047C147.964 206.128 148.027 206.28 148.027 206.504C148.027 206.725 147.964 206.879 147.836 206.965C147.708 207.048 147.556 207.09 147.379 207.09C147.199 207.09 147.046 207.048 146.918 206.965C146.793 206.879 146.73 206.725 146.73 206.504C146.73 206.28 146.793 206.128 146.918 206.047C147.046 205.964 147.199 205.922 147.379 205.922ZM151.066 211.129C151.197 211.129 151.323 211.116 151.445 211.09C151.57 211.064 151.694 211.031 151.816 210.992V211.879C151.689 211.936 151.53 211.983 151.34 212.02C151.152 212.059 150.947 212.078 150.723 212.078C150.462 212.078 150.228 212.036 150.02 211.953C149.814 211.867 149.651 211.72 149.531 211.512C149.414 211.301 149.355 211.008 149.355 210.633V208.527H148.785V208.023L149.441 207.625L149.785 206.703H150.547V207.633H151.77V208.527H150.547V210.633C150.547 210.799 150.594 210.924 150.688 211.008C150.784 211.089 150.91 211.129 151.066 211.129ZM155.75 210.703C155.75 211 155.68 211.251 155.539 211.457C155.401 211.66 155.194 211.815 154.918 211.922C154.642 212.026 154.298 212.078 153.887 212.078C153.582 212.078 153.32 212.059 153.102 212.02C152.885 211.98 152.667 211.915 152.445 211.824V210.84C152.682 210.947 152.936 211.035 153.207 211.105C153.48 211.173 153.72 211.207 153.926 211.207C154.158 211.207 154.323 211.173 154.422 211.105C154.523 211.035 154.574 210.944 154.574 210.832C154.574 210.759 154.553 210.694 154.512 210.637C154.473 210.577 154.387 210.51 154.254 210.438C154.121 210.362 153.913 210.264 153.629 210.145C153.355 210.03 153.13 209.914 152.953 209.797C152.779 209.68 152.648 209.542 152.562 209.383C152.479 209.221 152.438 209.017 152.438 208.77C152.438 208.366 152.594 208.062 152.906 207.859C153.221 207.654 153.642 207.551 154.168 207.551C154.439 207.551 154.697 207.578 154.941 207.633C155.189 207.688 155.443 207.775 155.703 207.895L155.344 208.754C155.128 208.66 154.923 208.583 154.73 208.523C154.54 208.464 154.346 208.434 154.148 208.434C153.974 208.434 153.842 208.457 153.754 208.504C153.665 208.551 153.621 208.622 153.621 208.719C153.621 208.789 153.643 208.852 153.688 208.906C153.734 208.961 153.823 209.022 153.953 209.09C154.086 209.155 154.28 209.24 154.535 209.344C154.783 209.445 154.997 209.552 155.18 209.664C155.362 209.773 155.503 209.91 155.602 210.074C155.701 210.236 155.75 210.445 155.75 210.703ZM156.512 211.441C156.512 211.197 156.578 211.025 156.711 210.926C156.846 210.827 157.009 210.777 157.199 210.777C157.384 210.777 157.543 210.827 157.676 210.926C157.811 211.025 157.879 211.197 157.879 211.441C157.879 211.676 157.811 211.845 157.676 211.949C157.543 212.053 157.384 212.105 157.199 212.105C157.009 212.105 156.846 212.053 156.711 211.949C156.578 211.845 156.512 211.676 156.512 211.441Z" fill="black"/>
<path d="M139.879 357.96H134.698V356.69L136.441 354.928C136.802 354.55 137.082 354.247 137.281 354.02C137.483 353.792 137.624 353.598 137.706 353.439C137.787 353.279 137.828 353.113 137.828 352.94C137.828 352.729 137.759 352.576 137.623 352.481C137.486 352.387 137.325 352.34 137.139 352.34C136.915 352.34 136.687 352.405 136.456 352.535C136.228 352.662 135.969 352.851 135.679 353.102L134.62 351.861C134.835 351.669 135.062 351.487 135.303 351.314C135.544 351.139 135.829 350.995 136.158 350.885C136.487 350.774 136.887 350.719 137.359 350.719C137.844 350.719 138.264 350.803 138.619 350.973C138.977 351.142 139.254 351.375 139.449 351.671C139.644 351.964 139.742 352.298 139.742 352.672C139.742 353.085 139.665 353.455 139.512 353.78C139.363 354.103 139.136 354.426 138.834 354.752C138.531 355.074 138.153 355.44 137.701 355.851L137.178 356.319V356.368H139.879V357.96ZM143.502 353.282C143.899 353.282 144.26 353.372 144.586 353.551C144.911 353.73 145.172 353.99 145.367 354.332C145.562 354.674 145.66 355.091 145.66 355.582C145.66 356.113 145.552 356.564 145.338 356.935C145.126 357.302 144.805 357.582 144.376 357.774C143.949 357.963 143.41 358.058 142.759 358.058C142.346 358.058 141.968 358.025 141.627 357.96C141.288 357.898 140.985 357.802 140.718 357.672V356.09C140.969 356.204 141.27 356.308 141.622 356.402C141.977 356.494 142.302 356.539 142.598 356.539C142.836 356.539 143.038 356.505 143.204 356.437C143.37 356.368 143.495 356.267 143.58 356.134C143.668 356 143.712 355.836 143.712 355.641C143.712 355.37 143.614 355.159 143.419 355.006C143.223 354.85 142.927 354.772 142.53 354.772C142.351 354.772 142.175 354.789 142.003 354.825C141.83 354.861 141.679 354.9 141.548 354.942L140.84 354.591L141.109 350.821H145.181V352.428H142.75L142.662 353.37C142.766 353.351 142.872 353.331 142.979 353.312C143.09 353.292 143.264 353.282 143.502 353.282ZM151.627 354.4C151.627 354.973 151.581 355.486 151.49 355.939C151.399 356.388 151.252 356.77 151.05 357.086C150.852 357.402 150.588 357.643 150.259 357.809C149.931 357.975 149.527 358.058 149.048 358.058C148.453 358.058 147.964 357.913 147.584 357.623C147.203 357.33 146.921 356.912 146.739 356.368C146.56 355.821 146.47 355.165 146.47 354.4C146.47 353.629 146.552 352.97 146.714 352.423C146.88 351.873 147.152 351.451 147.53 351.158C147.908 350.865 148.414 350.719 149.048 350.719C149.644 350.719 150.131 350.865 150.508 351.158C150.889 351.448 151.171 351.868 151.353 352.418C151.535 352.965 151.627 353.626 151.627 354.4ZM148.389 354.4C148.389 354.866 148.406 355.257 148.438 355.572C148.474 355.888 148.539 356.126 148.633 356.285C148.731 356.441 148.869 356.52 149.048 356.52C149.227 356.52 149.364 356.441 149.459 356.285C149.553 356.126 149.618 355.89 149.654 355.577C149.69 355.261 149.708 354.869 149.708 354.4C149.708 353.928 149.69 353.535 149.654 353.219C149.618 352.903 149.553 352.665 149.459 352.506C149.364 352.343 149.227 352.262 149.048 352.262C148.869 352.262 148.731 352.343 148.633 352.506C148.539 352.665 148.474 352.903 148.438 353.219C148.406 353.535 148.389 353.928 148.389 354.4ZM161.988 352.33C162.619 352.33 163.101 352.491 163.433 352.814C163.769 353.136 163.936 353.652 163.936 354.361V357.96H162.027V354.952C162.027 354.532 161.97 354.241 161.856 354.078C161.745 353.912 161.579 353.829 161.358 353.829C161.049 353.829 160.834 353.964 160.714 354.234C160.596 354.505 160.538 354.887 160.538 355.382V357.96H158.624V354.952C158.624 354.685 158.599 354.47 158.55 354.308C158.505 354.142 158.435 354.021 158.34 353.946C158.246 353.868 158.127 353.829 157.984 353.829C157.766 353.829 157.595 353.896 157.471 354.029C157.351 354.16 157.266 354.352 157.217 354.605C157.169 354.859 157.144 355.17 157.144 355.538V357.96H155.235V352.428H156.675L156.954 353.111H157.007C157.105 352.962 157.23 352.828 157.383 352.711C157.54 352.594 157.724 352.501 157.935 352.433C158.15 352.364 158.394 352.33 158.668 352.33C159.075 352.33 159.41 352.398 159.673 352.535C159.937 352.672 160.152 352.861 160.318 353.102H160.377C160.552 352.854 160.779 352.664 161.055 352.53C161.332 352.397 161.643 352.33 161.988 352.33ZM167.144 357.96H165.235V350.362H167.144V357.96Z" fill="#AB2424"/>
<path d="M27.63 264.99C26.7667 264.99 26.0083 264.92 25.355 264.78C24.7017 264.64 24.13 264.302 23.64 263.765C23.1733 263.228 22.94 262.4 22.94 261.28C22.94 259.717 23.4067 257.617 24.34 254.98C25.2967 252.343 26.545 249.695 28.085 247.035C26.9183 247.105 25.9967 247.28 25.32 247.56C24.6433 247.84 24.2 248.272 23.99 248.855C24.0833 248.855 24.1767 248.972 24.27 249.205C24.3867 249.438 24.445 249.683 24.445 249.94C24.445 250.36 24.2583 250.698 23.885 250.955C23.5117 251.188 23.045 251.305 22.485 251.305C21.8317 251.305 21.3067 251.13 20.91 250.78C20.5133 250.43 20.315 249.928 20.315 249.275C20.315 248.482 20.6183 247.758 21.225 247.105C21.855 246.452 22.7183 245.938 23.815 245.565C24.9117 245.168 26.125 244.97 27.455 244.97C27.945 244.97 28.5517 245.005 29.275 245.075C31.1883 242.042 33.2067 239.568 35.33 237.655C37.4767 235.718 39.5183 234.75 41.455 234.75C42.575 234.75 43.4967 234.913 44.22 235.24L38.725 261H33.685L36.38 248.295C35.5167 247.898 34.7233 247.607 34 247.42C33.2767 247.233 32.5067 247.105 31.69 247.035C30.36 249.905 29.2633 252.845 28.4 255.855C27.56 258.842 27.14 261.233 27.14 263.03C27.14 263.917 27.3033 264.57 27.63 264.99ZM38.725 237.235C37.7217 237.772 36.6717 238.775 35.575 240.245C34.5017 241.692 33.4517 243.453 32.425 245.53C34.105 245.857 35.5283 246.265 36.695 246.755L38.725 237.235ZM46.0389 242.205H51.0789L50.5189 244.83C51.6856 243.827 53.0506 243.325 54.6139 243.325C55.9206 243.325 56.9589 243.757 57.7289 244.62C58.4989 245.483 58.8839 246.895 58.8839 248.855C58.8839 250.698 58.6156 252.565 58.0789 254.455C57.5422 256.322 56.6322 257.92 55.3489 259.25C54.0656 260.557 52.3739 261.21 50.2739 261.21C48.7806 261.21 47.7889 260.79 47.2989 259.95L45.4789 268.49L40.1939 269.75L46.0389 242.205ZM49.1889 258.165C50.3089 258.165 51.2306 257.64 51.9539 256.59C52.7006 255.54 53.2372 254.292 53.5639 252.845C53.9139 251.375 54.0889 250.01 54.0889 248.75C54.0889 246.813 53.5056 245.845 52.3389 245.845C51.9189 245.845 51.4872 245.997 51.0439 246.3C50.6239 246.603 50.2506 247.023 49.9239 247.56L47.8589 257.36C48.0456 257.897 48.4889 258.165 49.1889 258.165ZM62.411 242.205H67.451L66.891 244.83C68.0576 243.827 69.4226 243.325 70.986 243.325C72.2926 243.325 73.331 243.757 74.101 244.62C74.871 245.483 75.256 246.895 75.256 248.855C75.256 250.698 74.9876 252.565 74.451 254.455C73.9143 256.322 73.0043 257.92 71.721 259.25C70.4376 260.557 68.746 261.21 66.646 261.21C65.1526 261.21 64.161 260.79 63.671 259.95L61.851 268.49L56.566 269.75L62.411 242.205ZM65.561 258.165C66.681 258.165 67.6026 257.64 68.326 256.59C69.0726 255.54 69.6093 254.292 69.936 252.845C70.286 251.375 70.461 250.01 70.461 248.75C70.461 246.813 69.8776 245.845 68.711 245.845C68.291 245.845 67.8593 245.997 67.416 246.3C66.996 246.603 66.6226 247.023 66.296 247.56L64.231 257.36C64.4176 257.897 64.861 258.165 65.561 258.165ZM79.588 261.21C78.468 261.21 77.558 260.86 76.858 260.16C76.1814 259.46 75.843 258.41 75.843 257.01C75.843 256.427 75.9364 255.668 76.123 254.735L79.868 237.2L85.048 236.5L81.023 255.4C80.9297 255.75 80.883 256.123 80.883 256.52C80.883 256.987 80.988 257.325 81.198 257.535C81.4314 257.722 81.8047 257.815 82.318 257.815C82.9947 257.815 83.6247 257.535 84.208 256.975C84.7914 256.392 85.2114 255.645 85.468 254.735H86.938C86.0747 257.255 84.9664 258.97 83.613 259.88C82.2597 260.767 80.918 261.21 79.588 261.21ZM90.3891 261.21C88.6858 261.21 87.3558 260.767 86.3991 259.88C85.4424 258.97 84.9641 257.558 84.9641 255.645C84.9641 254.035 85.2791 252.262 85.9091 250.325C86.5391 248.388 87.5658 246.72 88.9891 245.32C90.4124 243.897 92.2208 243.185 94.4141 243.185C96.9808 243.185 98.2641 244.305 98.2641 246.545C98.2641 247.852 97.8908 249.053 97.1441 250.15C96.3974 251.247 95.4058 252.133 94.1691 252.81C92.9324 253.463 91.6141 253.837 90.2141 253.93C90.1674 254.443 90.1441 254.793 90.1441 254.98C90.1441 256.917 90.8674 257.885 92.3141 257.885C92.9674 257.885 93.6674 257.71 94.4141 257.36C95.1608 257.01 95.8374 256.567 96.4441 256.03C95.8141 259.483 93.7958 261.21 90.3891 261.21ZM90.4591 252.25C91.3458 252.227 92.1741 251.935 92.9441 251.375C93.7374 250.815 94.3674 250.103 94.8341 249.24C95.3241 248.353 95.5691 247.432 95.5691 246.475C95.5691 245.518 95.2774 245.04 94.6941 245.04C93.8774 245.04 93.0608 245.787 92.2441 247.28C91.4508 248.75 90.8558 250.407 90.4591 252.25Z" fill="#E93226"/>
<path d="M147.543 249.51C145.251 248.831 140.74 248.116 138.042 248.799L133.69 247.51L131.078 246.736C127.422 245.653 127.032 244.531 122.355 243.145C117.678 241.76 114.354 242.308 110.695 245.643C106.672 249.311 105.486 254.164 104.51 257.535C103.534 260.906 103.879 269.305 104.531 273.462C105.464 279.412 106.615 280.301 109.058 282.601C111.038 284.464 116.473 286.024 118.383 285.363C119.286 285.051 121.025 285.381 122.388 286.55C125.391 289.126 130.165 289.027 136.124 288.952C142.083 288.877 147.86 285.125 149.891 282.966C151.922 280.808 156.109 276.835 157.179 273.139C160.472 261.763 159.091 261.331 157.353 257.194C155.614 253.057 149.834 250.188 147.543 249.51Z" fill="#931F1F"/>
<path fill-rule="evenodd" clip-rule="evenodd" d="M132.023 241.209C131.924 240.985 131.658 240.477 131.381 240.235C131.035 239.932 129.918 236.756 129.453 235.433C129.166 234.617 129.257 233.906 129.36 233.098C129.424 232.595 129.493 232.054 129.479 231.428C129.475 231.213 129.474 231.016 129.473 230.829C129.47 229.596 129.468 228.809 128.249 226.231C127.127 223.856 124.206 221.818 122.911 220.912C123.499 222.515 124.196 224.801 124.69 226.825C124.986 228.041 125.228 229.03 125.367 229.427C125.525 229.876 125.735 230.707 125.96 231.599C126.342 233.109 126.766 234.79 127.053 235.07C127.219 235.232 127.436 235.652 127.701 236.165C128.163 237.058 128.77 238.235 129.509 238.824C130.44 239.566 131.573 240.723 132.023 241.209Z" fill="#628456"/>
<path d="M133.259 245.405C133.151 244.303 132.751 241.92 132.023 241.209M132.023 241.209C131.112 240.319 126.674 239.773 124.437 236.302C122.199 232.832 121.608 231.489 122.046 227.296C122.397 223.942 122.752 221.765 122.911 220.912M132.023 241.209C131.924 240.985 131.658 240.477 131.381 240.235C131.035 239.932 129.918 236.756 129.453 235.433C129.166 234.617 129.257 233.906 129.36 233.098C129.424 232.595 129.493 232.054 129.479 231.428C129.475 231.213 129.474 231.016 129.473 230.829C129.47 229.596 129.468 228.809 128.249 226.231C127.127 223.856 124.206 221.818 122.911 220.912M132.023 241.209C131.573 240.723 130.44 239.566 129.509 238.824C128.77 238.235 128.163 237.058 127.701 236.165C127.436 235.652 127.219 235.232 127.053 235.07C126.766 234.79 126.342 233.109 125.96 231.599C125.735 230.707 125.525 229.876 125.367 229.427C125.228 229.03 124.986 228.041 124.69 226.825C124.196 224.801 123.499 222.515 122.911 220.912" stroke="#628456" stroke-width="3"/>
<path d="M125.919 230.759C125.117 228.114 123.963 223.9 122.72 221.061C122.305 221.587 121.851 224.843 121.772 225.209C121.428 226.798 121.085 230.28 121.23 232.069C121.374 233.858 123.364 236.305 125.327 237.99C126.898 239.339 130.037 240.344 131.41 240.678C131.657 240.757 131.671 240.465 129.749 238.66C127.347 236.403 126.722 233.405 125.919 230.759Z" fill="#859C27" stroke="#628456" stroke-width="3"/>
<path d="M133.756 250.218L137.113 238.624C136.101 237.867 133.898 237.048 133.176 239.825C133.129 239.962 133.091 240.113 133.073 240.259C132.444 243.174 132.35 248.599 132.385 251.058L133.756 250.218Z" fill="#6D4635"/>
<path d="M133.921 249.648L136.973 239.108C136.547 238.566 135.522 238.112 134.833 240.627C134.793 240.752 134.757 240.889 134.73 241.018C134.072 243.643 133.395 248.399 133.127 250.546L133.921 249.648Z" fill="#5B3B2D"/>
<path d="M146.842 250.4C144.813 249.799 139.895 248.744 137.498 249.373L134.551 250.085C133.317 249.72 131.919 248.691 130.648 247.344C129.377 245.997 125.949 244.21 120.834 242.694C115.719 241.179 113.738 241.978 110.476 245.006C106.888 248.337 105.812 252.722 104.93 255.769C104.048 258.816 103.562 266.56 104.872 270.143C106.009 273.254 105.74 274.181 109.101 276.938C110.331 277.946 115.351 280.296 117.106 280.816L120.653 281.867C124.039 282.871 127.543 284.065 132.83 283.968C138.118 283.871 143.263 280.456 145.075 278.498C146.888 276.54 150.622 272.934 151.589 269.593C154.566 259.31 153.343 258.927 151.82 255.201C150.297 251.476 148.872 251.001 146.842 250.4Z" fill="#B32222"/>
<path d="M145.536 250.013C143.817 249.504 140.583 248.968 137.424 249.041C134.265 249.114 132.38 248.769 132.38 248.769C132.38 248.769 131.752 248.324 130.268 246.921C128.784 245.518 124.797 243.869 120.464 242.585C116.132 241.301 114.544 240.831 110.388 244.022C106.232 247.213 106.499 250.348 105.774 252.852C105.049 255.356 105.324 261.602 105.821 264.694C106.533 269.12 107.397 269.784 109.234 271.499C110.722 272.888 113.47 274.218 114.786 274.607L119.922 276.129C122.775 276.974 125.072 276.319 129.539 276.276C134.007 276.232 137.967 274.853 140.085 273.742C142.202 272.631 143.951 269.856 145.644 265.965C148.184 260.13 148.857 257.256 147.545 254.177C147.138 253.222 147.256 250.523 145.536 250.013Z" fill="#C92121"/>
<path d="M145.568 251.212C146.616 252.163 147.786 254.431 148.071 254.973L149.797 257.497L146.967 267.272L145.065 273.845L148.481 274.126C149.563 272.891 151.911 269.982 152.647 268.223C153.567 266.025 154.644 260.672 154.38 257.666C154.116 254.66 151.495 251.961 148.754 250.326C146.014 248.691 143.27 248.701 140.09 248.583C136.911 248.464 136.688 248.581 135.472 248.861C134.257 249.142 133.275 248.942 132.077 247.856C131.119 246.986 127.592 245.063 126.05 244.514C126.192 244.892 128.601 246.606 130.033 248.714C131.464 250.821 132.962 250.893 133.532 250.666C135.42 250.676 139.462 249.403 141.041 249.871C142.259 250.232 144.52 250.261 145.568 251.212Z" fill="#B32222"/>
<path d="M121.731 251.202C122.25 247.697 117.775 247.408 115.472 247.701C114.505 247.659 112.344 247.927 111.439 249.342C110.308 251.111 109.762 254.334 109.692 257.515C109.622 260.696 111.253 262.277 112.216 264.026C113.18 265.775 115.895 265.482 119.266 263.188C122.638 260.893 121.081 255.584 121.731 251.202Z" fill="#EB3333"/>
<path d="M117.645 252.726C118.586 250.372 116.801 249.892 115.791 249.947C115.601 249.853 114.795 249.825 113.089 250.468C111.383 251.111 111.038 253.4 111.078 254.465C111.335 255.571 112.305 258.167 114.135 259.7C116.423 261.617 116.47 255.668 117.645 252.726Z" fill="#FF4E4E"/>
</svg>
