<svg width="182" height="433" viewBox="0 0 182 433" fill="none" xmlns="http://www.w3.org/2000/svg">
<path d="M126.5 15C124.334 -2.05 107.015 17.7893 65.5 20.5217L51 430.302C69.9525 430.849 150.408 438.403 162.008 425.534C166.215 420.866 155.371 425.862 172.992 392.559C181.614 376.264 180.223 330.517 181.125 292.81C182.028 255.103 186.375 143.631 162.008 118.752C150.159 106.655 140.348 86.802 140.348 76.9655V35.352C159.842 35.352 161.105 30.9046 162.008 20.5217C162.91 10.1387 128.666 32.05 126.5 15Z" fill="#ECE4E4"/>
<path d="M80 20.5217C82.1825 3.47175 90.168 4.76756 132 7.49993V430.302C112.903 430.849 31.8328 438.403 20.145 425.534C15.9054 420.866 26.832 425.862 9.07632 392.559C0.388535 376.264 1.7908 330.517 0.881409 292.81C-0.0279846 255.103 -4.4086 143.632 20.145 118.752C32.0838 106.655 41.9703 86.802 41.9703 76.9655V35.352C22.3275 35.352 21.0544 30.9047 20.145 20.5217C19.2356 10.1387 77.8175 37.5717 80 20.5217Z" fill="#ECE4E4"/>
<path d="M77.2181 247.008C43.3679 247.008 12.1818 237.669 0.820068 233C1 340 3.09624 379 9.04755 390.594C21.2712 414.409 21.9589 422.527 20 423.5C20.4701 432.839 69 432.5 93.5 431C152.738 434.736 162.784 426.975 162 422.5C157.769 419.231 169.5 396.5 174 387.5C181.5 362.5 180.021 290.559 181 239L176.536 241.172C169.679 241.95 152.323 241.989 137.749 235.918C119.531 228.331 119.531 247.008 77.2181 247.008Z" fill="#EC7406" fill-opacity="0.7"/>
<path d="M161.503 10.5231C160.603 1.46718 113.511 -0.486761 91.7651 0.0937466C64.102 0.0937402 19.0001 2.3895 19 10.5231V31.4214C19 37.3528 36.8381 38.2423 43.3993 37.9521C67.0198 37.8069 118.985 37.6038 137.881 37.9521C156.778 38.3004 160.941 36.1908 161.503 32.2723C161.878 29.66 162.403 19.579 161.503 10.5231Z" fill="#8BCB75"/>
<rect x="5.5" y="173.5" width="168.714" height="197" fill="#EDDEC6" stroke="#A7A7A7"/>
<rect x="5" y="305.094" width="169.714" height="27.1543" fill="#D76C09"/>
<path d="M30.2954 315.46V314.83H31.9954V322H31.2854V315.46H30.2954ZM33.5553 318.35C33.5553 317.203 33.7319 316.313 34.0853 315.68C34.4386 315.047 35.0719 314.73 35.9853 314.73C36.8986 314.73 37.5319 315.047 37.8853 315.68C38.2386 316.313 38.4153 317.203 38.4153 318.35C38.4153 319.517 38.2386 320.42 37.8853 321.06C37.5319 321.7 36.8986 322.02 35.9853 322.02C35.0653 322.02 34.4286 321.7 34.0753 321.06C33.7286 320.42 33.5553 319.517 33.5553 318.35ZM37.7253 318.35C37.7253 317.73 37.6819 317.207 37.5953 316.78C37.5086 316.353 37.3386 316.01 37.0853 315.75C36.8319 315.49 36.4653 315.36 35.9853 315.36C35.5053 315.36 35.1386 315.49 34.8853 315.75C34.6319 316.01 34.4619 316.353 34.3753 316.78C34.2886 317.207 34.2453 317.73 34.2453 318.35C34.2453 318.99 34.2886 319.527 34.3753 319.96C34.4619 320.387 34.6319 320.73 34.8853 320.99C35.1386 321.25 35.5053 321.38 35.9853 321.38C36.4653 321.38 36.8319 321.25 37.0853 320.99C37.3386 320.73 37.5086 320.387 37.5953 319.96C37.6819 319.527 37.7253 318.99 37.7253 318.35ZM39.7174 318.35C39.7174 317.203 39.894 316.313 40.2474 315.68C40.6007 315.047 41.234 314.73 42.1474 314.73C43.0607 314.73 43.694 315.047 44.0474 315.68C44.4007 316.313 44.5774 317.203 44.5774 318.35C44.5774 319.517 44.4007 320.42 44.0474 321.06C43.694 321.7 43.0607 322.02 42.1474 322.02C41.2274 322.02 40.5907 321.7 40.2374 321.06C39.8907 320.42 39.7174 319.517 39.7174 318.35ZM43.8874 318.35C43.8874 317.73 43.844 317.207 43.7574 316.78C43.6707 316.353 43.5007 316.01 43.2474 315.75C42.994 315.49 42.6274 315.36 42.1474 315.36C41.6674 315.36 41.3007 315.49 41.0474 315.75C40.794 316.01 40.624 316.353 40.5374 316.78C40.4507 317.207 40.4074 317.73 40.4074 318.35C40.4074 318.99 40.4507 319.527 40.5374 319.96C40.624 320.387 40.794 320.73 41.0474 320.99C41.3007 321.25 41.6674 321.38 42.1474 321.38C42.6274 321.38 42.994 321.25 43.2474 320.99C43.5007 320.73 43.6707 320.387 43.7574 319.96C43.844 319.527 43.8874 318.99 43.8874 318.35ZM45.6595 316.33C45.6595 315.903 45.7895 315.56 46.0495 315.3C46.3162 315.033 46.6528 314.9 47.0595 314.9C47.4728 314.9 47.8095 315.033 48.0695 315.3C48.3362 315.56 48.4695 315.903 48.4695 316.33C48.4695 316.763 48.3362 317.113 48.0695 317.38C47.8095 317.64 47.4728 317.77 47.0595 317.77C46.6528 317.77 46.3162 317.64 46.0495 317.38C45.7895 317.113 45.6595 316.763 45.6595 316.33ZM51.2595 315L47.1595 322H46.4495L50.5595 315H51.2595ZM47.0595 315.35C46.8062 315.35 46.6028 315.437 46.4495 315.61C46.3028 315.777 46.2295 316.017 46.2295 316.33C46.2295 316.643 46.3028 316.887 46.4495 317.06C46.6028 317.233 46.8062 317.32 47.0595 317.32C47.3128 317.32 47.5162 317.233 47.6695 317.06C47.8228 316.887 47.8995 316.643 47.8995 316.33C47.8995 316.023 47.8228 315.783 47.6695 315.61C47.5162 315.437 47.3128 315.35 47.0595 315.35ZM49.2595 320.67C49.2595 320.237 49.3895 319.89 49.6495 319.63C49.9162 319.363 50.2528 319.23 50.6595 319.23C51.0662 319.23 51.3995 319.363 51.6595 319.63C51.9262 319.89 52.0595 320.237 52.0595 320.67C52.0595 321.103 51.9262 321.453 51.6595 321.72C51.3995 321.98 51.0662 322.11 50.6595 322.11C50.2528 322.11 49.9162 321.98 49.6495 321.72C49.3895 321.453 49.2595 321.103 49.2595 320.67ZM50.6595 319.69C50.4062 319.69 50.2028 319.777 50.0495 319.95C49.8962 320.123 49.8195 320.363 49.8195 320.67C49.8195 320.977 49.8962 321.217 50.0495 321.39C50.2028 321.563 50.4062 321.65 50.6595 321.65C50.9128 321.65 51.1128 321.567 51.2595 321.4C51.4128 321.227 51.4895 320.983 51.4895 320.67C51.4895 320.357 51.4128 320.117 51.2595 319.95C51.1128 319.777 50.9128 319.69 50.6595 319.69ZM59.1695 322.07C58.5228 322.07 57.9362 321.92 57.4095 321.62C56.8828 321.313 56.4662 320.89 56.1595 320.35C55.8595 319.803 55.7095 319.187 55.7095 318.5C55.7095 317.813 55.8595 317.2 56.1595 316.66C56.4662 316.113 56.8828 315.69 57.4095 315.39C57.9362 315.083 58.5228 314.93 59.1695 314.93C59.8228 314.93 60.4128 315.083 60.9395 315.39C61.4662 315.69 61.8795 316.113 62.1795 316.66C62.4795 317.2 62.6295 317.813 62.6295 318.5C62.6295 319.187 62.4795 319.803 62.1795 320.35C61.8795 320.89 61.4662 321.313 60.9395 321.62C60.4128 321.92 59.8228 322.07 59.1695 322.07ZM59.1695 321.46C59.6895 321.46 60.1562 321.34 60.5695 321.1C60.9828 320.86 61.3095 320.517 61.5495 320.07C61.7895 319.617 61.9095 319.093 61.9095 318.5C61.9095 317.907 61.7895 317.387 61.5495 316.94C61.3095 316.493 60.9828 316.15 60.5695 315.91C60.1562 315.67 59.6895 315.55 59.1695 315.55C58.6495 315.55 58.1828 315.67 57.7695 315.91C57.3562 316.15 57.0295 316.493 56.7895 316.94C56.5495 317.387 56.4295 317.907 56.4295 318.5C56.4295 319.093 56.5495 319.617 56.7895 320.07C57.0295 320.517 57.3562 320.86 57.7695 321.1C58.1828 321.34 58.6495 321.46 59.1695 321.46ZM64.6104 317.51C64.7637 317.17 64.997 316.907 65.3104 316.72C65.6304 316.533 66.0204 316.44 66.4804 316.44V317.17H66.2904C65.7837 317.17 65.377 317.307 65.0704 317.58C64.7637 317.853 64.6104 318.31 64.6104 318.95V322H63.9104V316.54H64.6104V317.51ZM67.2134 319.26C67.2134 318.7 67.3234 318.21 67.5434 317.79C67.7701 317.363 68.0801 317.037 68.4734 316.81C68.8734 316.577 69.3234 316.46 69.8234 316.46C70.3434 316.46 70.7901 316.58 71.1634 316.82C71.5434 317.06 71.8167 317.367 71.9834 317.74V316.54H72.6834V322H71.9834V320.79C71.8101 321.163 71.5334 321.473 71.1534 321.72C70.7801 321.96 70.3334 322.08 69.8134 322.08C69.3201 322.08 68.8734 321.963 68.4734 321.73C68.0801 321.497 67.7701 321.167 67.5434 320.74C67.3234 320.313 67.2134 319.82 67.2134 319.26ZM71.9834 319.27C71.9834 318.83 71.8934 318.443 71.7134 318.11C71.5334 317.777 71.2867 317.52 70.9734 317.34C70.6667 317.16 70.3267 317.07 69.9534 317.07C69.5667 317.07 69.2201 317.157 68.9134 317.33C68.6067 317.503 68.3634 317.757 68.1834 318.09C68.0101 318.417 67.9234 318.807 67.9234 319.26C67.9234 319.707 68.0101 320.1 68.1834 320.44C68.3634 320.773 68.6067 321.03 68.9134 321.21C69.2201 321.383 69.5667 321.47 69.9534 321.47C70.3267 321.47 70.6667 321.38 70.9734 321.2C71.2867 321.02 71.5334 320.763 71.7134 320.43C71.8934 320.097 71.9834 319.71 71.9834 319.27ZM76.8414 316.44C77.4948 316.44 78.0281 316.643 78.4414 317.05C78.8548 317.45 79.0614 318.033 79.0614 318.8V322H78.3714V318.88C78.3714 318.287 78.2214 317.833 77.9214 317.52C77.6281 317.207 77.2248 317.05 76.7114 317.05C76.1848 317.05 75.7648 317.217 75.4514 317.55C75.1381 317.883 74.9814 318.373 74.9814 319.02V322H74.2814V316.54H74.9814V317.47C75.1548 317.137 75.4048 316.883 75.7314 316.71C76.0581 316.53 76.4281 316.44 76.8414 316.44ZM82.8996 316.46C83.4129 316.46 83.8596 316.58 84.2396 316.82C84.6196 317.06 84.8929 317.363 85.0596 317.73V316.54H85.7596V322.14C85.7596 322.64 85.6496 323.083 85.4296 323.47C85.2162 323.857 84.9162 324.153 84.5296 324.36C84.1429 324.573 83.7029 324.68 83.2096 324.68C82.5096 324.68 81.9262 324.513 81.4596 324.18C80.9996 323.847 80.7129 323.393 80.5996 322.82H81.2896C81.4096 323.2 81.6362 323.503 81.9696 323.73C82.3096 323.957 82.7229 324.07 83.2096 324.07C83.5629 324.07 83.8796 323.993 84.1596 323.84C84.4396 323.693 84.6596 323.473 84.8196 323.18C84.9796 322.887 85.0596 322.54 85.0596 322.14V320.79C84.8862 321.163 84.6096 321.473 84.2296 321.72C83.8562 321.96 83.4129 322.08 82.8996 322.08C82.3996 322.08 81.9496 321.963 81.5496 321.73C81.1562 321.497 80.8462 321.167 80.6196 320.74C80.3996 320.313 80.2896 319.82 80.2896 319.26C80.2896 318.7 80.3996 318.21 80.6196 317.79C80.8462 317.363 81.1562 317.037 81.5496 316.81C81.9496 316.577 82.3996 316.46 82.8996 316.46ZM85.0596 319.27C85.0596 318.83 84.9696 318.443 84.7896 318.11C84.6096 317.777 84.3629 317.52 84.0496 317.34C83.7429 317.16 83.4029 317.07 83.0296 317.07C82.6429 317.07 82.2962 317.157 81.9896 317.33C81.6829 317.503 81.4396 317.757 81.2596 318.09C81.0862 318.417 80.9996 318.807 80.9996 319.26C80.9996 319.707 81.0862 320.1 81.2596 320.44C81.4396 320.773 81.6829 321.03 81.9896 321.21C82.2962 321.383 82.6429 321.47 83.0296 321.47C83.4029 321.47 83.7429 321.38 84.0496 321.2C84.3629 321.02 84.6096 320.763 84.7896 320.43C84.9696 320.097 85.0596 319.71 85.0596 319.27ZM92.2976 318.99C92.2976 319.23 92.291 319.413 92.2776 319.54H87.7476C87.7676 319.953 87.8676 320.307 88.0476 320.6C88.2276 320.893 88.4643 321.117 88.7576 321.27C89.051 321.417 89.371 321.49 89.7176 321.49C90.171 321.49 90.551 321.38 90.8576 321.16C91.171 320.94 91.3776 320.643 91.4776 320.27H92.2176C92.0843 320.803 91.7976 321.24 91.3576 321.58C90.9243 321.913 90.3776 322.08 89.7176 322.08C89.2043 322.08 88.7443 321.967 88.3376 321.74C87.931 321.507 87.611 321.18 87.3776 320.76C87.151 320.333 87.0376 319.837 87.0376 319.27C87.0376 318.703 87.151 318.207 87.3776 317.78C87.6043 317.353 87.921 317.027 88.3276 316.8C88.7343 316.573 89.1976 316.46 89.7176 316.46C90.2376 316.46 90.691 316.573 91.0776 316.8C91.471 317.027 91.771 317.333 91.9776 317.72C92.191 318.1 92.2976 318.523 92.2976 318.99ZM91.5876 318.97C91.5943 318.563 91.511 318.217 91.3376 317.93C91.171 317.643 90.941 317.427 90.6476 317.28C90.3543 317.133 90.0343 317.06 89.6876 317.06C89.1676 317.06 88.7243 317.227 88.3576 317.56C87.991 317.893 87.7876 318.363 87.7476 318.97H91.5876ZM96.1383 316.44C96.7917 316.44 97.325 316.643 97.7383 317.05C98.1517 317.45 98.3583 318.033 98.3583 318.8V322H97.6683V318.88C97.6683 318.287 97.5183 317.833 97.2183 317.52C96.925 317.207 96.5217 317.05 96.0083 317.05C95.4817 317.05 95.0617 317.217 94.7483 317.55C94.435 317.883 94.2783 318.373 94.2783 319.02V322H93.5783V316.54H94.2783V317.47C94.4517 317.137 94.7017 316.883 95.0283 316.71C95.355 316.53 95.725 316.44 96.1383 316.44ZM99.5864 319.26C99.5864 318.7 99.6998 318.21 99.9264 317.79C100.153 317.363 100.463 317.037 100.856 316.81C101.256 316.577 101.706 316.46 102.206 316.46C102.686 316.46 103.12 316.577 103.506 316.81C103.893 317.043 104.176 317.347 104.356 317.72V314.6H105.056V322H104.356V320.78C104.19 321.16 103.916 321.473 103.536 321.72C103.156 321.96 102.71 322.08 102.196 322.08C101.696 322.08 101.246 321.963 100.846 321.73C100.453 321.497 100.143 321.167 99.9164 320.74C99.6964 320.313 99.5864 319.82 99.5864 319.26ZM104.356 319.27C104.356 318.83 104.266 318.443 104.086 318.11C103.906 317.777 103.66 317.52 103.346 317.34C103.04 317.16 102.7 317.07 102.326 317.07C101.94 317.07 101.593 317.157 101.286 317.33C100.98 317.503 100.736 317.757 100.556 318.09C100.383 318.417 100.296 318.807 100.296 319.26C100.296 319.707 100.383 320.1 100.556 320.44C100.736 320.773 100.98 321.03 101.286 321.21C101.593 321.383 101.94 321.47 102.326 321.47C102.7 321.47 103.04 321.38 103.346 321.2C103.66 321.02 103.906 320.763 104.086 320.43C104.266 320.097 104.356 319.71 104.356 319.27ZM107.004 315.51C106.864 315.51 106.744 315.46 106.644 315.36C106.544 315.26 106.494 315.137 106.494 314.99C106.494 314.843 106.544 314.723 106.644 314.63C106.744 314.53 106.864 314.48 107.004 314.48C107.144 314.48 107.264 314.53 107.364 314.63C107.464 314.723 107.514 314.843 107.514 314.99C107.514 315.137 107.464 315.26 107.364 315.36C107.264 315.46 107.144 315.51 107.004 315.51ZM107.354 316.54V322H106.654V316.54H107.354ZM109.64 317.51C109.793 317.17 110.026 316.907 110.34 316.72C110.66 316.533 111.05 316.44 111.51 316.44V317.17H111.32C110.813 317.17 110.406 317.307 110.1 317.58C109.793 317.853 109.64 318.31 109.64 318.95V322H108.94V316.54H109.64V317.51ZM117.503 318.99C117.503 319.23 117.496 319.413 117.483 319.54H112.953C112.973 319.953 113.073 320.307 113.253 320.6C113.433 320.893 113.669 321.117 113.963 321.27C114.256 321.417 114.576 321.49 114.923 321.49C115.376 321.49 115.756 321.38 116.063 321.16C116.376 320.94 116.583 320.643 116.683 320.27H117.423C117.289 320.803 117.003 321.24 116.563 321.58C116.129 321.913 115.583 322.08 114.923 322.08C114.409 322.08 113.949 321.967 113.543 321.74C113.136 321.507 112.816 321.18 112.583 320.76C112.356 320.333 112.243 319.837 112.243 319.27C112.243 318.703 112.356 318.207 112.583 317.78C112.809 317.353 113.126 317.027 113.533 316.8C113.939 316.573 114.403 316.46 114.923 316.46C115.443 316.46 115.896 316.573 116.283 316.8C116.676 317.027 116.976 317.333 117.183 317.72C117.396 318.1 117.503 318.523 117.503 318.99ZM116.793 318.97C116.799 318.563 116.716 318.217 116.543 317.93C116.376 317.643 116.146 317.427 115.853 317.28C115.559 317.133 115.239 317.06 114.893 317.06C114.373 317.06 113.929 317.227 113.563 317.56C113.196 317.893 112.993 318.363 112.953 318.97H116.793ZM121.733 322L119.483 319.55V322H118.783V314.6H119.483V318.98L121.683 316.54H122.663L120.073 319.26L122.683 322H121.733ZM124.498 317.13V320.52C124.498 320.853 124.561 321.083 124.688 321.21C124.815 321.337 125.038 321.4 125.358 321.4H125.998V322H125.248C124.755 322 124.388 321.887 124.148 321.66C123.908 321.427 123.788 321.047 123.788 320.52V317.13H123.028V316.54H123.788V315.17H124.498V316.54H125.998V317.13H124.498ZM129.033 322.08C128.406 322.08 127.893 321.937 127.493 321.65C127.099 321.357 126.879 320.96 126.833 320.46H127.553C127.586 320.767 127.729 321.017 127.983 321.21C128.243 321.397 128.589 321.49 129.023 321.49C129.403 321.49 129.699 321.4 129.913 321.22C130.133 321.04 130.243 320.817 130.243 320.55C130.243 320.363 130.183 320.21 130.063 320.09C129.943 319.97 129.789 319.877 129.603 319.81C129.423 319.737 129.176 319.66 128.863 319.58C128.456 319.473 128.126 319.367 127.873 319.26C127.619 319.153 127.403 318.997 127.223 318.79C127.049 318.577 126.963 318.293 126.963 317.94C126.963 317.673 127.043 317.427 127.203 317.2C127.363 316.973 127.589 316.793 127.883 316.66C128.176 316.527 128.509 316.46 128.883 316.46C129.469 316.46 129.943 316.61 130.303 316.91C130.663 317.203 130.856 317.61 130.883 318.13H130.183C130.163 317.81 130.036 317.553 129.803 317.36C129.576 317.16 129.263 317.06 128.863 317.06C128.509 317.06 128.223 317.143 128.003 317.31C127.783 317.477 127.673 317.683 127.673 317.93C127.673 318.143 127.736 318.32 127.863 318.46C127.996 318.593 128.159 318.7 128.353 318.78C128.546 318.853 128.806 318.937 129.133 319.03C129.526 319.137 129.839 319.24 130.073 319.34C130.306 319.44 130.506 319.587 130.673 319.78C130.839 319.973 130.926 320.23 130.933 320.55C130.933 320.843 130.853 321.107 130.693 321.34C130.533 321.567 130.309 321.747 130.023 321.88C129.736 322.013 129.406 322.08 129.033 322.08ZM131.93 319.26C131.93 318.7 132.04 318.21 132.26 317.79C132.487 317.363 132.797 317.037 133.19 316.81C133.59 316.577 134.04 316.46 134.54 316.46C135.06 316.46 135.507 316.58 135.88 316.82C136.26 317.06 136.534 317.367 136.7 317.74V316.54H137.4V322H136.7V320.79C136.527 321.163 136.25 321.473 135.87 321.72C135.497 321.96 135.05 322.08 134.53 322.08C134.037 322.08 133.59 321.963 133.19 321.73C132.797 321.497 132.487 321.167 132.26 320.74C132.04 320.313 131.93 319.82 131.93 319.26ZM136.7 319.27C136.7 318.83 136.61 318.443 136.43 318.11C136.25 317.777 136.004 317.52 135.69 317.34C135.384 317.16 135.044 317.07 134.67 317.07C134.284 317.07 133.937 317.157 133.63 317.33C133.324 317.503 133.08 317.757 132.9 318.09C132.727 318.417 132.64 318.807 132.64 319.26C132.64 319.707 132.727 320.1 132.9 320.44C133.08 320.773 133.324 321.03 133.63 321.21C133.937 321.383 134.284 321.47 134.67 321.47C135.044 321.47 135.384 321.38 135.69 321.2C136.004 321.02 136.25 320.763 136.43 320.43C136.61 320.097 136.7 319.71 136.7 319.27ZM141.148 317.13H139.878V322H139.178V317.13H138.418V316.54H139.178V316.16C139.178 315.567 139.328 315.13 139.628 314.85C139.935 314.57 140.428 314.43 141.108 314.43V315.03C140.655 315.03 140.335 315.117 140.148 315.29C139.968 315.463 139.878 315.753 139.878 316.16V316.54H141.148V317.13ZM143.16 317.13V320.52C143.16 320.853 143.224 321.083 143.35 321.21C143.477 321.337 143.7 321.4 144.02 321.4H144.66V322H143.91C143.417 322 143.05 321.887 142.81 321.66C142.57 321.427 142.45 321.047 142.45 320.52V317.13H141.69V316.54H142.45V315.17H143.16V316.54H144.66V317.13H143.16Z" fill="white"/>
<path d="M43.4956 202.567L44.4869 202.463L44.3825 201.11L44.3304 198.663L44.4869 194.862L44.8521 191.53L45.3738 187.47L45.5825 185.231L45.739 184.033L46.8346 183.721L48.4519 183.513L49.8605 183.617L50.9561 184.138L51.7387 184.919L52.2604 186.012V186.741L52.1039 187.99L51.5822 189.292L50.6953 190.437L49.7562 191.166L48.7128 191.687L47.0433 192.103L46.052 192.207L46.1564 193.092H47.6693L48.3997 195.279L49.4432 197.882L50.904 200.641L51.8952 201.891L52.9908 202.828L54.1908 203.244H55.6516L56.2254 203.088L55.2342 202.047L54.4516 201.11L53.7212 199.964L53.3038 199.288L52.5213 198.038L51.53 196.112L50.6953 193.977L50.2257 192.52L51.3735 191.999L52.4169 191.374L53.4082 190.437L54.1908 189.188L54.6603 188.198L54.9212 186.741L54.8168 185.491L54.2951 184.138L53.7734 183.409L52.6778 182.42L51.3735 181.795L49.7562 181.587L47.9302 181.795L46.7824 182.055L45.5303 182.42L44.6956 182.315L43.8086 181.795L43.4956 181.326L43.2348 180.962L43.0783 180.597L42.7652 179.712L42.9739 181.014L43.0783 181.951L43.1826 183.617L43.0783 186.324L42.2957 192.884L41.6696 197.361L41.4609 199.964V201.11L41.8261 201.891L42.4 202.307L43.4956 202.567Z" fill="black" stroke="black"/>
<path d="M60.8164 195.201C61.3903 193.24 62.2685 191.591 63.451 190.255C64.651 188.901 65.7727 188.224 66.8161 188.224C67.8595 188.224 68.5986 188.545 69.0334 189.188C69.4682 189.812 69.6855 190.671 69.6855 191.765C69.6855 192.84 69.5116 194.359 69.1638 196.32C68.8334 198.281 68.6682 199.713 68.6682 200.615C68.6682 201.5 68.7812 202.151 69.0073 202.567C69.2334 202.966 69.6159 203.314 70.1551 203.609C69.929 203.626 69.6073 203.635 69.1899 203.635C68.0769 203.635 67.2509 203.409 66.7118 202.958C66.19 202.489 65.9292 201.7 65.9292 200.589C65.9292 199.947 66.1031 198.654 66.4509 196.71C66.7987 194.749 66.9726 193.309 66.9726 192.389C66.9726 191.244 66.5727 190.671 65.7727 190.671C65.3031 190.671 64.7814 190.923 64.2075 191.426C63.6336 191.912 63.0772 192.58 62.538 193.431C62.0163 194.264 61.5729 195.331 61.2077 196.632C60.8599 197.916 60.686 199.192 60.686 200.459C60.686 201.708 60.7381 202.637 60.8425 203.244C60.4251 203.279 60.1903 203.296 60.1382 203.296C59.3208 203.296 58.7121 203.123 58.3122 202.776C57.9295 202.429 57.7383 201.891 57.7383 201.162C57.7383 200.415 57.8948 198.993 58.2078 196.893C59.1295 190.437 59.5904 185.535 59.5904 182.185C59.5904 180.675 59.486 179.66 59.2773 179.14C60.286 179.504 60.9903 180.042 61.3903 180.754C61.8077 181.465 62.0163 182.446 62.0163 183.695C62.0163 184.563 61.8424 186.385 61.4946 189.161C61.1642 191.938 60.9382 193.951 60.8164 195.201ZM77.1745 203.635C76.1833 203.288 75.4877 202.758 75.0877 202.047C74.7052 201.318 74.5138 200.441 74.5138 199.418C74.5138 198.394 74.653 196.927 74.9312 195.018C75.2094 193.11 75.3485 191.626 75.3485 190.567C75.3485 189.509 75.2964 188.693 75.192 188.12C75.505 188.086 75.7572 188.068 75.9485 188.068C76.7311 188.068 77.2963 188.242 77.6441 188.589C77.9919 188.936 78.1658 189.509 78.1658 190.307C78.1658 190.567 77.9484 191.938 77.5136 194.42C77.0963 196.884 76.8789 198.923 76.8615 200.537C76.8615 202.133 76.9658 203.166 77.1745 203.635ZM77.5658 185.491C76.105 185.491 75.3746 184.997 75.3746 184.007C75.3746 183.66 75.505 183.174 75.7659 182.55C76.1485 182.48 76.479 182.446 76.7572 182.446C78.218 182.446 78.9484 182.94 78.9484 183.929C78.9484 184.276 78.8179 184.762 78.5571 185.387C78.1745 185.456 77.8441 185.491 77.5658 185.491ZM94.3987 191.921C94.3987 192.719 94.2248 194.133 93.877 196.164C93.5465 198.177 93.3814 199.643 93.3814 200.563C93.3814 201.483 93.4944 202.151 93.7205 202.567C93.9465 202.966 94.3291 203.314 94.8682 203.609C94.6421 203.626 94.3204 203.635 93.9031 203.635C92.7205 203.635 91.8771 203.418 91.3728 202.984C90.8858 202.533 90.6424 201.734 90.6424 200.589C90.6424 199.947 90.8162 198.654 91.1641 196.71C91.5119 194.749 91.6858 193.309 91.6858 192.389C91.6858 191.244 91.3379 190.671 90.6424 190.671C89.5293 190.671 88.3729 191.652 87.173 193.613C85.9903 195.574 85.3991 197.934 85.3991 200.693C85.3991 201.786 85.4513 202.637 85.5557 203.244C85.1034 203.279 84.8339 203.296 84.747 203.296C83.2166 203.296 82.4515 202.55 82.4515 201.058C82.4515 200.711 82.6341 199.374 82.9993 197.049C83.3645 194.723 83.5471 192.875 83.5471 191.504C83.5471 190.116 83.3992 188.84 83.1036 187.678C84.1296 188.077 84.8426 188.649 85.2426 189.396C85.66 190.125 85.8687 190.966 85.8687 191.921C85.8687 192.858 85.7643 193.951 85.5557 195.201C86.1295 193.24 87.0251 191.591 88.2425 190.255C89.4772 188.901 90.6249 188.224 91.6858 188.224C93.4944 188.224 94.3987 189.456 94.3987 191.921ZM108.406 194.706C108.406 193.005 108.189 191.791 107.754 191.062C107.337 190.315 106.728 189.942 105.928 189.942C105.145 189.942 104.354 190.333 103.554 191.114C102.754 191.877 102.119 192.832 101.65 193.977C101.198 195.105 100.972 196.285 100.972 197.517C100.972 198.732 101.206 199.791 101.676 200.693C102.146 201.578 102.859 202.021 103.815 202.021C105.171 202.021 106.276 201.222 107.128 199.626C107.98 198.029 108.406 196.389 108.406 194.706ZM100.841 193.691C101.502 191.817 102.389 190.454 103.502 189.604C104.632 188.736 105.771 188.302 106.919 188.302C108.084 188.302 109.05 188.814 109.815 189.838C110.58 190.845 110.962 192.216 110.962 193.951C110.962 195.86 110.597 197.63 109.867 199.261C109.05 201.066 107.867 202.324 106.319 203.036C105.485 203.435 104.563 203.635 103.554 203.635C102.146 203.635 100.911 203.053 99.85 201.891C98.7891 200.711 98.2588 199.036 98.2588 196.867C98.2588 194.68 98.7283 192.788 99.6674 191.192C100.606 189.595 101.885 188.485 103.502 187.86C103.85 187.86 104.024 188.034 104.024 188.381C102.302 189.509 101.241 191.279 100.841 193.691Z" fill="black"/>
<path d="M163.385 181.639H113.196V205.171H163.385V181.639Z" fill="black" stroke="black"/>
<path d="M122.262 186.355V185.955H121.862H121.497H121.097V186.355V196.578C121.097 197.136 120.936 197.613 120.617 198.025C120.343 198.367 119.864 198.583 119.068 198.583C118.239 198.583 117.715 198.333 117.4 197.907C117.047 197.431 116.857 196.815 116.857 196.031V195.631H116.457H116.092H115.692V196.031C115.692 197.117 115.965 198.023 116.558 198.7L116.558 198.7L116.561 198.704C117.177 199.389 118.031 199.711 119.068 199.711C120.026 199.711 120.823 199.429 121.403 198.822L121.403 198.822C121.98 198.218 122.262 197.46 122.262 196.578V186.355ZM133.379 189.344V188.944H132.979H132.614H132.214V189.344V194.537C132.214 195.96 131.874 196.97 131.262 197.636C130.641 198.296 129.816 198.638 128.743 198.638C127.707 198.638 126.939 198.332 126.383 197.759C125.833 197.177 125.527 196.307 125.527 195.084V189.344V188.944H125.127H124.78H124.38V189.344V195.047C124.38 196.557 124.768 197.76 125.616 198.578C126.442 199.376 127.496 199.766 128.743 199.766C129.774 199.766 130.684 199.504 131.454 198.965C131.745 198.765 131.998 198.531 132.214 198.265V199.183V199.583H132.614H132.979H133.379V199.183V189.344ZM135.623 186.966L135.64 186.985L135.66 187.002C135.833 187.154 136.043 187.229 136.27 187.229C136.496 187.229 136.712 187.154 136.881 186.985C137.06 186.807 137.145 186.58 137.145 186.337C137.145 186.102 137.065 185.878 136.882 185.708C136.719 185.533 136.505 185.445 136.27 185.445C136.027 185.445 135.811 185.538 135.641 185.708C135.465 185.883 135.395 186.109 135.395 186.337C135.395 186.567 135.465 186.786 135.623 186.966ZM136.852 189.344V188.944H136.452H136.087H135.687V189.344V199.183V199.583H136.087H136.452H136.852V199.183V189.344ZM139.359 191.377L139.359 191.377L139.357 191.381C138.92 192.214 138.708 193.179 138.708 194.264C138.708 195.349 138.92 196.314 139.357 197.146L139.357 197.146L139.359 197.15C139.806 197.979 140.426 198.619 141.214 199.059L141.214 199.059C141.999 199.497 142.882 199.711 143.856 199.711C145.178 199.711 146.295 199.377 147.173 198.676L147.173 198.676C148.055 197.969 148.593 197.042 148.779 195.914L148.855 195.449H148.384H148.019H147.678L147.624 195.785C147.482 196.659 147.078 197.33 146.412 197.823C145.737 198.322 144.894 198.583 143.856 198.583C143.126 198.583 142.459 198.427 141.849 198.118C141.266 197.805 140.791 197.333 140.424 196.689C140.065 196.06 139.873 195.258 139.873 194.264C139.873 193.269 140.065 192.467 140.424 191.838C140.791 191.193 141.266 190.729 141.848 190.428L141.851 190.427C142.46 190.106 143.127 189.944 143.856 189.944C144.894 189.944 145.737 190.205 146.412 190.704C147.078 191.197 147.482 191.868 147.624 192.742L147.678 193.078H148.019H148.384H148.855L148.779 192.613C148.593 191.486 148.056 190.564 147.173 189.87C146.296 189.157 145.179 188.816 143.856 188.816C142.882 188.816 141.999 189.031 141.214 189.468L141.214 189.468C140.426 189.908 139.806 190.548 139.359 191.377ZM157.877 197.823L157.877 197.823C157.203 198.322 156.36 198.583 155.322 198.583C154.602 198.583 153.946 198.432 153.348 198.134C152.763 197.831 152.282 197.375 151.903 196.754C151.598 196.237 151.411 195.599 151.356 194.828H159.832H160.209L160.231 194.45C160.244 194.22 160.25 193.883 160.25 193.444C160.25 192.659 160.057 191.914 159.672 191.213C159.295 190.5 158.73 189.927 157.991 189.492C157.236 189.035 156.341 188.816 155.322 188.816C154.348 188.816 153.464 189.03 152.68 189.468L152.848 189.77L152.68 189.468C151.892 189.908 151.273 190.548 150.825 191.376L150.824 191.376L150.822 191.381C150.385 192.214 150.174 193.179 150.174 194.264C150.174 195.348 150.385 196.313 150.822 197.146L150.822 197.146L150.825 197.151C151.273 197.979 151.892 198.619 152.68 199.059C153.464 199.497 154.348 199.711 155.322 199.711C156.644 199.711 157.762 199.377 158.639 198.676L158.64 198.676C159.521 197.969 160.059 197.042 160.245 195.914L160.322 195.449H159.85H159.485H159.145L159.09 195.784C158.948 196.659 158.544 197.33 157.877 197.823ZM151.903 191.773C152.282 191.152 152.762 190.703 153.346 190.412L153.346 190.412L153.351 190.41C153.949 190.1 154.603 189.944 155.322 189.944C156.027 189.944 156.675 190.1 157.274 190.41L157.274 190.41L157.282 190.414C157.875 190.704 158.339 191.149 158.678 191.761L158.678 191.761L158.681 191.766C158.976 192.281 159.134 192.92 159.134 193.7H151.356C151.411 192.928 151.598 192.29 151.903 191.773Z" fill="white" stroke="white" stroke-width="0.8"/>
<path d="M23.3775 204.014L24.4329 204.91H24.8795L25.4072 204.516L26.0161 204.086L28.4517 204.588L31.2932 204.803L34.4189 204.588L37.3823 203.907L40.1427 203.226L44.4346 202.515L43.106 181.719L42.9738 180.806L42.8625 179.868C42.9166 179.713 42.9611 179.416 43.026 179.244C43.1071 179.029 43.1129 178.994 43.2347 178.671C43.3321 178.413 42.9842 178.386 42.8625 178.422H41.1169L40.6298 178.852L39.9803 179.963L39.2902 182.114L39.0061 182.974L38.6813 183.153H38.3565L37.7045 182.68L37.1306 182.159L36.7132 181.639L36.4524 181.222L36.2457 180.787L35.7586 181.038L35.312 181.378L35.0279 181.951L34.9916 182.472L35.0279 182.974L35.2524 184.19L35.312 185.335L35.3932 185.96L35.6176 186.637L35.8785 186.897L36.2457 187.06L35.0279 187.777L32.8358 188.996L30.5219 190.286L29.3853 189.605L27.7617 188.243L26.625 186.988L25.6102 185.34L25.3666 187.419L25.2042 189.426L25.3666 190.573L25.4478 191.899L23.4993 190.393L22.0379 188.422L20.333 185.662L19.0746 183.153L17.329 179.605L16.3142 177.526L16.436 180.429L16.8419 183.762L17.7756 187.777L18.9122 191.576L20.5765 196.2L21.5102 198.602L21.7944 199.856L22.0379 201.756L22.3627 202.975L23.3775 204.014Z" fill="black" stroke="black"/>
<path d="M31.0898 212.414C31.0898 212.753 31.0078 213.047 30.8438 213.297C30.6797 213.547 30.4401 213.74 30.125 213.875C29.8125 214.01 29.4323 214.078 28.9844 214.078C28.7865 214.078 28.5924 214.065 28.4023 214.039C28.2148 214.013 28.0339 213.975 27.8594 213.926C27.6875 213.874 27.5234 213.81 27.3672 213.734V212.609C27.638 212.729 27.9193 212.837 28.2109 212.934C28.5026 213.03 28.7917 213.078 29.0781 213.078C29.276 213.078 29.4349 213.052 29.5547 213C29.6771 212.948 29.7656 212.876 29.8203 212.785C29.875 212.694 29.9023 212.59 29.9023 212.473C29.9023 212.329 29.8542 212.207 29.7578 212.105C29.6615 212.004 29.5286 211.909 29.3594 211.82C29.1927 211.732 29.0039 211.637 28.793 211.535C28.6602 211.473 28.5156 211.397 28.3594 211.309C28.2031 211.217 28.0547 211.107 27.9141 210.977C27.7734 210.846 27.6576 210.689 27.5664 210.504C27.4779 210.316 27.4336 210.092 27.4336 209.832C27.4336 209.491 27.5117 209.199 27.668 208.957C27.8242 208.715 28.0469 208.53 28.3359 208.402C28.6276 208.272 28.9714 208.207 29.3672 208.207C29.6641 208.207 29.9466 208.242 30.2148 208.312C30.4857 208.38 30.7682 208.479 31.0625 208.609L30.6719 209.551C30.4089 209.444 30.1732 209.362 29.9648 209.305C29.7565 209.245 29.5443 209.215 29.3281 209.215C29.1771 209.215 29.0482 209.24 28.9414 209.289C28.8346 209.336 28.7539 209.404 28.6992 209.492C28.6445 209.578 28.6172 209.678 28.6172 209.793C28.6172 209.928 28.6562 210.043 28.7344 210.137C28.8151 210.228 28.9349 210.316 29.0938 210.402C29.2552 210.488 29.4557 210.589 29.6953 210.703C29.987 210.841 30.2357 210.986 30.4414 211.137C30.6497 211.285 30.8099 211.461 30.9219 211.664C31.0339 211.865 31.0898 212.115 31.0898 212.414ZM33.8203 209.543C34.4062 209.543 34.8555 209.671 35.168 209.926C35.4805 210.181 35.6367 210.569 35.6367 211.09V214H34.8047L34.5742 213.406H34.543C34.418 213.562 34.2904 213.69 34.1602 213.789C34.0299 213.888 33.8802 213.961 33.7109 214.008C33.5417 214.055 33.3359 214.078 33.0938 214.078C32.8359 214.078 32.6042 214.029 32.3984 213.93C32.1953 213.831 32.0352 213.68 31.918 213.477C31.8008 213.271 31.7422 213.01 31.7422 212.695C31.7422 212.232 31.9049 211.891 32.2305 211.672C32.556 211.451 33.0443 211.328 33.6953 211.305L34.4531 211.281V211.09C34.4531 210.861 34.3932 210.693 34.2734 210.586C34.1536 210.479 33.987 210.426 33.7734 210.426C33.5625 210.426 33.3555 210.456 33.1523 210.516C32.9492 210.576 32.7461 210.651 32.543 210.742L32.1484 209.938C32.3802 209.815 32.6393 209.719 32.9258 209.648C33.2148 209.578 33.513 209.543 33.8203 209.543ZM34.4531 211.977L33.9922 211.992C33.6068 212.003 33.3385 212.072 33.1875 212.199C33.0391 212.327 32.9648 212.495 32.9648 212.703C32.9648 212.885 33.0182 213.016 33.125 213.094C33.2318 213.169 33.3711 213.207 33.543 213.207C33.7982 213.207 34.013 213.132 34.1875 212.98C34.3646 212.829 34.4531 212.615 34.4531 212.336V211.977ZM37.9062 214L36.2422 209.633H37.4883L38.332 212.121C38.3789 212.267 38.4154 212.421 38.4414 212.582C38.4701 212.743 38.4896 212.888 38.5 213.016H38.5312C38.5391 212.878 38.5573 212.73 38.5859 212.574C38.6172 212.418 38.6576 212.267 38.707 212.121L39.5469 209.633H40.793L39.1289 214H37.9062ZM43.2227 209.551C43.6263 209.551 43.974 209.629 44.2656 209.785C44.5573 209.939 44.7826 210.163 44.9414 210.457C45.1003 210.751 45.1797 211.111 45.1797 211.535V212.113H42.3633C42.3763 212.449 42.4766 212.714 42.6641 212.906C42.8542 213.096 43.1172 213.191 43.4531 213.191C43.7318 213.191 43.987 213.163 44.2188 213.105C44.4505 213.048 44.6888 212.962 44.9336 212.848V213.77C44.7174 213.876 44.4909 213.954 44.2539 214.004C44.0195 214.053 43.7344 214.078 43.3984 214.078C42.9609 214.078 42.5729 213.997 42.2344 213.836C41.8984 213.674 41.6341 213.428 41.4414 213.098C41.2513 212.767 41.1562 212.35 41.1562 211.848C41.1562 211.337 41.2422 210.913 41.4141 210.574C41.5885 210.233 41.8307 209.978 42.1406 209.809C42.4505 209.637 42.8112 209.551 43.2227 209.551ZM43.2305 210.398C42.9987 210.398 42.806 210.473 42.6523 210.621C42.5013 210.77 42.4141 211.003 42.3906 211.32H44.0625C44.0599 211.143 44.0273 210.986 43.9648 210.848C43.9049 210.71 43.8138 210.6 43.6914 210.52C43.5716 210.439 43.418 210.398 43.2305 210.398ZM50.0664 213.129C50.1966 213.129 50.3229 213.116 50.4453 213.09C50.5703 213.064 50.694 213.031 50.8164 212.992V213.879C50.6888 213.936 50.5299 213.983 50.3398 214.02C50.1523 214.059 49.9466 214.078 49.7227 214.078C49.4622 214.078 49.2279 214.036 49.0195 213.953C48.8138 213.867 48.651 213.72 48.5312 213.512C48.4141 213.301 48.3555 213.008 48.3555 212.633V210.527H47.7852V210.023L48.4414 209.625L48.7852 208.703H49.5469V209.633H50.7695V210.527H49.5469V212.633C49.5469 212.799 49.5938 212.924 49.6875 213.008C49.7839 213.089 49.9102 213.129 50.0664 213.129ZM52.8945 207.922V209.16C52.8945 209.376 52.8867 209.582 52.8711 209.777C52.8581 209.973 52.8477 210.111 52.8398 210.191H52.9023C52.9961 210.04 53.1068 209.918 53.2344 209.824C53.3646 209.73 53.5078 209.661 53.6641 209.617C53.8203 209.573 53.9883 209.551 54.168 209.551C54.4831 209.551 54.7578 209.607 54.9922 209.719C55.2266 209.828 55.4089 210.001 55.5391 210.238C55.6693 210.473 55.7344 210.777 55.7344 211.152V214H54.543V211.449C54.543 211.137 54.4857 210.901 54.3711 210.742C54.2565 210.583 54.0794 210.504 53.8398 210.504C53.6003 210.504 53.4115 210.56 53.2734 210.672C53.1354 210.781 53.0378 210.944 52.9805 211.16C52.9232 211.374 52.8945 211.635 52.8945 211.945V214H51.7031V207.922H52.8945ZM58.7617 209.551C59.1654 209.551 59.513 209.629 59.8047 209.785C60.0964 209.939 60.3216 210.163 60.4805 210.457C60.6393 210.751 60.7188 211.111 60.7188 211.535V212.113H57.9023C57.9154 212.449 58.0156 212.714 58.2031 212.906C58.3932 213.096 58.6562 213.191 58.9922 213.191C59.2708 213.191 59.526 213.163 59.7578 213.105C59.9896 213.048 60.2279 212.962 60.4727 212.848V213.77C60.2565 213.876 60.0299 213.954 59.793 214.004C59.5586 214.053 59.2734 214.078 58.9375 214.078C58.5 214.078 58.112 213.997 57.7734 213.836C57.4375 213.674 57.1732 213.428 56.9805 213.098C56.7904 212.767 56.6953 212.35 56.6953 211.848C56.6953 211.337 56.7812 210.913 56.9531 210.574C57.1276 210.233 57.3698 209.978 57.6797 209.809C57.9896 209.637 58.3503 209.551 58.7617 209.551ZM58.7695 210.398C58.5378 210.398 58.3451 210.473 58.1914 210.621C58.0404 210.77 57.9531 211.003 57.9297 211.32H59.6016C59.599 211.143 59.5664 210.986 59.5039 210.848C59.444 210.71 59.3529 210.6 59.2305 210.52C59.1107 210.439 58.957 210.398 58.7695 210.398ZM66.2031 209.551C66.263 209.551 66.332 209.555 66.4102 209.562C66.4909 209.568 66.556 209.576 66.6055 209.586L66.5156 210.703C66.4766 210.69 66.4206 210.681 66.3477 210.676C66.2773 210.668 66.2161 210.664 66.1641 210.664C66.0104 210.664 65.8607 210.684 65.7148 210.723C65.5716 210.762 65.4427 210.826 65.3281 210.914C65.2135 211 65.1224 211.115 65.0547 211.258C64.9896 211.398 64.957 211.572 64.957 211.777V214H63.7656V209.633H64.668L64.8438 210.367H64.9023C64.9883 210.219 65.0951 210.083 65.2227 209.961C65.3529 209.836 65.5 209.737 65.6641 209.664C65.8307 209.589 66.0104 209.551 66.2031 209.551ZM68.5898 207.922V209.16C68.5898 209.376 68.582 209.582 68.5664 209.777C68.5534 209.973 68.543 210.111 68.5352 210.191H68.5977C68.6914 210.04 68.8021 209.918 68.9297 209.824C69.0599 209.73 69.2031 209.661 69.3594 209.617C69.5156 209.573 69.6836 209.551 69.8633 209.551C70.1784 209.551 70.4531 209.607 70.6875 209.719C70.9219 209.828 71.1042 210.001 71.2344 210.238C71.3646 210.473 71.4297 210.777 71.4297 211.152V214H70.2383V211.449C70.2383 211.137 70.181 210.901 70.0664 210.742C69.9518 210.583 69.7747 210.504 69.5352 210.504C69.2956 210.504 69.1068 210.56 68.9688 210.672C68.8307 210.781 68.7331 210.944 68.6758 211.16C68.6185 211.374 68.5898 211.635 68.5898 211.945V214H67.3984V207.922H68.5898ZM73.8477 209.633V214H72.6562V209.633H73.8477ZM73.2539 207.922C73.431 207.922 73.5833 207.964 73.7109 208.047C73.8385 208.128 73.9023 208.28 73.9023 208.504C73.9023 208.725 73.8385 208.879 73.7109 208.965C73.5833 209.048 73.431 209.09 73.2539 209.09C73.0742 209.09 72.9206 209.048 72.793 208.965C72.668 208.879 72.6055 208.725 72.6055 208.504C72.6055 208.28 72.668 208.128 72.793 208.047C72.9206 207.964 73.0742 207.922 73.2539 207.922ZM77.582 209.551C78.0482 209.551 78.4232 209.678 78.707 209.934C78.9909 210.186 79.1328 210.592 79.1328 211.152V214H77.9414V211.449C77.9414 211.137 77.8841 210.901 77.7695 210.742C77.6576 210.583 77.4805 210.504 77.2383 210.504C76.8737 210.504 76.625 210.628 76.4922 210.875C76.3594 211.122 76.293 211.479 76.293 211.945V214H75.1016V209.633H76.0117L76.1719 210.191H76.2383C76.332 210.04 76.4479 209.918 76.5859 209.824C76.7266 209.73 76.8815 209.661 77.0508 209.617C77.2227 209.573 77.3997 209.551 77.582 209.551ZM84.3281 211.809C84.3281 212.173 84.2786 212.496 84.1797 212.777C84.0833 213.059 83.9414 213.297 83.7539 213.492C83.569 213.685 83.3451 213.831 83.082 213.93C82.8216 214.029 82.5273 214.078 82.1992 214.078C81.8919 214.078 81.6094 214.029 81.3516 213.93C81.0964 213.831 80.8737 213.685 80.6836 213.492C80.4961 213.297 80.3503 213.059 80.2461 212.777C80.1445 212.496 80.0938 212.173 80.0938 211.809C80.0938 211.324 80.1797 210.914 80.3516 210.578C80.5234 210.242 80.7682 209.987 81.0859 209.812C81.4036 209.638 81.7826 209.551 82.2227 209.551C82.6315 209.551 82.9935 209.638 83.3086 209.812C83.6263 209.987 83.875 210.242 84.0547 210.578C84.237 210.914 84.3281 211.324 84.3281 211.809ZM81.3086 211.809C81.3086 212.095 81.3398 212.336 81.4023 212.531C81.4648 212.727 81.5625 212.874 81.6953 212.973C81.8281 213.072 82.0013 213.121 82.2148 213.121C82.4258 213.121 82.5964 213.072 82.7266 212.973C82.8594 212.874 82.9557 212.727 83.0156 212.531C83.0781 212.336 83.1094 212.095 83.1094 211.809C83.1094 211.52 83.0781 211.28 83.0156 211.09C82.9557 210.897 82.8594 210.753 82.7266 210.656C82.5938 210.56 82.4206 210.512 82.207 210.512C81.8919 210.512 81.6628 210.62 81.5195 210.836C81.3789 211.052 81.3086 211.376 81.3086 211.809ZM88.3594 212.703C88.3594 213 88.2891 213.251 88.1484 213.457C88.0104 213.66 87.8034 213.815 87.5273 213.922C87.2513 214.026 86.9076 214.078 86.4961 214.078C86.1914 214.078 85.9297 214.059 85.7109 214.02C85.4948 213.98 85.276 213.915 85.0547 213.824V212.84C85.2917 212.947 85.5456 213.035 85.8164 213.105C86.0898 213.173 86.3294 213.207 86.5352 213.207C86.7669 213.207 86.9323 213.173 87.0312 213.105C87.1328 213.035 87.1836 212.944 87.1836 212.832C87.1836 212.759 87.1628 212.694 87.1211 212.637C87.082 212.577 86.9961 212.51 86.8633 212.438C86.7305 212.362 86.5221 212.264 86.2383 212.145C85.9648 212.03 85.7396 211.914 85.5625 211.797C85.388 211.68 85.2578 211.542 85.1719 211.383C85.0885 211.221 85.0469 211.017 85.0469 210.77C85.0469 210.366 85.2031 210.062 85.5156 209.859C85.8307 209.654 86.2513 209.551 86.7773 209.551C87.0482 209.551 87.306 209.578 87.5508 209.633C87.7982 209.688 88.0521 209.775 88.3125 209.895L87.9531 210.754C87.737 210.66 87.5326 210.583 87.3398 210.523C87.1497 210.464 86.9557 210.434 86.7578 210.434C86.5833 210.434 86.4518 210.457 86.3633 210.504C86.2747 210.551 86.2305 210.622 86.2305 210.719C86.2305 210.789 86.2526 210.852 86.2969 210.906C86.3438 210.961 86.4323 211.022 86.5625 211.09C86.6953 211.155 86.8893 211.24 87.1445 211.344C87.3919 211.445 87.6068 211.552 87.7891 211.664C87.9714 211.773 88.112 211.91 88.2109 212.074C88.3099 212.236 88.3594 212.445 88.3594 212.703ZM89.1211 213.441C89.1211 213.197 89.1875 213.025 89.3203 212.926C89.4557 212.827 89.6185 212.777 89.8086 212.777C89.9935 212.777 90.1523 212.827 90.2852 212.926C90.4206 213.025 90.4883 213.197 90.4883 213.441C90.4883 213.676 90.4206 213.845 90.2852 213.949C90.1523 214.053 89.9935 214.105 89.8086 214.105C89.6185 214.105 89.4557 214.053 89.3203 213.949C89.1875 213.845 89.1211 213.676 89.1211 213.441ZM97.1133 212.414C97.1133 212.753 97.0312 213.047 96.8672 213.297C96.7031 213.547 96.4635 213.74 96.1484 213.875C95.8359 214.01 95.4557 214.078 95.0078 214.078C94.8099 214.078 94.6159 214.065 94.4258 214.039C94.2383 214.013 94.0573 213.975 93.8828 213.926C93.7109 213.874 93.5469 213.81 93.3906 213.734V212.609C93.6615 212.729 93.9427 212.837 94.2344 212.934C94.526 213.03 94.8151 213.078 95.1016 213.078C95.2995 213.078 95.4583 213.052 95.5781 213C95.7005 212.948 95.7891 212.876 95.8438 212.785C95.8984 212.694 95.9258 212.59 95.9258 212.473C95.9258 212.329 95.8776 212.207 95.7812 212.105C95.6849 212.004 95.5521 211.909 95.3828 211.82C95.2161 211.732 95.0273 211.637 94.8164 211.535C94.6836 211.473 94.5391 211.397 94.3828 211.309C94.2266 211.217 94.0781 211.107 93.9375 210.977C93.7969 210.846 93.681 210.689 93.5898 210.504C93.5013 210.316 93.457 210.092 93.457 209.832C93.457 209.491 93.5352 209.199 93.6914 208.957C93.8477 208.715 94.0703 208.53 94.3594 208.402C94.651 208.272 94.9948 208.207 95.3906 208.207C95.6875 208.207 95.9701 208.242 96.2383 208.312C96.5091 208.38 96.7917 208.479 97.0859 208.609L96.6953 209.551C96.4323 209.444 96.1966 209.362 95.9883 209.305C95.7799 209.245 95.5677 209.215 95.3516 209.215C95.2005 209.215 95.0716 209.24 94.9648 209.289C94.8581 209.336 94.7773 209.404 94.7227 209.492C94.668 209.578 94.6406 209.678 94.6406 209.793C94.6406 209.928 94.6797 210.043 94.7578 210.137C94.8385 210.228 94.9583 210.316 95.1172 210.402C95.2786 210.488 95.4792 210.589 95.7188 210.703C96.0104 210.841 96.2591 210.986 96.4648 211.137C96.6732 211.285 96.8333 211.461 96.9453 211.664C97.0573 211.865 97.1133 212.115 97.1133 212.414ZM99.8438 209.543C100.43 209.543 100.879 209.671 101.191 209.926C101.504 210.181 101.66 210.569 101.66 211.09V214H100.828L100.598 213.406H100.566C100.441 213.562 100.314 213.69 100.184 213.789C100.053 213.888 99.9036 213.961 99.7344 214.008C99.5651 214.055 99.3594 214.078 99.1172 214.078C98.8594 214.078 98.6276 214.029 98.4219 213.93C98.2188 213.831 98.0586 213.68 97.9414 213.477C97.8242 213.271 97.7656 213.01 97.7656 212.695C97.7656 212.232 97.9284 211.891 98.2539 211.672C98.5794 211.451 99.0677 211.328 99.7188 211.305L100.477 211.281V211.09C100.477 210.861 100.417 210.693 100.297 210.586C100.177 210.479 100.01 210.426 99.7969 210.426C99.5859 210.426 99.3789 210.456 99.1758 210.516C98.9727 210.576 98.7695 210.651 98.5664 210.742L98.1719 209.938C98.4036 209.815 98.6628 209.719 98.9492 209.648C99.2383 209.578 99.5365 209.543 99.8438 209.543ZM100.477 211.977L100.016 211.992C99.6302 212.003 99.362 212.072 99.2109 212.199C99.0625 212.327 98.9883 212.495 98.9883 212.703C98.9883 212.885 99.0417 213.016 99.1484 213.094C99.2552 213.169 99.3945 213.207 99.5664 213.207C99.8216 213.207 100.036 213.132 100.211 212.98C100.388 212.829 100.477 212.615 100.477 212.336V211.977ZM103.93 214L102.266 209.633H103.512L104.355 212.121C104.402 212.267 104.439 212.421 104.465 212.582C104.493 212.743 104.513 212.888 104.523 213.016H104.555C104.562 212.878 104.581 212.73 104.609 212.574C104.641 212.418 104.681 212.267 104.73 212.121L105.57 209.633H106.816L105.152 214H103.93ZM109.246 209.551C109.65 209.551 109.997 209.629 110.289 209.785C110.581 209.939 110.806 210.163 110.965 210.457C111.124 210.751 111.203 211.111 111.203 211.535V212.113H108.387C108.4 212.449 108.5 212.714 108.688 212.906C108.878 213.096 109.141 213.191 109.477 213.191C109.755 213.191 110.01 213.163 110.242 213.105C110.474 213.048 110.712 212.962 110.957 212.848V213.77C110.741 213.876 110.514 213.954 110.277 214.004C110.043 214.053 109.758 214.078 109.422 214.078C108.984 214.078 108.596 213.997 108.258 213.836C107.922 213.674 107.658 213.428 107.465 213.098C107.275 212.767 107.18 212.35 107.18 211.848C107.18 211.337 107.266 210.913 107.438 210.574C107.612 210.233 107.854 209.978 108.164 209.809C108.474 209.637 108.835 209.551 109.246 209.551ZM109.254 210.398C109.022 210.398 108.829 210.473 108.676 210.621C108.525 210.77 108.438 211.003 108.414 211.32H110.086C110.083 211.143 110.051 210.986 109.988 210.848C109.928 210.71 109.837 210.6 109.715 210.52C109.595 210.439 109.441 210.398 109.254 210.398ZM116.09 213.129C116.22 213.129 116.346 213.116 116.469 213.09C116.594 213.064 116.717 213.031 116.84 212.992V213.879C116.712 213.936 116.553 213.983 116.363 214.02C116.176 214.059 115.97 214.078 115.746 214.078C115.486 214.078 115.251 214.036 115.043 213.953C114.837 213.867 114.674 213.72 114.555 213.512C114.438 213.301 114.379 213.008 114.379 212.633V210.527H113.809V210.023L114.465 209.625L114.809 208.703H115.57V209.633H116.793V210.527H115.57V212.633C115.57 212.799 115.617 212.924 115.711 213.008C115.807 213.089 115.934 213.129 116.09 213.129ZM118.918 207.922V209.16C118.918 209.376 118.91 209.582 118.895 209.777C118.882 209.973 118.871 210.111 118.863 210.191H118.926C119.02 210.04 119.13 209.918 119.258 209.824C119.388 209.73 119.531 209.661 119.688 209.617C119.844 209.573 120.012 209.551 120.191 209.551C120.507 209.551 120.781 209.607 121.016 209.719C121.25 209.828 121.432 210.001 121.562 210.238C121.693 210.473 121.758 210.777 121.758 211.152V214H120.566V211.449C120.566 211.137 120.509 210.901 120.395 210.742C120.28 210.583 120.103 210.504 119.863 210.504C119.624 210.504 119.435 210.56 119.297 210.672C119.159 210.781 119.061 210.944 119.004 211.16C118.947 211.374 118.918 211.635 118.918 211.945V214H117.727V207.922H118.918ZM124.785 209.551C125.189 209.551 125.536 209.629 125.828 209.785C126.12 209.939 126.345 210.163 126.504 210.457C126.663 210.751 126.742 211.111 126.742 211.535V212.113H123.926C123.939 212.449 124.039 212.714 124.227 212.906C124.417 213.096 124.68 213.191 125.016 213.191C125.294 213.191 125.549 213.163 125.781 213.105C126.013 213.048 126.251 212.962 126.496 212.848V213.77C126.28 213.876 126.053 213.954 125.816 214.004C125.582 214.053 125.297 214.078 124.961 214.078C124.523 214.078 124.135 213.997 123.797 213.836C123.461 213.674 123.197 213.428 123.004 213.098C122.814 212.767 122.719 212.35 122.719 211.848C122.719 211.337 122.805 210.913 122.977 210.574C123.151 210.233 123.393 209.978 123.703 209.809C124.013 209.637 124.374 209.551 124.785 209.551ZM124.793 210.398C124.561 210.398 124.368 210.473 124.215 210.621C124.064 210.77 123.977 211.003 123.953 211.32H125.625C125.622 211.143 125.59 210.986 125.527 210.848C125.467 210.71 125.376 210.6 125.254 210.52C125.134 210.439 124.98 210.398 124.793 210.398ZM132.203 210.527H131.172V214H129.98V210.527H129.324V209.953L129.98 209.633V209.312C129.98 208.94 130.043 208.651 130.168 208.445C130.296 208.237 130.474 208.091 130.703 208.008C130.935 207.922 131.208 207.879 131.523 207.879C131.755 207.879 131.966 207.898 132.156 207.938C132.346 207.974 132.501 208.016 132.621 208.062L132.316 208.938C132.225 208.909 132.126 208.883 132.02 208.859C131.913 208.836 131.79 208.824 131.652 208.824C131.486 208.824 131.363 208.875 131.285 208.977C131.21 209.076 131.172 209.203 131.172 209.359V209.633H132.203V210.527ZM135.328 209.551C135.388 209.551 135.457 209.555 135.535 209.562C135.616 209.568 135.681 209.576 135.73 209.586L135.641 210.703C135.602 210.69 135.546 210.681 135.473 210.676C135.402 210.668 135.341 210.664 135.289 210.664C135.135 210.664 134.986 210.684 134.84 210.723C134.697 210.762 134.568 210.826 134.453 210.914C134.339 211 134.247 211.115 134.18 211.258C134.115 211.398 134.082 211.572 134.082 211.777V214H132.891V209.633H133.793L133.969 210.367H134.027C134.113 210.219 134.22 210.083 134.348 209.961C134.478 209.836 134.625 209.737 134.789 209.664C134.956 209.589 135.135 209.551 135.328 209.551ZM140.531 209.633V214H139.617L139.457 213.441H139.395C139.301 213.59 139.184 213.711 139.043 213.805C138.902 213.898 138.747 213.967 138.578 214.012C138.409 214.056 138.233 214.078 138.051 214.078C137.738 214.078 137.466 214.023 137.234 213.914C137.003 213.802 136.822 213.629 136.691 213.395C136.564 213.16 136.5 212.855 136.5 212.48V209.633H137.691V212.184C137.691 212.496 137.747 212.732 137.859 212.891C137.971 213.049 138.15 213.129 138.395 213.129C138.637 213.129 138.827 213.074 138.965 212.965C139.103 212.853 139.199 212.69 139.254 212.477C139.311 212.26 139.34 211.997 139.34 211.688V209.633H140.531ZM142.973 209.633V214H141.781V209.633H142.973ZM142.379 207.922C142.556 207.922 142.708 207.964 142.836 208.047C142.964 208.128 143.027 208.28 143.027 208.504C143.027 208.725 142.964 208.879 142.836 208.965C142.708 209.048 142.556 209.09 142.379 209.09C142.199 209.09 142.046 209.048 141.918 208.965C141.793 208.879 141.73 208.725 141.73 208.504C141.73 208.28 141.793 208.128 141.918 208.047C142.046 207.964 142.199 207.922 142.379 207.922ZM146.066 213.129C146.197 213.129 146.323 213.116 146.445 213.09C146.57 213.064 146.694 213.031 146.816 212.992V213.879C146.689 213.936 146.53 213.983 146.34 214.02C146.152 214.059 145.947 214.078 145.723 214.078C145.462 214.078 145.228 214.036 145.02 213.953C144.814 213.867 144.651 213.72 144.531 213.512C144.414 213.301 144.355 213.008 144.355 212.633V210.527H143.785V210.023L144.441 209.625L144.785 208.703H145.547V209.633H146.77V210.527H145.547V212.633C145.547 212.799 145.594 212.924 145.688 213.008C145.784 213.089 145.91 213.129 146.066 213.129ZM150.75 212.703C150.75 213 150.68 213.251 150.539 213.457C150.401 213.66 150.194 213.815 149.918 213.922C149.642 214.026 149.298 214.078 148.887 214.078C148.582 214.078 148.32 214.059 148.102 214.02C147.885 213.98 147.667 213.915 147.445 213.824V212.84C147.682 212.947 147.936 213.035 148.207 213.105C148.48 213.173 148.72 213.207 148.926 213.207C149.158 213.207 149.323 213.173 149.422 213.105C149.523 213.035 149.574 212.944 149.574 212.832C149.574 212.759 149.553 212.694 149.512 212.637C149.473 212.577 149.387 212.51 149.254 212.438C149.121 212.362 148.913 212.264 148.629 212.145C148.355 212.03 148.13 211.914 147.953 211.797C147.779 211.68 147.648 211.542 147.562 211.383C147.479 211.221 147.438 211.017 147.438 210.77C147.438 210.366 147.594 210.062 147.906 209.859C148.221 209.654 148.642 209.551 149.168 209.551C149.439 209.551 149.697 209.578 149.941 209.633C150.189 209.688 150.443 209.775 150.703 209.895L150.344 210.754C150.128 210.66 149.923 210.583 149.73 210.523C149.54 210.464 149.346 210.434 149.148 210.434C148.974 210.434 148.842 210.457 148.754 210.504C148.665 210.551 148.621 210.622 148.621 210.719C148.621 210.789 148.643 210.852 148.688 210.906C148.734 210.961 148.823 211.022 148.953 211.09C149.086 211.155 149.28 211.24 149.535 211.344C149.783 211.445 149.997 211.552 150.18 211.664C150.362 211.773 150.503 211.91 150.602 212.074C150.701 212.236 150.75 212.445 150.75 212.703ZM151.512 213.441C151.512 213.197 151.578 213.025 151.711 212.926C151.846 212.827 152.009 212.777 152.199 212.777C152.384 212.777 152.543 212.827 152.676 212.926C152.811 213.025 152.879 213.197 152.879 213.441C152.879 213.676 152.811 213.845 152.676 213.949C152.543 214.053 152.384 214.105 152.199 214.105C152.009 214.105 151.846 214.053 151.711 213.949C151.578 213.845 151.512 213.676 151.512 213.441Z" fill="black"/>
<path d="M138.613 363.049H133.432V361.779L135.175 360.016C135.537 359.639 135.817 359.336 136.015 359.108C136.217 358.88 136.359 358.687 136.44 358.527C136.521 358.368 136.562 358.202 136.562 358.029C136.562 357.817 136.494 357.664 136.357 357.57C136.22 357.476 136.059 357.428 135.874 357.428C135.649 357.428 135.421 357.494 135.19 357.624C134.962 357.751 134.703 357.94 134.414 358.19L133.354 356.95C133.569 356.758 133.797 356.576 134.038 356.403C134.278 356.227 134.563 356.084 134.892 355.973C135.221 355.863 135.621 355.807 136.093 355.807C136.578 355.807 136.998 355.892 137.353 356.061C137.711 356.231 137.988 356.463 138.183 356.76C138.378 357.052 138.476 357.386 138.476 357.76C138.476 358.174 138.4 358.543 138.247 358.869C138.097 359.191 137.871 359.515 137.568 359.841C137.265 360.163 136.888 360.529 136.435 360.939L135.913 361.408V361.457H138.613V363.049ZM142.236 358.371C142.633 358.371 142.994 358.46 143.32 358.639C143.645 358.818 143.906 359.079 144.101 359.421C144.296 359.762 144.394 360.179 144.394 360.671C144.394 361.201 144.287 361.652 144.072 362.023C143.86 362.391 143.54 362.671 143.11 362.863C142.683 363.052 142.145 363.146 141.494 363.146C141.08 363.146 140.703 363.114 140.361 363.049C140.022 362.987 139.72 362.891 139.453 362.76V361.178C139.703 361.292 140.004 361.397 140.356 361.491C140.711 361.582 141.036 361.628 141.333 361.628C141.57 361.628 141.772 361.594 141.938 361.525C142.104 361.457 142.229 361.356 142.314 361.222C142.402 361.089 142.446 360.925 142.446 360.729C142.446 360.459 142.348 360.247 142.153 360.094C141.958 359.938 141.661 359.86 141.264 359.86C141.085 359.86 140.909 359.878 140.737 359.914C140.564 359.95 140.413 359.989 140.283 360.031L139.575 359.679L139.843 355.91H143.916V357.516H141.484L141.396 358.459C141.5 358.439 141.606 358.42 141.713 358.4C141.824 358.381 141.998 358.371 142.236 358.371ZM150.361 359.489C150.361 360.062 150.315 360.575 150.224 361.027C150.133 361.476 149.986 361.859 149.785 362.175C149.586 362.49 149.322 362.731 148.994 362.897C148.665 363.063 148.261 363.146 147.783 363.146C147.187 363.146 146.699 363.001 146.318 362.712C145.937 362.419 145.655 362 145.473 361.457C145.294 360.91 145.205 360.254 145.205 359.489C145.205 358.718 145.286 358.058 145.449 357.511C145.615 356.961 145.887 356.54 146.264 356.247C146.642 355.954 147.148 355.807 147.783 355.807C148.378 355.807 148.865 355.954 149.243 356.247C149.624 356.537 149.905 356.956 150.087 357.507C150.27 358.053 150.361 358.714 150.361 359.489ZM147.124 359.489C147.124 359.955 147.14 360.345 147.172 360.661C147.208 360.977 147.273 361.214 147.368 361.374C147.465 361.53 147.604 361.608 147.783 361.608C147.962 361.608 148.098 361.53 148.193 361.374C148.287 361.214 148.352 360.978 148.388 360.666C148.424 360.35 148.442 359.958 148.442 359.489C148.442 359.017 148.424 358.623 148.388 358.307C148.352 357.992 148.287 357.754 148.193 357.594C148.098 357.432 147.962 357.35 147.783 357.35C147.604 357.35 147.465 357.432 147.368 357.594C147.273 357.754 147.208 357.992 147.172 358.307C147.14 358.623 147.124 359.017 147.124 359.489ZM160.722 357.419C161.354 357.419 161.835 357.58 162.167 357.902C162.503 358.224 162.67 358.74 162.67 359.45V363.049H160.761V360.041C160.761 359.621 160.704 359.33 160.59 359.167C160.48 359.001 160.314 358.918 160.092 358.918C159.783 358.918 159.568 359.053 159.448 359.323C159.331 359.593 159.272 359.976 159.272 360.47V363.049H157.358V360.041C157.358 359.774 157.333 359.559 157.285 359.396C157.239 359.23 157.169 359.11 157.075 359.035C156.98 358.957 156.861 358.918 156.718 358.918C156.5 358.918 156.329 358.984 156.206 359.118C156.085 359.248 156 359.44 155.952 359.694C155.903 359.948 155.878 360.259 155.878 360.627V363.049H153.969V357.516H155.41L155.688 358.2H155.742C155.839 358.05 155.965 357.917 156.118 357.8C156.274 357.682 156.458 357.59 156.669 357.521C156.884 357.453 157.128 357.419 157.402 357.419C157.809 357.419 158.144 357.487 158.408 357.624C158.671 357.76 158.886 357.949 159.052 358.19H159.111C159.287 357.943 159.513 357.752 159.79 357.619C160.066 357.485 160.377 357.419 160.722 357.419ZM165.878 363.049H163.969V355.451H165.878V363.049Z" fill="#C05C00"/>
<path d="M18.184 262.192C16.392 262.192 14.984 261.68 13.96 260.656C12.9573 259.632 12.456 258 12.456 255.76C12.456 253.861 12.7973 251.728 13.48 249.36C14.1627 246.992 15.1547 244.965 16.456 243.28C17.7787 241.595 19.336 240.752 21.128 240.752C21.768 240.752 22.3227 240.837 22.792 241.008C21.8533 241.563 20.9467 242.704 20.072 244.432C19.2187 246.16 18.5253 248.091 17.992 250.224C17.4587 252.357 17.192 254.245 17.192 255.888C17.192 257.04 17.3413 257.947 17.64 258.608C17.9387 259.269 18.408 259.6 19.048 259.6C20.0933 259.6 21.128 258.853 22.152 257.36C23.1973 255.845 24.0507 253.947 24.712 251.664C25.3947 249.381 25.736 247.184 25.736 245.072C25.736 243.749 25.6187 242.693 25.384 241.904C25.1707 241.093 24.7653 240.485 24.168 240.08C23.5707 239.675 22.728 239.472 21.64 239.472C19.9973 239.472 18.472 239.813 17.064 240.496C15.656 241.157 14.5253 242.117 13.672 243.376C12.84 244.613 12.424 246.053 12.424 247.696C12.424 248.272 12.4773 248.699 12.584 248.976C12.6907 249.232 12.744 249.381 12.744 249.424C11.6773 249.424 10.8667 249.211 10.312 248.784C9.77867 248.357 9.512 247.675 9.512 246.736C9.512 245.264 10.1093 243.856 11.304 242.512C12.52 241.168 14.12 240.08 16.104 239.248C18.1093 238.416 20.2107 238 22.408 238C25.0747 238 27.0053 238.725 28.2 240.176C29.3947 241.627 29.992 243.632 29.992 246.192C29.992 248.475 29.5653 250.853 28.712 253.328C27.8587 255.803 26.536 257.904 24.744 259.632C22.9733 261.339 20.7867 262.192 18.184 262.192ZM32.4573 246H37.0653L36.6493 247.984C37.3746 247.344 38.0253 246.853 38.6013 246.512C39.1986 246.171 39.8386 246 40.5213 246C41.2039 246 41.7373 246.235 42.1213 246.704C42.5266 247.173 42.7293 247.739 42.7293 248.4C42.7293 249.019 42.5266 249.563 42.1213 250.032C41.7159 250.501 41.1506 250.736 40.4253 250.736C39.9559 250.736 39.6359 250.629 39.4653 250.416C39.3159 250.181 39.1986 249.851 39.1133 249.424C39.0493 249.147 38.9853 248.944 38.9213 248.816C38.8573 248.688 38.7399 248.624 38.5693 248.624C38.1213 248.624 37.7373 248.72 37.4173 248.912C37.1186 249.083 36.7239 249.392 36.2333 249.84L33.6733 262H29.0652L32.4573 246ZM46.1525 262.192C44.9365 262.192 43.9232 261.776 43.1125 260.944C42.3018 260.112 41.8965 258.811 41.8965 257.04C41.8965 255.461 42.2058 253.808 42.8245 252.08C43.4645 250.331 44.4032 248.859 45.6405 247.664C46.8992 246.448 48.3925 245.84 50.1205 245.84C50.9952 245.84 51.6458 245.989 52.0725 246.288C52.4992 246.587 52.7125 246.981 52.7125 247.472V247.696L53.0645 246H57.6725L55.3685 256.88C55.2832 257.2 55.2405 257.541 55.2405 257.904C55.2405 258.821 55.6778 259.28 56.5525 259.28C57.1498 259.28 57.6618 259.003 58.0885 258.448C58.5365 257.893 58.8885 257.168 59.1445 256.272H60.4885C59.6992 258.576 58.7178 260.144 57.5445 260.976C56.3925 261.787 55.2298 262.192 54.0565 262.192C53.1605 262.192 52.4352 261.947 51.8805 261.456C51.3472 260.944 51.0272 260.208 50.9205 259.248C50.3018 260.123 49.6085 260.837 48.8405 261.392C48.0938 261.925 47.1978 262.192 46.1525 262.192ZM48.2325 259.088C48.7658 259.088 49.2885 258.843 49.8005 258.352C50.3338 257.84 50.6965 257.147 50.8885 256.272L52.4245 249.04C52.4245 248.763 52.3178 248.496 52.1045 248.24C51.8912 247.963 51.5605 247.824 51.1125 247.824C50.2592 247.824 49.4912 248.325 48.8085 249.328C48.1258 250.309 47.5925 251.504 47.2085 252.912C46.8245 254.299 46.6325 255.525 46.6325 256.592C46.6325 257.659 46.7818 258.341 47.0805 258.64C47.4005 258.939 47.7845 259.088 48.2325 259.088ZM70.7083 262.192C69.4069 262.192 68.4469 261.851 67.8283 261.168C67.2309 260.464 66.9323 259.6 66.9323 258.576C66.9323 258.128 66.9856 257.627 67.0923 257.072C67.1989 256.496 67.3056 255.941 67.4123 255.408C67.5403 254.875 67.6256 254.533 67.6683 254.384C67.8389 253.637 67.9989 252.901 68.1483 252.176C68.2976 251.451 68.3723 250.864 68.3723 250.416C68.3723 249.328 67.9883 248.784 67.2203 248.784C66.6656 248.784 66.1749 249.061 65.7483 249.616C65.3216 250.149 64.9803 250.853 64.7243 251.728L62.5483 262H57.9402L61.3323 246H65.9403L65.5883 247.664C66.6549 246.469 67.9029 245.872 69.3323 245.872C70.4203 245.872 71.2843 246.171 71.9243 246.768C72.5643 247.365 72.8843 248.272 72.8843 249.488C72.8843 250.107 72.8096 250.8 72.6603 251.568C72.5109 252.315 72.2976 253.232 72.0203 254.32C71.8496 254.981 71.6896 255.632 71.5403 256.272C71.4123 256.891 71.3483 257.381 71.3483 257.744C71.3483 258.171 71.4443 258.501 71.6363 258.736C71.8283 258.971 72.1589 259.088 72.6283 259.088C73.2683 259.088 73.7803 258.864 74.1643 258.416C74.5483 257.947 74.9323 257.232 75.3162 256.272H76.6603C75.8709 258.619 74.9536 260.197 73.9083 261.008C72.8843 261.797 71.8176 262.192 70.7083 262.192ZM80.9765 270C79.9525 270 79.0992 269.733 78.4165 269.2C77.7338 268.667 77.3925 267.899 77.3925 266.896C77.3925 265.68 77.8832 264.699 78.8645 263.952C79.8458 263.227 81.0938 262.619 82.6085 262.128L82.9925 260.432C81.9045 261.605 80.6245 262.192 79.1525 262.192C77.9365 262.192 76.9232 261.776 76.1125 260.944C75.3018 260.112 74.8965 258.811 74.8965 257.04C74.8965 255.461 75.2058 253.808 75.8245 252.08C76.4645 250.331 77.4032 248.859 78.6405 247.664C79.8992 246.448 81.3925 245.84 83.1205 245.84C83.9952 245.84 84.6458 245.989 85.0725 246.288C85.4992 246.587 85.7125 246.981 85.7125 247.472V247.664L86.0645 246H90.6725L87.5045 260.848C88.5285 260.507 89.3498 259.995 89.9685 259.312C90.5872 258.629 91.1098 257.616 91.5365 256.272H92.8805C92.3045 258.171 91.5258 259.568 90.5445 260.464C89.5632 261.339 88.4538 261.936 87.2165 262.256L86.7365 264.56C86.3098 266.629 85.5738 268.048 84.5285 268.816C83.4832 269.605 82.2992 270 80.9765 270ZM81.2325 259.088C81.7232 259.088 82.2245 258.864 82.7365 258.416C83.2485 257.968 83.6005 257.36 83.7925 256.592L85.4245 249.008C85.4245 248.752 85.3178 248.496 85.1045 248.24C84.8912 247.963 84.5605 247.824 84.1125 247.824C83.2592 247.824 82.4912 248.325 81.8085 249.328C81.1258 250.309 80.5925 251.504 80.2085 252.912C79.8245 254.299 79.6325 255.525 79.6325 256.592C79.6325 257.659 79.7818 258.341 80.0805 258.64C80.4005 258.939 80.7845 259.088 81.2325 259.088ZM80.2405 267.504C80.6032 267.504 80.9552 267.259 81.2965 266.768C81.6378 266.277 81.9045 265.573 82.0965 264.656L82.2885 263.728C80.1978 264.496 79.1525 265.403 79.1525 266.448C79.1525 266.725 79.2485 266.971 79.4405 267.184C79.6325 267.397 79.8992 267.504 80.2405 267.504ZM96.0433 262.192C94.4859 262.192 93.2699 261.787 92.3953 260.976C91.5206 260.144 91.0832 258.853 91.0832 257.104C91.0832 255.632 91.3712 254.011 91.9473 252.24C92.5233 250.469 93.4619 248.944 94.7633 247.664C96.0646 246.363 97.7179 245.712 99.7233 245.712C102.07 245.712 103.243 246.736 103.243 248.784C103.243 249.979 102.902 251.077 102.219 252.08C101.537 253.083 100.63 253.893 99.4993 254.512C98.3686 255.109 97.1633 255.451 95.8833 255.536C95.8406 256.005 95.8193 256.325 95.8193 256.496C95.8193 258.267 96.4806 259.152 97.8033 259.152C98.4006 259.152 99.0406 258.992 99.7233 258.672C100.406 258.352 101.025 257.947 101.579 257.456C101.003 260.613 99.1579 262.192 96.0433 262.192ZM96.1073 254C96.9179 253.979 97.6753 253.712 98.3793 253.2C99.1046 252.688 99.6806 252.037 100.107 251.248C100.555 250.437 100.779 249.595 100.779 248.72C100.779 247.845 100.513 247.408 99.9792 247.408C99.2326 247.408 98.4859 248.091 97.7393 249.456C97.0139 250.8 96.4699 252.315 96.1073 254Z" fill="#D76C09"/>
<path d="M122.703 288.059L122.665 288.044C118.806 286.459 111.517 279.872 105.905 267.011C98.4046 249.822 121.735 231.738 130.33 232.153C138.926 232.569 144.026 236.752 144.634 237.744C145.779 237.56 146.739 237.762 147.52 238.545C148.301 239.328 148.253 240.104 148.051 241.17C154.591 247.729 165.294 265.467 151.881 280.034C138.51 294.554 126.601 289.661 122.703 288.059Z" fill="#FF7A00"/>
<path d="M148.631 278.139C135.254 292.38 125.711 287.348 122.863 286.747C120.016 286.146 108.391 278.07 106.078 268.611C105.243 265.195 125.272 286.569 141.286 276.751C157.299 266.933 150.121 242.986 150.442 243.684L152.016 246.252C155.719 251.779 162.008 263.898 148.631 278.139Z" fill="#F87700"/>
<path d="M150.651 281.142C137.274 295.383 127.73 290.35 124.882 289.749C122.035 289.149 110.411 281.072 108.097 271.613C107.262 268.198 127.292 289.572 143.305 279.754C159.318 269.936 152.141 245.988 152.461 246.687L154.56 250.111C158.264 255.637 164.027 266.901 150.651 281.142Z" fill="#EF7300"/>
<path d="M135.127 237.406C134.688 237.49 134.229 237.61 133.78 237.568C133.469 237.539 133.169 237.422 132.857 237.416C132.568 237.411 132.14 237.701 132.6 237.888C132.909 238.013 133.514 238.051 133.847 238.043C134.166 238.036 134.694 238.018 134.967 237.851C135.245 237.68 134.867 237.354 134.631 237.351C134.458 237.349 134.273 237.295 134.089 237.292C133.935 237.291 133.795 237.295 133.642 237.265C133.32 237.201 132.967 237.356 132.649 237.297C132.544 237.277 132.098 237.438 132.174 237.485" stroke="#EF7300" stroke-width="5" stroke-linecap="round"/>
<path d="M137.735 237.423C137.629 237.441 136.956 237.439 136.97 237.661C136.982 237.846 137.372 237.64 137.461 237.636C137.51 237.634 138.055 237.832 137.797 237.546C137.585 237.31 137.465 237.416 137.248 237.549C137.112 237.632 136.952 237.704 137.186 237.773C137.363 237.825 137.559 237.845 137.748 237.864C137.969 237.886 138.1 237.905 137.951 237.682C137.837 237.512 137.57 237.582 137.425 237.671" stroke="#EF7300" stroke-width="3" stroke-linecap="round"/>
<path d="M134.775 235.891C134.731 235.889 134.369 235.836 134.351 235.932C134.341 235.986 134.426 236.062 134.475 236.061C134.563 236.06 134.702 235.941 134.775 235.891ZM134.775 235.891C134.898 235.805 134.268 235.761 134.472 235.961" stroke="#EF7300" stroke-width="3" stroke-linecap="round"/>
<path d="M130.787 236.258C130.541 236.355 130.592 236.492 130.8 236.42C130.876 236.394 130.996 236.231 130.875 236.265C130.639 236.331 130.476 236.409 130.648 236.69" stroke="#EF7300" stroke-width="3" stroke-linecap="round"/>
<path d="M131.289 238.489C130.719 238.613 131.437 238.8 131.503 238.576C131.572 238.345 131.243 238.634 131.215 238.651" stroke="#EF7300" stroke-width="3" stroke-linecap="round"/>
<path d="M134.804 239.798C134.734 239.799 134.455 239.771 134.584 239.904C134.621 239.943 134.722 239.935 134.691 239.937C134.549 239.946 134.455 239.888 134.562 240.061" stroke="#EF7300" stroke-width="3" stroke-linecap="round"/>
<path d="M136.749 239.298C136.634 239.342 136.513 239.375 136.69 239.391" stroke="#EF7300" stroke-width="3" stroke-linecap="round"/>
<path d="M131.353 238.97C131.214 238.869 131.118 238.781 130.945 238.816C130.908 238.824 130.766 238.815 130.786 238.888C130.839 239.075 131.058 239.129 131.219 239.081C131.406 239.024 131.564 238.962 131.731 238.854C131.958 238.706 131.378 238.389 131.272 238.295C131.079 238.121 130.588 238.217 130.551 238.509C130.496 238.949 131.134 238.595 131.325 238.641" stroke="#EF7300" stroke-width="3" stroke-linecap="round"/>
<path d="M129.453 237.942C129.294 237.879 128.879 237.789 128.94 237.948C128.998 238.097 129.209 238.264 129.362 238.17C129.531 238.067 129.411 237.864 129.231 237.821C128.944 237.752 128.856 237.952 129.133 238.08" stroke="#EF7300" stroke-width="3" stroke-linecap="round"/>
<path d="M128.637 236.422C128.22 236.392 128.557 236.57 128.714 236.512C128.815 236.475 128.401 236.512 128.411 236.618" stroke="#EF7300" stroke-width="3" stroke-linecap="round"/>
<path d="M127.886 237.528C127.872 237.523 127.564 237.509 127.594 237.564C127.627 237.623 127.734 237.584 127.782 237.555" stroke="#EF7300" stroke-width="2" stroke-linecap="round"/>
<path d="M129.715 235.996C129.644 235.99 129.54 235.958 129.594 236.045C129.642 236.124 129.632 236.052 129.638 235.993" stroke="#EF7300" stroke-width="2" stroke-linecap="round"/>
<path d="M132.431 235.625C132.372 235.601 132.177 235.459 132.127 235.543C132.097 235.594 132.113 235.654 132.147 235.697C132.194 235.758 132.26 235.704 132.309 235.674C132.453 235.586 132.28 235.526 132.171 235.499C132.111 235.485 131.917 235.563 131.956 235.637C132.016 235.748 132.339 235.686 132.419 235.606C132.454 235.572 132.143 235.568 132.094 235.572C132.004 235.58 132.054 235.63 132.086 235.684" stroke="#EF7300" stroke-width="2" stroke-linecap="round"/>
<path d="M136.511 236.446C136.445 236.463 136.339 236.474 136.381 236.563C136.395 236.593 136.424 236.657 136.453 236.673C136.476 236.686 136.536 236.632 136.556 236.623C136.612 236.596 136.638 236.612 136.597 236.544C136.551 236.469 136.452 236.355 136.353 236.416C136.26 236.473 136.282 236.493 136.356 236.566" stroke="#EF7300" stroke-width="2" stroke-linecap="round"/>
<path d="M138.295 239.107C138.202 239.125 138.172 239.128 138.232 239.209C138.256 239.242 138.321 239.294 138.367 239.288C138.462 239.275 138.412 239.214 138.351 239.199" stroke="#EF7300" stroke-width="2" stroke-linecap="round"/>
<path d="M140.43 238.204C140.362 238.216 140.179 238.233 140.329 238.265C140.422 238.285 140.452 238.295 140.369 238.229C140.266 238.147 140.181 238.305 140.297 238.234" stroke="#EF7300" stroke-width="2" stroke-linecap="round"/>
<path d="M139.767 237.494C139.589 237.368 139.706 237.509 139.744 237.404C139.761 237.355 139.529 237.386 139.617 237.332" stroke="#EF7300" stroke-width="2" stroke-linecap="round"/>
<path d="M141.638 238.304C141.474 238.291 141.44 238.347 141.587 238.335" stroke="#EF7300" stroke-linecap="round"/>
<path d="M141.145 239.243C141.265 239.165 141.034 239.265 141.19 239.229" stroke="#EF7300" stroke-linecap="round"/>
<path d="M142.307 239.008C142.27 239.022 142.211 239.047 142.248 239.044" stroke="#EF7300" stroke-linecap="round"/>
<path d="M143.118 239.218C143.089 239.205 143 239.165 143.058 239.225C143.073 239.24 143.094 239.244 143.092 239.22" stroke="#EF7300" stroke-linecap="round"/>
<path d="M142.792 238.532C142.75 238.511 142.732 238.527 142.761 238.525" stroke="#EF7300" stroke-linecap="round"/>
<path d="M140.682 237.224C140.674 237.223 140.613 237.21 140.622 237.235C140.628 237.249 140.631 237.249 140.643 237.248" stroke="#EF7300" stroke-linecap="round"/>
<path d="M138.57 236.557C138.582 236.562 138.655 236.591 138.66 236.554C138.666 236.514 138.569 236.48 138.577 236.5C138.586 236.524 138.636 236.528 138.626 236.52C138.592 236.491 138.543 236.514 138.513 236.539C138.469 236.576 138.602 236.619 138.618 236.552C138.628 236.511 138.474 236.482 138.478 236.546C138.483 236.618 138.56 236.641 138.609 236.588C138.648 236.544 138.49 236.509 138.477 236.506C138.459 236.502 138.395 236.507 138.383 236.496C138.362 236.475 138.418 236.556 138.447 236.556C138.463 236.557 138.505 236.542 138.518 236.535C138.536 236.526 138.609 236.525 138.578 236.518C138.554 236.512 138.492 236.496 138.51 236.526" stroke="#EF7300" stroke-linecap="round"/>
<path d="M155.518 258.638C155.339 258.755 155.33 258.917 155.466 259.139C155.552 259.279 155.808 259.085 155.774 258.976C155.554 258.282 154.551 258.222 154.883 259.06C154.934 259.187 155.162 259.736 155.314 259.643C155.539 259.505 155.458 259.251 155.369 259.022C154.937 257.907 154.857 260.293 155.357 260.083C155.715 259.931 155.592 259.387 155.425 259.076C155.258 258.766 155.032 258.269 154.875 258.801C154.84 258.918 154.811 259.635 155.105 259.588C155.266 259.563 155.562 259.365 155.479 259.164C155.4 258.974 155.211 258.939 155.123 259.131C155.035 259.323 155.121 259.645 155.171 259.854C155.181 259.896 155.26 260.22 155.315 260.131C155.461 259.896 155.574 259.25 155.449 258.948C155.324 258.647 155.175 258.826 155.164 259.063C155.158 259.198 155.143 259.759 155.303 259.838C155.463 259.917 155.662 259.755 155.688 259.602C155.722 259.403 155.692 259.074 155.568 258.887C155.43 258.678 155.251 259.076 155.251 259.186C155.25 259.33 155.324 259.444 155.374 259.577C155.401 259.649 155.352 259.716 155.364 259.788C155.377 259.871 155.66 259.671 155.674 259.598C155.696 259.486 155.659 259.28 155.699 259.185C155.758 259.046 155.593 259.038 155.77 259.115C156.279 259.337 155.53 260.381 155.265 259.979C155.068 259.681 155.165 259.441 155.407 259.292C155.595 259.177 155.589 259.613 155.568 259.722C155.55 259.809 155.439 259.918 155.546 259.853" stroke="#FF7A00" stroke-width="3" stroke-linecap="round"/>
<path d="M155.736 261.295C155.63 261.259 155.485 261.294 155.494 261.432C155.497 261.479 155.512 261.673 155.578 261.685C155.639 261.696 155.72 261.592 155.717 261.544C155.715 261.513 155.692 261.287 155.639 261.324C155.504 261.416 155.572 261.71 155.637 261.822C155.687 261.908 155.785 261.807 155.783 261.733C155.78 261.641 155.758 261.528 155.71 261.45C155.66 261.368 155.577 261.534 155.57 261.575C155.558 261.653 155.549 261.718 155.613 261.775C155.672 261.828 155.795 261.725 155.8 261.663C155.805 261.601 155.792 261.285 155.673 261.378C155.611 261.425 155.569 261.482 155.611 261.55C155.666 261.639 155.717 261.376 155.723 261.347C155.737 261.279 155.784 261.395 155.8 261.434C155.83 261.504 155.701 261.566 155.749 261.644" stroke="#FF7A00" stroke-width="3" stroke-linecap="round"/>
<path d="M154.854 262.386C154.841 262.251 154.732 262.191 154.759 262.317C154.777 262.403 154.814 262.522 154.874 262.485C154.953 262.436 154.821 262.19 154.741 262.232C154.675 262.267 154.72 262.333 154.751 262.433C154.762 262.466 154.816 262.595 154.84 262.588C154.933 262.559 154.983 262.495 154.886 262.338" stroke="#FF7A00" stroke-width="3" stroke-linecap="round"/>
<path d="M155.61 263.679C155.448 263.62 155.568 263.848 155.624 263.817C155.664 263.795 155.737 263.73 155.692 263.651C155.659 263.595 155.623 263.584 155.601 263.632C155.578 263.681 155.613 263.717 155.648 263.773" stroke="#FF7A00" stroke-width="3" stroke-linecap="round"/>
<path d="M156.355 262.305C156.438 262.44 156.45 262.46 156.45 262.46" stroke="#FF7A00" stroke-width="3" stroke-linecap="round"/>
<path d="M156.463 260.75C156.427 260.692 156.376 260.57 156.292 260.645C156.257 260.677 156.241 260.751 156.277 260.789C156.332 260.845 156.384 260.73 156.367 260.725C156.31 260.708 156.299 260.777 156.318 260.809" stroke="#FF7A00" stroke-width="3" stroke-linecap="round"/>
<path d="M155.043 257.042C154.992 257.082 154.977 257.115 155.027 257.186C155.05 257.219 155.099 257.296 155.14 257.296C155.163 257.295 155.272 257.238 155.269 257.211C155.253 257.069 154.976 257.031 155.008 257.089C155.083 257.226 155.119 257.028 155.063 256.937C154.963 256.773 154.856 256.753 154.888 256.975C154.897 257.04 154.933 257.145 154.999 257.173C155.047 257.194 155.131 257.179 155.143 257.122C155.156 257.057 155.069 256.851 154.998 256.816C154.891 256.762 154.775 256.914 154.824 257.028C154.917 257.244 155.136 257.037 155.208 256.967" stroke="#FF7A00" stroke-width="3" stroke-linecap="round"/>
<path d="M155.341 255.103C155.299 255.106 155.217 255.092 155.235 255.168C155.25 255.229 155.356 255.413 155.413 255.42C155.554 255.436 155.372 255.227 155.323 255.199C155.266 255.167 155.194 255.189 155.235 255.274C155.288 255.384 155.304 255.234 155.298 255.315" stroke="#FF7A00" stroke-width="3" stroke-linecap="round"/>
<path d="M154.432 263.576C154.39 263.586 154.327 263.591 154.358 263.641C154.362 263.648 154.423 263.718 154.412 263.677C154.388 263.593 154.298 263.648 154.364 263.65" stroke="#FF7A00" stroke-linecap="round"/>
<path d="M154.992 264.702C154.981 264.689 154.893 264.551 154.892 264.603C154.889 264.683 154.943 264.666 154.998 264.632C155.023 264.617 154.931 264.607 154.901 264.627C154.886 264.637 154.891 264.687 154.903 264.69" stroke="#FF7A00" stroke-linecap="round"/>
<path d="M154.314 264.448C154.295 264.46 154.195 264.521 154.267 264.477C154.297 264.458 154.245 264.474 154.293 264.493" stroke="#FF7A00" stroke-linecap="round"/>
<path d="M156.267 264.279C156.216 264.244 156.199 264.239 156.15 264.269C156.123 264.285 156.128 264.308 156.161 264.293C156.239 264.26 156.153 264.227 156.193 264.291" stroke="#FF7A00" stroke-linecap="round"/>
<path d="M154.277 266.037C154.17 266.057 154.207 266.064 154.276 266.022C154.319 265.995 154.314 265.991 154.288 265.949C154.261 265.904 154.213 265.966 154.225 266.003C154.241 266.055 154.272 266.024 154.305 266.004" stroke="#FF7A00" stroke-linecap="round"/>
<path d="M154.8 265.586C154.713 265.554 154.708 265.605 154.753 265.599C154.776 265.595 154.874 265.565 154.859 265.524C154.811 265.402 154.677 265.613 154.778 265.551" stroke="#FF7A00" stroke-linecap="round"/>
<path d="M155.464 264.967C155.431 264.973 155.366 264.978 155.401 265.022C155.435 265.064 155.482 265.024 155.515 265C155.549 264.974 155.527 264.933 155.488 264.952C155.463 264.964 155.44 264.981 155.417 264.996" stroke="#FF7A00" stroke-linecap="round"/>
<path d="M150.33 279.954C136.917 294.522 126.524 289.629 122.665 288.044C118.806 286.459 110.961 279.93 105.348 267.069C97.8477 249.88 121.735 231.738 130.331 232.153C138.926 232.569 144.026 236.752 144.634 237.744C145.779 237.56 146.74 237.762 147.52 238.545C148.301 239.328 148.253 240.104 148.051 241.17C151.457 242.649 163.744 265.387 150.33 279.954Z" fill="#FF8513"/>
<path d="M148.631 278.139C135.254 292.38 125.711 287.348 122.863 286.747C120.016 286.146 108.391 278.07 106.078 268.611C105.243 265.195 125.272 286.569 141.286 276.751C157.299 266.933 150.121 242.986 150.442 243.684L152.016 246.252C155.719 251.779 162.008 263.898 148.631 278.139Z" fill="#ED7A10"/>
<path d="M150.651 281.142C137.274 295.383 127.73 290.35 124.882 289.749C122.035 289.149 110.411 281.072 108.097 271.613C107.262 268.198 127.292 289.572 143.305 279.754C159.318 269.936 152.141 245.988 152.461 246.687L154.56 250.111C158.264 255.637 164.027 266.901 150.651 281.142Z" fill="#DB6D07"/>
<path d="M134.971 236.284C134.532 236.368 134.073 236.488 133.624 236.446C133.313 236.417 133.013 236.3 132.7 236.294C132.412 236.289 131.984 236.579 132.444 236.765C132.753 236.891 133.358 236.929 133.691 236.921C134.01 236.914 134.538 236.896 134.81 236.729C135.089 236.558 134.711 236.232 134.475 236.229C134.302 236.227 134.116 236.172 133.933 236.17C133.779 236.168 133.639 236.173 133.486 236.143C133.163 236.079 132.81 236.234 132.492 236.175C132.387 236.155 131.942 236.316 132.018 236.363" stroke="#D76C09" stroke-width="2" stroke-linecap="round"/>
<path d="M137.805 238.244C137.699 238.262 137.027 238.26 137.041 238.482C137.052 238.667 137.442 238.461 137.532 238.457C137.581 238.455 138.126 238.653 137.867 238.367C137.655 238.131 137.536 238.237 137.318 238.37C137.183 238.453 137.023 238.525 137.256 238.594C137.434 238.646 137.63 238.666 137.819 238.685C138.039 238.707 138.171 238.726 138.022 238.503C137.908 238.333 137.64 238.403 137.496 238.492" stroke="#D76C09" stroke-linecap="round"/>
<path d="M134.338 234.001C134.302 234.012 134.016 234.132 133.966 234.07C133.937 234.035 133.98 233.964 134.022 233.953C134.097 233.934 134.258 233.984 134.338 234.001ZM134.338 234.001C134.474 234.032 133.959 234.206 134.056 234.023" stroke="#D76C09" stroke-width="0.5" stroke-linecap="round"/>
<path d="M129.298 237.065C129.052 237.163 129.103 237.299 129.311 237.227C129.387 237.201 129.507 237.039 129.386 237.073C129.15 237.138 128.987 237.217 129.159 237.497" stroke="#D76C09" stroke-linecap="round"/>
<path d="M133.234 239.13C132.663 239.254 133.381 239.441 133.447 239.217C133.516 238.986 133.187 239.275 133.159 239.291" stroke="#D76C09" stroke-linecap="round"/>
<path d="M135.349 240.09C135.279 240.092 135 240.064 135.129 240.197C135.166 240.236 135.267 240.228 135.236 240.23C135.094 240.239 135 240.181 135.107 240.354" stroke="#D76C09" stroke-linecap="round"/>
<path d="M137.152 240.02C137.037 240.065 136.916 240.097 137.094 240.114" stroke="#D76C09" stroke-linecap="round"/>
<path d="M130.911 240.039C130.772 239.938 130.676 239.85 130.503 239.886C130.466 239.893 130.324 239.884 130.344 239.957C130.397 240.145 130.616 240.199 130.777 240.15C130.965 240.094 131.122 240.031 131.289 239.923C131.517 239.776 130.936 239.459 130.831 239.364C130.637 239.19 130.146 239.286 130.109 239.579C130.054 240.018 130.693 239.665 130.883 239.71" stroke="#D76C09" stroke-linecap="round"/>
<path d="M127.549 235.277C127.39 235.215 126.975 235.124 127.037 235.283C127.095 235.432 127.305 235.6 127.459 235.505C127.627 235.402 127.508 235.199 127.328 235.156C127.04 235.087 126.952 235.287 127.23 235.415" stroke="#D76C09" stroke-width="0.5" stroke-linecap="round"/>
<path d="M127.886 237.528C127.872 237.523 127.564 237.509 127.595 237.564C127.628 237.623 127.735 237.584 127.782 237.555" stroke="#D76C09" stroke-width="0.5" stroke-linecap="round"/>
<path d="M130.148 235.06C130.076 235.055 129.972 235.023 130.026 235.11C130.074 235.189 130.064 235.116 130.07 235.057" stroke="#D76C09" stroke-linecap="round"/>
<path d="M132.501 234.249C132.443 234.225 132.248 234.083 132.198 234.167C132.168 234.218 132.184 234.278 132.217 234.322C132.264 234.382 132.33 234.329 132.379 234.298C132.524 234.21 132.35 234.15 132.241 234.124C132.182 234.109 131.987 234.187 132.027 234.261C132.086 234.372 132.41 234.31 132.49 234.231C132.524 234.197 132.214 234.192 132.165 234.196C132.074 234.204 132.124 234.254 132.157 234.308" stroke="#D76C09" stroke-linecap="round"/>
<path d="M136.511 236.446C136.445 236.463 136.339 236.474 136.382 236.563C136.396 236.593 136.424 236.657 136.453 236.673C136.476 236.686 136.536 236.632 136.556 236.623C136.612 236.596 136.639 236.612 136.597 236.544C136.551 236.469 136.453 236.355 136.353 236.416C136.26 236.473 136.282 236.493 136.357 236.566" stroke="#D76C09" stroke-linecap="round"/>
<path d="M139.196 240.102C139.128 240.122 138.946 240.15 139.096 240.201C139.188 240.232 139.218 240.248 139.136 240.144C139.033 240.012 138.947 240.265 139.063 240.152" stroke="#D76C09" stroke-width="0.5" stroke-linecap="round"/>
<path d="M139.767 238.323C139.589 238.12 139.706 238.346 139.744 238.178C139.761 238.1 139.529 238.15 139.617 238.064" stroke="#D76C09" stroke-width="0.5" stroke-linecap="round"/>
<path d="M141.146 237.084C140.982 237.063 140.949 237.154 141.096 237.134" stroke="#D76C09" stroke-width="0.5" stroke-linecap="round"/>
<path d="M141.013 239.06C141.133 238.935 140.902 239.095 141.058 239.037" stroke="#D76C09" stroke-width="0.5" stroke-linecap="round"/>
<path d="M142.307 239.614C142.27 239.636 142.211 239.677 142.248 239.672" stroke="#D76C09" stroke-width="0.5" stroke-linecap="round"/>
<path d="M144.081 239.083C144.052 239.062 143.964 238.998 144.021 239.094C144.036 239.119 144.058 239.124 144.056 239.087" stroke="#D76C09" stroke-width="0.5" stroke-linecap="round"/>
<path d="M142.046 238.044C142.003 238.01 141.985 238.036 142.014 238.032" stroke="#D76C09" stroke-linecap="round"/>
<path d="M138.571 236.557C138.582 236.562 138.655 236.591 138.661 236.554C138.666 236.514 138.569 236.481 138.577 236.5C138.587 236.524 138.636 236.528 138.626 236.52C138.592 236.491 138.543 236.514 138.513 236.539C138.469 236.576 138.603 236.619 138.619 236.552C138.629 236.511 138.475 236.482 138.479 236.546C138.483 236.618 138.56 236.641 138.609 236.588C138.649 236.544 138.49 236.509 138.477 236.506C138.459 236.502 138.395 236.507 138.384 236.496C138.363 236.475 138.418 236.556 138.447 236.557C138.463 236.557 138.505 236.542 138.519 236.535C138.536 236.526 138.61 236.526 138.578 236.518C138.554 236.512 138.492 236.496 138.51 236.526" stroke="#D76C09" stroke-linecap="round"/>
<path d="M155.518 258.638C155.339 258.755 155.33 258.917 155.466 259.139C155.552 259.279 155.808 259.085 155.774 258.977C155.554 258.282 154.551 258.222 154.883 259.06C154.934 259.188 155.162 259.736 155.314 259.643C155.539 259.505 155.458 259.251 155.369 259.022C154.937 257.907 154.857 260.293 155.357 260.083C155.715 259.932 155.592 259.387 155.425 259.076C155.258 258.766 155.032 258.269 154.875 258.801C154.84 258.918 154.811 259.635 155.105 259.589C155.266 259.563 155.562 259.365 155.479 259.164C155.4 258.974 155.211 258.939 155.123 259.131C155.035 259.323 155.121 259.645 155.171 259.854C155.181 259.896 155.26 260.22 155.315 260.131C155.461 259.896 155.574 259.25 155.449 258.948C155.324 258.647 155.175 258.826 155.164 259.064C155.158 259.198 155.143 259.759 155.303 259.838C155.463 259.917 155.662 259.755 155.688 259.603C155.722 259.403 155.692 259.074 155.568 258.887C155.43 258.678 155.251 259.076 155.251 259.186C155.25 259.33 155.324 259.445 155.374 259.577C155.401 259.65 155.352 259.716 155.364 259.788C155.377 259.871 155.66 259.671 155.674 259.598C155.696 259.486 155.659 259.28 155.699 259.185C155.758 259.046 155.593 259.038 155.77 259.115C156.279 259.337 155.53 260.381 155.265 259.979C155.068 259.681 155.165 259.441 155.407 259.293C155.595 259.177 155.589 259.613 155.568 259.722C155.55 259.81 155.439 259.918 155.546 259.853" stroke="#ED7A10" stroke-linecap="round"/>
<path d="M155.736 261.295C155.63 261.259 155.485 261.294 155.494 261.432C155.497 261.479 155.512 261.673 155.578 261.685C155.639 261.696 155.72 261.592 155.717 261.544C155.715 261.513 155.692 261.287 155.639 261.324C155.504 261.415 155.572 261.709 155.637 261.822C155.687 261.908 155.785 261.807 155.783 261.733C155.78 261.641 155.758 261.528 155.71 261.45C155.66 261.368 155.577 261.534 155.57 261.575C155.558 261.652 155.549 261.718 155.613 261.775C155.672 261.828 155.795 261.725 155.8 261.663C155.805 261.601 155.792 261.285 155.673 261.378C155.611 261.425 155.569 261.482 155.611 261.55C155.666 261.639 155.717 261.375 155.723 261.347C155.737 261.279 155.784 261.395 155.8 261.434C155.83 261.504 155.701 261.566 155.749 261.644" stroke="#ED7A10" stroke-linecap="round"/>
<path d="M154.614 262.344C154.602 262.209 154.492 262.149 154.519 262.275C154.537 262.361 154.574 262.48 154.635 262.443C154.714 262.394 154.582 262.148 154.501 262.19C154.436 262.225 154.481 262.291 154.512 262.391C154.522 262.424 154.576 262.553 154.601 262.546C154.693 262.517 154.743 262.453 154.647 262.296" stroke="#ED7A10" stroke-linecap="round"/>
<path d="M156.112 265.092C155.95 265.033 156.071 265.261 156.126 265.23C156.166 265.208 156.239 265.143 156.194 265.064C156.161 265.008 156.126 264.997 156.103 265.045C156.08 265.094 156.115 265.13 156.15 265.186" stroke="#ED7A10" stroke-linecap="round"/>
<path d="M157 263C157.083 263.135 157.095 263.155 157.095 263.155" stroke="#ED7A10" stroke-linecap="round"/>
<path d="M157.011 260.647C156.975 260.589 156.924 260.467 156.84 260.542C156.805 260.574 156.789 260.648 156.826 260.686C156.88 260.742 156.932 260.627 156.915 260.622C156.858 260.605 156.847 260.674 156.866 260.706" stroke="#ED7A10" stroke-linecap="round"/>
<path d="M155.092 256.974C155.041 257.015 155.026 257.048 155.076 257.119C155.099 257.152 155.148 257.229 155.189 257.228C155.212 257.228 155.321 257.171 155.318 257.143C155.302 257.002 155.026 256.964 155.057 257.022C155.133 257.158 155.168 256.96 155.112 256.87C155.012 256.706 154.905 256.686 154.937 256.908C154.946 256.973 154.982 257.077 155.048 257.106C155.096 257.127 155.18 257.112 155.192 257.055C155.205 256.989 155.118 256.784 155.047 256.749C154.94 256.694 154.824 256.846 154.873 256.961C154.966 257.177 155.186 256.97 155.257 256.899" stroke="#ED7A10" stroke-linecap="round"/>
<path d="M155.166 255.122C155.123 255.125 155.042 255.111 155.06 255.187C155.075 255.248 155.18 255.432 155.238 255.439C155.378 255.455 155.197 255.246 155.148 255.219C155.091 255.186 155.019 255.208 155.06 255.293C155.112 255.404 155.129 255.253 155.122 255.334" stroke="#ED7A10" stroke-linecap="round"/>
<path d="M155.107 264.016C155.065 264.027 155.001 264.031 155.032 264.081C155.037 264.089 155.098 264.159 155.086 264.117C155.063 264.033 154.972 264.088 155.038 264.091" stroke="#ED7A10" stroke-linecap="round"/>
<path d="M154.074 265.002C154.054 265.014 153.955 265.074 154.026 265.031C154.057 265.012 154.005 265.028 154.053 265.047" stroke="#ED7A10" stroke-linecap="round"/>
<path d="M154.107 267.113C154 267.132 154.037 267.139 154.106 267.097C154.149 267.071 154.144 267.067 154.118 267.025C154.091 266.98 154.044 267.042 154.055 267.079C154.072 267.131 154.102 267.1 154.136 267.079" stroke="#ED7A10" stroke-linecap="round"/>
<path d="M154.1 269.116C154.013 269.084 154.008 269.135 154.053 269.129C154.077 269.125 154.175 269.095 154.159 269.055C154.112 268.932 153.977 269.143 154.078 269.081" stroke="#ED7A10" stroke-linecap="round"/>
<path d="M156.081 267.046C156.048 267.053 155.982 267.058 156.018 267.102C156.051 267.144 156.098 267.104 156.132 267.08C156.166 267.054 156.143 267.013 156.104 267.032C156.08 267.044 156.056 267.061 156.033 267.076" stroke="#ED7A10" stroke-linecap="round"/>
</svg>
