<svg width="182" height="433" viewBox="0 0 182 433" fill="none" xmlns="http://www.w3.org/2000/svg">
<path d="M126.5 15C124.334 -2.05 107.015 17.7893 65.5 20.5217L51 430.302C69.9525 430.849 150.408 438.403 162.008 425.534C166.215 420.866 155.371 425.862 172.992 392.559C181.614 376.264 180.223 330.517 181.125 292.81C182.028 255.103 186.375 143.631 162.008 118.752C150.159 106.655 140.348 86.802 140.348 76.9655V35.352C159.842 35.352 161.105 30.9046 162.008 20.5217C162.91 10.1387 128.666 32.05 126.5 15Z" fill="#ECE4E4"/>
<path d="M80 20.5217C82.1825 3.47175 90.168 4.76756 132 7.49993V430.302C112.903 430.849 31.8328 438.403 20.145 425.534C15.9054 420.866 26.832 425.862 9.07632 392.559C0.388535 376.264 1.7908 330.517 0.881409 292.81C-0.0279846 255.103 -4.4086 143.632 20.145 118.752C32.0838 106.655 41.9703 86.802 41.9703 76.9655V35.352C22.3275 35.352 21.0544 30.9047 20.145 20.5217C19.2356 10.1387 77.8175 37.5717 80 20.5217Z" fill="#ECE4E4"/>
<path d="M77.2181 247.008C43.3679 247.008 12.1818 237.669 0.820068 233C1 340 3.09624 379 9.04755 390.594C21.2712 414.409 21.9589 422.527 20 423.5C20.4701 432.839 69 432.5 93.5 431C152.738 434.736 162.784 426.975 162 422.5C157.769 419.231 169.5 396.5 174 387.5C181.5 362.5 180.021 290.559 181 239L176.536 241.172C169.679 241.95 152.323 241.989 137.749 235.918C119.531 228.331 119.531 247.008 77.2181 247.008Z" fill="#D0A58D" fill-opacity="0.7"/>
<path d="M161.503 10.5231C160.603 1.46718 113.511 -0.486761 91.7651 0.0937466C64.102 0.0937402 19.0001 2.3895 19 10.5231V31.4214C19 37.3528 36.8381 38.2423 43.3993 37.9521C67.0198 37.8069 118.985 37.6038 137.881 37.9521C156.778 38.3004 160.941 36.1908 161.503 32.2723C161.878 29.66 162.403 19.579 161.503 10.5231Z" fill="#8BCB75"/>
<rect x="7" y="177" width="168" height="196" fill="#F3E9E3"/>
<rect x="7.5" y="177.5" width="167" height="195" stroke="black" stroke-opacity="0.2"/>
<rect x="7" y="307.48" width="168" height="26.88" fill="#DF7E54"/>
<path d="M33.55 319.46V318.83H35.25V326H34.54V319.46H33.55ZM36.8099 322.35C36.8099 321.203 36.9866 320.313 37.3399 319.68C37.6932 319.047 38.3266 318.73 39.2399 318.73C40.1532 318.73 40.7866 319.047 41.1399 319.68C41.4932 320.313 41.6699 321.203 41.6699 322.35C41.6699 323.517 41.4932 324.42 41.1399 325.06C40.7866 325.7 40.1532 326.02 39.2399 326.02C38.3199 326.02 37.6832 325.7 37.3299 325.06C36.9832 324.42 36.8099 323.517 36.8099 322.35ZM40.9799 322.35C40.9799 321.73 40.9366 321.207 40.8499 320.78C40.7632 320.353 40.5932 320.01 40.3399 319.75C40.0866 319.49 39.7199 319.36 39.2399 319.36C38.7599 319.36 38.3932 319.49 38.1399 319.75C37.8866 320.01 37.7166 320.353 37.6299 320.78C37.5432 321.207 37.4999 321.73 37.4999 322.35C37.4999 322.99 37.5432 323.527 37.6299 323.96C37.7166 324.387 37.8866 324.73 38.1399 324.99C38.3932 325.25 38.7599 325.38 39.2399 325.38C39.7199 325.38 40.0866 325.25 40.3399 324.99C40.5932 324.73 40.7632 324.387 40.8499 323.96C40.9366 323.527 40.9799 322.99 40.9799 322.35ZM42.972 322.35C42.972 321.203 43.1487 320.313 43.502 319.68C43.8554 319.047 44.4887 318.73 45.402 318.73C46.3154 318.73 46.9487 319.047 47.302 319.68C47.6554 320.313 47.832 321.203 47.832 322.35C47.832 323.517 47.6554 324.42 47.302 325.06C46.9487 325.7 46.3154 326.02 45.402 326.02C44.482 326.02 43.8454 325.7 43.492 325.06C43.1454 324.42 42.972 323.517 42.972 322.35ZM47.142 322.35C47.142 321.73 47.0987 321.207 47.012 320.78C46.9254 320.353 46.7554 320.01 46.502 319.75C46.2487 319.49 45.882 319.36 45.402 319.36C44.922 319.36 44.5554 319.49 44.302 319.75C44.0487 320.01 43.8787 320.353 43.792 320.78C43.7054 321.207 43.662 321.73 43.662 322.35C43.662 322.99 43.7054 323.527 43.792 323.96C43.8787 324.387 44.0487 324.73 44.302 324.99C44.5554 325.25 44.922 325.38 45.402 325.38C45.882 325.38 46.2487 325.25 46.502 324.99C46.7554 324.73 46.9254 324.387 47.012 323.96C47.0987 323.527 47.142 322.99 47.142 322.35ZM48.9141 320.33C48.9141 319.903 49.0441 319.56 49.3041 319.3C49.5708 319.033 49.9075 318.9 50.3141 318.9C50.7275 318.9 51.0641 319.033 51.3241 319.3C51.5908 319.56 51.7241 319.903 51.7241 320.33C51.7241 320.763 51.5908 321.113 51.3241 321.38C51.0641 321.64 50.7275 321.77 50.3141 321.77C49.9075 321.77 49.5708 321.64 49.3041 321.38C49.0441 321.113 48.9141 320.763 48.9141 320.33ZM54.5141 319L50.4141 326H49.7041L53.8141 319H54.5141ZM50.3141 319.35C50.0608 319.35 49.8575 319.437 49.7041 319.61C49.5575 319.777 49.4841 320.017 49.4841 320.33C49.4841 320.643 49.5575 320.887 49.7041 321.06C49.8575 321.233 50.0608 321.32 50.3141 321.32C50.5675 321.32 50.7708 321.233 50.9241 321.06C51.0775 320.887 51.1541 320.643 51.1541 320.33C51.1541 320.023 51.0775 319.783 50.9241 319.61C50.7708 319.437 50.5675 319.35 50.3141 319.35ZM52.5141 324.67C52.5141 324.237 52.6441 323.89 52.9041 323.63C53.1708 323.363 53.5075 323.23 53.9141 323.23C54.3208 323.23 54.6541 323.363 54.9141 323.63C55.1808 323.89 55.3141 324.237 55.3141 324.67C55.3141 325.103 55.1808 325.453 54.9141 325.72C54.6541 325.98 54.3208 326.11 53.9141 326.11C53.5075 326.11 53.1708 325.98 52.9041 325.72C52.6441 325.453 52.5141 325.103 52.5141 324.67ZM53.9141 323.69C53.6608 323.69 53.4575 323.777 53.3041 323.95C53.1508 324.123 53.0741 324.363 53.0741 324.67C53.0741 324.977 53.1508 325.217 53.3041 325.39C53.4575 325.563 53.6608 325.65 53.9141 325.65C54.1675 325.65 54.3675 325.567 54.5141 325.4C54.6675 325.227 54.7441 324.983 54.7441 324.67C54.7441 324.357 54.6675 324.117 54.5141 323.95C54.3675 323.777 54.1675 323.69 53.9141 323.69ZM63.7541 321.02C63.7541 321.62 63.5575 322.103 63.1641 322.47C62.7708 322.837 62.1808 323.02 61.3941 323.02H59.9841V326H59.2841V319.01H61.3941C62.1741 319.01 62.7608 319.193 63.1541 319.56C63.5541 319.927 63.7541 320.413 63.7541 321.02ZM61.3941 322.42C62.4875 322.42 63.0341 321.953 63.0341 321.02C63.0341 320.553 62.9041 320.2 62.6441 319.96C62.3841 319.72 61.9675 319.6 61.3941 319.6H59.9841V322.42H61.3941ZM67.0787 321.13H65.8087V326H65.1087V321.13H64.3487V320.54H65.1087V320.16C65.1087 319.567 65.2587 319.13 65.5587 318.85C65.8653 318.57 66.3587 318.43 67.0387 318.43V319.03C66.5853 319.03 66.2653 319.117 66.0787 319.29C65.8987 319.463 65.8087 319.753 65.8087 320.16V320.54H67.0787V321.13ZM68.5306 319.51C68.3906 319.51 68.2706 319.46 68.1706 319.36C68.0706 319.26 68.0206 319.137 68.0206 318.99C68.0206 318.843 68.0706 318.723 68.1706 318.63C68.2706 318.53 68.3906 318.48 68.5306 318.48C68.6706 318.48 68.7906 318.53 68.8906 318.63C68.9906 318.723 69.0406 318.843 69.0406 318.99C69.0406 319.137 68.9906 319.26 68.8906 319.36C68.7906 319.46 68.6706 319.51 68.5306 319.51ZM68.8806 320.54V326H68.1806V320.54H68.8806ZM71.1658 321.51C71.3191 321.17 71.5524 320.907 71.8658 320.72C72.1858 320.533 72.5758 320.44 73.0358 320.44V321.17H72.8458C72.3391 321.17 71.9324 321.307 71.6258 321.58C71.3191 321.853 71.1658 322.31 71.1658 322.95V326H70.4658V320.54H71.1658V321.51ZM75.9688 326.08C75.3422 326.08 74.8288 325.937 74.4288 325.65C74.0355 325.357 73.8155 324.96 73.7688 324.46H74.4888C74.5222 324.767 74.6655 325.017 74.9188 325.21C75.1788 325.397 75.5255 325.49 75.9588 325.49C76.3388 325.49 76.6355 325.4 76.8488 325.22C77.0688 325.04 77.1788 324.817 77.1788 324.55C77.1788 324.363 77.1188 324.21 76.9988 324.09C76.8788 323.97 76.7255 323.877 76.5388 323.81C76.3588 323.737 76.1122 323.66 75.7988 323.58C75.3922 323.473 75.0622 323.367 74.8088 323.26C74.5555 323.153 74.3388 322.997 74.1588 322.79C73.9855 322.577 73.8988 322.293 73.8988 321.94C73.8988 321.673 73.9788 321.427 74.1388 321.2C74.2988 320.973 74.5255 320.793 74.8188 320.66C75.1122 320.527 75.4455 320.46 75.8188 320.46C76.4055 320.46 76.8788 320.61 77.2388 320.91C77.5988 321.203 77.7922 321.61 77.8188 322.13H77.1188C77.0988 321.81 76.9722 321.553 76.7388 321.36C76.5122 321.16 76.1988 321.06 75.7988 321.06C75.4455 321.06 75.1588 321.143 74.9388 321.31C74.7188 321.477 74.6088 321.683 74.6088 321.93C74.6088 322.143 74.6722 322.32 74.7988 322.46C74.9322 322.593 75.0955 322.7 75.2888 322.78C75.4822 322.853 75.7422 322.937 76.0688 323.03C76.4622 323.137 76.7755 323.24 77.0088 323.34C77.2422 323.44 77.4422 323.587 77.6088 323.78C77.7755 323.973 77.8622 324.23 77.8688 324.55C77.8688 324.843 77.7888 325.107 77.6288 325.34C77.4688 325.567 77.2455 325.747 76.9588 325.88C76.6722 326.013 76.3422 326.08 75.9688 326.08ZM79.5365 319.51C79.3965 319.51 79.2765 319.46 79.1765 319.36C79.0765 319.26 79.0265 319.137 79.0265 318.99C79.0265 318.843 79.0765 318.723 79.1765 318.63C79.2765 318.53 79.3965 318.48 79.5365 318.48C79.6765 318.48 79.7965 318.53 79.8965 318.63C79.9965 318.723 80.0465 318.843 80.0465 318.99C80.0465 319.137 79.9965 319.26 79.8965 319.36C79.7965 319.46 79.6765 319.51 79.5365 319.51ZM79.8865 320.54V326H79.1865V320.54H79.8865ZM81.1516 323.27C81.1516 322.703 81.265 322.21 81.4916 321.79C81.7183 321.363 82.0316 321.037 82.4316 320.81C82.8316 320.577 83.2883 320.46 83.8016 320.46C84.475 320.46 85.0283 320.627 85.4616 320.96C85.9016 321.293 86.185 321.747 86.3116 322.32H85.5616C85.4683 321.927 85.265 321.62 84.9516 321.4C84.645 321.173 84.2616 321.06 83.8016 321.06C83.435 321.06 83.105 321.143 82.8116 321.31C82.5183 321.477 82.285 321.727 82.1116 322.06C81.945 322.387 81.8616 322.79 81.8616 323.27C81.8616 323.75 81.945 324.157 82.1116 324.49C82.285 324.823 82.5183 325.073 82.8116 325.24C83.105 325.407 83.435 325.49 83.8016 325.49C84.2616 325.49 84.645 325.38 84.9516 325.16C85.265 324.933 85.4683 324.62 85.5616 324.22H86.3116C86.185 324.78 85.9016 325.23 85.4616 325.57C85.0216 325.91 84.4683 326.08 83.8016 326.08C83.2883 326.08 82.8316 325.967 82.4316 325.74C82.0316 325.507 81.7183 325.18 81.4916 324.76C81.265 324.333 81.1516 323.837 81.1516 323.27ZM90.2044 320.44C90.6178 320.44 90.9878 320.527 91.3144 320.7C91.6478 320.873 91.9078 321.14 92.0944 321.5C92.2878 321.853 92.3844 322.287 92.3844 322.8V326H91.6944V322.88C91.6944 322.287 91.5444 321.833 91.2444 321.52C90.9511 321.207 90.5478 321.05 90.0344 321.05C89.5078 321.05 89.0878 321.217 88.7744 321.55C88.4611 321.883 88.3044 322.373 88.3044 323.02V326H87.6044V318.6H88.3044V321.47C88.4778 321.143 88.7311 320.89 89.0644 320.71C89.4044 320.53 89.7844 320.44 90.2044 320.44ZM93.6126 323.26C93.6126 322.7 93.7259 322.21 93.9526 321.79C94.1792 321.363 94.4892 321.037 94.8826 320.81C95.2826 320.577 95.7326 320.46 96.2326 320.46C96.7126 320.46 97.1459 320.577 97.5326 320.81C97.9192 321.043 98.2026 321.347 98.3826 321.72V318.6H99.0826V326H98.3826V324.78C98.2159 325.16 97.9426 325.473 97.5626 325.72C97.1826 325.96 96.7359 326.08 96.2226 326.08C95.7226 326.08 95.2726 325.963 94.8726 325.73C94.4792 325.497 94.1692 325.167 93.9426 324.74C93.7226 324.313 93.6126 323.82 93.6126 323.26ZM98.3826 323.27C98.3826 322.83 98.2926 322.443 98.1126 322.11C97.9326 321.777 97.6859 321.52 97.3726 321.34C97.0659 321.16 96.7259 321.07 96.3526 321.07C95.9659 321.07 95.6192 321.157 95.3126 321.33C95.0059 321.503 94.7626 321.757 94.5826 322.09C94.4092 322.417 94.3226 322.807 94.3226 323.26C94.3226 323.707 94.4092 324.1 94.5826 324.44C94.7626 324.773 95.0059 325.03 95.3126 325.21C95.6192 325.383 95.9659 325.47 96.3526 325.47C96.7259 325.47 97.0659 325.38 97.3726 325.2C97.6859 325.02 97.9326 324.763 98.1126 324.43C98.2926 324.097 98.3826 323.71 98.3826 323.27ZM101.031 319.51C100.891 319.51 100.771 319.46 100.671 319.36C100.571 319.26 100.521 319.137 100.521 318.99C100.521 318.843 100.571 318.723 100.671 318.63C100.771 318.53 100.891 318.48 101.031 318.48C101.171 318.48 101.291 318.53 101.391 318.63C101.491 318.723 101.541 318.843 101.541 318.99C101.541 319.137 101.491 319.26 101.391 319.36C101.291 319.46 101.171 319.51 101.031 319.51ZM101.381 320.54V326H100.681V320.54H101.381ZM103.666 321.51C103.819 321.17 104.052 320.907 104.366 320.72C104.686 320.533 105.076 320.44 105.536 320.44V321.17H105.346C104.839 321.17 104.432 321.307 104.126 321.58C103.819 321.853 103.666 322.31 103.666 322.95V326H102.966V320.54H103.666V321.51ZM111.529 322.99C111.529 323.23 111.522 323.413 111.509 323.54H106.979C106.999 323.953 107.099 324.307 107.279 324.6C107.459 324.893 107.695 325.117 107.989 325.27C108.282 325.417 108.602 325.49 108.949 325.49C109.402 325.49 109.782 325.38 110.089 325.16C110.402 324.94 110.609 324.643 110.709 324.27H111.449C111.315 324.803 111.029 325.24 110.589 325.58C110.155 325.913 109.609 326.08 108.949 326.08C108.435 326.08 107.975 325.967 107.569 325.74C107.162 325.507 106.842 325.18 106.609 324.76C106.382 324.333 106.269 323.837 106.269 323.27C106.269 322.703 106.382 322.207 106.609 321.78C106.835 321.353 107.152 321.027 107.559 320.8C107.965 320.573 108.429 320.46 108.949 320.46C109.469 320.46 109.922 320.573 110.309 320.8C110.702 321.027 111.002 321.333 111.209 321.72C111.422 322.1 111.529 322.523 111.529 322.99ZM110.819 322.97C110.825 322.563 110.742 322.217 110.569 321.93C110.402 321.643 110.172 321.427 109.879 321.28C109.585 321.133 109.265 321.06 108.919 321.06C108.399 321.06 107.955 321.227 107.589 321.56C107.222 321.893 107.019 322.363 106.979 322.97H110.819ZM115.76 326L113.51 323.55V326H112.81V318.6H113.51V322.98L115.71 320.54H116.69L114.1 323.26L116.71 326H115.76ZM118.524 321.13V324.52C118.524 324.853 118.588 325.083 118.714 325.21C118.841 325.337 119.064 325.4 119.384 325.4H120.024V326H119.274C118.781 326 118.414 325.887 118.174 325.66C117.934 325.427 117.814 325.047 117.814 324.52V321.13H117.054V320.54H117.814V319.17H118.524V320.54H120.024V321.13H118.524ZM123.059 326.08C122.432 326.08 121.919 325.937 121.519 325.65C121.125 325.357 120.905 324.96 120.859 324.46H121.579C121.612 324.767 121.755 325.017 122.009 325.21C122.269 325.397 122.615 325.49 123.049 325.49C123.429 325.49 123.725 325.4 123.939 325.22C124.159 325.04 124.269 324.817 124.269 324.55C124.269 324.363 124.209 324.21 124.089 324.09C123.969 323.97 123.815 323.877 123.629 323.81C123.449 323.737 123.202 323.66 122.889 323.58C122.482 323.473 122.152 323.367 121.899 323.26C121.645 323.153 121.429 322.997 121.249 322.79C121.075 322.577 120.989 322.293 120.989 321.94C120.989 321.673 121.069 321.427 121.229 321.2C121.389 320.973 121.615 320.793 121.909 320.66C122.202 320.527 122.535 320.46 122.909 320.46C123.495 320.46 123.969 320.61 124.329 320.91C124.689 321.203 124.882 321.61 124.909 322.13H124.209C124.189 321.81 124.062 321.553 123.829 321.36C123.602 321.16 123.289 321.06 122.889 321.06C122.535 321.06 122.249 321.143 122.029 321.31C121.809 321.477 121.699 321.683 121.699 321.93C121.699 322.143 121.762 322.32 121.889 322.46C122.022 322.593 122.185 322.7 122.379 322.78C122.572 322.853 122.832 322.937 123.159 323.03C123.552 323.137 123.865 323.24 124.099 323.34C124.332 323.44 124.532 323.587 124.699 323.78C124.865 323.973 124.952 324.23 124.959 324.55C124.959 324.843 124.879 325.107 124.719 325.34C124.559 325.567 124.335 325.747 124.049 325.88C123.762 326.013 123.432 326.08 123.059 326.08ZM125.956 323.26C125.956 322.7 126.066 322.21 126.286 321.79C126.513 321.363 126.823 321.037 127.216 320.81C127.616 320.577 128.066 320.46 128.566 320.46C129.086 320.46 129.533 320.58 129.906 320.82C130.286 321.06 130.56 321.367 130.726 321.74V320.54H131.426V326H130.726V324.79C130.553 325.163 130.276 325.473 129.896 325.72C129.523 325.96 129.076 326.08 128.556 326.08C128.063 326.08 127.616 325.963 127.216 325.73C126.823 325.497 126.513 325.167 126.286 324.74C126.066 324.313 125.956 323.82 125.956 323.26ZM130.726 323.27C130.726 322.83 130.636 322.443 130.456 322.11C130.276 321.777 130.03 321.52 129.716 321.34C129.41 321.16 129.07 321.07 128.696 321.07C128.31 321.07 127.963 321.157 127.656 321.33C127.35 321.503 127.106 321.757 126.926 322.09C126.753 322.417 126.666 322.807 126.666 323.26C126.666 323.707 126.753 324.1 126.926 324.44C127.106 324.773 127.35 325.03 127.656 325.21C127.963 325.383 128.31 325.47 128.696 325.47C129.07 325.47 129.41 325.38 129.716 325.2C130.03 325.02 130.276 324.763 130.456 324.43C130.636 324.097 130.726 323.71 130.726 323.27ZM135.174 321.13H133.904V326H133.204V321.13H132.444V320.54H133.204V320.16C133.204 319.567 133.354 319.13 133.654 318.85C133.961 318.57 134.454 318.43 135.134 318.43V319.03C134.681 319.03 134.361 319.117 134.174 319.29C133.994 319.463 133.904 319.753 133.904 320.16V320.54H135.174V321.13ZM137.186 321.13V324.52C137.186 324.853 137.25 325.083 137.376 325.21C137.503 325.337 137.726 325.4 138.046 325.4H138.686V326H137.936C137.443 326 137.076 325.887 136.836 325.66C136.596 325.427 136.476 325.047 136.476 324.52V321.13H135.716V320.54H136.476V319.17H137.186V320.54H138.686V321.13H137.186Z" fill="white"/>
<path d="M45.1068 205.989L46.088 205.886L45.9847 204.546L45.9331 202.124L46.088 198.361L46.4495 195.063L46.966 191.043L47.1726 188.827L47.3275 187.642L48.412 187.333L50.013 187.127L51.4074 187.23L52.4919 187.745L53.2666 188.518L53.783 189.6V190.322L53.6281 191.559L53.1117 192.847L52.2337 193.981L51.3041 194.702L50.2712 195.218L48.6186 195.63L47.6374 195.733L47.7406 196.609H49.2383L49.9614 198.774L50.9942 201.351L52.4403 204.082L53.4215 205.319L54.5061 206.246L55.6939 206.659H57.1399L57.708 206.504L56.7268 205.473L55.9521 204.546L55.2291 203.412L54.8159 202.742L54.0413 201.505L53.06 199.598L52.2337 197.485L51.7689 196.042L52.9051 195.527L53.938 194.909L54.9192 193.981L55.6939 192.744L56.1587 191.765L56.4169 190.322L56.3136 189.085L55.7972 187.745L55.2807 187.024L54.1962 186.044L52.9051 185.426L51.3041 185.22L49.4966 185.426L48.3604 185.684L47.1209 186.044L46.2946 185.941L45.4166 185.426L45.1068 184.962L44.8486 184.601L44.6936 184.241L44.3838 183.365L44.5903 184.653L44.6936 185.581L44.7969 187.23L44.6936 189.91L43.919 196.403L43.2992 200.835L43.0927 203.412V204.546L43.4542 205.319L44.0223 205.731L45.1068 205.989Z" fill="black" stroke="black"/>
<path d="M62.2527 198.696C62.8208 196.755 63.6902 195.123 64.8608 193.801C66.0486 192.461 67.1589 191.791 68.1918 191.791C69.2247 191.791 69.9563 192.108 70.3867 192.744C70.8171 193.362 71.0323 194.213 71.0323 195.295C71.0323 196.36 70.8601 197.863 70.5158 199.804C70.1887 201.746 70.0252 203.163 70.0252 204.056C70.0252 204.932 70.1371 205.576 70.3609 205.989C70.5847 206.384 70.9634 206.727 71.4971 207.019C71.2732 207.037 70.9548 207.045 70.5416 207.045C69.4399 207.045 68.6222 206.822 68.0885 206.375C67.5721 205.911 67.3139 205.13 67.3139 204.03C67.3139 203.395 67.486 202.115 67.8303 200.191C68.1746 198.25 68.3467 196.824 68.3467 195.913C68.3467 194.78 67.9508 194.213 67.1589 194.213C66.6941 194.213 66.1777 194.462 65.6096 194.96C65.0415 195.441 64.4907 196.102 63.957 196.944C63.4405 197.769 63.0016 198.825 62.64 200.114C62.2958 201.385 62.1236 202.647 62.1236 203.902C62.1236 205.138 62.1752 206.057 62.2785 206.659C61.8654 206.693 61.633 206.71 61.5813 206.71C60.7723 206.71 60.1697 206.538 59.7738 206.195C59.395 205.851 59.2057 205.319 59.2057 204.597C59.2057 203.859 59.3606 202.45 59.6705 200.371C60.5828 193.981 61.0391 189.128 61.0391 185.812C61.0391 184.318 60.9358 183.313 60.7292 182.798C61.7277 183.158 62.4249 183.691 62.8208 184.395C63.234 185.1 63.4405 186.07 63.4405 187.307C63.4405 188.166 63.2683 189.97 62.9241 192.718C62.597 195.467 62.3732 197.46 62.2527 198.696ZM78.4456 207.045C77.4644 206.702 76.7758 206.178 76.3798 205.473C76.0012 204.752 75.8117 203.884 75.8117 202.871C75.8117 201.857 75.9495 200.406 76.2249 198.516C76.5004 196.626 76.6381 195.158 76.6381 194.11C76.6381 193.062 76.5864 192.254 76.4831 191.688C76.793 191.653 77.0426 191.636 77.232 191.636C78.0066 191.636 78.5661 191.808 78.9104 192.151C79.2548 192.495 79.4269 193.062 79.4269 193.852C79.4269 194.11 79.2117 195.467 78.7813 197.923C78.3681 200.363 78.153 202.381 78.1357 203.979C78.1357 205.559 78.239 206.581 78.4456 207.045ZM78.8329 189.085C77.3869 189.085 76.6639 188.595 76.6639 187.616C76.6639 187.273 76.793 186.792 77.0512 186.173C77.43 186.104 77.7571 186.07 78.0325 186.07C79.4785 186.07 80.2015 186.56 80.2015 187.539C80.2015 187.882 80.0724 188.363 79.8142 188.982C79.4355 189.051 79.1084 189.085 78.8329 189.085ZM95.4958 195.45C95.4958 196.24 95.3236 197.64 94.9794 199.65C94.6522 201.643 94.4887 203.094 94.4887 204.005C94.4887 204.915 94.6006 205.576 94.8244 205.989C95.0481 206.384 95.4269 206.727 95.9606 207.019C95.7368 207.037 95.4183 207.045 95.0052 207.045C93.8345 207.045 92.9996 206.831 92.5004 206.401C92.0184 205.954 91.7774 205.164 91.7774 204.03C91.7774 203.395 91.9495 202.115 92.2938 200.191C92.6381 198.25 92.8103 196.824 92.8103 195.913C92.8103 194.78 92.4659 194.213 91.7774 194.213C90.6756 194.213 89.5309 195.183 88.3431 197.125C87.1724 199.066 86.5871 201.402 86.5871 204.133C86.5871 205.216 86.6388 206.057 86.7421 206.659C86.2944 206.693 86.0276 206.71 85.9416 206.71C84.4267 206.71 83.6692 205.972 83.6692 204.494C83.6692 204.151 83.85 202.828 84.2115 200.526C84.573 198.224 84.7538 196.395 84.7538 195.037C84.7538 193.663 84.6074 192.4 84.3148 191.249C85.3304 191.645 86.0362 192.211 86.4322 192.95C86.8454 193.672 87.0519 194.505 87.0519 195.45C87.0519 196.377 86.9487 197.46 86.7421 198.696C87.3102 196.755 88.1967 195.123 89.4018 193.801C90.624 192.461 91.7602 191.791 92.8103 191.791C94.6006 191.791 95.4958 193.01 95.4958 195.45ZM109.362 198.207C109.362 196.523 109.147 195.321 108.716 194.599C108.303 193.861 107.701 193.491 106.909 193.491C106.134 193.491 105.351 193.878 104.559 194.651C103.767 195.407 103.139 196.352 102.674 197.485C102.226 198.602 102.002 199.77 102.002 200.99C102.002 202.192 102.235 203.24 102.7 204.133C103.164 205.01 103.87 205.448 104.817 205.448C106.16 205.448 107.253 204.657 108.096 203.077C108.94 201.497 109.362 199.873 109.362 198.207ZM101.873 197.202C102.527 195.347 103.405 193.998 104.507 193.156C105.626 192.297 106.754 191.868 107.89 191.868C109.043 191.868 109.999 192.375 110.756 193.388C111.514 194.385 111.892 195.742 111.892 197.46C111.892 199.349 111.531 201.101 110.808 202.716C109.999 204.503 108.828 205.748 107.296 206.453C106.47 206.848 105.557 207.045 104.559 207.045C103.164 207.045 101.942 206.47 100.892 205.319C99.8419 204.151 99.3169 202.493 99.3169 200.346C99.3169 198.181 99.7817 196.309 100.711 194.728C101.641 193.148 102.906 192.048 104.507 191.43C104.851 191.43 105.024 191.602 105.024 191.945C103.319 193.062 102.269 194.814 101.873 197.202Z" fill="black"/>
<path d="M163.786 185.271H114.104V208.566H163.786V185.271Z" fill="black" stroke="black"/>
<path d="M122.682 189.94V200.06C122.682 200.841 122.435 201.49 121.941 202.008C121.459 202.513 120.784 202.765 119.916 202.765C118.976 202.765 118.247 202.477 117.729 201.899C117.223 201.322 116.97 200.529 116.97 199.518H117.331C117.331 200.36 117.536 201.058 117.946 201.611C118.356 202.164 119.013 202.441 119.916 202.441C120.772 202.441 121.387 202.206 121.761 201.737C122.133 201.256 122.32 200.697 122.32 200.06V189.94H122.682ZM133.686 192.899V202.639H133.325V199.987C133.108 200.913 132.649 201.617 131.951 202.098C131.264 202.579 130.444 202.819 129.493 202.819C128.347 202.819 127.407 202.465 126.673 201.755C125.938 201.046 125.57 199.975 125.57 198.544V192.899H125.914V198.58C125.914 199.855 126.233 200.829 126.871 201.503C127.511 202.164 128.383 202.495 129.493 202.495C130.65 202.495 131.577 202.122 132.276 201.376C132.975 200.619 133.325 199.506 133.325 198.039V192.899H133.686ZM136.944 190.409C136.812 190.409 136.697 190.367 136.601 190.283C136.516 190.187 136.474 190.067 136.474 189.922C136.474 189.778 136.516 189.664 136.601 189.58C136.697 189.484 136.812 189.435 136.944 189.435C137.077 189.435 137.186 189.484 137.269 189.58C137.366 189.664 137.414 189.778 137.414 189.922C137.414 190.067 137.366 190.187 137.269 190.283C137.186 190.367 137.077 190.409 136.944 190.409ZM137.125 192.899V202.639H136.763V192.899H137.125ZM139.753 197.769C139.753 196.747 139.953 195.857 140.35 195.099C140.759 194.342 141.32 193.764 142.031 193.368C142.743 192.971 143.549 192.772 144.453 192.772C145.695 192.772 146.707 193.091 147.49 193.728C148.285 194.354 148.767 195.177 148.936 196.2H148.574C148.418 195.238 147.966 194.48 147.219 193.927C146.471 193.374 145.55 193.097 144.453 193.097C143.67 193.097 142.947 193.271 142.284 193.62C141.633 193.957 141.11 194.474 140.712 195.171C140.314 195.869 140.115 196.735 140.115 197.769C140.115 198.803 140.314 199.669 140.712 200.366C141.11 201.064 141.633 201.587 142.284 201.935C142.947 202.272 143.67 202.441 144.453 202.441C145.55 202.441 146.471 202.164 147.219 201.611C147.966 201.058 148.418 200.3 148.574 199.338H148.936C148.767 200.36 148.285 201.19 147.49 201.827C146.707 202.453 145.695 202.765 144.453 202.765C143.549 202.765 142.743 202.567 142.031 202.17C141.32 201.773 140.759 201.196 140.35 200.438C139.953 199.681 139.753 198.791 139.753 197.769ZM155.803 202.441C156.9 202.441 157.822 202.164 158.569 201.611C159.316 201.058 159.768 200.3 159.925 199.338H160.286C160.118 200.36 159.636 201.19 158.84 201.827C158.057 202.453 157.045 202.765 155.803 202.765C154.9 202.765 154.092 202.567 153.381 202.17C152.671 201.773 152.11 201.196 151.7 200.438C151.302 199.681 151.104 198.791 151.104 197.769C151.104 196.747 151.302 195.857 151.7 195.099C152.11 194.342 152.671 193.764 153.381 193.368C154.092 192.971 154.9 192.772 155.803 192.772C156.756 192.772 157.569 192.977 158.243 193.386C158.919 193.782 159.425 194.3 159.762 194.937C160.112 195.574 160.286 196.248 160.286 196.957C160.286 197.39 160.28 197.715 160.268 197.931H151.465C151.478 198.929 151.682 199.765 152.08 200.438C152.49 201.112 153.02 201.617 153.671 201.953C154.321 202.278 155.032 202.441 155.803 202.441ZM155.803 193.097C155.032 193.097 154.321 193.265 153.671 193.602C153.02 193.927 152.49 194.426 152.08 195.099C151.682 195.773 151.478 196.608 151.465 197.606H159.961C160.021 196.608 159.859 195.773 159.472 195.099C159.099 194.426 158.581 193.927 157.918 193.602C157.267 193.265 156.563 193.097 155.803 193.097Z" fill="white"/>
<path d="M25.1919 207.421L26.2367 208.308H26.6787L27.2011 207.918L27.8038 207.492L30.2148 207.989L33.0277 208.201L36.1218 207.989L39.0552 207.314L41.7877 206.64L46.0363 205.937L44.7211 185.351L44.5903 184.447L44.48 183.519C44.5336 183.365 44.5777 183.071 44.6419 182.901C44.7223 182.688 44.7279 182.653 44.8485 182.334C44.9449 182.078 44.6006 182.052 44.48 182.087H42.7521L42.27 182.513L41.627 183.613L40.9438 185.742L40.6626 186.593L40.3412 186.771H40.0196L39.3742 186.302L38.8061 185.787L38.3929 185.271L38.1347 184.859L37.9301 184.429L37.4479 184.677L37.0059 185.014L36.7246 185.581L36.6887 186.096L36.7246 186.593L36.9469 187.797L37.0059 188.93L37.0862 189.549L37.3084 190.219L37.5666 190.476L37.9301 190.638L36.7246 191.348L34.5547 192.554L32.2642 193.831L31.139 193.157L29.5318 191.809L28.4066 190.567L27.402 188.935L27.1609 190.993L27.0002 192.98L27.1609 194.115L27.2413 195.428L25.3125 193.938L23.8658 191.986L22.1781 189.254L20.9324 186.771L19.2045 183.258L18.2 181.2L18.3205 184.074L18.7223 187.374L19.6466 191.348L20.7717 195.109L22.4192 199.686L23.3435 202.063L23.6247 203.305L23.8658 205.186L24.1873 206.392L25.1919 207.421Z" fill="black" stroke="black"/>
<path d="M30.5307 259.818L35.9028 259.092L33.3257 271.215C34.4872 271.118 35.5519 270.61 36.5199 269.69C37.512 268.771 38.2864 267.633 38.843 266.279C39.3995 264.924 39.6778 263.593 39.6778 262.286C39.6778 260.834 39.3027 259.648 38.5526 258.729C37.8024 257.809 36.6772 257.35 35.1769 257.35C32.2247 257.35 29.9137 258.124 28.244 259.673C26.5985 261.221 25.7757 263.387 25.7757 266.17C25.7757 267.065 25.8604 267.694 26.0298 268.057C26.1992 268.396 26.2839 268.59 26.2839 268.638C24.9772 268.638 23.9971 268.372 23.3438 267.839C22.7146 267.283 22.4 266.375 22.4 265.117C22.4 263.568 23.0292 262.068 24.2875 260.616C25.57 259.14 27.2034 257.955 29.1877 257.059C31.172 256.14 33.1563 255.68 35.1406 255.68C37.0523 255.68 38.6494 256.007 39.9319 256.66C41.2144 257.313 42.1581 258.184 42.7631 259.273C43.3923 260.338 43.7069 261.524 43.7069 262.83C43.7069 264.403 43.2713 265.94 42.4002 267.44C41.5532 268.94 40.3312 270.174 38.7341 271.142C37.137 272.086 35.2978 272.558 33.2168 272.558H33.0353L30.8211 282.902H25.5942L30.5307 259.818ZM48.1803 283.12C46.3896 283.12 44.9982 282.66 44.0061 281.741C43.0139 280.797 42.5179 279.333 42.5179 277.349C42.5179 275.679 42.8445 273.84 43.4979 271.832C44.1513 269.824 45.216 268.093 46.6921 266.641C48.1682 265.165 50.0436 264.427 52.3183 264.427C54.9801 264.427 56.3111 265.589 56.3111 267.912C56.3111 269.267 55.9239 270.513 55.1495 271.65C54.3751 272.787 53.3467 273.707 52.0642 274.409C50.7816 275.087 49.4145 275.473 47.9625 275.57C47.9141 276.296 47.8899 276.78 47.8899 277.022C47.8899 278.208 48.0956 279.019 48.507 279.454C48.9184 279.865 49.5838 280.071 50.5034 280.071C51.8101 280.071 52.9232 279.769 53.8428 279.164C54.7865 278.559 55.815 277.639 56.9281 276.405H58.1622C55.4762 280.882 52.1489 283.12 48.1803 283.12ZM48.2529 273.828C49.1482 273.78 49.9952 273.465 50.7938 272.884C51.6165 272.304 52.2699 271.566 52.7539 270.67C53.262 269.775 53.5161 268.831 53.5161 267.839C53.5161 266.847 53.2136 266.351 52.6087 266.351C51.7375 266.351 50.8785 267.113 50.0315 268.638C49.2087 270.162 48.6159 271.893 48.2529 273.828ZM61.2762 283.12C59.8969 283.12 58.7474 282.648 57.8279 281.704C56.9084 280.761 56.4486 279.285 56.4486 277.276C56.4486 275.486 56.7995 273.61 57.5012 271.65C58.2272 269.666 59.2919 267.996 60.6954 266.641C62.1231 265.262 63.817 264.573 65.7771 264.573C66.7692 264.573 67.5073 264.742 67.9913 265.081C68.4752 265.419 68.7172 265.867 68.7172 266.424V266.678L69.1165 264.754H74.3433L71.73 277.095C71.6332 277.458 71.5848 277.845 71.5848 278.256C71.5848 279.297 72.0809 279.817 73.073 279.817C73.7506 279.817 74.3314 279.502 74.8152 278.873C75.3234 278.244 75.7226 277.421 76.013 276.405H77.5375C76.6425 279.019 75.5292 280.797 74.1981 281.741C72.8915 282.66 71.5727 283.12 70.2418 283.12C69.2254 283.12 68.4026 282.842 67.7735 282.285C67.1685 281.704 66.8055 280.87 66.6846 279.781C65.9828 280.773 65.1963 281.584 64.3252 282.213C63.4783 282.818 62.4619 283.12 61.2762 283.12ZM63.6355 279.599C64.2405 279.599 64.8334 279.321 65.4141 278.764C66.0191 278.184 66.4305 277.397 66.6483 276.405L68.3906 268.202C68.3906 267.887 68.2696 267.585 68.0276 267.295C67.7856 266.98 67.4105 266.823 66.9023 266.823C65.9344 266.823 65.0632 267.392 64.2889 268.529C63.5146 269.642 62.9096 270.997 62.474 272.594C62.0384 274.167 61.8207 275.558 61.8207 276.768C61.8207 277.978 61.9901 278.753 62.3288 279.091C62.6918 279.43 63.1274 279.599 63.6355 279.599ZM81.2171 283.12C79.4266 283.12 78.0348 282.66 77.0428 281.741C76.0509 280.797 75.5546 279.333 75.5546 277.349C75.5546 275.679 75.8813 273.84 76.5347 271.832C77.2124 269.824 78.277 268.093 79.7289 266.641C81.2052 265.165 83.0683 264.427 85.3187 264.427C86.7707 264.427 87.7989 264.742 88.4041 265.371C89.0331 266 89.3478 266.799 89.3478 267.767C89.3478 268.613 89.1663 269.267 88.8033 269.727C88.4404 270.187 87.9804 270.416 87.424 270.416C87.0128 270.416 86.5892 270.271 86.1536 269.981C86.444 269.182 86.5892 268.468 86.5892 267.839C86.5892 267.379 86.5046 267.016 86.3351 266.75C86.1655 266.484 85.9114 266.351 85.5728 266.351C84.8469 266.351 84.1209 266.944 83.395 268.13C82.669 269.315 82.0763 270.755 81.6164 272.449C81.1564 274.143 80.9267 275.667 80.9267 277.022C80.9267 278.208 81.1326 279.019 81.5438 279.454C81.955 279.865 82.6208 280.071 83.5402 280.071C84.8469 280.071 85.9602 279.769 86.8796 279.164C87.8233 278.559 88.8516 277.639 89.9649 276.405H91.199C88.513 280.882 85.1855 283.12 81.2171 283.12ZM102.407 283.12C101.125 283.12 100.193 282.733 99.6123 281.959C99.0316 281.184 98.7412 280.204 98.7412 279.019C98.7412 278.51 98.8018 277.942 98.9227 277.313C99.0435 276.659 99.1648 276.03 99.2856 275.425C99.4308 274.82 99.5278 274.433 99.576 274.264C99.7694 273.417 99.9509 272.582 100.12 271.759C100.29 270.936 100.375 270.271 100.375 269.763C100.375 268.529 99.939 267.912 99.0679 267.912C98.4871 267.912 97.9545 268.178 97.4707 268.71C97.0108 269.243 96.6359 269.944 96.3455 270.816L93.7684 282.902H88.5415L93.8047 258.221L99.1768 257.495L97.2167 266.605C98.4264 265.274 99.842 264.609 101.464 264.609C102.698 264.609 103.678 264.947 104.404 265.625C105.13 266.303 105.493 267.331 105.493 268.71C105.493 269.412 105.408 270.199 105.238 271.07C105.069 271.916 104.827 272.957 104.513 274.191C104.319 274.941 104.138 275.679 103.968 276.405C103.823 277.107 103.75 277.664 103.75 278.075C103.75 278.559 103.859 278.934 104.077 279.2C104.295 279.466 104.67 279.599 105.202 279.599C105.783 279.599 106.182 279.527 106.4 279.381C106.255 280.616 105.807 281.547 105.057 282.176C104.331 282.805 103.448 283.12 102.407 283.12Z" fill="#DF7E54"/>
<path d="M34.1619 216.414C34.1619 216.753 34.0798 217.047 33.9158 217.297C33.7517 217.547 33.5121 217.74 33.197 217.875C32.8845 218.01 32.5043 218.078 32.0564 218.078C31.8585 218.078 31.6645 218.065 31.4744 218.039C31.2869 218.013 31.1059 217.975 30.9314 217.926C30.7595 217.874 30.5955 217.81 30.4392 217.734V216.609C30.71 216.729 30.9913 216.837 31.283 216.934C31.5746 217.03 31.8637 217.078 32.1501 217.078C32.3481 217.078 32.5069 217.052 32.6267 217C32.7491 216.948 32.8376 216.876 32.8923 216.785C32.947 216.694 32.9744 216.59 32.9744 216.473C32.9744 216.329 32.9262 216.207 32.8298 216.105C32.7335 216.004 32.6007 215.909 32.4314 215.82C32.2647 215.732 32.0759 215.637 31.865 215.535C31.7322 215.473 31.5876 215.397 31.4314 215.309C31.2751 215.217 31.1267 215.107 30.9861 214.977C30.8455 214.846 30.7296 214.689 30.6384 214.504C30.5499 214.316 30.5056 214.092 30.5056 213.832C30.5056 213.491 30.5837 213.199 30.74 212.957C30.8962 212.715 31.1189 212.53 31.408 212.402C31.6996 212.272 32.0434 212.207 32.4392 212.207C32.7361 212.207 33.0186 212.242 33.2869 212.312C33.5577 212.38 33.8403 212.479 34.1345 212.609L33.7439 213.551C33.4809 213.444 33.2452 213.362 33.0369 213.305C32.8285 213.245 32.6163 213.215 32.4001 213.215C32.2491 213.215 32.1202 213.24 32.0134 213.289C31.9067 213.336 31.8259 213.404 31.7712 213.492C31.7166 213.578 31.6892 213.678 31.6892 213.793C31.6892 213.928 31.7283 214.043 31.8064 214.137C31.8871 214.228 32.0069 214.316 32.1658 214.402C32.3272 214.488 32.5278 214.589 32.7673 214.703C33.059 214.841 33.3077 214.986 33.5134 215.137C33.7218 215.285 33.8819 215.461 33.9939 215.664C34.1059 215.865 34.1619 216.115 34.1619 216.414ZM36.8923 213.543C37.4783 213.543 37.9275 213.671 38.24 213.926C38.5525 214.181 38.7087 214.569 38.7087 215.09V218H37.8767L37.6462 217.406H37.615C37.49 217.562 37.3624 217.69 37.2322 217.789C37.102 217.888 36.9522 217.961 36.783 218.008C36.6137 218.055 36.408 218.078 36.1658 218.078C35.908 218.078 35.6762 218.029 35.4705 217.93C35.2673 217.831 35.1072 217.68 34.99 217.477C34.8728 217.271 34.8142 217.01 34.8142 216.695C34.8142 216.232 34.977 215.891 35.3025 215.672C35.628 215.451 36.1163 215.328 36.7673 215.305L37.5251 215.281V215.09C37.5251 214.861 37.4653 214.693 37.3455 214.586C37.2257 214.479 37.059 214.426 36.8455 214.426C36.6345 214.426 36.4275 214.456 36.2244 214.516C36.0212 214.576 35.8181 214.651 35.615 214.742L35.2205 213.938C35.4522 213.815 35.7113 213.719 35.9978 213.648C36.2869 213.578 36.585 213.543 36.8923 213.543ZM37.5251 215.977L37.0642 215.992C36.6788 216.003 36.4106 216.072 36.2595 216.199C36.1111 216.327 36.0369 216.495 36.0369 216.703C36.0369 216.885 36.0903 217.016 36.197 217.094C36.3038 217.169 36.4431 217.207 36.615 217.207C36.8702 217.207 37.085 217.132 37.2595 216.98C37.4366 216.829 37.5251 216.615 37.5251 216.336V215.977ZM40.9783 218L39.3142 213.633H40.5603L41.4041 216.121C41.4509 216.267 41.4874 216.421 41.5134 216.582C41.5421 216.743 41.5616 216.888 41.572 217.016H41.6033C41.6111 216.878 41.6293 216.73 41.658 216.574C41.6892 216.418 41.7296 216.267 41.7791 216.121L42.6189 213.633H43.865L42.2009 218H40.9783ZM46.2947 213.551C46.6983 213.551 47.046 213.629 47.3376 213.785C47.6293 213.939 47.8546 214.163 48.0134 214.457C48.1723 214.751 48.2517 215.111 48.2517 215.535V216.113H45.4353C45.4483 216.449 45.5486 216.714 45.7361 216.906C45.9262 217.096 46.1892 217.191 46.5251 217.191C46.8038 217.191 47.059 217.163 47.2908 217.105C47.5225 217.048 47.7608 216.962 48.0056 216.848V217.77C47.7895 217.876 47.5629 217.954 47.3259 218.004C47.0916 218.053 46.8064 218.078 46.4705 218.078C46.033 218.078 45.6449 217.997 45.3064 217.836C44.9705 217.674 44.7061 217.428 44.5134 217.098C44.3233 216.767 44.2283 216.35 44.2283 215.848C44.2283 215.337 44.3142 214.913 44.4861 214.574C44.6606 214.233 44.9028 213.978 45.2126 213.809C45.5225 213.637 45.8832 213.551 46.2947 213.551ZM46.3025 214.398C46.0707 214.398 45.878 214.473 45.7244 214.621C45.5733 214.77 45.4861 215.003 45.4626 215.32H47.1345C47.1319 215.143 47.0994 214.986 47.0369 214.848C46.977 214.71 46.8858 214.6 46.7634 214.52C46.6436 214.439 46.49 214.398 46.3025 214.398ZM53.1384 217.129C53.2686 217.129 53.3949 217.116 53.5173 217.09C53.6423 217.064 53.766 217.031 53.8884 216.992V217.879C53.7608 217.936 53.602 217.983 53.4119 218.02C53.2244 218.059 53.0186 218.078 52.7947 218.078C52.5343 218.078 52.2999 218.036 52.0916 217.953C51.8858 217.867 51.7231 217.72 51.6033 217.512C51.4861 217.301 51.4275 217.008 51.4275 216.633V214.527H50.8572V214.023L51.5134 213.625L51.8572 212.703H52.6189V213.633H53.8416V214.527H52.6189V216.633C52.6189 216.799 52.6658 216.924 52.7595 217.008C52.8559 217.089 52.9822 217.129 53.1384 217.129ZM55.9666 211.922V213.16C55.9666 213.376 55.9587 213.582 55.9431 213.777C55.9301 213.973 55.9197 214.111 55.9119 214.191H55.9744C56.0681 214.04 56.1788 213.918 56.3064 213.824C56.4366 213.73 56.5798 213.661 56.7361 213.617C56.8923 213.573 57.0603 213.551 57.24 213.551C57.5551 213.551 57.8298 213.607 58.0642 213.719C58.2986 213.828 58.4809 214.001 58.6111 214.238C58.7413 214.473 58.8064 214.777 58.8064 215.152V218H57.615V215.449C57.615 215.137 57.5577 214.901 57.4431 214.742C57.3285 214.583 57.1514 214.504 56.9119 214.504C56.6723 214.504 56.4835 214.56 56.3455 214.672C56.2074 214.781 56.1098 214.944 56.0525 215.16C55.9952 215.374 55.9666 215.635 55.9666 215.945V218H54.7751V211.922H55.9666ZM61.8337 213.551C62.2374 213.551 62.585 213.629 62.8767 213.785C63.1684 213.939 63.3936 214.163 63.5525 214.457C63.7113 214.751 63.7908 215.111 63.7908 215.535V216.113H60.9744C60.9874 216.449 61.0876 216.714 61.2751 216.906C61.4653 217.096 61.7283 217.191 62.0642 217.191C62.3429 217.191 62.5981 217.163 62.8298 217.105C63.0616 217.048 63.2999 216.962 63.5447 216.848V217.77C63.3285 217.876 63.102 217.954 62.865 218.004C62.6306 218.053 62.3455 218.078 62.0095 218.078C61.572 218.078 61.184 217.997 60.8455 217.836C60.5095 217.674 60.2452 217.428 60.0525 217.098C59.8624 216.767 59.7673 216.35 59.7673 215.848C59.7673 215.337 59.8533 214.913 60.0251 214.574C60.1996 214.233 60.4418 213.978 60.7517 213.809C61.0616 213.637 61.4223 213.551 61.8337 213.551ZM61.8416 214.398C61.6098 214.398 61.4171 214.473 61.2634 214.621C61.1124 214.77 61.0251 215.003 61.0017 215.32H62.6736C62.671 215.143 62.6384 214.986 62.5759 214.848C62.516 214.71 62.4249 214.6 62.3025 214.52C62.1827 214.439 62.0291 214.398 61.8416 214.398ZM69.2751 213.551C69.335 213.551 69.4041 213.555 69.4822 213.562C69.5629 213.568 69.628 213.576 69.6775 213.586L69.5876 214.703C69.5486 214.69 69.4926 214.681 69.4197 214.676C69.3494 214.668 69.2882 214.664 69.2361 214.664C69.0824 214.664 68.9327 214.684 68.7869 214.723C68.6436 214.762 68.5147 214.826 68.4001 214.914C68.2856 215 68.1944 215.115 68.1267 215.258C68.0616 215.398 68.0291 215.572 68.0291 215.777V218H66.8376V213.633H67.74L67.9158 214.367H67.9744C68.0603 214.219 68.1671 214.083 68.2947 213.961C68.4249 213.836 68.572 213.737 68.7361 213.664C68.9028 213.589 69.0824 213.551 69.2751 213.551ZM71.6619 211.922V213.16C71.6619 213.376 71.6541 213.582 71.6384 213.777C71.6254 213.973 71.615 214.111 71.6072 214.191H71.6697C71.7634 214.04 71.8741 213.918 72.0017 213.824C72.1319 213.73 72.2751 213.661 72.4314 213.617C72.5876 213.573 72.7556 213.551 72.9353 213.551C73.2504 213.551 73.5251 213.607 73.7595 213.719C73.9939 213.828 74.1762 214.001 74.3064 214.238C74.4366 214.473 74.5017 214.777 74.5017 215.152V218H73.3103V215.449C73.3103 215.137 73.253 214.901 73.1384 214.742C73.0238 214.583 72.8468 214.504 72.6072 214.504C72.3676 214.504 72.1788 214.56 72.0408 214.672C71.9028 214.781 71.8051 214.944 71.7478 215.16C71.6905 215.374 71.6619 215.635 71.6619 215.945V218H70.4705V211.922H71.6619ZM76.9197 213.633V218H75.7283V213.633H76.9197ZM76.3259 211.922C76.503 211.922 76.6554 211.964 76.783 212.047C76.9106 212.128 76.9744 212.28 76.9744 212.504C76.9744 212.725 76.9106 212.879 76.783 212.965C76.6554 213.048 76.503 213.09 76.3259 213.09C76.1462 213.09 75.9926 213.048 75.865 212.965C75.74 212.879 75.6775 212.725 75.6775 212.504C75.6775 212.28 75.74 212.128 75.865 212.047C75.9926 211.964 76.1462 211.922 76.3259 211.922ZM80.6541 213.551C81.1202 213.551 81.4952 213.678 81.7791 213.934C82.0629 214.186 82.2048 214.592 82.2048 215.152V218H81.0134V215.449C81.0134 215.137 80.9561 214.901 80.8416 214.742C80.7296 214.583 80.5525 214.504 80.3103 214.504C79.9457 214.504 79.697 214.628 79.5642 214.875C79.4314 215.122 79.365 215.479 79.365 215.945V218H78.1736V213.633H79.0837L79.2439 214.191H79.3103C79.4041 214.04 79.5199 213.918 79.658 213.824C79.7986 213.73 79.9535 213.661 80.1228 213.617C80.2947 213.573 80.4718 213.551 80.6541 213.551ZM87.4001 215.809C87.4001 216.173 87.3507 216.496 87.2517 216.777C87.1554 217.059 87.0134 217.297 86.8259 217.492C86.641 217.685 86.4171 217.831 86.1541 217.93C85.8936 218.029 85.5994 218.078 85.2712 218.078C84.9639 218.078 84.6814 218.029 84.4236 217.93C84.1684 217.831 83.9457 217.685 83.7556 217.492C83.5681 217.297 83.4223 217.059 83.3181 216.777C83.2166 216.496 83.1658 216.173 83.1658 215.809C83.1658 215.324 83.2517 214.914 83.4236 214.578C83.5955 214.242 83.8403 213.987 84.158 213.812C84.4757 213.638 84.8546 213.551 85.2947 213.551C85.7035 213.551 86.0655 213.638 86.3806 213.812C86.6983 213.987 86.947 214.242 87.1267 214.578C87.309 214.914 87.4001 215.324 87.4001 215.809ZM84.3806 215.809C84.3806 216.095 84.4119 216.336 84.4744 216.531C84.5369 216.727 84.6345 216.874 84.7673 216.973C84.9001 217.072 85.0733 217.121 85.2869 217.121C85.4978 217.121 85.6684 217.072 85.7986 216.973C85.9314 216.874 86.0278 216.727 86.0876 216.531C86.1501 216.336 86.1814 216.095 86.1814 215.809C86.1814 215.52 86.1501 215.28 86.0876 215.09C86.0278 214.897 85.9314 214.753 85.7986 214.656C85.6658 214.56 85.4926 214.512 85.2791 214.512C84.9639 214.512 84.7348 214.62 84.5916 214.836C84.4509 215.052 84.3806 215.376 84.3806 215.809ZM91.4314 216.703C91.4314 217 91.3611 217.251 91.2205 217.457C91.0824 217.66 90.8754 217.815 90.5994 217.922C90.3233 218.026 89.9796 218.078 89.5681 218.078C89.2634 218.078 89.0017 218.059 88.783 218.02C88.5668 217.98 88.3481 217.915 88.1267 217.824V216.84C88.3637 216.947 88.6176 217.035 88.8884 217.105C89.1619 217.173 89.4014 217.207 89.6072 217.207C89.8389 217.207 90.0043 217.173 90.1033 217.105C90.2048 217.035 90.2556 216.944 90.2556 216.832C90.2556 216.759 90.2348 216.694 90.1931 216.637C90.1541 216.577 90.0681 216.51 89.9353 216.438C89.8025 216.362 89.5942 216.264 89.3103 216.145C89.0369 216.03 88.8116 215.914 88.6345 215.797C88.46 215.68 88.3298 215.542 88.2439 215.383C88.1606 215.221 88.1189 215.017 88.1189 214.77C88.1189 214.366 88.2751 214.062 88.5876 213.859C88.9028 213.654 89.3233 213.551 89.8494 213.551C90.1202 213.551 90.378 213.578 90.6228 213.633C90.8702 213.688 91.1241 213.775 91.3845 213.895L91.0251 214.754C90.809 214.66 90.6046 214.583 90.4119 214.523C90.2218 214.464 90.0278 214.434 89.8298 214.434C89.6554 214.434 89.5238 214.457 89.4353 214.504C89.3468 214.551 89.3025 214.622 89.3025 214.719C89.3025 214.789 89.3246 214.852 89.3689 214.906C89.4158 214.961 89.5043 215.022 89.6345 215.09C89.7673 215.155 89.9613 215.24 90.2166 215.344C90.4639 215.445 90.6788 215.552 90.8611 215.664C91.0434 215.773 91.184 215.91 91.283 216.074C91.3819 216.236 91.4314 216.445 91.4314 216.703ZM92.1931 217.441C92.1931 217.197 92.2595 217.025 92.3923 216.926C92.5278 216.827 92.6905 216.777 92.8806 216.777C93.0655 216.777 93.2244 216.827 93.3572 216.926C93.4926 217.025 93.5603 217.197 93.5603 217.441C93.5603 217.676 93.4926 217.845 93.3572 217.949C93.2244 218.053 93.0655 218.105 92.8806 218.105C92.6905 218.105 92.5278 218.053 92.3923 217.949C92.2595 217.845 92.1931 217.676 92.1931 217.441ZM100.185 216.414C100.185 216.753 100.103 217.047 99.9392 217.297C99.7751 217.547 99.5356 217.74 99.2205 217.875C98.908 218.01 98.5278 218.078 98.0798 218.078C97.8819 218.078 97.6879 218.065 97.4978 218.039C97.3103 218.013 97.1293 217.975 96.9548 217.926C96.783 217.874 96.6189 217.81 96.4626 217.734V216.609C96.7335 216.729 97.0147 216.837 97.3064 216.934C97.5981 217.03 97.8871 217.078 98.1736 217.078C98.3715 217.078 98.5304 217.052 98.6501 217C98.7725 216.948 98.8611 216.876 98.9158 216.785C98.9705 216.694 98.9978 216.59 98.9978 216.473C98.9978 216.329 98.9496 216.207 98.8533 216.105C98.7569 216.004 98.6241 215.909 98.4548 215.82C98.2882 215.732 98.0994 215.637 97.8884 215.535C97.7556 215.473 97.6111 215.397 97.4548 215.309C97.2986 215.217 97.1501 215.107 97.0095 214.977C96.8689 214.846 96.753 214.689 96.6619 214.504C96.5733 214.316 96.5291 214.092 96.5291 213.832C96.5291 213.491 96.6072 213.199 96.7634 212.957C96.9197 212.715 97.1423 212.53 97.4314 212.402C97.7231 212.272 98.0668 212.207 98.4626 212.207C98.7595 212.207 99.0421 212.242 99.3103 212.312C99.5811 212.38 99.8637 212.479 100.158 212.609L99.7673 213.551C99.5043 213.444 99.2686 213.362 99.0603 213.305C98.852 213.245 98.6397 213.215 98.4236 213.215C98.2725 213.215 98.1436 213.24 98.0369 213.289C97.9301 213.336 97.8494 213.404 97.7947 213.492C97.74 213.578 97.7126 213.678 97.7126 213.793C97.7126 213.928 97.7517 214.043 97.8298 214.137C97.9106 214.228 98.0304 214.316 98.1892 214.402C98.3507 214.488 98.5512 214.589 98.7908 214.703C99.0824 214.841 99.3311 214.986 99.5369 215.137C99.7452 215.285 99.9054 215.461 100.017 215.664C100.129 215.865 100.185 216.115 100.185 216.414ZM102.916 213.543C103.502 213.543 103.951 213.671 104.263 213.926C104.576 214.181 104.732 214.569 104.732 215.09V218H103.9L103.67 217.406H103.638C103.513 217.562 103.386 217.69 103.256 217.789C103.125 217.888 102.976 217.961 102.806 218.008C102.637 218.055 102.431 218.078 102.189 218.078C101.931 218.078 101.7 218.029 101.494 217.93C101.291 217.831 101.131 217.68 101.013 217.477C100.896 217.271 100.838 217.01 100.838 216.695C100.838 216.232 101 215.891 101.326 215.672C101.651 215.451 102.14 215.328 102.791 215.305L103.549 215.281V215.09C103.549 214.861 103.489 214.693 103.369 214.586C103.249 214.479 103.082 214.426 102.869 214.426C102.658 214.426 102.451 214.456 102.248 214.516C102.045 214.576 101.842 214.651 101.638 214.742L101.244 213.938C101.476 213.815 101.735 213.719 102.021 213.648C102.31 213.578 102.608 213.543 102.916 213.543ZM103.549 215.977L103.088 215.992C102.702 216.003 102.434 216.072 102.283 216.199C102.135 216.327 102.06 216.495 102.06 216.703C102.06 216.885 102.114 217.016 102.22 217.094C102.327 217.169 102.467 217.207 102.638 217.207C102.894 217.207 103.108 217.132 103.283 216.98C103.46 216.829 103.549 216.615 103.549 216.336V215.977ZM107.002 218L105.338 213.633H106.584L107.427 216.121C107.474 216.267 107.511 216.421 107.537 216.582C107.566 216.743 107.585 216.888 107.595 217.016H107.627C107.635 216.878 107.653 216.73 107.681 216.574C107.713 216.418 107.753 216.267 107.802 216.121L108.642 213.633H109.888L108.224 218H107.002ZM112.318 213.551C112.722 213.551 113.069 213.629 113.361 213.785C113.653 213.939 113.878 214.163 114.037 214.457C114.196 214.751 114.275 215.111 114.275 215.535V216.113H111.459C111.472 216.449 111.572 216.714 111.76 216.906C111.95 217.096 112.213 217.191 112.549 217.191C112.827 217.191 113.082 217.163 113.314 217.105C113.546 217.048 113.784 216.962 114.029 216.848V217.77C113.813 217.876 113.586 217.954 113.349 218.004C113.115 218.053 112.83 218.078 112.494 218.078C112.056 218.078 111.668 217.997 111.33 217.836C110.994 217.674 110.73 217.428 110.537 217.098C110.347 216.767 110.252 216.35 110.252 215.848C110.252 215.337 110.338 214.913 110.51 214.574C110.684 214.233 110.926 213.978 111.236 213.809C111.546 213.637 111.907 213.551 112.318 213.551ZM112.326 214.398C112.094 214.398 111.901 214.473 111.748 214.621C111.597 214.77 111.51 215.003 111.486 215.32H113.158C113.155 215.143 113.123 214.986 113.06 214.848C113 214.71 112.909 214.6 112.787 214.52C112.667 214.439 112.513 214.398 112.326 214.398ZM119.162 217.129C119.292 217.129 119.418 217.116 119.541 217.09C119.666 217.064 119.789 217.031 119.912 216.992V217.879C119.784 217.936 119.625 217.983 119.435 218.02C119.248 218.059 119.042 218.078 118.818 218.078C118.558 218.078 118.323 218.036 118.115 217.953C117.909 217.867 117.747 217.72 117.627 217.512C117.51 217.301 117.451 217.008 117.451 216.633V214.527H116.881V214.023L117.537 213.625L117.881 212.703H118.642V213.633H119.865V214.527H118.642V216.633C118.642 216.799 118.689 216.924 118.783 217.008C118.879 217.089 119.006 217.129 119.162 217.129ZM121.99 211.922V213.16C121.99 213.376 121.982 213.582 121.967 213.777C121.954 213.973 121.943 214.111 121.935 214.191H121.998C122.092 214.04 122.202 213.918 122.33 213.824C122.46 213.73 122.603 213.661 122.76 213.617C122.916 213.573 123.084 213.551 123.263 213.551C123.579 213.551 123.853 213.607 124.088 213.719C124.322 213.828 124.504 214.001 124.635 214.238C124.765 214.473 124.83 214.777 124.83 215.152V218H123.638V215.449C123.638 215.137 123.581 214.901 123.467 214.742C123.352 214.583 123.175 214.504 122.935 214.504C122.696 214.504 122.507 214.56 122.369 214.672C122.231 214.781 122.133 214.944 122.076 215.16C122.019 215.374 121.99 215.635 121.99 215.945V218H120.799V211.922H121.99ZM127.857 213.551C128.261 213.551 128.608 213.629 128.9 213.785C129.192 213.939 129.417 214.163 129.576 214.457C129.735 214.751 129.814 215.111 129.814 215.535V216.113H126.998C127.011 216.449 127.111 216.714 127.299 216.906C127.489 217.096 127.752 217.191 128.088 217.191C128.366 217.191 128.622 217.163 128.853 217.105C129.085 217.048 129.323 216.962 129.568 216.848V217.77C129.352 217.876 129.125 217.954 128.888 218.004C128.654 218.053 128.369 218.078 128.033 218.078C127.595 218.078 127.207 217.997 126.869 217.836C126.533 217.674 126.269 217.428 126.076 217.098C125.886 216.767 125.791 216.35 125.791 215.848C125.791 215.337 125.877 214.913 126.049 214.574C126.223 214.233 126.465 213.978 126.775 213.809C127.085 213.637 127.446 213.551 127.857 213.551ZM127.865 214.398C127.633 214.398 127.441 214.473 127.287 214.621C127.136 214.77 127.049 215.003 127.025 215.32H128.697C128.694 215.143 128.662 214.986 128.599 214.848C128.539 214.71 128.448 214.6 128.326 214.52C128.206 214.439 128.052 214.398 127.865 214.398ZM135.275 214.527H134.244V218H133.052V214.527H132.396V213.953L133.052 213.633V213.312C133.052 212.94 133.115 212.651 133.24 212.445C133.368 212.237 133.546 212.091 133.775 212.008C134.007 211.922 134.28 211.879 134.595 211.879C134.827 211.879 135.038 211.898 135.228 211.938C135.418 211.974 135.573 212.016 135.693 212.062L135.388 212.938C135.297 212.909 135.198 212.883 135.092 212.859C134.985 212.836 134.862 212.824 134.724 212.824C134.558 212.824 134.435 212.875 134.357 212.977C134.282 213.076 134.244 213.203 134.244 213.359V213.633H135.275V214.527ZM138.4 213.551C138.46 213.551 138.529 213.555 138.607 213.562C138.688 213.568 138.753 213.576 138.802 213.586L138.713 214.703C138.674 214.69 138.618 214.681 138.545 214.676C138.474 214.668 138.413 214.664 138.361 214.664C138.207 214.664 138.058 214.684 137.912 214.723C137.769 214.762 137.64 214.826 137.525 214.914C137.411 215 137.319 215.115 137.252 215.258C137.187 215.398 137.154 215.572 137.154 215.777V218H135.963V213.633H136.865L137.041 214.367H137.099C137.185 214.219 137.292 214.083 137.42 213.961C137.55 213.836 137.697 213.737 137.861 213.664C138.028 213.589 138.207 213.551 138.4 213.551ZM143.603 213.633V218H142.689L142.529 217.441H142.467C142.373 217.59 142.256 217.711 142.115 217.805C141.974 217.898 141.819 217.967 141.65 218.012C141.481 218.056 141.305 218.078 141.123 218.078C140.81 218.078 140.538 218.023 140.306 217.914C140.075 217.802 139.894 217.629 139.763 217.395C139.636 217.16 139.572 216.855 139.572 216.48V213.633H140.763V216.184C140.763 216.496 140.819 216.732 140.931 216.891C141.043 217.049 141.222 217.129 141.467 217.129C141.709 217.129 141.899 217.074 142.037 216.965C142.175 216.853 142.271 216.69 142.326 216.477C142.383 216.26 142.412 215.997 142.412 215.688V213.633H143.603ZM146.045 213.633V218H144.853V213.633H146.045ZM145.451 211.922C145.628 211.922 145.78 211.964 145.908 212.047C146.036 212.128 146.099 212.28 146.099 212.504C146.099 212.725 146.036 212.879 145.908 212.965C145.78 213.048 145.628 213.09 145.451 213.09C145.271 213.09 145.118 213.048 144.99 212.965C144.865 212.879 144.802 212.725 144.802 212.504C144.802 212.28 144.865 212.128 144.99 212.047C145.118 211.964 145.271 211.922 145.451 211.922ZM149.138 217.129C149.269 217.129 149.395 217.116 149.517 217.09C149.642 217.064 149.766 217.031 149.888 216.992V217.879C149.761 217.936 149.602 217.983 149.412 218.02C149.224 218.059 149.019 218.078 148.795 218.078C148.534 218.078 148.3 218.036 148.092 217.953C147.886 217.867 147.723 217.72 147.603 217.512C147.486 217.301 147.427 217.008 147.427 216.633V214.527H146.857V214.023L147.513 213.625L147.857 212.703H148.619V213.633H149.842V214.527H148.619V216.633C148.619 216.799 148.666 216.924 148.76 217.008C148.856 217.089 148.982 217.129 149.138 217.129ZM153.822 216.703C153.822 217 153.752 217.251 153.611 217.457C153.473 217.66 153.266 217.815 152.99 217.922C152.714 218.026 152.37 218.078 151.959 218.078C151.654 218.078 151.392 218.059 151.174 218.02C150.957 217.98 150.739 217.915 150.517 217.824V216.84C150.754 216.947 151.008 217.035 151.279 217.105C151.552 217.173 151.792 217.207 151.998 217.207C152.23 217.207 152.395 217.173 152.494 217.105C152.595 217.035 152.646 216.944 152.646 216.832C152.646 216.759 152.625 216.694 152.584 216.637C152.545 216.577 152.459 216.51 152.326 216.438C152.193 216.362 151.985 216.264 151.701 216.145C151.427 216.03 151.202 215.914 151.025 215.797C150.851 215.68 150.72 215.542 150.635 215.383C150.551 215.221 150.51 215.017 150.51 214.77C150.51 214.366 150.666 214.062 150.978 213.859C151.293 213.654 151.714 213.551 152.24 213.551C152.511 213.551 152.769 213.578 153.013 213.633C153.261 213.688 153.515 213.775 153.775 213.895L153.416 214.754C153.2 214.66 152.995 214.583 152.802 214.523C152.612 214.464 152.418 214.434 152.22 214.434C152.046 214.434 151.914 214.457 151.826 214.504C151.737 214.551 151.693 214.622 151.693 214.719C151.693 214.789 151.715 214.852 151.76 214.906C151.806 214.961 151.895 215.022 152.025 215.09C152.158 215.155 152.352 215.24 152.607 215.344C152.855 215.445 153.069 215.552 153.252 215.664C153.434 215.773 153.575 215.91 153.674 216.074C153.773 216.236 153.822 216.445 153.822 216.703ZM154.584 217.441C154.584 217.197 154.65 217.025 154.783 216.926C154.918 216.827 155.081 216.777 155.271 216.777C155.456 216.777 155.615 216.827 155.748 216.926C155.883 217.025 155.951 217.197 155.951 217.441C155.951 217.676 155.883 217.845 155.748 217.949C155.615 218.053 155.456 218.105 155.271 218.105C155.081 218.105 154.918 218.053 154.783 217.949C154.65 217.845 154.584 217.676 154.584 217.441Z" fill="black"/>
<path d="M139.879 364.96H134.698V363.69L136.441 361.928C136.802 361.55 137.082 361.247 137.281 361.02C137.483 360.792 137.624 360.598 137.706 360.439C137.787 360.279 137.828 360.113 137.828 359.94C137.828 359.729 137.759 359.576 137.623 359.482C137.486 359.387 137.325 359.34 137.139 359.34C136.915 359.34 136.687 359.405 136.456 359.535C136.228 359.662 135.969 359.851 135.679 360.102L134.62 358.861C134.835 358.669 135.062 358.487 135.303 358.315C135.544 358.139 135.829 357.996 136.158 357.885C136.487 357.774 136.887 357.719 137.359 357.719C137.844 357.719 138.264 357.803 138.619 357.973C138.977 358.142 139.254 358.375 139.449 358.671C139.644 358.964 139.742 359.298 139.742 359.672C139.742 360.085 139.665 360.455 139.512 360.78C139.363 361.103 139.136 361.426 138.834 361.752C138.531 362.074 138.153 362.44 137.701 362.851L137.178 363.319V363.368H139.879V364.96ZM143.502 360.282C143.899 360.282 144.26 360.372 144.586 360.551C144.911 360.73 145.172 360.99 145.367 361.332C145.562 361.674 145.66 362.091 145.66 362.582C145.66 363.113 145.552 363.564 145.338 363.935C145.126 364.302 144.805 364.582 144.376 364.774C143.949 364.963 143.41 365.058 142.759 365.058C142.346 365.058 141.968 365.025 141.627 364.96C141.288 364.898 140.985 364.802 140.718 364.672V363.09C140.969 363.204 141.27 363.308 141.622 363.402C141.977 363.494 142.302 363.539 142.598 363.539C142.836 363.539 143.038 363.505 143.204 363.437C143.37 363.368 143.495 363.267 143.58 363.134C143.668 363 143.712 362.836 143.712 362.641C143.712 362.371 143.614 362.159 143.419 362.006C143.223 361.85 142.927 361.772 142.53 361.772C142.351 361.772 142.175 361.789 142.003 361.825C141.83 361.861 141.679 361.9 141.548 361.942L140.84 361.591L141.109 357.821H145.181V359.428H142.75L142.662 360.37C142.766 360.351 142.872 360.331 142.979 360.312C143.09 360.292 143.264 360.282 143.502 360.282ZM151.627 361.4C151.627 361.973 151.581 362.486 151.49 362.939C151.399 363.388 151.252 363.77 151.05 364.086C150.852 364.402 150.588 364.643 150.259 364.809C149.931 364.975 149.527 365.058 149.048 365.058C148.453 365.058 147.964 364.913 147.584 364.623C147.203 364.33 146.921 363.912 146.739 363.368C146.56 362.821 146.47 362.165 146.47 361.4C146.47 360.629 146.552 359.97 146.714 359.423C146.88 358.873 147.152 358.451 147.53 358.158C147.908 357.865 148.414 357.719 149.048 357.719C149.644 357.719 150.131 357.865 150.508 358.158C150.889 358.448 151.171 358.868 151.353 359.418C151.535 359.965 151.627 360.626 151.627 361.4ZM148.389 361.4C148.389 361.866 148.406 362.257 148.438 362.572C148.474 362.888 148.539 363.126 148.633 363.285C148.731 363.441 148.869 363.52 149.048 363.52C149.227 363.52 149.364 363.441 149.459 363.285C149.553 363.126 149.618 362.89 149.654 362.577C149.69 362.261 149.708 361.869 149.708 361.4C149.708 360.928 149.69 360.535 149.654 360.219C149.618 359.903 149.553 359.665 149.459 359.506C149.364 359.343 149.227 359.262 149.048 359.262C148.869 359.262 148.731 359.343 148.633 359.506C148.539 359.665 148.474 359.903 148.438 360.219C148.406 360.535 148.389 360.928 148.389 361.4ZM161.988 359.33C162.619 359.33 163.101 359.491 163.433 359.814C163.769 360.136 163.936 360.652 163.936 361.361V364.96H162.027V361.952C162.027 361.532 161.97 361.241 161.856 361.078C161.745 360.912 161.579 360.829 161.358 360.829C161.049 360.829 160.834 360.964 160.714 361.234C160.596 361.505 160.538 361.887 160.538 362.382V364.96H158.624V361.952C158.624 361.685 158.599 361.47 158.55 361.308C158.505 361.142 158.435 361.021 158.34 360.946C158.246 360.868 158.127 360.829 157.984 360.829C157.766 360.829 157.595 360.896 157.471 361.029C157.351 361.16 157.266 361.352 157.217 361.606C157.169 361.859 157.144 362.17 157.144 362.538V364.96H155.235V359.428H156.675L156.954 360.111H157.007C157.105 359.962 157.23 359.828 157.383 359.711C157.54 359.594 157.724 359.501 157.935 359.433C158.15 359.364 158.394 359.33 158.668 359.33C159.075 359.33 159.41 359.398 159.673 359.535C159.937 359.672 160.152 359.861 160.318 360.102H160.377C160.552 359.854 160.779 359.664 161.055 359.53C161.332 359.397 161.643 359.33 161.988 359.33ZM167.144 364.96H165.235V357.362H167.144V364.96Z" fill="#B95428"/>
<path d="M120.861 250.08C118.247 248.621 114.619 242.523 113.845 238.982L113.273 236.368C113.504 236.347 115.707 238.344 117.206 240.631C118.929 243.258 119.789 244.101 121.393 244.839C122.737 245.605 125.998 247.17 128.287 247.305C130.576 247.44 132.467 250.542 133.126 252.077C132.305 251.55 130.923 250.615 129.062 250.847C127.199 251.078 122.952 251.248 120.861 250.08Z" fill="#A7CC12" stroke="#628456"/>
<path d="M119.031 246.152C116.755 244.459 114.244 238.924 113.274 236.368C113.657 238.257 114.804 242.642 116.322 245.066C118.22 248.096 120.981 250.566 122.149 251.124C123.923 251.972 124.85 251.769 126.955 251.308C129.062 250.847 129.047 250.585 130.773 251.002C132.153 251.336 134.978 254.823 136.217 256.525C135.088 254.858 132.59 251.805 131.531 250.836C130.472 249.866 130.662 250.496 128.804 249.666C126.495 249.2 121.308 247.844 119.031 246.152Z" fill="#628456" stroke="#628456"/>
<path d="M123.859 241.965C122.205 239.467 121.778 232.383 122.714 228.881L123.405 226.297C123.62 226.384 124.973 229.017 125.82 231.618C126.671 234.226 126.373 233.821 127.349 236.85C128.136 239.29 130.121 241.274 131.729 242.911C133.394 244.606 133.958 247.707 133.84 249.373C133.352 248.528 132.553 247.063 130.793 246.413C129.032 245.763 125.181 243.963 123.859 241.965Z" fill="#A7CC12" stroke="#628456"/>
<path d="M124.222 237.617C122.975 235.068 123.283 228.997 123.592 226.28C123.067 228.135 122.075 232.557 122.313 235.408C122.61 238.973 123.93 242.435 124.711 243.467C125.899 245.036 126.815 245.281 128.897 245.839C130.98 246.396 131.087 246.157 132.429 247.321C133.502 248.251 134.413 252.647 134.733 254.728C134.494 252.728 133.675 248.869 133.179 247.521C132.682 246.173 132.563 246.82 131.292 245.229C125.943 242.183 125.468 240.167 124.222 237.617Z" fill="#628456" stroke="#628456"/>
<path d="M113.169 260.64C115.119 257.749 121.425 252.69 131.042 255.577L135.808 258.074C137.553 258.257 140.114 254.535 146.537 257.206C152.961 259.878 153.649 259.408 154.783 267.859C155.432 272.692 154.891 276.848 151.34 283.96C149.913 286.819 144.32 293.459 137.264 294.591C130.208 295.724 123.68 292.381 121.298 290.569C118.987 289.458 113.709 285.883 111.087 280.469C108.464 275.055 111.382 264.994 113.169 260.64Z" fill="#B95428"/>
<path d="M114.204 259.253C116.109 256.733 122.319 252.359 131.918 255.016L136.69 257.271C138.426 257.454 140.928 254.209 147.349 256.639C150.92 256.639 153.86 259.248 155.4 265.2C156.104 269.461 155.288 274.692 151.843 280.906C150.458 283.404 145.585 288.51 138.581 289.42C131.578 290.331 125.045 287.31 122.654 285.686C120.342 284.68 115.049 281.47 112.375 276.675C109.701 271.879 112.48 263.062 114.204 259.253Z" fill="#C0633B"/>
<path d="M119.7 276.54C114.24 272.9 113.09 265.819 113.177 262.328C113.177 261.449 113.905 259.026 116.816 256.37C119.728 253.714 120.542 252.454 130.161 254.156C135.187 256.37 135.187 258.668 140.56 256.37C148.667 252.901 153.142 259.392 153.72 261.7C154.297 264.008 154.682 266.697 154.14 269.12C153.597 271.543 148.599 280.426 140.28 282.98C131.961 285.534 125.16 280.18 119.7 276.54Z" fill="#CE724B"/>
<path d="M127.006 262.436C131.537 265.034 135.288 266.004 136.346 266.278C137.403 266.551 142.056 268.675 139.44 270.467C136.163 272.713 136.304 271.92 130.9 271.92L126.002 270.467C124.251 269.658 117.68 266.821 118.979 261.787C119.698 259.005 119.698 259.005 122.536 259.739C123.822 260.501 125.348 261.486 127.006 262.436Z" fill="#DF7E54"/>
<path d="M125.254 263.62C127.589 265.08 129.547 265.663 130.098 265.827C130.65 265.991 133.256 266.212 132.661 268.216C132.066 270.22 131.181 270.167 129.094 269.211L124.563 267.863C123.656 267.402 120.25 265.778 121.036 263.131C121.471 261.668 121.471 261.668 122.952 262.108C123.615 262.536 124.399 263.086 125.254 263.62Z" fill="#E79977"/>
<path d="M134.097 262.632C133.553 260.741 129.313 257.205 127.133 256.768C134.097 256.768 137.24 258.956 137.24 258.956L144.883 260.02C146.44 260.72 148.4 261.98 148.82 265.34C149.011 266.868 148.248 271.64 148.12 274.58C148.058 276.01 146.86 280.74 146.16 283.96C145.174 286.077 146.068 285.187 145.04 286.34C143.787 287.745 136.92 285.08 136.92 285.08C144.62 279.76 145.74 277.94 147 273.6C148.26 269.26 147.84 267.58 146.44 263.24C145.04 258.9 134.777 264.995 134.097 262.632Z" fill="#C0633B"/>
<path d="M135.17 261.1V253.534C135.895 253.259 137.332 253.16 137.284 254.957C137.288 255.048 137.284 255.145 137.27 255.236C137.144 257.1 136.275 260.377 135.834 261.849L135.17 261.1Z" fill="#6D4635"/>
<path d="M132.91 293.544C131.207 292.894 123.091 289.414 125.58 289.56C132.72 289.98 139.471 287.883 141.185 286.446C141.583 285.949 142.161 285.66 143.254 284.339C144.535 282.791 146.308 279.627 148.084 275C148.084 275.84 146.677 281.97 144.887 285.142C143.905 286.883 141.298 290.927 139.986 291.629C138.71 292.312 138.533 290.27 136.859 291.48C135.574 292.409 133.273 294.136 132.986 293.738C132.904 293.624 132.888 293.566 132.91 293.544Z" fill="#B95428"/>
<path d="M134.09 262.835C133.727 261.937 129.108 257.42 127.068 256.834C133.7 258.115 135.174 261.236 135.174 261.236H141.9C141.9 261.236 146.3 260.86 146.72 263.8C146.72 263.8 146.3 262.82 144.62 262.12C142.94 261.42 140.068 262.555 139.16 262.82C138.252 263.085 134.545 263.958 134.09 262.835Z" fill="#B95428"/>
</svg>
