<svg width="182" height="433" viewBox="0 0 182 433" fill="none" xmlns="http://www.w3.org/2000/svg">
<path d="M126.5 15C124.334 -2.05 107.015 17.7893 65.5 20.5217L51 430.302C69.9525 430.849 150.408 438.403 162.008 425.534C166.215 420.866 155.371 425.862 172.992 392.559C181.614 376.264 180.223 330.517 181.125 292.81C182.028 255.103 186.375 143.631 162.008 118.752C150.159 106.655 140.348 86.802 140.348 76.9655V35.352C159.842 35.352 161.105 30.9046 162.008 20.5217C162.91 10.1387 128.666 32.05 126.5 15Z" fill="#ECE4E4"/>
<path d="M80 20.5217C82.1825 3.47175 90.168 4.76756 132 7.49993V430.302C112.903 430.849 31.8328 438.403 20.145 425.534C15.9054 420.866 26.832 425.862 9.07632 392.559C0.388535 376.264 1.7908 330.517 0.881409 292.81C-0.0279846 255.103 -4.4086 143.632 20.145 118.752C32.0838 106.655 41.9703 86.802 41.9703 76.9655V35.352C22.3275 35.352 21.0544 30.9047 20.145 20.5217C19.2356 10.1387 77.8175 37.5717 80 20.5217Z" fill="#ECE4E4"/>
<path d="M77.2181 247.008C43.3679 247.008 12.1818 237.669 0.820068 233C1 340 3.09624 379 9.04755 390.594C21.2712 414.409 21.9589 422.527 20 423.5C20.4701 432.839 69 432.5 93.5 431C152.738 434.736 162.784 426.975 162 422.5C157.769 419.231 169.5 396.5 174 387.5C181.5 362.5 180.021 290.559 181 239L176.536 241.172C169.679 241.95 152.323 241.989 137.749 235.918C119.531 228.331 119.531 247.008 77.2181 247.008Z" fill="#CD9A4D" fill-opacity="0.7"/>
<path d="M161.503 10.5231C160.603 1.46718 113.511 -0.486761 91.7651 0.0937466C64.102 0.0937402 19.0001 2.3895 19 10.5231V31.4214C19 37.3528 36.8381 38.2423 43.3993 37.9521C67.0198 37.8069 118.985 37.6038 137.881 37.9521C156.778 38.3004 160.941 36.1908 161.503 32.2723C161.878 29.66 162.403 19.579 161.503 10.5231Z" fill="white"/>
<rect x="7.5" y="173.5" width="166.143" height="194" fill="#E7EED4" stroke="#9B9B9B"/>
<rect x="7" y="302.814" width="167.143" height="26.7429" fill="#4B7219"/>
<path d="M33.31 314.46V313.83H35.01V321H34.3V314.46H33.31ZM36.5699 317.35C36.5699 316.203 36.7466 315.313 37.0999 314.68C37.4533 314.047 38.0866 313.73 38.9999 313.73C39.9133 313.73 40.5466 314.047 40.8999 314.68C41.2533 315.313 41.4299 316.203 41.4299 317.35C41.4299 318.517 41.2533 319.42 40.8999 320.06C40.5466 320.7 39.9133 321.02 38.9999 321.02C38.0799 321.02 37.4433 320.7 37.0899 320.06C36.7433 319.42 36.5699 318.517 36.5699 317.35ZM40.7399 317.35C40.7399 316.73 40.6966 316.207 40.6099 315.78C40.5233 315.353 40.3533 315.01 40.0999 314.75C39.8466 314.49 39.4799 314.36 38.9999 314.36C38.5199 314.36 38.1533 314.49 37.8999 314.75C37.6466 315.01 37.4766 315.353 37.3899 315.78C37.3033 316.207 37.2599 316.73 37.2599 317.35C37.2599 317.99 37.3033 318.527 37.3899 318.96C37.4766 319.387 37.6466 319.73 37.8999 319.99C38.1533 320.25 38.5199 320.38 38.9999 320.38C39.4799 320.38 39.8466 320.25 40.0999 319.99C40.3533 319.73 40.5233 319.387 40.6099 318.96C40.6966 318.527 40.7399 317.99 40.7399 317.35ZM42.732 317.35C42.732 316.203 42.9087 315.313 43.262 314.68C43.6154 314.047 44.2487 313.73 45.162 313.73C46.0754 313.73 46.7087 314.047 47.062 314.68C47.4154 315.313 47.592 316.203 47.592 317.35C47.592 318.517 47.4154 319.42 47.062 320.06C46.7087 320.7 46.0754 321.02 45.162 321.02C44.242 321.02 43.6054 320.7 43.252 320.06C42.9054 319.42 42.732 318.517 42.732 317.35ZM46.902 317.35C46.902 316.73 46.8587 316.207 46.772 315.78C46.6854 315.353 46.5154 315.01 46.262 314.75C46.0087 314.49 45.642 314.36 45.162 314.36C44.682 314.36 44.3154 314.49 44.062 314.75C43.8087 315.01 43.6387 315.353 43.552 315.78C43.4654 316.207 43.422 316.73 43.422 317.35C43.422 317.99 43.4654 318.527 43.552 318.96C43.6387 319.387 43.8087 319.73 44.062 319.99C44.3154 320.25 44.682 320.38 45.162 320.38C45.642 320.38 46.0087 320.25 46.262 319.99C46.5154 319.73 46.6854 319.387 46.772 318.96C46.8587 318.527 46.902 317.99 46.902 317.35ZM48.6741 315.33C48.6741 314.903 48.8041 314.56 49.0641 314.3C49.3308 314.033 49.6675 313.9 50.0741 313.9C50.4875 313.9 50.8241 314.033 51.0841 314.3C51.3508 314.56 51.4841 314.903 51.4841 315.33C51.4841 315.763 51.3508 316.113 51.0841 316.38C50.8241 316.64 50.4875 316.77 50.0741 316.77C49.6675 316.77 49.3308 316.64 49.0641 316.38C48.8041 316.113 48.6741 315.763 48.6741 315.33ZM54.2741 314L50.1741 321H49.4641L53.5741 314H54.2741ZM50.0741 314.35C49.8208 314.35 49.6175 314.437 49.4641 314.61C49.3175 314.777 49.2441 315.017 49.2441 315.33C49.2441 315.643 49.3175 315.887 49.4641 316.06C49.6175 316.233 49.8208 316.32 50.0741 316.32C50.3275 316.32 50.5308 316.233 50.6841 316.06C50.8375 315.887 50.9141 315.643 50.9141 315.33C50.9141 315.023 50.8375 314.783 50.6841 314.61C50.5308 314.437 50.3275 314.35 50.0741 314.35ZM52.2741 319.67C52.2741 319.237 52.4041 318.89 52.6641 318.63C52.9308 318.363 53.2675 318.23 53.6741 318.23C54.0808 318.23 54.4141 318.363 54.6741 318.63C54.9408 318.89 55.0741 319.237 55.0741 319.67C55.0741 320.103 54.9408 320.453 54.6741 320.72C54.4141 320.98 54.0808 321.11 53.6741 321.11C53.2675 321.11 52.9308 320.98 52.6641 320.72C52.4041 320.453 52.2741 320.103 52.2741 319.67ZM53.6741 318.69C53.4208 318.69 53.2175 318.777 53.0641 318.95C52.9108 319.123 52.8341 319.363 52.8341 319.67C52.8341 319.977 52.9108 320.217 53.0641 320.39C53.2175 320.563 53.4208 320.65 53.6741 320.65C53.9275 320.65 54.1275 320.567 54.2741 320.4C54.4275 320.227 54.5041 319.983 54.5041 319.67C54.5041 319.357 54.4275 319.117 54.2741 318.95C54.1275 318.777 53.9275 318.69 53.6741 318.69ZM62.3141 317.39C62.7075 317.463 63.0408 317.663 63.3141 317.99C63.5875 318.317 63.7241 318.697 63.7241 319.13C63.7241 319.483 63.6341 319.803 63.4541 320.09C63.2808 320.37 63.0241 320.593 62.6841 320.76C62.3441 320.92 61.9375 321 61.4641 321H59.0441V314.01H61.3941C62.1008 314.01 62.6375 314.173 63.0041 314.5C63.3775 314.827 63.5641 315.25 63.5641 315.77C63.5641 316.203 63.4475 316.557 63.2141 316.83C62.9808 317.097 62.6808 317.283 62.3141 317.39ZM59.7441 317.1H61.3741C61.8475 317.1 62.2108 316.99 62.4641 316.77C62.7241 316.543 62.8541 316.233 62.8541 315.84C62.8541 315.453 62.7241 315.15 62.4641 314.93C62.2108 314.71 61.8375 314.6 61.3441 314.6H59.7441V317.1ZM61.4141 320.41C61.9208 320.41 62.3141 320.29 62.5941 320.05C62.8808 319.81 63.0241 319.48 63.0241 319.06C63.0241 318.64 62.8741 318.307 62.5741 318.06C62.2808 317.807 61.8841 317.68 61.3841 317.68H59.7441V320.41H61.4141ZM65.3609 314.51C65.2209 314.51 65.1009 314.46 65.0009 314.36C64.9009 314.26 64.8509 314.137 64.8509 313.99C64.8509 313.843 64.9009 313.723 65.0009 313.63C65.1009 313.53 65.2209 313.48 65.3609 313.48C65.5009 313.48 65.6209 313.53 65.7209 313.63C65.8209 313.723 65.8709 313.843 65.8709 313.99C65.8709 314.137 65.8209 314.26 65.7209 314.36C65.6209 314.46 65.5009 314.51 65.3609 314.51ZM65.7109 315.54V321H65.0109V315.54H65.7109ZM67.9961 316.51C68.1494 316.17 68.3828 315.907 68.6961 315.72C69.0161 315.533 69.4061 315.44 69.8661 315.44V316.17H69.6761C69.1694 316.17 68.7628 316.307 68.4561 316.58C68.1494 316.853 67.9961 317.31 67.9961 317.95V321H67.2961V315.54H67.9961V316.51ZM73.4791 315.44C74.1325 315.44 74.6658 315.643 75.0791 316.05C75.4925 316.45 75.6991 317.033 75.6991 317.8V321H75.0091V317.88C75.0091 317.287 74.8591 316.833 74.5591 316.52C74.2658 316.207 73.8625 316.05 73.3491 316.05C72.8225 316.05 72.4025 316.217 72.0891 316.55C71.7758 316.883 71.6191 317.373 71.6191 318.02V321H70.9191V315.54H71.6191V316.47C71.7925 316.137 72.0425 315.883 72.3691 315.71C72.6958 315.53 73.0658 315.44 73.4791 315.44ZM82.1873 317.99C82.1873 318.23 82.1806 318.413 82.1673 318.54H77.6373C77.6573 318.953 77.7573 319.307 77.9373 319.6C78.1173 319.893 78.3539 320.117 78.6473 320.27C78.9406 320.417 79.2606 320.49 79.6073 320.49C80.0606 320.49 80.4406 320.38 80.7473 320.16C81.0606 319.94 81.2673 319.643 81.3673 319.27H82.1073C81.9739 319.803 81.6873 320.24 81.2473 320.58C80.8139 320.913 80.2673 321.08 79.6073 321.08C79.0939 321.08 78.6339 320.967 78.2273 320.74C77.8206 320.507 77.5006 320.18 77.2673 319.76C77.0406 319.333 76.9273 318.837 76.9273 318.27C76.9273 317.703 77.0406 317.207 77.2673 316.78C77.4939 316.353 77.8106 316.027 78.2173 315.8C78.6239 315.573 79.0873 315.46 79.6073 315.46C80.1273 315.46 80.5806 315.573 80.9673 315.8C81.3606 316.027 81.6606 316.333 81.8673 316.72C82.0806 317.1 82.1873 317.523 82.1873 317.99ZM81.4773 317.97C81.4839 317.563 81.4006 317.217 81.2273 316.93C81.0606 316.643 80.8306 316.427 80.5373 316.28C80.2439 316.133 79.9239 316.06 79.5773 316.06C79.0573 316.06 78.6139 316.227 78.2473 316.56C77.8806 316.893 77.6773 317.363 77.6373 317.97H81.4773ZM86.028 315.44C86.6813 315.44 87.2146 315.643 87.628 316.05C88.0413 316.45 88.248 317.033 88.248 317.8V321H87.558V317.88C87.558 317.287 87.408 316.833 87.108 316.52C86.8146 316.207 86.4113 316.05 85.898 316.05C85.3713 316.05 84.9513 316.217 84.638 316.55C84.3246 316.883 84.168 317.373 84.168 318.02V321H83.468V315.54H84.168V316.47C84.3413 316.137 84.5913 315.883 84.918 315.71C85.2446 315.53 85.6146 315.44 86.028 315.44ZM89.4761 318.26C89.4761 317.7 89.5894 317.21 89.8161 316.79C90.0428 316.363 90.3528 316.037 90.7461 315.81C91.1461 315.577 91.5961 315.46 92.0961 315.46C92.5761 315.46 93.0094 315.577 93.3961 315.81C93.7828 316.043 94.0661 316.347 94.2461 316.72V313.6H94.9461V321H94.2461V319.78C94.0794 320.16 93.8061 320.473 93.4261 320.72C93.0461 320.96 92.5994 321.08 92.0861 321.08C91.5861 321.08 91.1361 320.963 90.7361 320.73C90.3428 320.497 90.0328 320.167 89.8061 319.74C89.5861 319.313 89.4761 318.82 89.4761 318.26ZM94.2461 318.27C94.2461 317.83 94.1561 317.443 93.9761 317.11C93.7961 316.777 93.5494 316.52 93.2361 316.34C92.9294 316.16 92.5894 316.07 92.2161 316.07C91.8294 316.07 91.4828 316.157 91.1761 316.33C90.8694 316.503 90.6261 316.757 90.4461 317.09C90.2728 317.417 90.1861 317.807 90.1861 318.26C90.1861 318.707 90.2728 319.1 90.4461 319.44C90.6261 319.773 90.8694 320.03 91.1761 320.21C91.4828 320.383 91.8294 320.47 92.2161 320.47C92.5894 320.47 92.9294 320.38 93.2361 320.2C93.5494 320.02 93.7961 319.763 93.9761 319.43C94.1561 319.097 94.2461 318.71 94.2461 318.27ZM96.8941 314.51C96.7541 314.51 96.6341 314.46 96.5341 314.36C96.4341 314.26 96.3841 314.137 96.3841 313.99C96.3841 313.843 96.4341 313.723 96.5341 313.63C96.6341 313.53 96.7541 313.48 96.8941 313.48C97.0341 313.48 97.1541 313.53 97.2541 313.63C97.3541 313.723 97.4041 313.843 97.4041 313.99C97.4041 314.137 97.3541 314.26 97.2541 314.36C97.1541 314.46 97.0341 314.51 96.8941 314.51ZM97.2441 315.54V321H96.5441V315.54H97.2441ZM99.5293 316.51C99.6826 316.17 99.916 315.907 100.229 315.72C100.549 315.533 100.939 315.44 101.399 315.44V316.17H101.209C100.703 316.17 100.296 316.307 99.9893 316.58C99.6826 316.853 99.5293 317.31 99.5293 317.95V321H98.8293V315.54H99.5293V316.51ZM107.392 317.99C107.392 318.23 107.386 318.413 107.372 318.54H102.842C102.862 318.953 102.962 319.307 103.142 319.6C103.322 319.893 103.559 320.117 103.852 320.27C104.146 320.417 104.466 320.49 104.812 320.49C105.266 320.49 105.646 320.38 105.952 320.16C106.266 319.94 106.472 319.643 106.572 319.27H107.312C107.179 319.803 106.892 320.24 106.452 320.58C106.019 320.913 105.472 321.08 104.812 321.08C104.299 321.08 103.839 320.967 103.432 320.74C103.026 320.507 102.706 320.18 102.472 319.76C102.246 319.333 102.132 318.837 102.132 318.27C102.132 317.703 102.246 317.207 102.472 316.78C102.699 316.353 103.016 316.027 103.422 315.8C103.829 315.573 104.292 315.46 104.812 315.46C105.332 315.46 105.786 315.573 106.172 315.8C106.566 316.027 106.866 316.333 107.072 316.72C107.286 317.1 107.392 317.523 107.392 317.99ZM106.682 317.97C106.689 317.563 106.606 317.217 106.432 316.93C106.266 316.643 106.036 316.427 105.742 316.28C105.449 316.133 105.129 316.06 104.782 316.06C104.262 316.06 103.819 316.227 103.452 316.56C103.086 316.893 102.882 317.363 102.842 317.97H106.682ZM111.623 321L109.373 318.55V321H108.673V313.6H109.373V317.98L111.573 315.54H112.553L109.963 318.26L112.573 321H111.623ZM114.388 316.13V319.52C114.388 319.853 114.451 320.083 114.578 320.21C114.704 320.337 114.928 320.4 115.248 320.4H115.888V321H115.138C114.644 321 114.278 320.887 114.038 320.66C113.798 320.427 113.678 320.047 113.678 319.52V316.13H112.918V315.54H113.678V314.17H114.388V315.54H115.888V316.13H114.388ZM118.922 321.08C118.296 321.08 117.782 320.937 117.382 320.65C116.989 320.357 116.769 319.96 116.722 319.46H117.442C117.476 319.767 117.619 320.017 117.872 320.21C118.132 320.397 118.479 320.49 118.912 320.49C119.292 320.49 119.589 320.4 119.802 320.22C120.022 320.04 120.132 319.817 120.132 319.55C120.132 319.363 120.072 319.21 119.952 319.09C119.832 318.97 119.679 318.877 119.492 318.81C119.312 318.737 119.066 318.66 118.752 318.58C118.346 318.473 118.016 318.367 117.762 318.26C117.509 318.153 117.292 317.997 117.112 317.79C116.939 317.577 116.852 317.293 116.852 316.94C116.852 316.673 116.932 316.427 117.092 316.2C117.252 315.973 117.479 315.793 117.772 315.66C118.066 315.527 118.399 315.46 118.772 315.46C119.359 315.46 119.832 315.61 120.192 315.91C120.552 316.203 120.746 316.61 120.772 317.13H120.072C120.052 316.81 119.926 316.553 119.692 316.36C119.466 316.16 119.152 316.06 118.752 316.06C118.399 316.06 118.112 316.143 117.892 316.31C117.672 316.477 117.562 316.683 117.562 316.93C117.562 317.143 117.626 317.32 117.752 317.46C117.886 317.593 118.049 317.7 118.242 317.78C118.436 317.853 118.696 317.937 119.022 318.03C119.416 318.137 119.729 318.24 119.962 318.34C120.196 318.44 120.396 318.587 120.562 318.78C120.729 318.973 120.816 319.23 120.822 319.55C120.822 319.843 120.742 320.107 120.582 320.34C120.422 320.567 120.199 320.747 119.912 320.88C119.626 321.013 119.296 321.08 118.922 321.08ZM121.82 318.26C121.82 317.7 121.93 317.21 122.15 316.79C122.377 316.363 122.687 316.037 123.08 315.81C123.48 315.577 123.93 315.46 124.43 315.46C124.95 315.46 125.397 315.58 125.77 315.82C126.15 316.06 126.423 316.367 126.59 316.74V315.54H127.29V321H126.59V319.79C126.417 320.163 126.14 320.473 125.76 320.72C125.387 320.96 124.94 321.08 124.42 321.08C123.927 321.08 123.48 320.963 123.08 320.73C122.687 320.497 122.377 320.167 122.15 319.74C121.93 319.313 121.82 318.82 121.82 318.26ZM126.59 318.27C126.59 317.83 126.5 317.443 126.32 317.11C126.14 316.777 125.893 316.52 125.58 316.34C125.273 316.16 124.933 316.07 124.56 316.07C124.173 316.07 123.827 316.157 123.52 316.33C123.213 316.503 122.97 316.757 122.79 317.09C122.617 317.417 122.53 317.807 122.53 318.26C122.53 318.707 122.617 319.1 122.79 319.44C122.97 319.773 123.213 320.03 123.52 320.21C123.827 320.383 124.173 320.47 124.56 320.47C124.933 320.47 125.273 320.38 125.58 320.2C125.893 320.02 126.14 319.763 126.32 319.43C126.5 319.097 126.59 318.71 126.59 318.27ZM131.038 316.13H129.768V321H129.068V316.13H128.308V315.54H129.068V315.16C129.068 314.567 129.218 314.13 129.518 313.85C129.825 313.57 130.318 313.43 130.998 313.43V314.03C130.545 314.03 130.225 314.117 130.038 314.29C129.858 314.463 129.768 314.753 129.768 315.16V315.54H131.038V316.13ZM133.05 316.13V319.52C133.05 319.853 133.113 320.083 133.24 320.21C133.367 320.337 133.59 320.4 133.91 320.4H134.55V321H133.8C133.307 321 132.94 320.887 132.7 320.66C132.46 320.427 132.34 320.047 132.34 319.52V316.13H131.58V315.54H132.34V314.17H133.05V315.54H134.55V316.13H133.05Z" fill="white"/>
<path d="M45.4696 201.841L46.4458 201.738L46.343 200.405L46.2916 197.995L46.4458 194.252L46.8055 190.971L47.3193 186.972L47.5248 184.767L47.6789 183.588L48.7579 183.28L50.3507 183.075L51.738 183.178L52.817 183.69L53.5877 184.459L54.1015 185.536V186.254L53.9474 187.484L53.4336 188.766L52.5601 189.894L51.6353 190.612L50.6076 191.125L48.9635 191.535L47.9872 191.638L48.09 192.509H49.58L50.2994 194.663L51.327 197.226L52.7656 199.944L53.7419 201.174L54.8209 202.097L56.0026 202.507H57.4413L58.0065 202.354L57.0303 201.328L56.2595 200.405L55.5402 199.277L55.1292 198.611L54.3584 197.38L53.3822 195.483L52.5601 193.381L52.0977 191.945L53.2281 191.432L54.2557 190.817L55.2319 189.894L56.0026 188.664L56.4651 187.69L56.722 186.254L56.6192 185.023L56.1054 183.69L55.5916 182.972L54.5126 181.998L53.2281 181.383L51.6353 181.178L49.8369 181.383L48.7065 181.639L47.4734 181.998L46.6513 181.896L45.7778 181.383L45.4696 180.921L45.2126 180.563L45.0585 180.204L44.7502 179.332L44.9557 180.614L45.0585 181.537L45.1613 183.178L45.0585 185.844L44.2878 192.304L43.6712 196.714L43.4657 199.277V200.405L43.8254 201.174L44.3906 201.584L45.4696 201.841Z" fill="black" stroke="black"/>
<path d="M62.5279 194.586C63.0931 192.654 63.9581 191.031 65.1227 189.715C66.3044 188.382 67.4091 187.715 68.4367 187.715C69.4644 187.715 70.1922 188.031 70.6204 188.664C71.0486 189.279 71.2627 190.125 71.2627 191.202C71.2627 192.261 71.0914 193.757 70.7489 195.688C70.4234 197.619 70.2608 199.029 70.2608 199.918C70.2608 200.79 70.3721 201.431 70.5947 201.841C70.8174 202.234 71.1941 202.576 71.7251 202.866C71.5024 202.883 71.1856 202.892 70.7746 202.892C69.6784 202.892 68.8649 202.67 68.334 202.225C67.8202 201.764 67.5633 200.986 67.5633 199.892C67.5633 199.26 67.7346 197.987 68.0771 196.073C68.4196 194.141 68.5909 192.723 68.5909 191.817C68.5909 190.689 68.197 190.125 67.4091 190.125C66.9467 190.125 66.4329 190.373 65.8677 190.868C65.3025 191.347 64.7545 192.005 64.2235 192.842C63.7097 193.663 63.273 194.714 62.9133 195.996C62.5708 197.26 62.3995 198.517 62.3995 199.764C62.3995 200.995 62.4509 201.909 62.5536 202.507C62.1426 202.542 61.9114 202.559 61.86 202.559C61.055 202.559 60.4555 202.388 60.0617 202.046C59.6848 201.704 59.4965 201.174 59.4965 200.456C59.4965 199.722 59.6506 198.32 59.9589 196.252C60.8666 189.894 61.3205 185.066 61.3205 181.767C61.3205 180.281 61.2177 179.281 61.0122 178.768C62.0056 179.127 62.6992 179.657 63.0931 180.357C63.5042 181.058 63.7097 182.024 63.7097 183.254C63.7097 184.109 63.5384 185.903 63.1959 188.638C62.8704 191.373 62.6479 193.355 62.5279 194.586ZM78.6382 202.892C77.662 202.55 76.977 202.029 76.583 201.328C76.2063 200.61 76.0178 199.747 76.0178 198.739C76.0178 197.73 76.1549 196.286 76.4288 194.406C76.7029 192.526 76.8399 191.065 76.8399 190.022C76.8399 188.98 76.7885 188.177 76.6857 187.613C76.994 187.578 77.2424 187.561 77.4308 187.561C78.2015 187.561 78.7581 187.732 79.1006 188.074C79.4433 188.416 79.6145 188.98 79.6145 189.766C79.6145 190.022 79.4004 191.373 78.9722 193.817C78.5611 196.244 78.3471 198.252 78.3299 199.841C78.3299 201.414 78.4327 202.43 78.6382 202.892ZM79.0236 185.023C77.5849 185.023 76.8656 184.536 76.8656 183.562C76.8656 183.22 76.994 182.742 77.2509 182.126C77.6278 182.058 77.9532 182.024 78.2272 182.024C79.6658 182.024 80.3852 182.511 80.3852 183.485C80.3852 183.827 80.2567 184.305 79.9998 184.921C79.6231 184.989 79.2976 185.023 79.0236 185.023ZM95.6014 191.356C95.6014 192.142 95.4301 193.535 95.0876 195.534C94.7622 197.517 94.5995 198.961 94.5995 199.867C94.5995 200.773 94.7108 201.431 94.9335 201.841C95.1561 202.234 95.5329 202.576 96.0639 202.866C95.8412 202.883 95.5244 202.892 95.1133 202.892C93.9486 202.892 93.118 202.678 92.6213 202.251C92.1417 201.807 91.902 201.02 91.902 199.892C91.902 199.26 92.0732 197.987 92.4158 196.073C92.7583 194.141 92.9296 192.723 92.9296 191.817C92.9296 190.689 92.587 190.125 91.902 190.125C90.8058 190.125 89.6669 191.091 88.4852 193.022C87.3205 194.953 86.7382 197.278 86.7382 199.995C86.7382 201.072 86.7896 201.909 86.8924 202.507C86.447 202.542 86.1816 202.559 86.096 202.559C84.5887 202.559 83.8352 201.824 83.8352 200.354C83.8352 200.012 84.015 198.696 84.3747 196.406C84.7344 194.116 84.9142 192.296 84.9142 190.945C84.9142 189.578 84.7686 188.322 84.4775 187.177C85.4879 187.57 86.1901 188.134 86.5841 188.869C86.9951 189.587 87.2006 190.415 87.2006 191.356C87.2006 192.278 87.0979 193.355 86.8924 194.586C87.4575 192.654 88.3396 191.031 89.5385 189.715C90.7545 188.382 91.8848 187.715 92.9296 187.715C94.7108 187.715 95.6014 188.929 95.6014 191.356ZM109.397 194.099C109.397 192.424 109.183 191.227 108.754 190.51C108.343 189.775 107.744 189.407 106.956 189.407C106.185 189.407 105.406 189.792 104.618 190.561C103.83 191.313 103.205 192.253 102.743 193.381C102.297 194.492 102.075 195.654 102.075 196.867C102.075 198.064 102.306 199.106 102.768 199.995C103.231 200.867 103.933 201.302 104.875 201.302C106.211 201.302 107.298 200.516 108.138 198.944C108.977 197.372 109.397 195.756 109.397 194.099ZM101.946 193.099C102.597 191.253 103.471 189.911 104.567 189.074C105.68 188.219 106.802 187.792 107.932 187.792C109.08 187.792 110.03 188.296 110.784 189.305C111.537 190.296 111.914 191.646 111.914 193.355C111.914 195.235 111.555 196.978 110.835 198.585C110.03 200.362 108.866 201.602 107.341 202.302C106.519 202.695 105.612 202.892 104.618 202.892C103.231 202.892 102.015 202.319 100.97 201.174C99.9253 200.012 99.403 198.363 99.403 196.226C99.403 194.073 99.8654 192.21 100.79 190.638C101.715 189.065 102.974 187.971 104.567 187.356C104.909 187.356 105.081 187.527 105.081 187.869C103.385 188.98 102.34 190.723 101.946 193.099Z" fill="black"/>
<path d="M163.543 181.229H114.114V204.404H163.543V181.229Z" fill="black" stroke="black"/>
<path d="M122.899 185.874V185.624H122.649H122.289H122.039V185.874V195.942C122.039 196.523 121.87 197.024 121.536 197.456C121.229 197.84 120.705 198.061 119.897 198.061C119.05 198.061 118.484 197.804 118.138 197.336C117.769 196.838 117.576 196.2 117.576 195.404V195.154H117.326H116.966H116.716V195.404C116.716 196.45 116.979 197.304 117.533 197.937L117.533 197.937L117.535 197.939C118.108 198.577 118.908 198.884 119.897 198.884C120.811 198.884 121.555 198.616 122.093 198.053L122.093 198.053C122.633 197.487 122.899 196.777 122.899 195.942V185.874ZM133.847 188.817V188.567H133.597H133.237H132.987V188.817V193.932C132.987 195.355 132.648 196.39 132.011 197.082C131.369 197.766 130.516 198.115 129.425 198.115C128.375 198.115 127.577 197.804 126.997 197.205C126.421 196.596 126.114 195.698 126.114 194.47V188.817V188.567H125.864H125.522H125.272V188.817V194.434C125.272 195.898 125.649 197.039 126.446 197.809C127.229 198.565 128.229 198.938 129.425 198.938C130.415 198.938 131.282 198.687 132.013 198.175C132.412 197.9 132.737 197.558 132.987 197.152V198.508V198.758H133.237H133.597H133.847V198.508V188.817ZM136.309 186.381L136.32 186.393L136.332 186.403C136.475 186.529 136.649 186.591 136.838 186.591C137.028 186.591 137.203 186.529 137.339 186.392C137.486 186.246 137.556 186.061 137.556 185.856C137.556 185.658 137.489 185.475 137.339 185.338C137.207 185.194 137.034 185.122 136.838 185.122C136.639 185.122 136.462 185.197 136.32 185.339C136.18 185.479 136.121 185.661 136.121 185.856C136.121 186.053 136.18 186.233 136.309 186.381ZM137.268 188.817V188.567H137.018H136.658H136.408V188.817V198.508V198.758H136.658H137.018H137.268V198.508V188.817ZM140.007 190.888L140.006 190.891C139.588 191.686 139.383 192.613 139.383 193.663C139.383 194.712 139.588 195.639 140.006 196.435L140.006 196.435L140.007 196.437C140.435 197.231 141.026 197.841 141.777 198.26L141.777 198.26C142.527 198.678 143.372 198.884 144.309 198.884C145.587 198.884 146.653 198.561 147.486 197.896L147.486 197.896C148.327 197.222 148.838 196.341 149.015 195.265L149.063 194.974H148.769H148.409H148.196L148.162 195.184C148.017 196.08 147.6 196.775 146.912 197.284C146.219 197.797 145.357 198.061 144.309 198.061C143.568 198.061 142.889 197.902 142.267 197.587C141.665 197.264 141.178 196.779 140.804 196.123C140.435 195.476 140.243 194.66 140.243 193.663C140.243 192.665 140.435 191.849 140.804 191.202C141.178 190.546 141.665 190.068 142.266 189.757L142.267 189.757C142.89 189.429 143.569 189.265 144.309 189.265C145.357 189.265 146.219 189.528 146.912 190.041C147.6 190.551 148.017 191.246 148.162 192.142L148.196 192.352H148.409H148.769H149.063L149.015 192.061C148.838 190.985 148.327 190.109 147.486 189.448C146.654 188.771 145.587 188.442 144.309 188.442C143.372 188.442 142.527 188.648 141.777 189.066L141.777 189.066C141.026 189.485 140.435 190.095 140.007 190.888ZM158.204 197.284L158.204 197.284C157.511 197.797 156.649 198.061 155.601 198.061C154.871 198.061 154.203 197.907 153.593 197.603C152.99 197.291 152.497 196.823 152.111 196.19C151.777 195.623 151.584 194.921 151.543 194.074H160.043H160.279L160.292 193.839C160.305 193.616 160.311 193.287 160.311 192.855C160.311 192.107 160.127 191.396 159.759 190.727C159.401 190.049 158.864 189.503 158.157 189.087C157.44 188.653 156.584 188.442 155.601 188.442C154.664 188.442 153.818 188.648 153.07 189.066C152.319 189.485 151.728 190.095 151.299 190.888L151.297 190.891C150.88 191.687 150.676 192.613 150.676 193.663C150.676 194.712 150.88 195.639 151.297 196.435L151.299 196.438C151.728 197.231 152.319 197.841 153.07 198.26C153.818 198.678 154.664 198.884 155.601 198.884C156.879 198.884 157.946 198.561 158.779 197.896L158.779 197.896C159.619 197.222 160.131 196.341 160.308 195.265L160.356 194.974H160.061H159.702H159.489L159.455 195.184C159.309 196.08 158.892 196.775 158.204 197.284ZM159.498 193.251H151.543C151.584 192.405 151.777 191.703 152.111 191.135C152.497 190.503 152.99 190.041 153.591 189.741L153.594 189.739C154.204 189.424 154.872 189.265 155.601 189.265C156.318 189.265 156.979 189.423 157.59 189.739L157.59 189.739L157.595 189.742C158.207 190.041 158.686 190.501 159.033 191.128L159.035 191.131C159.359 191.697 159.518 192.4 159.498 193.251Z" fill="white" stroke="white" stroke-width="0.5"/>
<path d="M25.6562 203.266L26.6957 204.148H27.1354L27.6552 203.76L28.2548 203.336L30.6535 203.83L33.452 204.042L36.5304 203.83L39.4488 203.16L42.1674 202.489L46.3943 201.79L45.0858 181.309L44.9556 180.409L44.846 179.486C44.8993 179.333 44.9431 179.04 45.007 178.871C45.0869 178.659 45.0926 178.624 45.2125 178.307C45.3085 178.052 44.9659 178.026 44.846 178.061H43.1269L42.6472 178.485L42.0075 179.579L41.3278 181.697L41.048 182.544L40.7282 182.721H40.4083L39.7661 182.255L39.2009 181.742L38.7899 181.229L38.533 180.819L38.3294 180.391L37.8497 180.638L37.4099 180.973L37.1301 181.537L37.0943 182.05L37.1301 182.544L37.3512 183.742L37.4099 184.87L37.4899 185.485L37.7109 186.151L37.9678 186.408L38.3294 186.569L37.1301 187.275L34.9713 188.475L32.6924 189.746L31.573 189.075L29.974 187.733L28.8545 186.498L27.8551 184.874L27.6152 186.922L27.4553 188.898L27.6152 190.028L27.6951 191.334L25.7762 189.851L24.3369 187.91L22.6578 185.192L21.4185 182.721L19.6994 179.226L18.7 177.179L18.8199 180.038L19.2197 183.321L20.1392 187.275L21.2586 191.016L22.8977 195.57L23.8172 197.935L24.0971 199.171L24.3369 201.042L24.6568 202.242L25.6562 203.266Z" fill="black" stroke="black"/>
<path d="M29.0898 211.414C29.0898 211.753 29.0078 212.047 28.8438 212.297C28.6797 212.547 28.4401 212.74 28.125 212.875C27.8125 213.01 27.4323 213.078 26.9844 213.078C26.7865 213.078 26.5924 213.065 26.4023 213.039C26.2148 213.013 26.0339 212.975 25.8594 212.926C25.6875 212.874 25.5234 212.81 25.3672 212.734V211.609C25.638 211.729 25.9193 211.837 26.2109 211.934C26.5026 212.03 26.7917 212.078 27.0781 212.078C27.276 212.078 27.4349 212.052 27.5547 212C27.6771 211.948 27.7656 211.876 27.8203 211.785C27.875 211.694 27.9023 211.59 27.9023 211.473C27.9023 211.329 27.8542 211.207 27.7578 211.105C27.6615 211.004 27.5286 210.909 27.3594 210.82C27.1927 210.732 27.0039 210.637 26.793 210.535C26.6602 210.473 26.5156 210.397 26.3594 210.309C26.2031 210.217 26.0547 210.107 25.9141 209.977C25.7734 209.846 25.6576 209.689 25.5664 209.504C25.4779 209.316 25.4336 209.092 25.4336 208.832C25.4336 208.491 25.5117 208.199 25.668 207.957C25.8242 207.715 26.0469 207.53 26.3359 207.402C26.6276 207.272 26.9714 207.207 27.3672 207.207C27.6641 207.207 27.9466 207.242 28.2148 207.312C28.4857 207.38 28.7682 207.479 29.0625 207.609L28.6719 208.551C28.4089 208.444 28.1732 208.362 27.9648 208.305C27.7565 208.245 27.5443 208.215 27.3281 208.215C27.1771 208.215 27.0482 208.24 26.9414 208.289C26.8346 208.336 26.7539 208.404 26.6992 208.492C26.6445 208.578 26.6172 208.678 26.6172 208.793C26.6172 208.928 26.6562 209.043 26.7344 209.137C26.8151 209.228 26.9349 209.316 27.0938 209.402C27.2552 209.488 27.4557 209.589 27.6953 209.703C27.987 209.841 28.2357 209.986 28.4414 210.137C28.6497 210.285 28.8099 210.461 28.9219 210.664C29.0339 210.865 29.0898 211.115 29.0898 211.414ZM31.8203 208.543C32.4062 208.543 32.8555 208.671 33.168 208.926C33.4805 209.181 33.6367 209.569 33.6367 210.09V213H32.8047L32.5742 212.406H32.543C32.418 212.562 32.2904 212.69 32.1602 212.789C32.0299 212.888 31.8802 212.961 31.7109 213.008C31.5417 213.055 31.3359 213.078 31.0938 213.078C30.8359 213.078 30.6042 213.029 30.3984 212.93C30.1953 212.831 30.0352 212.68 29.918 212.477C29.8008 212.271 29.7422 212.01 29.7422 211.695C29.7422 211.232 29.9049 210.891 30.2305 210.672C30.556 210.451 31.0443 210.328 31.6953 210.305L32.4531 210.281V210.09C32.4531 209.861 32.3932 209.693 32.2734 209.586C32.1536 209.479 31.987 209.426 31.7734 209.426C31.5625 209.426 31.3555 209.456 31.1523 209.516C30.9492 209.576 30.7461 209.651 30.543 209.742L30.1484 208.938C30.3802 208.815 30.6393 208.719 30.9258 208.648C31.2148 208.578 31.513 208.543 31.8203 208.543ZM32.4531 210.977L31.9922 210.992C31.6068 211.003 31.3385 211.072 31.1875 211.199C31.0391 211.327 30.9648 211.495 30.9648 211.703C30.9648 211.885 31.0182 212.016 31.125 212.094C31.2318 212.169 31.3711 212.207 31.543 212.207C31.7982 212.207 32.013 212.132 32.1875 211.98C32.3646 211.829 32.4531 211.615 32.4531 211.336V210.977ZM35.9062 213L34.2422 208.633H35.4883L36.332 211.121C36.3789 211.267 36.4154 211.421 36.4414 211.582C36.4701 211.743 36.4896 211.888 36.5 212.016H36.5312C36.5391 211.878 36.5573 211.73 36.5859 211.574C36.6172 211.418 36.6576 211.267 36.707 211.121L37.5469 208.633H38.793L37.1289 213H35.9062ZM41.2227 208.551C41.6263 208.551 41.974 208.629 42.2656 208.785C42.5573 208.939 42.7826 209.163 42.9414 209.457C43.1003 209.751 43.1797 210.111 43.1797 210.535V211.113H40.3633C40.3763 211.449 40.4766 211.714 40.6641 211.906C40.8542 212.096 41.1172 212.191 41.4531 212.191C41.7318 212.191 41.987 212.163 42.2188 212.105C42.4505 212.048 42.6888 211.962 42.9336 211.848V212.77C42.7174 212.876 42.4909 212.954 42.2539 213.004C42.0195 213.053 41.7344 213.078 41.3984 213.078C40.9609 213.078 40.5729 212.997 40.2344 212.836C39.8984 212.674 39.6341 212.428 39.4414 212.098C39.2513 211.767 39.1562 211.35 39.1562 210.848C39.1562 210.337 39.2422 209.913 39.4141 209.574C39.5885 209.233 39.8307 208.978 40.1406 208.809C40.4505 208.637 40.8112 208.551 41.2227 208.551ZM41.2305 209.398C40.9987 209.398 40.806 209.473 40.6523 209.621C40.5013 209.77 40.4141 210.003 40.3906 210.32H42.0625C42.0599 210.143 42.0273 209.986 41.9648 209.848C41.9049 209.71 41.8138 209.6 41.6914 209.52C41.5716 209.439 41.418 209.398 41.2305 209.398ZM48.0664 212.129C48.1966 212.129 48.3229 212.116 48.4453 212.09C48.5703 212.064 48.694 212.031 48.8164 211.992V212.879C48.6888 212.936 48.5299 212.983 48.3398 213.02C48.1523 213.059 47.9466 213.078 47.7227 213.078C47.4622 213.078 47.2279 213.036 47.0195 212.953C46.8138 212.867 46.651 212.72 46.5312 212.512C46.4141 212.301 46.3555 212.008 46.3555 211.633V209.527H45.7852V209.023L46.4414 208.625L46.7852 207.703H47.5469V208.633H48.7695V209.527H47.5469V211.633C47.5469 211.799 47.5938 211.924 47.6875 212.008C47.7839 212.089 47.9102 212.129 48.0664 212.129ZM50.8945 206.922V208.16C50.8945 208.376 50.8867 208.582 50.8711 208.777C50.8581 208.973 50.8477 209.111 50.8398 209.191H50.9023C50.9961 209.04 51.1068 208.918 51.2344 208.824C51.3646 208.73 51.5078 208.661 51.6641 208.617C51.8203 208.573 51.9883 208.551 52.168 208.551C52.4831 208.551 52.7578 208.607 52.9922 208.719C53.2266 208.828 53.4089 209.001 53.5391 209.238C53.6693 209.473 53.7344 209.777 53.7344 210.152V213H52.543V210.449C52.543 210.137 52.4857 209.901 52.3711 209.742C52.2565 209.583 52.0794 209.504 51.8398 209.504C51.6003 209.504 51.4115 209.56 51.2734 209.672C51.1354 209.781 51.0378 209.944 50.9805 210.16C50.9232 210.374 50.8945 210.635 50.8945 210.945V213H49.7031V206.922H50.8945ZM56.7617 208.551C57.1654 208.551 57.513 208.629 57.8047 208.785C58.0964 208.939 58.3216 209.163 58.4805 209.457C58.6393 209.751 58.7188 210.111 58.7188 210.535V211.113H55.9023C55.9154 211.449 56.0156 211.714 56.2031 211.906C56.3932 212.096 56.6562 212.191 56.9922 212.191C57.2708 212.191 57.526 212.163 57.7578 212.105C57.9896 212.048 58.2279 211.962 58.4727 211.848V212.77C58.2565 212.876 58.0299 212.954 57.793 213.004C57.5586 213.053 57.2734 213.078 56.9375 213.078C56.5 213.078 56.112 212.997 55.7734 212.836C55.4375 212.674 55.1732 212.428 54.9805 212.098C54.7904 211.767 54.6953 211.35 54.6953 210.848C54.6953 210.337 54.7812 209.913 54.9531 209.574C55.1276 209.233 55.3698 208.978 55.6797 208.809C55.9896 208.637 56.3503 208.551 56.7617 208.551ZM56.7695 209.398C56.5378 209.398 56.3451 209.473 56.1914 209.621C56.0404 209.77 55.9531 210.003 55.9297 210.32H57.6016C57.599 210.143 57.5664 209.986 57.5039 209.848C57.444 209.71 57.3529 209.6 57.2305 209.52C57.1107 209.439 56.957 209.398 56.7695 209.398ZM64.2031 208.551C64.263 208.551 64.332 208.555 64.4102 208.562C64.4909 208.568 64.556 208.576 64.6055 208.586L64.5156 209.703C64.4766 209.69 64.4206 209.681 64.3477 209.676C64.2773 209.668 64.2161 209.664 64.1641 209.664C64.0104 209.664 63.8607 209.684 63.7148 209.723C63.5716 209.762 63.4427 209.826 63.3281 209.914C63.2135 210 63.1224 210.115 63.0547 210.258C62.9896 210.398 62.957 210.572 62.957 210.777V213H61.7656V208.633H62.668L62.8438 209.367H62.9023C62.9883 209.219 63.0951 209.083 63.2227 208.961C63.3529 208.836 63.5 208.737 63.6641 208.664C63.8307 208.589 64.0104 208.551 64.2031 208.551ZM66.5898 206.922V208.16C66.5898 208.376 66.582 208.582 66.5664 208.777C66.5534 208.973 66.543 209.111 66.5352 209.191H66.5977C66.6914 209.04 66.8021 208.918 66.9297 208.824C67.0599 208.73 67.2031 208.661 67.3594 208.617C67.5156 208.573 67.6836 208.551 67.8633 208.551C68.1784 208.551 68.4531 208.607 68.6875 208.719C68.9219 208.828 69.1042 209.001 69.2344 209.238C69.3646 209.473 69.4297 209.777 69.4297 210.152V213H68.2383V210.449C68.2383 210.137 68.181 209.901 68.0664 209.742C67.9518 209.583 67.7747 209.504 67.5352 209.504C67.2956 209.504 67.1068 209.56 66.9688 209.672C66.8307 209.781 66.7331 209.944 66.6758 210.16C66.6185 210.374 66.5898 210.635 66.5898 210.945V213H65.3984V206.922H66.5898ZM71.8477 208.633V213H70.6562V208.633H71.8477ZM71.2539 206.922C71.431 206.922 71.5833 206.964 71.7109 207.047C71.8385 207.128 71.9023 207.28 71.9023 207.504C71.9023 207.725 71.8385 207.879 71.7109 207.965C71.5833 208.048 71.431 208.09 71.2539 208.09C71.0742 208.09 70.9206 208.048 70.793 207.965C70.668 207.879 70.6055 207.725 70.6055 207.504C70.6055 207.28 70.668 207.128 70.793 207.047C70.9206 206.964 71.0742 206.922 71.2539 206.922ZM75.582 208.551C76.0482 208.551 76.4232 208.678 76.707 208.934C76.9909 209.186 77.1328 209.592 77.1328 210.152V213H75.9414V210.449C75.9414 210.137 75.8841 209.901 75.7695 209.742C75.6576 209.583 75.4805 209.504 75.2383 209.504C74.8737 209.504 74.625 209.628 74.4922 209.875C74.3594 210.122 74.293 210.479 74.293 210.945V213H73.1016V208.633H74.0117L74.1719 209.191H74.2383C74.332 209.04 74.4479 208.918 74.5859 208.824C74.7266 208.73 74.8815 208.661 75.0508 208.617C75.2227 208.573 75.3997 208.551 75.582 208.551ZM82.3281 210.809C82.3281 211.173 82.2786 211.496 82.1797 211.777C82.0833 212.059 81.9414 212.297 81.7539 212.492C81.569 212.685 81.3451 212.831 81.082 212.93C80.8216 213.029 80.5273 213.078 80.1992 213.078C79.8919 213.078 79.6094 213.029 79.3516 212.93C79.0964 212.831 78.8737 212.685 78.6836 212.492C78.4961 212.297 78.3503 212.059 78.2461 211.777C78.1445 211.496 78.0938 211.173 78.0938 210.809C78.0938 210.324 78.1797 209.914 78.3516 209.578C78.5234 209.242 78.7682 208.987 79.0859 208.812C79.4036 208.638 79.7826 208.551 80.2227 208.551C80.6315 208.551 80.9935 208.638 81.3086 208.812C81.6263 208.987 81.875 209.242 82.0547 209.578C82.237 209.914 82.3281 210.324 82.3281 210.809ZM79.3086 210.809C79.3086 211.095 79.3398 211.336 79.4023 211.531C79.4648 211.727 79.5625 211.874 79.6953 211.973C79.8281 212.072 80.0013 212.121 80.2148 212.121C80.4258 212.121 80.5964 212.072 80.7266 211.973C80.8594 211.874 80.9557 211.727 81.0156 211.531C81.0781 211.336 81.1094 211.095 81.1094 210.809C81.1094 210.52 81.0781 210.28 81.0156 210.09C80.9557 209.897 80.8594 209.753 80.7266 209.656C80.5938 209.56 80.4206 209.512 80.207 209.512C79.8919 209.512 79.6628 209.62 79.5195 209.836C79.3789 210.052 79.3086 210.376 79.3086 210.809ZM86.3594 211.703C86.3594 212 86.2891 212.251 86.1484 212.457C86.0104 212.66 85.8034 212.815 85.5273 212.922C85.2513 213.026 84.9076 213.078 84.4961 213.078C84.1914 213.078 83.9297 213.059 83.7109 213.02C83.4948 212.98 83.276 212.915 83.0547 212.824V211.84C83.2917 211.947 83.5456 212.035 83.8164 212.105C84.0898 212.173 84.3294 212.207 84.5352 212.207C84.7669 212.207 84.9323 212.173 85.0312 212.105C85.1328 212.035 85.1836 211.944 85.1836 211.832C85.1836 211.759 85.1628 211.694 85.1211 211.637C85.082 211.577 84.9961 211.51 84.8633 211.438C84.7305 211.362 84.5221 211.264 84.2383 211.145C83.9648 211.03 83.7396 210.914 83.5625 210.797C83.388 210.68 83.2578 210.542 83.1719 210.383C83.0885 210.221 83.0469 210.017 83.0469 209.77C83.0469 209.366 83.2031 209.062 83.5156 208.859C83.8307 208.654 84.2513 208.551 84.7773 208.551C85.0482 208.551 85.306 208.578 85.5508 208.633C85.7982 208.688 86.0521 208.775 86.3125 208.895L85.9531 209.754C85.737 209.66 85.5326 209.583 85.3398 209.523C85.1497 209.464 84.9557 209.434 84.7578 209.434C84.5833 209.434 84.4518 209.457 84.3633 209.504C84.2747 209.551 84.2305 209.622 84.2305 209.719C84.2305 209.789 84.2526 209.852 84.2969 209.906C84.3438 209.961 84.4323 210.022 84.5625 210.09C84.6953 210.155 84.8893 210.24 85.1445 210.344C85.3919 210.445 85.6068 210.552 85.7891 210.664C85.9714 210.773 86.112 210.91 86.2109 211.074C86.3099 211.236 86.3594 211.445 86.3594 211.703ZM87.1211 212.441C87.1211 212.197 87.1875 212.025 87.3203 211.926C87.4557 211.827 87.6185 211.777 87.8086 211.777C87.9935 211.777 88.1523 211.827 88.2852 211.926C88.4206 212.025 88.4883 212.197 88.4883 212.441C88.4883 212.676 88.4206 212.845 88.2852 212.949C88.1523 213.053 87.9935 213.105 87.8086 213.105C87.6185 213.105 87.4557 213.053 87.3203 212.949C87.1875 212.845 87.1211 212.676 87.1211 212.441ZM95.1133 211.414C95.1133 211.753 95.0312 212.047 94.8672 212.297C94.7031 212.547 94.4635 212.74 94.1484 212.875C93.8359 213.01 93.4557 213.078 93.0078 213.078C92.8099 213.078 92.6159 213.065 92.4258 213.039C92.2383 213.013 92.0573 212.975 91.8828 212.926C91.7109 212.874 91.5469 212.81 91.3906 212.734V211.609C91.6615 211.729 91.9427 211.837 92.2344 211.934C92.526 212.03 92.8151 212.078 93.1016 212.078C93.2995 212.078 93.4583 212.052 93.5781 212C93.7005 211.948 93.7891 211.876 93.8438 211.785C93.8984 211.694 93.9258 211.59 93.9258 211.473C93.9258 211.329 93.8776 211.207 93.7812 211.105C93.6849 211.004 93.5521 210.909 93.3828 210.82C93.2161 210.732 93.0273 210.637 92.8164 210.535C92.6836 210.473 92.5391 210.397 92.3828 210.309C92.2266 210.217 92.0781 210.107 91.9375 209.977C91.7969 209.846 91.681 209.689 91.5898 209.504C91.5013 209.316 91.457 209.092 91.457 208.832C91.457 208.491 91.5352 208.199 91.6914 207.957C91.8477 207.715 92.0703 207.53 92.3594 207.402C92.651 207.272 92.9948 207.207 93.3906 207.207C93.6875 207.207 93.9701 207.242 94.2383 207.312C94.5091 207.38 94.7917 207.479 95.0859 207.609L94.6953 208.551C94.4323 208.444 94.1966 208.362 93.9883 208.305C93.7799 208.245 93.5677 208.215 93.3516 208.215C93.2005 208.215 93.0716 208.24 92.9648 208.289C92.8581 208.336 92.7773 208.404 92.7227 208.492C92.668 208.578 92.6406 208.678 92.6406 208.793C92.6406 208.928 92.6797 209.043 92.7578 209.137C92.8385 209.228 92.9583 209.316 93.1172 209.402C93.2786 209.488 93.4792 209.589 93.7188 209.703C94.0104 209.841 94.2591 209.986 94.4648 210.137C94.6732 210.285 94.8333 210.461 94.9453 210.664C95.0573 210.865 95.1133 211.115 95.1133 211.414ZM97.8438 208.543C98.4297 208.543 98.8789 208.671 99.1914 208.926C99.5039 209.181 99.6602 209.569 99.6602 210.09V213H98.8281L98.5977 212.406H98.5664C98.4414 212.562 98.3138 212.69 98.1836 212.789C98.0534 212.888 97.9036 212.961 97.7344 213.008C97.5651 213.055 97.3594 213.078 97.1172 213.078C96.8594 213.078 96.6276 213.029 96.4219 212.93C96.2188 212.831 96.0586 212.68 95.9414 212.477C95.8242 212.271 95.7656 212.01 95.7656 211.695C95.7656 211.232 95.9284 210.891 96.2539 210.672C96.5794 210.451 97.0677 210.328 97.7188 210.305L98.4766 210.281V210.09C98.4766 209.861 98.4167 209.693 98.2969 209.586C98.1771 209.479 98.0104 209.426 97.7969 209.426C97.5859 209.426 97.3789 209.456 97.1758 209.516C96.9727 209.576 96.7695 209.651 96.5664 209.742L96.1719 208.938C96.4036 208.815 96.6628 208.719 96.9492 208.648C97.2383 208.578 97.5365 208.543 97.8438 208.543ZM98.4766 210.977L98.0156 210.992C97.6302 211.003 97.362 211.072 97.2109 211.199C97.0625 211.327 96.9883 211.495 96.9883 211.703C96.9883 211.885 97.0417 212.016 97.1484 212.094C97.2552 212.169 97.3945 212.207 97.5664 212.207C97.8216 212.207 98.0365 212.132 98.2109 211.98C98.388 211.829 98.4766 211.615 98.4766 211.336V210.977ZM101.93 213L100.266 208.633H101.512L102.355 211.121C102.402 211.267 102.439 211.421 102.465 211.582C102.493 211.743 102.513 211.888 102.523 212.016H102.555C102.562 211.878 102.581 211.73 102.609 211.574C102.641 211.418 102.681 211.267 102.73 211.121L103.57 208.633H104.816L103.152 213H101.93ZM107.246 208.551C107.65 208.551 107.997 208.629 108.289 208.785C108.581 208.939 108.806 209.163 108.965 209.457C109.124 209.751 109.203 210.111 109.203 210.535V211.113H106.387C106.4 211.449 106.5 211.714 106.688 211.906C106.878 212.096 107.141 212.191 107.477 212.191C107.755 212.191 108.01 212.163 108.242 212.105C108.474 212.048 108.712 211.962 108.957 211.848V212.77C108.741 212.876 108.514 212.954 108.277 213.004C108.043 213.053 107.758 213.078 107.422 213.078C106.984 213.078 106.596 212.997 106.258 212.836C105.922 212.674 105.658 212.428 105.465 212.098C105.275 211.767 105.18 211.35 105.18 210.848C105.18 210.337 105.266 209.913 105.438 209.574C105.612 209.233 105.854 208.978 106.164 208.809C106.474 208.637 106.835 208.551 107.246 208.551ZM107.254 209.398C107.022 209.398 106.829 209.473 106.676 209.621C106.525 209.77 106.438 210.003 106.414 210.32H108.086C108.083 210.143 108.051 209.986 107.988 209.848C107.928 209.71 107.837 209.6 107.715 209.52C107.595 209.439 107.441 209.398 107.254 209.398ZM114.09 212.129C114.22 212.129 114.346 212.116 114.469 212.09C114.594 212.064 114.717 212.031 114.84 211.992V212.879C114.712 212.936 114.553 212.983 114.363 213.02C114.176 213.059 113.97 213.078 113.746 213.078C113.486 213.078 113.251 213.036 113.043 212.953C112.837 212.867 112.674 212.72 112.555 212.512C112.438 212.301 112.379 212.008 112.379 211.633V209.527H111.809V209.023L112.465 208.625L112.809 207.703H113.57V208.633H114.793V209.527H113.57V211.633C113.57 211.799 113.617 211.924 113.711 212.008C113.807 212.089 113.934 212.129 114.09 212.129ZM116.918 206.922V208.16C116.918 208.376 116.91 208.582 116.895 208.777C116.882 208.973 116.871 209.111 116.863 209.191H116.926C117.02 209.04 117.13 208.918 117.258 208.824C117.388 208.73 117.531 208.661 117.688 208.617C117.844 208.573 118.012 208.551 118.191 208.551C118.507 208.551 118.781 208.607 119.016 208.719C119.25 208.828 119.432 209.001 119.562 209.238C119.693 209.473 119.758 209.777 119.758 210.152V213H118.566V210.449C118.566 210.137 118.509 209.901 118.395 209.742C118.28 209.583 118.103 209.504 117.863 209.504C117.624 209.504 117.435 209.56 117.297 209.672C117.159 209.781 117.061 209.944 117.004 210.16C116.947 210.374 116.918 210.635 116.918 210.945V213H115.727V206.922H116.918ZM122.785 208.551C123.189 208.551 123.536 208.629 123.828 208.785C124.12 208.939 124.345 209.163 124.504 209.457C124.663 209.751 124.742 210.111 124.742 210.535V211.113H121.926C121.939 211.449 122.039 211.714 122.227 211.906C122.417 212.096 122.68 212.191 123.016 212.191C123.294 212.191 123.549 212.163 123.781 212.105C124.013 212.048 124.251 211.962 124.496 211.848V212.77C124.28 212.876 124.053 212.954 123.816 213.004C123.582 213.053 123.297 213.078 122.961 213.078C122.523 213.078 122.135 212.997 121.797 212.836C121.461 212.674 121.197 212.428 121.004 212.098C120.814 211.767 120.719 211.35 120.719 210.848C120.719 210.337 120.805 209.913 120.977 209.574C121.151 209.233 121.393 208.978 121.703 208.809C122.013 208.637 122.374 208.551 122.785 208.551ZM122.793 209.398C122.561 209.398 122.368 209.473 122.215 209.621C122.064 209.77 121.977 210.003 121.953 210.32H123.625C123.622 210.143 123.59 209.986 123.527 209.848C123.467 209.71 123.376 209.6 123.254 209.52C123.134 209.439 122.98 209.398 122.793 209.398ZM130.203 209.527H129.172V213H127.98V209.527H127.324V208.953L127.98 208.633V208.312C127.98 207.94 128.043 207.651 128.168 207.445C128.296 207.237 128.474 207.091 128.703 207.008C128.935 206.922 129.208 206.879 129.523 206.879C129.755 206.879 129.966 206.898 130.156 206.938C130.346 206.974 130.501 207.016 130.621 207.062L130.316 207.938C130.225 207.909 130.126 207.883 130.02 207.859C129.913 207.836 129.79 207.824 129.652 207.824C129.486 207.824 129.363 207.875 129.285 207.977C129.21 208.076 129.172 208.203 129.172 208.359V208.633H130.203V209.527ZM133.328 208.551C133.388 208.551 133.457 208.555 133.535 208.562C133.616 208.568 133.681 208.576 133.73 208.586L133.641 209.703C133.602 209.69 133.546 209.681 133.473 209.676C133.402 209.668 133.341 209.664 133.289 209.664C133.135 209.664 132.986 209.684 132.84 209.723C132.697 209.762 132.568 209.826 132.453 209.914C132.339 210 132.247 210.115 132.18 210.258C132.115 210.398 132.082 210.572 132.082 210.777V213H130.891V208.633H131.793L131.969 209.367H132.027C132.113 209.219 132.22 209.083 132.348 208.961C132.478 208.836 132.625 208.737 132.789 208.664C132.956 208.589 133.135 208.551 133.328 208.551ZM138.531 208.633V213H137.617L137.457 212.441H137.395C137.301 212.59 137.184 212.711 137.043 212.805C136.902 212.898 136.747 212.967 136.578 213.012C136.409 213.056 136.233 213.078 136.051 213.078C135.738 213.078 135.466 213.023 135.234 212.914C135.003 212.802 134.822 212.629 134.691 212.395C134.564 212.16 134.5 211.855 134.5 211.48V208.633H135.691V211.184C135.691 211.496 135.747 211.732 135.859 211.891C135.971 212.049 136.15 212.129 136.395 212.129C136.637 212.129 136.827 212.074 136.965 211.965C137.103 211.853 137.199 211.69 137.254 211.477C137.311 211.26 137.34 210.997 137.34 210.688V208.633H138.531ZM140.973 208.633V213H139.781V208.633H140.973ZM140.379 206.922C140.556 206.922 140.708 206.964 140.836 207.047C140.964 207.128 141.027 207.28 141.027 207.504C141.027 207.725 140.964 207.879 140.836 207.965C140.708 208.048 140.556 208.09 140.379 208.09C140.199 208.09 140.046 208.048 139.918 207.965C139.793 207.879 139.73 207.725 139.73 207.504C139.73 207.28 139.793 207.128 139.918 207.047C140.046 206.964 140.199 206.922 140.379 206.922ZM144.066 212.129C144.197 212.129 144.323 212.116 144.445 212.09C144.57 212.064 144.694 212.031 144.816 211.992V212.879C144.689 212.936 144.53 212.983 144.34 213.02C144.152 213.059 143.947 213.078 143.723 213.078C143.462 213.078 143.228 213.036 143.02 212.953C142.814 212.867 142.651 212.72 142.531 212.512C142.414 212.301 142.355 212.008 142.355 211.633V209.527H141.785V209.023L142.441 208.625L142.785 207.703H143.547V208.633H144.77V209.527H143.547V211.633C143.547 211.799 143.594 211.924 143.688 212.008C143.784 212.089 143.91 212.129 144.066 212.129ZM148.75 211.703C148.75 212 148.68 212.251 148.539 212.457C148.401 212.66 148.194 212.815 147.918 212.922C147.642 213.026 147.298 213.078 146.887 213.078C146.582 213.078 146.32 213.059 146.102 213.02C145.885 212.98 145.667 212.915 145.445 212.824V211.84C145.682 211.947 145.936 212.035 146.207 212.105C146.48 212.173 146.72 212.207 146.926 212.207C147.158 212.207 147.323 212.173 147.422 212.105C147.523 212.035 147.574 211.944 147.574 211.832C147.574 211.759 147.553 211.694 147.512 211.637C147.473 211.577 147.387 211.51 147.254 211.438C147.121 211.362 146.913 211.264 146.629 211.145C146.355 211.03 146.13 210.914 145.953 210.797C145.779 210.68 145.648 210.542 145.562 210.383C145.479 210.221 145.438 210.017 145.438 209.77C145.438 209.366 145.594 209.062 145.906 208.859C146.221 208.654 146.642 208.551 147.168 208.551C147.439 208.551 147.697 208.578 147.941 208.633C148.189 208.688 148.443 208.775 148.703 208.895L148.344 209.754C148.128 209.66 147.923 209.583 147.73 209.523C147.54 209.464 147.346 209.434 147.148 209.434C146.974 209.434 146.842 209.457 146.754 209.504C146.665 209.551 146.621 209.622 146.621 209.719C146.621 209.789 146.643 209.852 146.688 209.906C146.734 209.961 146.823 210.022 146.953 210.09C147.086 210.155 147.28 210.24 147.535 210.344C147.783 210.445 147.997 210.552 148.18 210.664C148.362 210.773 148.503 210.91 148.602 211.074C148.701 211.236 148.75 211.445 148.75 211.703ZM149.512 212.441C149.512 212.197 149.578 212.025 149.711 211.926C149.846 211.827 150.009 211.777 150.199 211.777C150.384 211.777 150.543 211.827 150.676 211.926C150.811 212.025 150.879 212.197 150.879 212.441C150.879 212.676 150.811 212.845 150.676 212.949C150.543 213.053 150.384 213.105 150.199 213.105C150.009 213.105 149.846 213.053 149.711 212.949C149.578 212.845 149.512 212.676 149.512 212.441Z" fill="black"/>
<path d="M139.229 360.057H134.048V358.788L135.791 357.025C136.152 356.647 136.432 356.345 136.631 356.117C136.833 355.889 136.974 355.695 137.056 355.536C137.137 355.376 137.178 355.21 137.178 355.038C137.178 354.826 137.109 354.673 136.973 354.579C136.836 354.484 136.675 354.437 136.489 354.437C136.265 354.437 136.037 354.502 135.806 354.632C135.578 354.759 135.319 354.948 135.029 355.199L133.97 353.958C134.185 353.766 134.412 353.584 134.653 353.412C134.894 353.236 135.179 353.093 135.508 352.982C135.837 352.871 136.237 352.816 136.709 352.816C137.194 352.816 137.614 352.901 137.969 353.07C138.327 353.239 138.604 353.472 138.799 353.768C138.994 354.061 139.092 354.395 139.092 354.769C139.092 355.182 139.015 355.552 138.862 355.877C138.713 356.2 138.486 356.524 138.184 356.849C137.881 357.171 137.503 357.538 137.051 357.948L136.528 358.417V358.465H139.229V360.057ZM142.852 355.379C143.249 355.379 143.61 355.469 143.936 355.648C144.261 355.827 144.521 356.087 144.717 356.429C144.912 356.771 145.01 357.188 145.01 357.679C145.01 358.21 144.902 358.661 144.688 359.032C144.476 359.4 144.155 359.68 143.726 359.872C143.299 360.06 142.76 360.155 142.109 360.155C141.696 360.155 141.318 360.122 140.977 360.057C140.638 359.995 140.335 359.899 140.068 359.769V358.187C140.319 358.301 140.62 358.405 140.972 358.5C141.326 358.591 141.652 358.636 141.948 358.636C142.186 358.636 142.388 358.602 142.554 358.534C142.72 358.465 142.845 358.364 142.93 358.231C143.018 358.097 143.062 357.933 143.062 357.738C143.062 357.468 142.964 357.256 142.769 357.103C142.573 356.947 142.277 356.869 141.88 356.869C141.701 356.869 141.525 356.887 141.353 356.922C141.18 356.958 141.029 356.997 140.898 357.04L140.19 356.688L140.459 352.918H144.531V354.525H142.1L142.012 355.467C142.116 355.448 142.222 355.428 142.329 355.409C142.44 355.389 142.614 355.379 142.852 355.379ZM150.977 356.498C150.977 357.07 150.931 357.583 150.84 358.036C150.749 358.485 150.602 358.867 150.4 359.183C150.202 359.499 149.938 359.74 149.609 359.906C149.281 360.072 148.877 360.155 148.398 360.155C147.803 360.155 147.314 360.01 146.934 359.72C146.553 359.427 146.271 359.009 146.089 358.465C145.91 357.918 145.82 357.263 145.82 356.498C145.82 355.726 145.902 355.067 146.064 354.52C146.23 353.97 146.502 353.548 146.88 353.255C147.257 352.962 147.764 352.816 148.398 352.816C148.994 352.816 149.481 352.962 149.858 353.255C150.239 353.545 150.521 353.965 150.703 354.515C150.885 355.062 150.977 355.723 150.977 356.498ZM147.739 356.498C147.739 356.963 147.756 357.354 147.788 357.669C147.824 357.985 147.889 358.223 147.983 358.382C148.081 358.539 148.219 358.617 148.398 358.617C148.577 358.617 148.714 358.539 148.809 358.382C148.903 358.223 148.968 357.987 149.004 357.674C149.04 357.359 149.058 356.966 149.058 356.498C149.058 356.026 149.04 355.632 149.004 355.316C148.968 355 148.903 354.763 148.809 354.603C148.714 354.44 148.577 354.359 148.398 354.359C148.219 354.359 148.081 354.44 147.983 354.603C147.889 354.763 147.824 355 147.788 355.316C147.756 355.632 147.739 356.026 147.739 356.498ZM161.338 354.427C161.969 354.427 162.451 354.588 162.783 354.911C163.118 355.233 163.286 355.749 163.286 356.458V360.057H161.377V357.049C161.377 356.629 161.32 356.338 161.206 356.175C161.095 356.009 160.929 355.926 160.708 355.926C160.399 355.926 160.184 356.061 160.063 356.332C159.946 356.602 159.888 356.984 159.888 357.479V360.057H157.974V357.049C157.974 356.782 157.949 356.568 157.9 356.405C157.855 356.239 157.785 356.118 157.69 356.043C157.596 355.965 157.477 355.926 157.334 355.926C157.116 355.926 156.945 355.993 156.821 356.126C156.701 356.257 156.616 356.449 156.567 356.703C156.519 356.957 156.494 357.267 156.494 357.635V360.057H154.585V354.525H156.025L156.304 355.208H156.357C156.455 355.059 156.58 354.925 156.733 354.808C156.89 354.691 157.074 354.598 157.285 354.53C157.5 354.461 157.744 354.427 158.018 354.427C158.424 354.427 158.76 354.496 159.023 354.632C159.287 354.769 159.502 354.958 159.668 355.199H159.727C159.902 354.951 160.129 354.761 160.405 354.627C160.682 354.494 160.993 354.427 161.338 354.427ZM166.494 360.057H164.585V352.459H166.494V360.057Z" fill="#425B21"/>
<path d="M35.2 229.56L41.12 228.76L38.28 242.12C39.56 242.013 40.7333 241.453 41.8 240.44C42.8933 239.427 43.7467 238.173 44.36 236.68C44.9733 235.187 45.28 233.72 45.28 232.28C45.28 230.68 44.8667 229.373 44.04 228.36C43.2133 227.347 41.9733 226.84 40.32 226.84C37.0667 226.84 34.52 227.693 32.68 229.4C30.8667 231.107 29.96 233.493 29.96 236.56C29.96 237.547 30.0533 238.24 30.24 238.64C30.4267 239.013 30.52 239.227 30.52 239.28C29.08 239.28 28 238.987 27.28 238.4C26.5867 237.787 26.24 236.787 26.24 235.4C26.24 233.693 26.9333 232.04 28.32 230.44C29.7333 228.813 31.5333 227.507 33.72 226.52C35.9067 225.507 38.0933 225 40.28 225C42.3867 225 44.1467 225.36 45.56 226.08C46.9733 226.8 48.0133 227.76 48.68 228.96C49.3733 230.133 49.72 231.44 49.72 232.88C49.72 234.613 49.24 236.307 48.28 237.96C47.3467 239.613 46 240.973 44.24 242.04C42.48 243.08 40.4533 243.6 38.16 243.6H37.96L35.52 255H29.76L35.2 229.56ZM54.6497 255.24C52.6764 255.24 51.143 254.733 50.0497 253.72C48.9564 252.68 48.4097 251.067 48.4097 248.88C48.4097 247.04 48.7697 245.013 49.4897 242.8C50.2097 240.587 51.383 238.68 53.0097 237.08C54.6364 235.453 56.703 234.64 59.2097 234.64C62.143 234.64 63.6097 235.92 63.6097 238.48C63.6097 239.973 63.183 241.347 62.3297 242.6C61.4764 243.853 60.343 244.867 58.9297 245.64C57.5164 246.387 56.0097 246.813 54.4097 246.92C54.3564 247.72 54.3297 248.253 54.3297 248.52C54.3297 249.827 54.5564 250.72 55.0097 251.2C55.463 251.653 56.1964 251.88 57.2097 251.88C58.6497 251.88 59.8764 251.547 60.8897 250.88C61.9297 250.213 63.063 249.2 64.2897 247.84H65.6497C62.6897 252.773 59.023 255.24 54.6497 255.24ZM54.7297 245C55.7164 244.947 56.6497 244.6 57.5297 243.96C58.4364 243.32 59.1564 242.507 59.6897 241.52C60.2497 240.533 60.5297 239.493 60.5297 238.4C60.5297 237.307 60.1964 236.76 59.5297 236.76C58.5697 236.76 57.623 237.6 56.6897 239.28C55.783 240.96 55.1297 242.867 54.7297 245ZM69.0813 255.24C67.5613 255.24 66.2946 254.72 65.2813 253.68C64.2679 252.64 63.7612 251.013 63.7612 248.8C63.7612 246.827 64.1479 244.76 64.9213 242.6C65.7213 240.413 66.8946 238.573 68.4413 237.08C70.0146 235.56 71.8813 234.8 74.0413 234.8C75.1346 234.8 75.9479 234.987 76.4813 235.36C77.0146 235.733 77.2813 236.227 77.2813 236.84V237.12L77.7213 235H83.4813L80.6013 248.6C80.4946 249 80.4413 249.427 80.4413 249.88C80.4413 251.027 80.9879 251.6 82.0813 251.6C82.8279 251.6 83.4679 251.253 84.0013 250.56C84.5613 249.867 85.0013 248.96 85.3213 247.84H87.0013C86.0146 250.72 84.7879 252.68 83.3213 253.72C81.8813 254.733 80.4279 255.24 78.9613 255.24C77.8413 255.24 76.9346 254.933 76.2413 254.32C75.5746 253.68 75.1746 252.76 75.0413 251.56C74.2679 252.653 73.4013 253.547 72.4413 254.24C71.5079 254.907 70.3879 255.24 69.0813 255.24ZM71.6813 251.36C72.3479 251.36 73.0013 251.053 73.6413 250.44C74.3079 249.8 74.7613 248.933 75.0013 247.84L76.9213 238.8C76.9213 238.453 76.7879 238.12 76.5213 237.8C76.2546 237.453 75.8413 237.28 75.2813 237.28C74.2146 237.28 73.2546 237.907 72.4013 239.16C71.5479 240.387 70.8813 241.88 70.4013 243.64C69.9213 245.373 69.6813 246.907 69.6813 248.24C69.6813 249.573 69.8679 250.427 70.2413 250.8C70.6413 251.173 71.1213 251.36 71.6813 251.36ZM88.0559 235H93.8159L93.2959 237.48C94.2026 236.68 95.0159 236.067 95.7359 235.64C96.4826 235.213 97.2826 235 98.1359 235C98.9893 235 99.6559 235.293 100.136 235.88C100.643 236.467 100.896 237.173 100.896 238C100.896 238.773 100.643 239.453 100.136 240.04C99.6293 240.627 98.9226 240.92 98.0159 240.92C97.4293 240.92 97.0293 240.787 96.8159 240.52C96.6293 240.227 96.4826 239.813 96.3759 239.28C96.2959 238.933 96.2159 238.68 96.1359 238.52C96.0559 238.36 95.9093 238.28 95.6959 238.28C95.1359 238.28 94.6559 238.4 94.2559 238.64C93.8826 238.853 93.3893 239.24 92.7759 239.8L89.5759 255H83.8159L88.0559 235Z" fill="#67883D"/>
<path d="M143.51 233.511C140.992 229.307 137.757 228.173 133.949 227.887C126.984 229.761 126.698 233.755 124.643 238.675C123.136 242.285 121.161 241.352 117.998 246.227C116.033 249.257 113.885 248.629 107.506 252.281C100.481 256.304 99.2854 258.121 97.3647 262.72C94.0788 270.588 95.1937 274.597 95.7072 278.442C96.1181 281.518 96.6232 285.13 101.556 288.293C106.489 291.456 111.021 291.143 111.021 291.143C112.549 291.349 114.181 293.566 117.797 295.076C125.212 298.173 126.942 296.379 132.826 294.611C138.979 292.762 146.361 282.989 146.73 274.859C146.891 271.342 147.555 266.616 143.823 260.926C142.853 255.412 144.294 251.465 145.55 245.559C147.119 238.176 145.096 236.159 143.51 233.511Z" fill="#607D3A"/>
<path d="M142.422 234.008C139.901 230.079 137.487 228.143 133.807 227.797C127.129 229.372 125.807 236.282 123.931 240.772C122.555 244.067 122.002 244.114 119.057 248.539C117.226 251.289 111.166 250.254 106.672 251.645C99.4372 253.883 99.5333 257.546 97.7804 261.743C94.7815 268.923 95.9445 272.643 96.5236 276.198C96.9869 279.042 97.5528 282.382 102.381 285.405C107.208 288.428 111.574 288.238 111.574 288.238C113.053 288.461 115.033 289.683 118.555 291.154C125.776 294.17 126.059 292.39 131.697 290.889C137.593 289.318 143.359 280.954 143.538 273.468C143.616 270.23 144.341 266.791 140.617 261.465C139.561 256.361 140.956 252.806 142.039 247.389C143.392 240.618 144.01 236.484 142.422 234.008Z" fill="#67883D"/>
<path d="M136.943 230.386L142.235 217.714C143.642 217.762 146.122 218.601 144.783 221.578C144.726 221.733 144.653 221.893 144.566 222.035C143.049 225.07 139.3 229.949 137.532 232.106L136.943 230.386Z" fill="#6D4635"/>
<path d="M136.898 230.495L141.73 218.925C142.486 218.748 143.703 219.077 142.516 221.81C142.461 221.95 142.396 222.098 142.327 222.231C141.035 225.04 138.245 229.76 136.952 231.863L136.898 230.495Z" fill="#5B3B2D"/>
<path d="M138.616 232.532C136.526 228.901 136.712 228.014 133.485 227.808C128.116 228.147 126.365 231.148 123.902 235.111C120.255 240.979 119.019 243.194 116.281 247.472C114.58 250.131 110.175 249.195 107.135 251.007C104.095 252.818 102.057 252.786 100.377 256.809C97.5018 263.693 99.5071 267.875 100.629 271.046C102.474 276.262 101.641 275.914 104.921 280.557C108.202 285.2 110.977 284.282 110.977 284.282C112.272 284.445 113.481 284.132 116.532 285.406C122.789 288.019 122.428 286.566 127.44 284.962C132.681 283.284 137.9 276.864 138.304 269.784C138.479 266.721 139.23 263.448 136.126 258.537C135.364 253.749 136.708 250.343 137.839 245.189C139.253 238.746 139.932 234.819 138.616 232.532Z" fill="#6B8F3C"/>
<path d="M138.075 232.325C139.832 233.148 140.312 232.556 140.333 232.157C140.438 231.904 140.277 231.244 138.787 230.622C137.297 229.999 136.949 229.261 136.961 228.97L135.583 230.173C135.682 230.548 136.319 231.503 138.075 232.325Z" fill="#538043"/>
<path d="M131.731 241.94C132.809 237.645 128.756 238.351 128.027 238.168C121.765 239.439 119.092 251.974 115.999 252.462C111.676 253.143 111.147 252.718 109.432 254.259C106.274 257.097 106.713 263.915 115.178 261.911C118.199 261.196 122.167 259.304 125.163 256.787C127.019 255.227 127.128 253.21 128.381 249.798C129.634 246.386 130.618 246.374 131.731 241.94Z" fill="#71993E"/>
<path d="M123.068 245.134C123.233 244.883 123.428 244.649 123.634 244.424C123.824 244.003 124.361 243.247 124.477 243.071C124.807 242.566 125.169 241.855 125.621 241.48C125.814 241.319 125.98 241.152 126.168 240.995C126.384 240.815 126.593 240.731 126.813 240.576C126.986 240.454 127.288 240.433 127.474 240.381C127.69 240.322 127.941 240.388 128.095 240.488C128.358 240.66 128.791 240.797 128.846 241.186C128.909 241.629 128.564 242.25 128.148 242.769C127.692 243.651 126.491 245.517 124.068 248.959C123.87 249.087 117.132 252.757 122.694 245.639C122.693 245.592 122.718 245.549 122.787 245.521C122.756 245.56 122.725 245.6 122.694 245.639C122.694 245.643 122.694 245.648 122.695 245.652C122.831 245.451 122.99 245.254 123.068 245.134Z" fill="#81A651"/>
</svg>
