<svg width="182" height="433" viewBox="0 0 182 433" fill="none" xmlns="http://www.w3.org/2000/svg">
<path d="M126.5 15C124.334 -2.05 107.015 17.7893 65.5 20.5217L51 430.302C69.9525 430.849 150.408 438.403 162.008 425.534C166.215 420.866 155.371 425.862 172.992 392.559C181.614 376.264 180.223 330.517 181.125 292.81C182.028 255.103 186.375 143.631 162.008 118.752C150.159 106.655 140.348 86.802 140.348 76.9655V35.352C159.842 35.352 161.105 30.9046 162.008 20.5217C162.91 10.1387 128.666 32.05 126.5 15Z" fill="#ECE4E4"/>
<path d="M80 20.5217C82.1825 3.47175 90.168 4.76756 132 7.49993V430.302C112.903 430.849 31.8328 438.403 20.145 425.534C15.9054 420.866 26.832 425.862 9.07632 392.559C0.388535 376.264 1.7908 330.517 0.881409 292.81C-0.0279846 255.103 -4.4086 143.632 20.145 118.752C32.0838 106.655 41.9703 86.802 41.9703 76.9655V35.352C22.3275 35.352 21.0544 30.9047 20.145 20.5217C19.2356 10.1387 77.8175 37.5717 80 20.5217Z" fill="#ECE4E4"/>
<path d="M77.2181 247.008C43.3679 247.008 12.1818 237.669 0.820068 233C1 340 3.09624 379 9.04755 390.594C21.2712 414.409 21.9589 422.527 20 423.5C20.4701 432.839 69 432.5 93.5 431C152.738 434.736 162.784 426.975 162 422.5C157.769 419.231 169.5 396.5 174 387.5C181.5 362.5 180.021 290.559 181 239L176.536 241.172C169.679 241.95 152.323 241.989 137.749 235.918C119.531 228.331 119.531 247.008 77.2181 247.008Z" fill="#CF7E33" fill-opacity="0.7"/>
<path d="M161.503 10.5231C160.603 1.46718 113.511 -0.486761 91.7651 0.0937466C64.102 0.0937402 19.0001 2.3895 19 10.5231V31.4214C19 37.3528 36.8381 38.2423 43.3993 37.9521C67.0198 37.8069 118.985 37.6038 137.881 37.9521C156.778 38.3004 160.941 36.1908 161.503 32.2723C161.878 29.66 162.403 19.579 161.503 10.5231Z" fill="#8BCB75"/>
<rect x="6.5" y="169.5" width="166.143" height="194" fill="#F3E9E3" stroke="#A6A6A6"/>
<rect x="6" y="299.093" width="167.143" height="26.7429" fill="#DA4E00"/>
<path d="M23.7573 309.46V308.83H25.4573V316H24.7473V309.46H23.7573ZM27.0172 312.35C27.0172 311.203 27.1939 310.313 27.5472 309.68C27.9005 309.047 28.5339 308.73 29.4472 308.73C30.3605 308.73 30.9939 309.047 31.3472 309.68C31.7005 310.313 31.8772 311.203 31.8772 312.35C31.8772 313.517 31.7005 314.42 31.3472 315.06C30.9939 315.7 30.3605 316.02 29.4472 316.02C28.5272 316.02 27.8905 315.7 27.5372 315.06C27.1905 314.42 27.0172 313.517 27.0172 312.35ZM31.1872 312.35C31.1872 311.73 31.1439 311.207 31.0572 310.78C30.9705 310.353 30.8005 310.01 30.5472 309.75C30.2939 309.49 29.9272 309.36 29.4472 309.36C28.9672 309.36 28.6005 309.49 28.3472 309.75C28.0939 310.01 27.9239 310.353 27.8372 310.78C27.7505 311.207 27.7072 311.73 27.7072 312.35C27.7072 312.99 27.7505 313.527 27.8372 313.96C27.9239 314.387 28.0939 314.73 28.3472 314.99C28.6005 315.25 28.9672 315.38 29.4472 315.38C29.9272 315.38 30.2939 315.25 30.5472 314.99C30.8005 314.73 30.9705 314.387 31.0572 313.96C31.1439 313.527 31.1872 312.99 31.1872 312.35ZM33.1793 312.35C33.1793 311.203 33.356 310.313 33.7093 309.68C34.0626 309.047 34.696 308.73 35.6093 308.73C36.5226 308.73 37.156 309.047 37.5093 309.68C37.8626 310.313 38.0393 311.203 38.0393 312.35C38.0393 313.517 37.8626 314.42 37.5093 315.06C37.156 315.7 36.5226 316.02 35.6093 316.02C34.6893 316.02 34.0526 315.7 33.6993 315.06C33.3526 314.42 33.1793 313.517 33.1793 312.35ZM37.3493 312.35C37.3493 311.73 37.306 311.207 37.2193 310.78C37.1326 310.353 36.9626 310.01 36.7093 309.75C36.456 309.49 36.0893 309.36 35.6093 309.36C35.1293 309.36 34.7626 309.49 34.5093 309.75C34.256 310.01 34.086 310.353 33.9993 310.78C33.9126 311.207 33.8693 311.73 33.8693 312.35C33.8693 312.99 33.9126 313.527 33.9993 313.96C34.086 314.387 34.256 314.73 34.5093 314.99C34.7626 315.25 35.1293 315.38 35.6093 315.38C36.0893 315.38 36.456 315.25 36.7093 314.99C36.9626 314.73 37.1326 314.387 37.2193 313.96C37.306 313.527 37.3493 312.99 37.3493 312.35ZM39.1214 310.33C39.1214 309.903 39.2514 309.56 39.5114 309.3C39.7781 309.033 40.1147 308.9 40.5214 308.9C40.9347 308.9 41.2714 309.033 41.5314 309.3C41.7981 309.56 41.9314 309.903 41.9314 310.33C41.9314 310.763 41.7981 311.113 41.5314 311.38C41.2714 311.64 40.9347 311.77 40.5214 311.77C40.1147 311.77 39.7781 311.64 39.5114 311.38C39.2514 311.113 39.1214 310.763 39.1214 310.33ZM44.7214 309L40.6214 316H39.9114L44.0214 309H44.7214ZM40.5214 309.35C40.2681 309.35 40.0647 309.437 39.9114 309.61C39.7647 309.777 39.6914 310.017 39.6914 310.33C39.6914 310.643 39.7647 310.887 39.9114 311.06C40.0647 311.233 40.2681 311.32 40.5214 311.32C40.7747 311.32 40.9781 311.233 41.1314 311.06C41.2847 310.887 41.3614 310.643 41.3614 310.33C41.3614 310.023 41.2847 309.783 41.1314 309.61C40.9781 309.437 40.7747 309.35 40.5214 309.35ZM42.7214 314.67C42.7214 314.237 42.8514 313.89 43.1114 313.63C43.3781 313.363 43.7147 313.23 44.1214 313.23C44.5281 313.23 44.8614 313.363 45.1214 313.63C45.3881 313.89 45.5214 314.237 45.5214 314.67C45.5214 315.103 45.3881 315.453 45.1214 315.72C44.8614 315.98 44.5281 316.11 44.1214 316.11C43.7147 316.11 43.3781 315.98 43.1114 315.72C42.8514 315.453 42.7214 315.103 42.7214 314.67ZM44.1214 313.69C43.8681 313.69 43.6647 313.777 43.5114 313.95C43.3581 314.123 43.2814 314.363 43.2814 314.67C43.2814 314.977 43.3581 315.217 43.5114 315.39C43.6647 315.563 43.8681 315.65 44.1214 315.65C44.3747 315.65 44.5747 315.567 44.7214 315.4C44.8747 315.227 44.9514 314.983 44.9514 314.67C44.9514 314.357 44.8747 314.117 44.7214 313.95C44.5747 313.777 44.3747 313.69 44.1214 313.69ZM52.0514 310.44C52.7047 310.44 53.2381 310.643 53.6514 311.05C54.0647 311.45 54.2714 312.033 54.2714 312.8V316H53.5814V312.88C53.5814 312.287 53.4314 311.833 53.1314 311.52C52.8381 311.207 52.4347 311.05 51.9214 311.05C51.3947 311.05 50.9747 311.217 50.6614 311.55C50.3481 311.883 50.1914 312.373 50.1914 313.02V316H49.4914V310.54H50.1914V311.47C50.3647 311.137 50.6147 310.883 50.9414 310.71C51.2681 310.53 51.6381 310.44 52.0514 310.44ZM55.4995 313.26C55.4995 312.7 55.6095 312.21 55.8295 311.79C56.0562 311.363 56.3662 311.037 56.7595 310.81C57.1595 310.577 57.6095 310.46 58.1095 310.46C58.6295 310.46 59.0762 310.58 59.4495 310.82C59.8295 311.06 60.1029 311.367 60.2695 311.74V310.54H60.9695V316H60.2695V314.79C60.0962 315.163 59.8195 315.473 59.4395 315.72C59.0662 315.96 58.6195 316.08 58.0995 316.08C57.6062 316.08 57.1595 315.963 56.7595 315.73C56.3662 315.497 56.0562 315.167 55.8295 314.74C55.6095 314.313 55.4995 313.82 55.4995 313.26ZM60.2695 313.27C60.2695 312.83 60.1795 312.443 59.9995 312.11C59.8195 311.777 59.5729 311.52 59.2595 311.34C58.9529 311.16 58.6129 311.07 58.2395 311.07C57.8529 311.07 57.5062 311.157 57.1995 311.33C56.8929 311.503 56.6495 311.757 56.4695 312.09C56.2962 312.417 56.2095 312.807 56.2095 313.26C56.2095 313.707 56.2962 314.1 56.4695 314.44C56.6495 314.773 56.8929 315.03 57.1995 315.21C57.5062 315.383 57.8529 315.47 58.2395 315.47C58.6129 315.47 58.9529 315.38 59.2595 315.2C59.5729 315.02 59.8195 314.763 59.9995 314.43C60.1795 314.097 60.2695 313.71 60.2695 313.27ZM63.4776 311.13V314.52C63.4776 314.853 63.5409 315.083 63.6676 315.21C63.7942 315.337 64.0176 315.4 64.3376 315.4H64.9776V316H64.2276C63.7342 316 63.3676 315.887 63.1276 315.66C62.8876 315.427 62.7676 315.047 62.7676 314.52V311.13H62.0076V310.54H62.7676V309.17H63.4776V310.54H64.9776V311.13H63.4776ZM70.862 310.54V316H70.162V315.04C70.002 315.38 69.7554 315.64 69.422 315.82C69.0887 316 68.7154 316.09 68.302 316.09C67.6487 316.09 67.1154 315.89 66.702 315.49C66.2887 315.083 66.082 314.497 66.082 313.73V310.54H66.772V313.65C66.772 314.243 66.9187 314.697 67.212 315.01C67.512 315.323 67.9187 315.48 68.432 315.48C68.9587 315.48 69.3787 315.313 69.692 314.98C70.0054 314.647 70.162 314.157 70.162 313.51V310.54H70.862ZM67.742 309.77C67.6154 309.77 67.5054 309.727 67.412 309.64C67.3254 309.547 67.282 309.437 67.282 309.31C67.282 309.183 67.3254 309.077 67.412 308.99C67.5054 308.897 67.6154 308.85 67.742 308.85C67.8687 308.85 67.9754 308.897 68.062 308.99C68.1554 309.077 68.202 309.183 68.202 309.31C68.202 309.437 68.1554 309.547 68.062 309.64C67.9754 309.727 67.8687 309.77 67.742 309.77ZM69.282 309.77C69.1554 309.77 69.0454 309.727 68.952 309.64C68.8654 309.547 68.822 309.437 68.822 309.31C68.822 309.183 68.8654 309.077 68.952 308.99C69.0454 308.897 69.1554 308.85 69.282 308.85C69.4087 308.85 69.5154 308.897 69.602 308.99C69.6887 309.077 69.732 309.183 69.732 309.31C69.732 309.437 69.6887 309.547 69.602 309.64C69.5154 309.727 69.4087 309.77 69.282 309.77ZM73.1602 311.51C73.3135 311.17 73.5468 310.907 73.8602 310.72C74.1802 310.533 74.5702 310.44 75.0302 310.44V311.17H74.8402C74.3335 311.17 73.9268 311.307 73.6202 311.58C73.3135 311.853 73.1602 312.31 73.1602 312.95V316H72.4602V310.54H73.1602V311.51ZM76.7832 308.6V316H76.0832V308.6H76.7832ZM78.7184 309.51C78.5784 309.51 78.4584 309.46 78.3584 309.36C78.2584 309.26 78.2084 309.137 78.2084 308.99C78.2084 308.843 78.2584 308.723 78.3584 308.63C78.4584 308.53 78.5784 308.48 78.7184 308.48C78.8584 308.48 78.9784 308.53 79.0784 308.63C79.1784 308.723 79.2284 308.843 79.2284 308.99C79.2284 309.137 79.1784 309.26 79.0784 309.36C78.9784 309.46 78.8584 309.51 78.7184 309.51ZM79.0684 310.54V316H78.3684V310.54H79.0684ZM80.3335 313.27C80.3335 312.703 80.4468 312.21 80.6735 311.79C80.9002 311.363 81.2135 311.037 81.6135 310.81C82.0135 310.577 82.4702 310.46 82.9835 310.46C83.6568 310.46 84.2102 310.627 84.6435 310.96C85.0835 311.293 85.3668 311.747 85.4935 312.32H84.7435C84.6502 311.927 84.4468 311.62 84.1335 311.4C83.8268 311.173 83.4435 311.06 82.9835 311.06C82.6168 311.06 82.2868 311.143 81.9935 311.31C81.7002 311.477 81.4668 311.727 81.2935 312.06C81.1268 312.387 81.0435 312.79 81.0435 313.27C81.0435 313.75 81.1268 314.157 81.2935 314.49C81.4668 314.823 81.7002 315.073 81.9935 315.24C82.2868 315.407 82.6168 315.49 82.9835 315.49C83.4435 315.49 83.8268 315.38 84.1335 315.16C84.4468 314.933 84.6502 314.62 84.7435 314.22H85.4935C85.3668 314.78 85.0835 315.23 84.6435 315.57C84.2035 315.91 83.6502 316.08 82.9835 316.08C82.4702 316.08 82.0135 315.967 81.6135 315.74C81.2135 315.507 80.9002 315.18 80.6735 314.76C80.4468 314.333 80.3335 313.837 80.3335 313.27ZM89.3863 310.44C89.7997 310.44 90.1697 310.527 90.4963 310.7C90.8297 310.873 91.0897 311.14 91.2763 311.5C91.4697 311.853 91.5663 312.287 91.5663 312.8V316H90.8763V312.88C90.8763 312.287 90.7263 311.833 90.4263 311.52C90.133 311.207 89.7297 311.05 89.2163 311.05C88.6897 311.05 88.2697 311.217 87.9563 311.55C87.643 311.883 87.4863 312.373 87.4863 313.02V316H86.7863V308.6H87.4863V311.47C87.6597 311.143 87.913 310.89 88.2463 310.71C88.5863 310.53 88.9663 310.44 89.3863 310.44ZM97.7986 315.32L99.6386 310.54H100.379L98.1886 316H97.3986L95.2086 310.54H95.9586L97.7986 315.32ZM101.677 309.51C101.537 309.51 101.417 309.46 101.317 309.36C101.217 309.26 101.167 309.137 101.167 308.99C101.167 308.843 101.217 308.723 101.317 308.63C101.417 308.53 101.537 308.48 101.677 308.48C101.817 308.48 101.937 308.53 102.037 308.63C102.137 308.723 102.187 308.843 102.187 308.99C102.187 309.137 102.137 309.26 102.037 309.36C101.937 309.46 101.817 309.51 101.677 309.51ZM102.027 310.54V316H101.327V310.54H102.027ZM104.523 311.13V314.52C104.523 314.853 104.586 315.083 104.713 315.21C104.839 315.337 105.063 315.4 105.382 315.4H106.023V316H105.273C104.779 316 104.413 315.887 104.173 315.66C103.933 315.427 103.813 315.047 103.813 314.52V311.13H103.053V310.54H103.813V309.17H104.523V310.54H106.023V311.13H104.523ZM106.857 313.26C106.857 312.7 106.967 312.21 107.187 311.79C107.414 311.363 107.724 311.037 108.117 310.81C108.517 310.577 108.967 310.46 109.467 310.46C109.987 310.46 110.434 310.58 110.807 310.82C111.187 311.06 111.46 311.367 111.627 311.74V310.54H112.327V316H111.627V314.79C111.454 315.163 111.177 315.473 110.797 315.72C110.424 315.96 109.977 316.08 109.457 316.08C108.964 316.08 108.517 315.963 108.117 315.73C107.724 315.497 107.414 315.167 107.187 314.74C106.967 314.313 106.857 313.82 106.857 313.26ZM111.627 313.27C111.627 312.83 111.537 312.443 111.357 312.11C111.177 311.777 110.93 311.52 110.617 311.34C110.31 311.16 109.97 311.07 109.597 311.07C109.21 311.07 108.864 311.157 108.557 311.33C108.25 311.503 108.007 311.757 107.827 312.09C107.654 312.417 107.567 312.807 107.567 313.26C107.567 313.707 107.654 314.1 107.827 314.44C108.007 314.773 108.25 315.03 108.557 315.21C108.864 315.383 109.21 315.47 109.597 315.47C109.97 315.47 110.31 315.38 110.617 315.2C110.93 315.02 111.177 314.763 111.357 314.43C111.537 314.097 111.627 313.71 111.627 313.27ZM120.425 310.44C121.065 310.44 121.585 310.643 121.985 311.05C122.392 311.45 122.595 312.033 122.595 312.8V316H121.905V312.88C121.905 312.287 121.762 311.833 121.475 311.52C121.188 311.207 120.798 311.05 120.305 311.05C119.792 311.05 119.382 311.22 119.075 311.56C118.768 311.9 118.615 312.393 118.615 313.04V316H117.925V312.88C117.925 312.287 117.782 311.833 117.495 311.52C117.208 311.207 116.815 311.05 116.315 311.05C115.802 311.05 115.392 311.22 115.085 311.56C114.778 311.9 114.625 312.393 114.625 313.04V316H113.925V310.54H114.625V311.48C114.798 311.14 115.045 310.883 115.365 310.71C115.685 310.53 116.042 310.44 116.435 310.44C116.908 310.44 117.322 310.553 117.675 310.78C118.035 311.007 118.295 311.34 118.455 311.78C118.602 311.347 118.852 311.017 119.205 310.79C119.565 310.557 119.972 310.44 120.425 310.44ZM124.5 309.51C124.36 309.51 124.24 309.46 124.14 309.36C124.04 309.26 123.99 309.137 123.99 308.99C123.99 308.843 124.04 308.723 124.14 308.63C124.24 308.53 124.36 308.48 124.5 308.48C124.64 308.48 124.76 308.53 124.86 308.63C124.96 308.723 125.01 308.843 125.01 308.99C125.01 309.137 124.96 309.26 124.86 309.36C124.76 309.46 124.64 309.51 124.5 309.51ZM124.85 310.54V316H124.15V310.54H124.85ZM128.995 310.44C129.648 310.44 130.181 310.643 130.595 311.05C131.008 311.45 131.215 312.033 131.215 312.8V316H130.525V312.88C130.525 312.287 130.375 311.833 130.075 311.52C129.781 311.207 129.378 311.05 128.865 311.05C128.338 311.05 127.918 311.217 127.605 311.55C127.291 311.883 127.135 312.373 127.135 313.02V316H126.435V310.54H127.135V311.47C127.308 311.137 127.558 310.883 127.885 310.71C128.211 310.53 128.581 310.44 128.995 310.44ZM133.463 311.51C133.616 311.17 133.85 310.907 134.163 310.72C134.483 310.533 134.873 310.44 135.333 310.44V311.17H135.143C134.636 311.17 134.23 311.307 133.923 311.58C133.616 311.853 133.463 312.31 133.463 312.95V316H132.763V310.54H133.463V311.51ZM141.326 312.99C141.326 313.23 141.319 313.413 141.306 313.54H136.776C136.796 313.953 136.896 314.307 137.076 314.6C137.256 314.893 137.493 315.117 137.786 315.27C138.079 315.417 138.399 315.49 138.746 315.49C139.199 315.49 139.579 315.38 139.886 315.16C140.199 314.94 140.406 314.643 140.506 314.27H141.246C141.113 314.803 140.826 315.24 140.386 315.58C139.953 315.913 139.406 316.08 138.746 316.08C138.233 316.08 137.773 315.967 137.366 315.74C136.959 315.507 136.639 315.18 136.406 314.76C136.179 314.333 136.066 313.837 136.066 313.27C136.066 312.703 136.179 312.207 136.406 311.78C136.633 311.353 136.949 311.027 137.356 310.8C137.763 310.573 138.226 310.46 138.746 310.46C139.266 310.46 139.719 310.573 140.106 310.8C140.499 311.027 140.799 311.333 141.006 311.72C141.219 312.1 141.326 312.523 141.326 312.99ZM140.616 312.97C140.623 312.563 140.539 312.217 140.366 311.93C140.199 311.643 139.969 311.427 139.676 311.28C139.383 311.133 139.063 311.06 138.716 311.06C138.196 311.06 137.753 311.227 137.386 311.56C137.019 311.893 136.816 312.363 136.776 312.97H140.616ZM142.957 309.51C142.817 309.51 142.697 309.46 142.597 309.36C142.497 309.26 142.447 309.137 142.447 308.99C142.447 308.843 142.497 308.723 142.597 308.63C142.697 308.53 142.817 308.48 142.957 308.48C143.097 308.48 143.217 308.53 143.317 308.63C143.417 308.723 143.467 308.843 143.467 308.99C143.467 309.137 143.417 309.26 143.317 309.36C143.217 309.46 143.097 309.51 142.957 309.51ZM143.307 310.54V316H142.607V310.54H143.307ZM144.572 313.27C144.572 312.703 144.685 312.21 144.912 311.79C145.138 311.363 145.452 311.037 145.852 310.81C146.252 310.577 146.708 310.46 147.222 310.46C147.895 310.46 148.448 310.627 148.882 310.96C149.322 311.293 149.605 311.747 149.732 312.32H148.982C148.888 311.927 148.685 311.62 148.372 311.4C148.065 311.173 147.682 311.06 147.222 311.06C146.855 311.06 146.525 311.143 146.232 311.31C145.938 311.477 145.705 311.727 145.532 312.06C145.365 312.387 145.282 312.79 145.282 313.27C145.282 313.75 145.365 314.157 145.532 314.49C145.705 314.823 145.938 315.073 146.232 315.24C146.525 315.407 146.855 315.49 147.222 315.49C147.682 315.49 148.065 315.38 148.372 315.16C148.685 314.933 148.888 314.62 148.982 314.22H149.732C149.605 314.78 149.322 315.23 148.882 315.57C148.442 315.91 147.888 316.08 147.222 316.08C146.708 316.08 146.252 315.967 145.852 315.74C145.452 315.507 145.138 315.18 144.912 314.76C144.685 314.333 144.572 313.837 144.572 313.27ZM153.625 310.44C154.038 310.44 154.408 310.527 154.735 310.7C155.068 310.873 155.328 311.14 155.515 311.5C155.708 311.853 155.805 312.287 155.805 312.8V316H155.115V312.88C155.115 312.287 154.965 311.833 154.665 311.52C154.371 311.207 153.968 311.05 153.455 311.05C152.928 311.05 152.508 311.217 152.195 311.55C151.881 311.883 151.725 312.373 151.725 313.02V316H151.025V308.6H151.725V311.47C151.898 311.143 152.151 310.89 152.485 310.71C152.825 310.53 153.205 310.44 153.625 310.44Z" fill="white"/>
<path d="M43.9123 198.119L44.8885 198.017L44.7858 196.684L44.7344 194.274L44.8885 190.531L45.2482 187.25L45.762 183.25L45.9675 181.046L46.1217 179.866L47.2007 179.559L48.7935 179.354L50.1808 179.456L51.2598 179.969L52.0305 180.738L52.5443 181.815V182.532L52.3902 183.763L51.8763 185.045L51.0029 186.173L50.078 186.891L49.0504 187.403L47.4062 187.814L46.43 187.916L46.5327 188.788H48.0228L48.7421 190.941L49.7697 193.505L51.2084 196.222L52.1846 197.453L53.2636 198.376L54.4454 198.786H55.8841L56.4492 198.632L55.473 197.607L54.7023 196.684L53.983 195.556L53.5719 194.889L52.8012 193.659L51.825 191.762L51.0029 189.659L50.5404 188.224L51.6708 187.711L52.6984 187.096L53.6747 186.173L54.4454 184.942L54.9078 183.968L55.1647 182.532L55.062 181.302L54.5481 179.969L54.0343 179.251L52.9553 178.277L51.6708 177.662L50.078 177.456L48.2797 177.662L47.1493 177.918L45.9162 178.277L45.0941 178.174L44.2206 177.662L43.9123 177.2L43.6554 176.841L43.5013 176.482L43.193 175.611L43.3985 176.892L43.5013 177.815L43.604 179.456L43.5013 182.122L42.7305 188.583L42.114 192.992L41.9084 195.556V196.684L42.2681 197.453L42.8333 197.863L43.9123 198.119Z" fill="black" stroke="black"/>
<path d="M60.9707 190.864C61.5359 188.933 62.4008 187.309 63.5654 185.993C64.7472 184.66 65.8519 183.994 66.8795 183.994C67.9071 183.994 68.635 184.31 69.0632 184.942C69.4914 185.558 69.7054 186.404 69.7054 187.48C69.7054 188.54 69.5341 190.035 69.1916 191.967C68.8662 193.898 68.7035 195.308 68.7035 196.197C68.7035 197.068 68.8148 197.709 69.0375 198.119C69.2602 198.513 69.6369 198.854 70.1679 199.145C69.9452 199.162 69.6284 199.171 69.2173 199.171C68.1212 199.171 67.3077 198.948 66.7767 198.504C66.2629 198.043 66.006 197.265 66.006 196.171C66.006 195.539 66.1773 194.265 66.5198 192.351C66.8623 190.42 67.0336 189.001 67.0336 188.096C67.0336 186.968 66.6397 186.404 65.8519 186.404C65.3894 186.404 64.8756 186.651 64.3104 187.147C63.7453 187.626 63.1972 188.284 62.6663 189.121C62.1524 189.941 61.7157 190.993 61.356 192.274C61.0135 193.539 60.8422 194.795 60.8422 196.043C60.8422 197.273 60.8936 198.188 60.9964 198.786C60.5853 198.82 60.3541 198.837 60.3027 198.837C59.4978 198.837 58.8983 198.666 58.5044 198.325C58.1276 197.983 57.9392 197.453 57.9392 196.735C57.9392 196 58.0934 194.599 58.4016 192.531C59.3093 186.173 59.7632 181.345 59.7632 178.046C59.7632 176.559 59.6605 175.559 59.4549 175.047C60.4483 175.406 61.142 175.935 61.5359 176.636C61.9469 177.337 62.1524 178.302 62.1524 179.533C62.1524 180.388 61.9811 182.182 61.6386 184.917C61.3132 187.651 61.0906 189.634 60.9707 190.864ZM77.081 199.171C76.1047 198.829 75.4197 198.307 75.0257 197.607C74.649 196.889 74.4605 196.026 74.4605 195.017C74.4605 194.009 74.5976 192.565 74.8716 190.685C75.1457 188.805 75.2826 187.344 75.2826 186.301C75.2826 185.258 75.2313 184.455 75.1285 183.891C75.4368 183.857 75.6852 183.84 75.8735 183.84C76.6442 183.84 77.2009 184.011 77.5434 184.353C77.886 184.694 78.0572 185.258 78.0572 186.045C78.0572 186.301 77.8432 187.651 77.4149 190.095C77.0039 192.522 76.7898 194.53 76.7727 196.12C76.7727 197.692 76.8754 198.709 77.081 199.171ZM77.4663 181.302C76.0277 181.302 75.3083 180.815 75.3083 179.841C75.3083 179.499 75.4368 179.02 75.6937 178.405C76.0705 178.337 76.396 178.302 76.6699 178.302C78.1086 178.302 78.8279 178.79 78.8279 179.764C78.8279 180.106 78.6995 180.584 78.4426 181.199C78.0658 181.268 77.7404 181.302 77.4663 181.302ZM94.0442 187.634C94.0442 188.42 93.8729 189.813 93.5304 191.813C93.2049 193.795 93.0422 195.24 93.0422 196.145C93.0422 197.051 93.1535 197.709 93.3762 198.119C93.5988 198.513 93.9756 198.854 94.5066 199.145C94.2839 199.162 93.9671 199.171 93.5561 199.171C92.3914 199.171 91.5607 198.957 91.0641 198.53C90.5845 198.085 90.3447 197.299 90.3447 196.171C90.3447 195.539 90.5159 194.265 90.8586 192.351C91.2011 190.42 91.3724 189.001 91.3724 188.096C91.3724 186.968 91.0298 186.404 90.3447 186.404C89.2486 186.404 88.1097 187.369 86.9279 189.301C85.7632 191.232 85.181 193.556 85.181 196.274C85.181 197.35 85.2323 198.188 85.3351 198.786C84.8897 198.82 84.6243 198.837 84.5387 198.837C83.0315 198.837 82.2779 198.102 82.2779 196.633C82.2779 196.291 82.4578 194.975 82.8174 192.685C83.1771 190.394 83.3569 188.574 83.3569 187.224C83.3569 185.857 83.2113 184.601 82.9202 183.455C83.9307 183.848 84.6328 184.412 85.0268 185.147C85.4379 185.865 85.6434 186.694 85.6434 187.634C85.6434 188.557 85.5406 189.634 85.3351 190.864C85.9003 188.933 86.7823 187.309 87.9812 185.993C89.1972 184.66 90.3276 183.994 91.3724 183.994C93.1535 183.994 94.0442 185.207 94.0442 187.634ZM107.839 190.377C107.839 188.702 107.625 187.506 107.197 186.788C106.786 186.053 106.187 185.686 105.399 185.686C104.628 185.686 103.849 186.07 103.061 186.839C102.273 187.591 101.648 188.531 101.186 189.659C100.74 190.77 100.518 191.933 100.518 193.146C100.518 194.342 100.749 195.385 101.211 196.274C101.674 197.145 102.376 197.581 103.318 197.581C104.654 197.581 105.741 196.795 106.581 195.223C107.42 193.65 107.839 192.035 107.839 190.377ZM100.389 189.377C101.04 187.532 101.913 186.19 103.01 185.352C104.123 184.498 105.245 184.071 106.375 184.071C107.523 184.071 108.473 184.575 109.227 185.583C109.98 186.575 110.357 187.925 110.357 189.634C110.357 191.514 109.997 193.257 109.278 194.864C108.473 196.641 107.308 197.88 105.784 198.581C104.962 198.974 104.054 199.171 103.061 199.171C101.674 199.171 100.458 198.598 99.4129 197.453C98.3681 196.291 97.8457 194.641 97.8457 192.505C97.8457 190.352 98.3082 188.489 99.233 186.916C100.158 185.344 101.417 184.25 103.01 183.635C103.352 183.635 103.523 183.806 103.523 184.148C101.828 185.258 100.783 187.002 100.389 189.377Z" fill="black"/>
<path d="M161.986 177.508H112.557V200.683H161.986V177.508Z" fill="black" stroke="black"/>
<path d="M121.492 182.153V181.753H121.092H120.732H120.332V182.153V192.22C120.332 192.769 120.174 193.237 119.861 193.642C119.593 193.977 119.122 194.189 118.34 194.189C117.524 194.189 117.011 193.944 116.701 193.526C116.355 193.058 116.169 192.453 116.169 191.682V191.282H115.769H115.409H115.009V191.682C115.009 192.753 115.278 193.647 115.863 194.315L115.863 194.315L115.867 194.318C116.474 194.995 117.318 195.312 118.34 195.312C119.284 195.312 120.071 195.035 120.644 194.435L120.644 194.435C121.213 193.839 121.492 193.091 121.492 192.22V182.153ZM132.44 185.096V184.696H132.04H131.68H131.28V185.096V190.211C131.28 191.611 130.946 192.604 130.344 193.258C129.735 193.907 128.923 194.243 127.868 194.243C126.85 194.243 126.094 193.943 125.549 193.38C125.008 192.808 124.707 191.953 124.707 190.749V185.096V184.696H124.307H123.965H123.565V185.096V190.713C123.565 192.201 123.948 193.388 124.784 194.195C125.599 194.982 126.638 195.366 127.868 195.366C128.884 195.366 129.782 195.108 130.542 194.577C130.824 194.382 131.07 194.156 131.28 193.899V194.787V195.187H131.68H132.04H132.44V194.787V185.096ZM134.64 182.758L134.657 182.778L134.676 182.795C134.848 182.945 135.057 183.02 135.281 183.02C135.505 183.02 135.72 182.945 135.888 182.777C136.065 182.6 136.149 182.376 136.149 182.135C136.149 181.903 136.07 181.68 135.888 181.511C135.727 181.337 135.514 181.251 135.281 181.251C135.041 181.251 134.826 181.343 134.657 181.511C134.483 181.685 134.413 181.909 134.413 182.135C134.413 182.363 134.483 182.58 134.64 182.758ZM135.861 185.096V184.696H135.461H135.101H134.701V185.096V194.787V195.187H135.101H135.461H135.861V194.787V185.096ZM138.318 187.095L138.318 187.095L138.316 187.1C137.885 187.921 137.676 188.872 137.676 189.941C137.676 191.011 137.885 191.962 138.316 192.783L138.316 192.783L138.318 192.787C138.759 193.604 139.37 194.235 140.147 194.669L140.147 194.669C140.921 195.101 141.792 195.312 142.752 195.312C144.055 195.312 145.157 194.983 146.023 194.292L146.023 194.291C146.893 193.595 147.423 192.68 147.606 191.568L147.683 191.103H147.212H146.852H146.512L146.457 191.439C146.318 192.298 145.921 192.957 145.266 193.442C144.602 193.933 143.773 194.189 142.752 194.189C142.034 194.189 141.378 194.036 140.779 193.732C140.205 193.424 139.738 192.961 139.377 192.327C139.025 191.709 138.836 190.92 138.836 189.941C138.836 188.963 139.025 188.174 139.377 187.555C139.739 186.922 140.205 186.465 140.778 186.169L140.78 186.168C141.38 185.853 142.035 185.694 142.752 185.694C143.773 185.694 144.602 185.95 145.266 186.44C145.921 186.926 146.318 187.585 146.457 188.444L146.512 188.78H146.852H147.212H147.683L147.606 188.315C147.423 187.203 146.893 186.294 146.023 185.609C145.158 184.906 144.056 184.57 142.752 184.57C141.792 184.57 140.921 184.782 140.147 185.213L140.147 185.213C139.37 185.647 138.759 186.279 138.318 187.095ZM156.557 193.442L156.557 193.442C155.895 193.933 155.066 194.189 154.044 194.189C153.336 194.189 152.691 194.041 152.104 193.748C151.528 193.45 151.055 193.002 150.683 192.392C150.384 191.885 150.2 191.259 150.145 190.503H158.486H158.863L158.885 190.126C158.898 189.899 158.904 189.566 158.904 189.134C158.904 188.36 158.713 187.625 158.334 186.934C157.962 186.231 157.405 185.665 156.677 185.237C155.932 184.786 155.049 184.57 154.044 184.57C153.085 184.57 152.213 184.782 151.44 185.213C150.662 185.647 150.052 186.279 149.61 187.095L149.61 187.095L149.607 187.1C149.176 187.921 148.969 188.872 148.969 189.941C148.969 191.01 149.176 191.962 149.607 192.783L149.607 192.783L149.61 192.788C150.052 193.604 150.662 194.235 151.44 194.669C152.213 195.101 153.085 195.312 154.044 195.312C155.348 195.312 156.45 194.983 157.315 194.292L157.316 194.291C158.185 193.595 158.716 192.68 158.899 191.568L158.975 191.103H158.504H158.145H157.805L157.75 191.438C157.609 192.298 157.213 192.957 156.557 193.442ZM157.793 189.38H150.145C150.2 188.624 150.384 187.998 150.683 187.491C151.055 186.881 151.527 186.44 152.101 186.154L152.101 186.154L152.106 186.151C152.694 185.847 153.337 185.694 154.044 185.694C154.738 185.694 155.376 185.847 155.964 186.151L155.964 186.151L155.972 186.155C156.555 186.441 157.011 186.878 157.344 187.479L157.344 187.479L157.347 187.485C157.637 187.989 157.792 188.616 157.793 189.38Z" fill="white" stroke="white" stroke-width="0.8"/>
<path d="M24.0991 199.544L25.1385 200.427H25.5783L26.098 200.038L26.6977 199.615L29.0964 200.109L31.8949 200.321L34.9732 200.109L37.8917 199.438L40.6102 198.768L44.8371 198.068L43.5287 177.587L43.3985 176.687L43.2888 175.764C43.3422 175.611 43.3859 175.319 43.4499 175.149C43.5298 174.937 43.5355 174.903 43.6554 174.585C43.7514 174.331 43.4088 174.304 43.2888 174.34H41.5697L41.09 174.763L40.4503 175.858L39.7707 177.976L39.4909 178.823L39.1711 178.999H38.8512L38.209 178.533L37.6438 178.02L37.2328 177.508L36.9759 177.098L36.7723 176.669L36.2926 176.917L35.8528 177.251L35.573 177.815L35.5372 178.328L35.573 178.823L35.7941 180.02L35.8528 181.148L35.9327 181.763L36.1538 182.43L36.4107 182.686L36.7723 182.847L35.573 183.553L33.4141 184.753L31.1353 186.024L30.0159 185.353L28.4168 184.012L27.2974 182.776L26.2979 181.153L26.0581 183.2L25.8981 185.177L26.0581 186.307L26.138 187.613L24.219 186.13L22.7798 184.188L21.1007 181.47L19.8614 178.999L18.1423 175.505L17.1428 173.457L17.2628 176.316L17.6625 179.599L18.5821 183.553L19.7014 187.295L21.3406 191.849L22.2601 194.214L22.5399 195.449L22.7798 197.32L23.0996 198.52L24.0991 199.544Z" fill="black" stroke="black"/>
<path d="M33.0898 207.414C33.0898 207.753 33.0078 208.047 32.8438 208.297C32.6797 208.547 32.4401 208.74 32.125 208.875C31.8125 209.01 31.4323 209.078 30.9844 209.078C30.7865 209.078 30.5924 209.065 30.4023 209.039C30.2148 209.013 30.0339 208.975 29.8594 208.926C29.6875 208.874 29.5234 208.81 29.3672 208.734V207.609C29.638 207.729 29.9193 207.837 30.2109 207.934C30.5026 208.03 30.7917 208.078 31.0781 208.078C31.276 208.078 31.4349 208.052 31.5547 208C31.6771 207.948 31.7656 207.876 31.8203 207.785C31.875 207.694 31.9023 207.59 31.9023 207.473C31.9023 207.329 31.8542 207.207 31.7578 207.105C31.6615 207.004 31.5286 206.909 31.3594 206.82C31.1927 206.732 31.0039 206.637 30.793 206.535C30.6602 206.473 30.5156 206.397 30.3594 206.309C30.2031 206.217 30.0547 206.107 29.9141 205.977C29.7734 205.846 29.6576 205.689 29.5664 205.504C29.4779 205.316 29.4336 205.092 29.4336 204.832C29.4336 204.491 29.5117 204.199 29.668 203.957C29.8242 203.715 30.0469 203.53 30.3359 203.402C30.6276 203.272 30.9714 203.207 31.3672 203.207C31.6641 203.207 31.9466 203.242 32.2148 203.312C32.4857 203.38 32.7682 203.479 33.0625 203.609L32.6719 204.551C32.4089 204.444 32.1732 204.362 31.9648 204.305C31.7565 204.245 31.5443 204.215 31.3281 204.215C31.1771 204.215 31.0482 204.24 30.9414 204.289C30.8346 204.336 30.7539 204.404 30.6992 204.492C30.6445 204.578 30.6172 204.678 30.6172 204.793C30.6172 204.928 30.6562 205.043 30.7344 205.137C30.8151 205.228 30.9349 205.316 31.0938 205.402C31.2552 205.488 31.4557 205.589 31.6953 205.703C31.987 205.841 32.2357 205.986 32.4414 206.137C32.6497 206.285 32.8099 206.461 32.9219 206.664C33.0339 206.865 33.0898 207.115 33.0898 207.414ZM35.8203 204.543C36.4062 204.543 36.8555 204.671 37.168 204.926C37.4805 205.181 37.6367 205.569 37.6367 206.09V209H36.8047L36.5742 208.406H36.543C36.418 208.562 36.2904 208.69 36.1602 208.789C36.0299 208.888 35.8802 208.961 35.7109 209.008C35.5417 209.055 35.3359 209.078 35.0938 209.078C34.8359 209.078 34.6042 209.029 34.3984 208.93C34.1953 208.831 34.0352 208.68 33.918 208.477C33.8008 208.271 33.7422 208.01 33.7422 207.695C33.7422 207.232 33.9049 206.891 34.2305 206.672C34.556 206.451 35.0443 206.328 35.6953 206.305L36.4531 206.281V206.09C36.4531 205.861 36.3932 205.693 36.2734 205.586C36.1536 205.479 35.987 205.426 35.7734 205.426C35.5625 205.426 35.3555 205.456 35.1523 205.516C34.9492 205.576 34.7461 205.651 34.543 205.742L34.1484 204.938C34.3802 204.815 34.6393 204.719 34.9258 204.648C35.2148 204.578 35.513 204.543 35.8203 204.543ZM36.4531 206.977L35.9922 206.992C35.6068 207.003 35.3385 207.072 35.1875 207.199C35.0391 207.327 34.9648 207.495 34.9648 207.703C34.9648 207.885 35.0182 208.016 35.125 208.094C35.2318 208.169 35.3711 208.207 35.543 208.207C35.7982 208.207 36.013 208.132 36.1875 207.98C36.3646 207.829 36.4531 207.615 36.4531 207.336V206.977ZM39.9062 209L38.2422 204.633H39.4883L40.332 207.121C40.3789 207.267 40.4154 207.421 40.4414 207.582C40.4701 207.743 40.4896 207.888 40.5 208.016H40.5312C40.5391 207.878 40.5573 207.73 40.5859 207.574C40.6172 207.418 40.6576 207.267 40.707 207.121L41.5469 204.633H42.793L41.1289 209H39.9062ZM45.2227 204.551C45.6263 204.551 45.974 204.629 46.2656 204.785C46.5573 204.939 46.7826 205.163 46.9414 205.457C47.1003 205.751 47.1797 206.111 47.1797 206.535V207.113H44.3633C44.3763 207.449 44.4766 207.714 44.6641 207.906C44.8542 208.096 45.1172 208.191 45.4531 208.191C45.7318 208.191 45.987 208.163 46.2188 208.105C46.4505 208.048 46.6888 207.962 46.9336 207.848V208.77C46.7174 208.876 46.4909 208.954 46.2539 209.004C46.0195 209.053 45.7344 209.078 45.3984 209.078C44.9609 209.078 44.5729 208.997 44.2344 208.836C43.8984 208.674 43.6341 208.428 43.4414 208.098C43.2513 207.767 43.1562 207.35 43.1562 206.848C43.1562 206.337 43.2422 205.913 43.4141 205.574C43.5885 205.233 43.8307 204.978 44.1406 204.809C44.4505 204.637 44.8112 204.551 45.2227 204.551ZM45.2305 205.398C44.9987 205.398 44.806 205.473 44.6523 205.621C44.5013 205.77 44.4141 206.003 44.3906 206.32H46.0625C46.0599 206.143 46.0273 205.986 45.9648 205.848C45.9049 205.71 45.8138 205.6 45.6914 205.52C45.5716 205.439 45.418 205.398 45.2305 205.398ZM52.0664 208.129C52.1966 208.129 52.3229 208.116 52.4453 208.09C52.5703 208.064 52.694 208.031 52.8164 207.992V208.879C52.6888 208.936 52.5299 208.983 52.3398 209.02C52.1523 209.059 51.9466 209.078 51.7227 209.078C51.4622 209.078 51.2279 209.036 51.0195 208.953C50.8138 208.867 50.651 208.72 50.5312 208.512C50.4141 208.301 50.3555 208.008 50.3555 207.633V205.527H49.7852V205.023L50.4414 204.625L50.7852 203.703H51.5469V204.633H52.7695V205.527H51.5469V207.633C51.5469 207.799 51.5938 207.924 51.6875 208.008C51.7839 208.089 51.9102 208.129 52.0664 208.129ZM54.8945 202.922V204.16C54.8945 204.376 54.8867 204.582 54.8711 204.777C54.8581 204.973 54.8477 205.111 54.8398 205.191H54.9023C54.9961 205.04 55.1068 204.918 55.2344 204.824C55.3646 204.73 55.5078 204.661 55.6641 204.617C55.8203 204.573 55.9883 204.551 56.168 204.551C56.4831 204.551 56.7578 204.607 56.9922 204.719C57.2266 204.828 57.4089 205.001 57.5391 205.238C57.6693 205.473 57.7344 205.777 57.7344 206.152V209H56.543V206.449C56.543 206.137 56.4857 205.901 56.3711 205.742C56.2565 205.583 56.0794 205.504 55.8398 205.504C55.6003 205.504 55.4115 205.56 55.2734 205.672C55.1354 205.781 55.0378 205.944 54.9805 206.16C54.9232 206.374 54.8945 206.635 54.8945 206.945V209H53.7031V202.922H54.8945ZM60.7617 204.551C61.1654 204.551 61.513 204.629 61.8047 204.785C62.0964 204.939 62.3216 205.163 62.4805 205.457C62.6393 205.751 62.7188 206.111 62.7188 206.535V207.113H59.9023C59.9154 207.449 60.0156 207.714 60.2031 207.906C60.3932 208.096 60.6562 208.191 60.9922 208.191C61.2708 208.191 61.526 208.163 61.7578 208.105C61.9896 208.048 62.2279 207.962 62.4727 207.848V208.77C62.2565 208.876 62.0299 208.954 61.793 209.004C61.5586 209.053 61.2734 209.078 60.9375 209.078C60.5 209.078 60.112 208.997 59.7734 208.836C59.4375 208.674 59.1732 208.428 58.9805 208.098C58.7904 207.767 58.6953 207.35 58.6953 206.848C58.6953 206.337 58.7812 205.913 58.9531 205.574C59.1276 205.233 59.3698 204.978 59.6797 204.809C59.9896 204.637 60.3503 204.551 60.7617 204.551ZM60.7695 205.398C60.5378 205.398 60.3451 205.473 60.1914 205.621C60.0404 205.77 59.9531 206.003 59.9297 206.32H61.6016C61.599 206.143 61.5664 205.986 61.5039 205.848C61.444 205.71 61.3529 205.6 61.2305 205.52C61.1107 205.439 60.957 205.398 60.7695 205.398ZM68.2031 204.551C68.263 204.551 68.332 204.555 68.4102 204.562C68.4909 204.568 68.556 204.576 68.6055 204.586L68.5156 205.703C68.4766 205.69 68.4206 205.681 68.3477 205.676C68.2773 205.668 68.2161 205.664 68.1641 205.664C68.0104 205.664 67.8607 205.684 67.7148 205.723C67.5716 205.762 67.4427 205.826 67.3281 205.914C67.2135 206 67.1224 206.115 67.0547 206.258C66.9896 206.398 66.957 206.572 66.957 206.777V209H65.7656V204.633H66.668L66.8438 205.367H66.9023C66.9883 205.219 67.0951 205.083 67.2227 204.961C67.3529 204.836 67.5 204.737 67.6641 204.664C67.8307 204.589 68.0104 204.551 68.2031 204.551ZM70.5898 202.922V204.16C70.5898 204.376 70.582 204.582 70.5664 204.777C70.5534 204.973 70.543 205.111 70.5352 205.191H70.5977C70.6914 205.04 70.8021 204.918 70.9297 204.824C71.0599 204.73 71.2031 204.661 71.3594 204.617C71.5156 204.573 71.6836 204.551 71.8633 204.551C72.1784 204.551 72.4531 204.607 72.6875 204.719C72.9219 204.828 73.1042 205.001 73.2344 205.238C73.3646 205.473 73.4297 205.777 73.4297 206.152V209H72.2383V206.449C72.2383 206.137 72.181 205.901 72.0664 205.742C71.9518 205.583 71.7747 205.504 71.5352 205.504C71.2956 205.504 71.1068 205.56 70.9688 205.672C70.8307 205.781 70.7331 205.944 70.6758 206.16C70.6185 206.374 70.5898 206.635 70.5898 206.945V209H69.3984V202.922H70.5898ZM75.8477 204.633V209H74.6562V204.633H75.8477ZM75.2539 202.922C75.431 202.922 75.5833 202.964 75.7109 203.047C75.8385 203.128 75.9023 203.28 75.9023 203.504C75.9023 203.725 75.8385 203.879 75.7109 203.965C75.5833 204.048 75.431 204.09 75.2539 204.09C75.0742 204.09 74.9206 204.048 74.793 203.965C74.668 203.879 74.6055 203.725 74.6055 203.504C74.6055 203.28 74.668 203.128 74.793 203.047C74.9206 202.964 75.0742 202.922 75.2539 202.922ZM79.582 204.551C80.0482 204.551 80.4232 204.678 80.707 204.934C80.9909 205.186 81.1328 205.592 81.1328 206.152V209H79.9414V206.449C79.9414 206.137 79.8841 205.901 79.7695 205.742C79.6576 205.583 79.4805 205.504 79.2383 205.504C78.8737 205.504 78.625 205.628 78.4922 205.875C78.3594 206.122 78.293 206.479 78.293 206.945V209H77.1016V204.633H78.0117L78.1719 205.191H78.2383C78.332 205.04 78.4479 204.918 78.5859 204.824C78.7266 204.73 78.8815 204.661 79.0508 204.617C79.2227 204.573 79.3997 204.551 79.582 204.551ZM86.3281 206.809C86.3281 207.173 86.2786 207.496 86.1797 207.777C86.0833 208.059 85.9414 208.297 85.7539 208.492C85.569 208.685 85.3451 208.831 85.082 208.93C84.8216 209.029 84.5273 209.078 84.1992 209.078C83.8919 209.078 83.6094 209.029 83.3516 208.93C83.0964 208.831 82.8737 208.685 82.6836 208.492C82.4961 208.297 82.3503 208.059 82.2461 207.777C82.1445 207.496 82.0938 207.173 82.0938 206.809C82.0938 206.324 82.1797 205.914 82.3516 205.578C82.5234 205.242 82.7682 204.987 83.0859 204.812C83.4036 204.638 83.7826 204.551 84.2227 204.551C84.6315 204.551 84.9935 204.638 85.3086 204.812C85.6263 204.987 85.875 205.242 86.0547 205.578C86.237 205.914 86.3281 206.324 86.3281 206.809ZM83.3086 206.809C83.3086 207.095 83.3398 207.336 83.4023 207.531C83.4648 207.727 83.5625 207.874 83.6953 207.973C83.8281 208.072 84.0013 208.121 84.2148 208.121C84.4258 208.121 84.5964 208.072 84.7266 207.973C84.8594 207.874 84.9557 207.727 85.0156 207.531C85.0781 207.336 85.1094 207.095 85.1094 206.809C85.1094 206.52 85.0781 206.28 85.0156 206.09C84.9557 205.897 84.8594 205.753 84.7266 205.656C84.5938 205.56 84.4206 205.512 84.207 205.512C83.8919 205.512 83.6628 205.62 83.5195 205.836C83.3789 206.052 83.3086 206.376 83.3086 206.809ZM90.3594 207.703C90.3594 208 90.2891 208.251 90.1484 208.457C90.0104 208.66 89.8034 208.815 89.5273 208.922C89.2513 209.026 88.9076 209.078 88.4961 209.078C88.1914 209.078 87.9297 209.059 87.7109 209.02C87.4948 208.98 87.276 208.915 87.0547 208.824V207.84C87.2917 207.947 87.5456 208.035 87.8164 208.105C88.0898 208.173 88.3294 208.207 88.5352 208.207C88.7669 208.207 88.9323 208.173 89.0312 208.105C89.1328 208.035 89.1836 207.944 89.1836 207.832C89.1836 207.759 89.1628 207.694 89.1211 207.637C89.082 207.577 88.9961 207.51 88.8633 207.438C88.7305 207.362 88.5221 207.264 88.2383 207.145C87.9648 207.03 87.7396 206.914 87.5625 206.797C87.388 206.68 87.2578 206.542 87.1719 206.383C87.0885 206.221 87.0469 206.017 87.0469 205.77C87.0469 205.366 87.2031 205.062 87.5156 204.859C87.8307 204.654 88.2513 204.551 88.7773 204.551C89.0482 204.551 89.306 204.578 89.5508 204.633C89.7982 204.688 90.0521 204.775 90.3125 204.895L89.9531 205.754C89.737 205.66 89.5326 205.583 89.3398 205.523C89.1497 205.464 88.9557 205.434 88.7578 205.434C88.5833 205.434 88.4518 205.457 88.3633 205.504C88.2747 205.551 88.2305 205.622 88.2305 205.719C88.2305 205.789 88.2526 205.852 88.2969 205.906C88.3438 205.961 88.4323 206.022 88.5625 206.09C88.6953 206.155 88.8893 206.24 89.1445 206.344C89.3919 206.445 89.6068 206.552 89.7891 206.664C89.9714 206.773 90.112 206.91 90.2109 207.074C90.3099 207.236 90.3594 207.445 90.3594 207.703ZM91.1211 208.441C91.1211 208.197 91.1875 208.025 91.3203 207.926C91.4557 207.827 91.6185 207.777 91.8086 207.777C91.9935 207.777 92.1523 207.827 92.2852 207.926C92.4206 208.025 92.4883 208.197 92.4883 208.441C92.4883 208.676 92.4206 208.845 92.2852 208.949C92.1523 209.053 91.9935 209.105 91.8086 209.105C91.6185 209.105 91.4557 209.053 91.3203 208.949C91.1875 208.845 91.1211 208.676 91.1211 208.441ZM99.1133 207.414C99.1133 207.753 99.0312 208.047 98.8672 208.297C98.7031 208.547 98.4635 208.74 98.1484 208.875C97.8359 209.01 97.4557 209.078 97.0078 209.078C96.8099 209.078 96.6159 209.065 96.4258 209.039C96.2383 209.013 96.0573 208.975 95.8828 208.926C95.7109 208.874 95.5469 208.81 95.3906 208.734V207.609C95.6615 207.729 95.9427 207.837 96.2344 207.934C96.526 208.03 96.8151 208.078 97.1016 208.078C97.2995 208.078 97.4583 208.052 97.5781 208C97.7005 207.948 97.7891 207.876 97.8438 207.785C97.8984 207.694 97.9258 207.59 97.9258 207.473C97.9258 207.329 97.8776 207.207 97.7812 207.105C97.6849 207.004 97.5521 206.909 97.3828 206.82C97.2161 206.732 97.0273 206.637 96.8164 206.535C96.6836 206.473 96.5391 206.397 96.3828 206.309C96.2266 206.217 96.0781 206.107 95.9375 205.977C95.7969 205.846 95.681 205.689 95.5898 205.504C95.5013 205.316 95.457 205.092 95.457 204.832C95.457 204.491 95.5352 204.199 95.6914 203.957C95.8477 203.715 96.0703 203.53 96.3594 203.402C96.651 203.272 96.9948 203.207 97.3906 203.207C97.6875 203.207 97.9701 203.242 98.2383 203.312C98.5091 203.38 98.7917 203.479 99.0859 203.609L98.6953 204.551C98.4323 204.444 98.1966 204.362 97.9883 204.305C97.7799 204.245 97.5677 204.215 97.3516 204.215C97.2005 204.215 97.0716 204.24 96.9648 204.289C96.8581 204.336 96.7773 204.404 96.7227 204.492C96.668 204.578 96.6406 204.678 96.6406 204.793C96.6406 204.928 96.6797 205.043 96.7578 205.137C96.8385 205.228 96.9583 205.316 97.1172 205.402C97.2786 205.488 97.4792 205.589 97.7188 205.703C98.0104 205.841 98.2591 205.986 98.4648 206.137C98.6732 206.285 98.8333 206.461 98.9453 206.664C99.0573 206.865 99.1133 207.115 99.1133 207.414ZM101.844 204.543C102.43 204.543 102.879 204.671 103.191 204.926C103.504 205.181 103.66 205.569 103.66 206.09V209H102.828L102.598 208.406H102.566C102.441 208.562 102.314 208.69 102.184 208.789C102.053 208.888 101.904 208.961 101.734 209.008C101.565 209.055 101.359 209.078 101.117 209.078C100.859 209.078 100.628 209.029 100.422 208.93C100.219 208.831 100.059 208.68 99.9414 208.477C99.8242 208.271 99.7656 208.01 99.7656 207.695C99.7656 207.232 99.9284 206.891 100.254 206.672C100.579 206.451 101.068 206.328 101.719 206.305L102.477 206.281V206.09C102.477 205.861 102.417 205.693 102.297 205.586C102.177 205.479 102.01 205.426 101.797 205.426C101.586 205.426 101.379 205.456 101.176 205.516C100.973 205.576 100.77 205.651 100.566 205.742L100.172 204.938C100.404 204.815 100.663 204.719 100.949 204.648C101.238 204.578 101.536 204.543 101.844 204.543ZM102.477 206.977L102.016 206.992C101.63 207.003 101.362 207.072 101.211 207.199C101.062 207.327 100.988 207.495 100.988 207.703C100.988 207.885 101.042 208.016 101.148 208.094C101.255 208.169 101.395 208.207 101.566 208.207C101.822 208.207 102.036 208.132 102.211 207.98C102.388 207.829 102.477 207.615 102.477 207.336V206.977ZM105.93 209L104.266 204.633H105.512L106.355 207.121C106.402 207.267 106.439 207.421 106.465 207.582C106.493 207.743 106.513 207.888 106.523 208.016H106.555C106.562 207.878 106.581 207.73 106.609 207.574C106.641 207.418 106.681 207.267 106.73 207.121L107.57 204.633H108.816L107.152 209H105.93ZM111.246 204.551C111.65 204.551 111.997 204.629 112.289 204.785C112.581 204.939 112.806 205.163 112.965 205.457C113.124 205.751 113.203 206.111 113.203 206.535V207.113H110.387C110.4 207.449 110.5 207.714 110.688 207.906C110.878 208.096 111.141 208.191 111.477 208.191C111.755 208.191 112.01 208.163 112.242 208.105C112.474 208.048 112.712 207.962 112.957 207.848V208.77C112.741 208.876 112.514 208.954 112.277 209.004C112.043 209.053 111.758 209.078 111.422 209.078C110.984 209.078 110.596 208.997 110.258 208.836C109.922 208.674 109.658 208.428 109.465 208.098C109.275 207.767 109.18 207.35 109.18 206.848C109.18 206.337 109.266 205.913 109.438 205.574C109.612 205.233 109.854 204.978 110.164 204.809C110.474 204.637 110.835 204.551 111.246 204.551ZM111.254 205.398C111.022 205.398 110.829 205.473 110.676 205.621C110.525 205.77 110.438 206.003 110.414 206.32H112.086C112.083 206.143 112.051 205.986 111.988 205.848C111.928 205.71 111.837 205.6 111.715 205.52C111.595 205.439 111.441 205.398 111.254 205.398ZM118.09 208.129C118.22 208.129 118.346 208.116 118.469 208.09C118.594 208.064 118.717 208.031 118.84 207.992V208.879C118.712 208.936 118.553 208.983 118.363 209.02C118.176 209.059 117.97 209.078 117.746 209.078C117.486 209.078 117.251 209.036 117.043 208.953C116.837 208.867 116.674 208.72 116.555 208.512C116.438 208.301 116.379 208.008 116.379 207.633V205.527H115.809V205.023L116.465 204.625L116.809 203.703H117.57V204.633H118.793V205.527H117.57V207.633C117.57 207.799 117.617 207.924 117.711 208.008C117.807 208.089 117.934 208.129 118.09 208.129ZM120.918 202.922V204.16C120.918 204.376 120.91 204.582 120.895 204.777C120.882 204.973 120.871 205.111 120.863 205.191H120.926C121.02 205.04 121.13 204.918 121.258 204.824C121.388 204.73 121.531 204.661 121.688 204.617C121.844 204.573 122.012 204.551 122.191 204.551C122.507 204.551 122.781 204.607 123.016 204.719C123.25 204.828 123.432 205.001 123.562 205.238C123.693 205.473 123.758 205.777 123.758 206.152V209H122.566V206.449C122.566 206.137 122.509 205.901 122.395 205.742C122.28 205.583 122.103 205.504 121.863 205.504C121.624 205.504 121.435 205.56 121.297 205.672C121.159 205.781 121.061 205.944 121.004 206.16C120.947 206.374 120.918 206.635 120.918 206.945V209H119.727V202.922H120.918ZM126.785 204.551C127.189 204.551 127.536 204.629 127.828 204.785C128.12 204.939 128.345 205.163 128.504 205.457C128.663 205.751 128.742 206.111 128.742 206.535V207.113H125.926C125.939 207.449 126.039 207.714 126.227 207.906C126.417 208.096 126.68 208.191 127.016 208.191C127.294 208.191 127.549 208.163 127.781 208.105C128.013 208.048 128.251 207.962 128.496 207.848V208.77C128.28 208.876 128.053 208.954 127.816 209.004C127.582 209.053 127.297 209.078 126.961 209.078C126.523 209.078 126.135 208.997 125.797 208.836C125.461 208.674 125.197 208.428 125.004 208.098C124.814 207.767 124.719 207.35 124.719 206.848C124.719 206.337 124.805 205.913 124.977 205.574C125.151 205.233 125.393 204.978 125.703 204.809C126.013 204.637 126.374 204.551 126.785 204.551ZM126.793 205.398C126.561 205.398 126.368 205.473 126.215 205.621C126.064 205.77 125.977 206.003 125.953 206.32H127.625C127.622 206.143 127.59 205.986 127.527 205.848C127.467 205.71 127.376 205.6 127.254 205.52C127.134 205.439 126.98 205.398 126.793 205.398ZM134.203 205.527H133.172V209H131.98V205.527H131.324V204.953L131.98 204.633V204.312C131.98 203.94 132.043 203.651 132.168 203.445C132.296 203.237 132.474 203.091 132.703 203.008C132.935 202.922 133.208 202.879 133.523 202.879C133.755 202.879 133.966 202.898 134.156 202.938C134.346 202.974 134.501 203.016 134.621 203.062L134.316 203.938C134.225 203.909 134.126 203.883 134.02 203.859C133.913 203.836 133.79 203.824 133.652 203.824C133.486 203.824 133.363 203.875 133.285 203.977C133.21 204.076 133.172 204.203 133.172 204.359V204.633H134.203V205.527ZM137.328 204.551C137.388 204.551 137.457 204.555 137.535 204.562C137.616 204.568 137.681 204.576 137.73 204.586L137.641 205.703C137.602 205.69 137.546 205.681 137.473 205.676C137.402 205.668 137.341 205.664 137.289 205.664C137.135 205.664 136.986 205.684 136.84 205.723C136.697 205.762 136.568 205.826 136.453 205.914C136.339 206 136.247 206.115 136.18 206.258C136.115 206.398 136.082 206.572 136.082 206.777V209H134.891V204.633H135.793L135.969 205.367H136.027C136.113 205.219 136.22 205.083 136.348 204.961C136.478 204.836 136.625 204.737 136.789 204.664C136.956 204.589 137.135 204.551 137.328 204.551ZM142.531 204.633V209H141.617L141.457 208.441H141.395C141.301 208.59 141.184 208.711 141.043 208.805C140.902 208.898 140.747 208.967 140.578 209.012C140.409 209.056 140.233 209.078 140.051 209.078C139.738 209.078 139.466 209.023 139.234 208.914C139.003 208.802 138.822 208.629 138.691 208.395C138.564 208.16 138.5 207.855 138.5 207.48V204.633H139.691V207.184C139.691 207.496 139.747 207.732 139.859 207.891C139.971 208.049 140.15 208.129 140.395 208.129C140.637 208.129 140.827 208.074 140.965 207.965C141.103 207.853 141.199 207.69 141.254 207.477C141.311 207.26 141.34 206.997 141.34 206.688V204.633H142.531ZM144.973 204.633V209H143.781V204.633H144.973ZM144.379 202.922C144.556 202.922 144.708 202.964 144.836 203.047C144.964 203.128 145.027 203.28 145.027 203.504C145.027 203.725 144.964 203.879 144.836 203.965C144.708 204.048 144.556 204.09 144.379 204.09C144.199 204.09 144.046 204.048 143.918 203.965C143.793 203.879 143.73 203.725 143.73 203.504C143.73 203.28 143.793 203.128 143.918 203.047C144.046 202.964 144.199 202.922 144.379 202.922ZM148.066 208.129C148.197 208.129 148.323 208.116 148.445 208.09C148.57 208.064 148.694 208.031 148.816 207.992V208.879C148.689 208.936 148.53 208.983 148.34 209.02C148.152 209.059 147.947 209.078 147.723 209.078C147.462 209.078 147.228 209.036 147.02 208.953C146.814 208.867 146.651 208.72 146.531 208.512C146.414 208.301 146.355 208.008 146.355 207.633V205.527H145.785V205.023L146.441 204.625L146.785 203.703H147.547V204.633H148.77V205.527H147.547V207.633C147.547 207.799 147.594 207.924 147.688 208.008C147.784 208.089 147.91 208.129 148.066 208.129ZM152.75 207.703C152.75 208 152.68 208.251 152.539 208.457C152.401 208.66 152.194 208.815 151.918 208.922C151.642 209.026 151.298 209.078 150.887 209.078C150.582 209.078 150.32 209.059 150.102 209.02C149.885 208.98 149.667 208.915 149.445 208.824V207.84C149.682 207.947 149.936 208.035 150.207 208.105C150.48 208.173 150.72 208.207 150.926 208.207C151.158 208.207 151.323 208.173 151.422 208.105C151.523 208.035 151.574 207.944 151.574 207.832C151.574 207.759 151.553 207.694 151.512 207.637C151.473 207.577 151.387 207.51 151.254 207.438C151.121 207.362 150.913 207.264 150.629 207.145C150.355 207.03 150.13 206.914 149.953 206.797C149.779 206.68 149.648 206.542 149.562 206.383C149.479 206.221 149.438 206.017 149.438 205.77C149.438 205.366 149.594 205.062 149.906 204.859C150.221 204.654 150.642 204.551 151.168 204.551C151.439 204.551 151.697 204.578 151.941 204.633C152.189 204.688 152.443 204.775 152.703 204.895L152.344 205.754C152.128 205.66 151.923 205.583 151.73 205.523C151.54 205.464 151.346 205.434 151.148 205.434C150.974 205.434 150.842 205.457 150.754 205.504C150.665 205.551 150.621 205.622 150.621 205.719C150.621 205.789 150.643 205.852 150.688 205.906C150.734 205.961 150.823 206.022 150.953 206.09C151.086 206.155 151.28 206.24 151.535 206.344C151.783 206.445 151.997 206.552 152.18 206.664C152.362 206.773 152.503 206.91 152.602 207.074C152.701 207.236 152.75 207.445 152.75 207.703ZM153.512 208.441C153.512 208.197 153.578 208.025 153.711 207.926C153.846 207.827 154.009 207.777 154.199 207.777C154.384 207.777 154.543 207.827 154.676 207.926C154.811 208.025 154.879 208.197 154.879 208.441C154.879 208.676 154.811 208.845 154.676 208.949C154.543 209.053 154.384 209.105 154.199 209.105C154.009 209.105 153.846 209.053 153.711 208.949C153.578 208.845 153.512 208.676 153.512 208.441Z" fill="black"/>
<path d="M137.671 356.336H132.491V355.066L134.234 353.304C134.595 352.926 134.875 352.623 135.074 352.395C135.276 352.167 135.417 351.974 135.499 351.814C135.58 351.655 135.621 351.489 135.621 351.316C135.621 351.105 135.552 350.952 135.416 350.857C135.279 350.763 135.118 350.716 134.932 350.716C134.708 350.716 134.48 350.781 134.249 350.911C134.021 351.038 133.762 351.227 133.472 351.477L132.413 350.237C132.627 350.045 132.855 349.863 133.096 349.69C133.337 349.514 133.622 349.371 133.951 349.261C134.279 349.15 134.68 349.095 135.152 349.095C135.637 349.095 136.057 349.179 136.412 349.348C136.77 349.518 137.046 349.75 137.242 350.047C137.437 350.34 137.535 350.673 137.535 351.048C137.535 351.461 137.458 351.831 137.305 352.156C137.155 352.478 136.929 352.802 136.626 353.128C136.324 353.45 135.946 353.816 135.494 354.226L134.971 354.695V354.744H137.671V356.336ZM141.294 351.658C141.692 351.658 142.053 351.748 142.378 351.927C142.704 352.106 142.964 352.366 143.16 352.708C143.355 353.05 143.453 353.466 143.453 353.958C143.453 354.488 143.345 354.939 143.13 355.31C142.919 355.678 142.598 355.958 142.168 356.15C141.742 356.339 141.203 356.433 140.552 356.433C140.139 356.433 139.761 356.401 139.419 356.336C139.081 356.274 138.778 356.178 138.511 356.048V354.466C138.762 354.58 139.063 354.684 139.415 354.778C139.769 354.869 140.095 354.915 140.391 354.915C140.629 354.915 140.831 354.881 140.997 354.812C141.163 354.744 141.288 354.643 141.373 354.51C141.46 354.376 141.504 354.212 141.504 354.016C141.504 353.746 141.407 353.535 141.211 353.382C141.016 353.225 140.72 353.147 140.323 353.147C140.144 353.147 139.968 353.165 139.795 353.201C139.623 353.237 139.472 353.276 139.341 353.318L138.633 352.967L138.902 349.197H142.974V350.804H140.542L140.455 351.746C140.559 351.726 140.665 351.707 140.772 351.687C140.883 351.668 141.057 351.658 141.294 351.658ZM149.419 352.776C149.419 353.349 149.374 353.862 149.283 354.314C149.192 354.763 149.045 355.146 148.843 355.462C148.645 355.777 148.381 356.018 148.052 356.184C147.723 356.35 147.32 356.433 146.841 356.433C146.246 356.433 145.757 356.289 145.376 355.999C144.996 355.706 144.714 355.288 144.532 354.744C144.353 354.197 144.263 353.541 144.263 352.776C144.263 352.005 144.345 351.346 144.507 350.799C144.673 350.249 144.945 349.827 145.323 349.534C145.7 349.241 146.207 349.095 146.841 349.095C147.437 349.095 147.924 349.241 148.301 349.534C148.682 349.824 148.964 350.244 149.146 350.794C149.328 351.341 149.419 352.001 149.419 352.776ZM146.182 352.776C146.182 353.242 146.198 353.632 146.231 353.948C146.267 354.264 146.332 354.501 146.426 354.661C146.524 354.817 146.662 354.895 146.841 354.895C147.02 354.895 147.157 354.817 147.251 354.661C147.346 354.501 147.411 354.265 147.447 353.953C147.483 353.637 147.5 353.245 147.5 352.776C147.5 352.304 147.483 351.91 147.447 351.595C147.411 351.279 147.346 351.041 147.251 350.882C147.157 350.719 147.02 350.638 146.841 350.638C146.662 350.638 146.524 350.719 146.426 350.882C146.332 351.041 146.267 351.279 146.231 351.595C146.198 351.91 146.182 352.304 146.182 352.776ZM159.781 350.706C160.412 350.706 160.894 350.867 161.226 351.189C161.561 351.512 161.729 352.027 161.729 352.737V356.336H159.82V353.328C159.82 352.908 159.763 352.617 159.649 352.454C159.538 352.288 159.372 352.205 159.151 352.205C158.842 352.205 158.627 352.34 158.506 352.61C158.389 352.88 158.331 353.263 158.331 353.758V356.336H156.417V353.328C156.417 353.061 156.392 352.846 156.343 352.683C156.298 352.517 156.228 352.397 156.133 352.322C156.039 352.244 155.92 352.205 155.777 352.205C155.559 352.205 155.388 352.272 155.264 352.405C155.144 352.535 155.059 352.727 155.01 352.981C154.961 353.235 154.937 353.546 154.937 353.914V356.336H153.028V350.804H154.468L154.747 351.487H154.8C154.898 351.337 155.023 351.204 155.176 351.087C155.333 350.97 155.516 350.877 155.728 350.808C155.943 350.74 156.187 350.706 156.46 350.706C156.867 350.706 157.203 350.774 157.466 350.911C157.73 351.048 157.945 351.236 158.111 351.477H158.169C158.345 351.23 158.571 351.04 158.848 350.906C159.125 350.773 159.436 350.706 159.781 350.706ZM164.937 356.336H163.028V348.738H164.937V356.336Z" fill="#B63700"/>
<path d="M114.18 229.067C111.122 226.494 108.326 226.478 105.314 227.269C100.44 230.563 101.28 233.719 101.002 238.059C100.798 241.243 99.0274 241.047 97.8828 245.646C97.1714 248.504 95.3481 248.59 91.3993 253.1C87.0497 258.067 86.6103 259.786 86.3501 263.842C85.905 270.782 87.8293 273.578 89.246 276.406C90.3794 278.669 91.7278 281.32 96.3714 282.45C101.015 283.579 104.427 282.135 104.427 282.135C105.66 281.888 107.507 283.164 110.696 283.369C117.236 283.788 118.095 281.946 122.162 279.02C126.416 275.961 129.514 266.465 127.64 260.097C126.83 257.342 126.088 253.522 121.699 250.125C119.487 246.13 119.551 242.705 118.951 237.817C118.202 231.707 116.106 230.688 114.18 229.067Z" fill="#607D3A"/>
<path d="M113.472 229.74C110.485 227.379 108.11 226.527 105.18 227.237C100.448 230.225 101.263 235.904 101.009 239.864C100.823 242.77 100.409 242.954 99.3123 247.148C98.6309 249.754 93.6829 250.565 90.5866 252.831C85.6018 256.478 86.6483 259.276 86.4108 262.978C86.0045 269.311 87.889 271.871 89.2794 274.459C90.3917 276.529 91.7148 278.954 96.2402 280.004C100.766 281.053 104.081 279.748 104.081 279.748C105.281 279.527 107.133 279.943 110.239 280.143C116.608 280.551 116.354 279.104 120.303 276.449C124.433 273.673 126.658 265.692 124.809 259.872C124.009 257.354 123.656 254.509 119.369 251.392C117.2 247.736 117.332 244.624 116.729 240.16C115.975 234.579 115.354 231.227 113.472 229.74Z" fill="#67883D"/>
<path d="M108.286 228.401L109.003 217.224C110.101 216.887 112.235 216.876 111.994 219.527C111.991 219.662 111.977 219.805 111.947 219.938C111.584 222.68 109.988 227.438 109.197 229.571L108.286 228.401Z" fill="#6D4635"/>
<path d="M108.28 228.497L108.935 218.292C109.471 217.955 110.496 217.885 110.306 220.308C110.301 220.43 110.29 220.562 110.273 220.683C110.022 223.192 109.123 227.573 108.685 229.538L108.28 228.497Z" fill="#5B3B2D"/>
<path d="M110.145 229.612C107.57 227.366 107.478 226.633 104.935 227.331C100.884 229.017 100.331 231.797 99.4839 235.506C98.2294 241 97.8643 243.036 96.8891 247.062C96.2831 249.564 92.6374 250.012 90.7745 252.216C88.9115 254.42 87.3311 254.935 87.1035 258.484C86.714 264.556 89.3706 267.248 91.0776 269.396C93.8851 272.928 93.1501 272.881 96.9124 275.59C100.675 278.3 102.571 276.855 102.571 276.855C103.613 276.637 104.462 276.075 107.153 276.247C112.672 276.601 112.008 275.576 115.447 273.009C119.043 270.324 121.363 263.988 119.795 258.421C119.116 256.012 118.826 253.288 115.129 250.326C113.271 246.836 113.403 243.853 112.907 239.578C112.286 234.235 111.767 231.026 110.145 229.612Z" fill="#6B8F3C"/>
<path d="M109.674 229.596C111.247 229.764 111.46 229.18 111.37 228.866C111.384 228.644 111.084 228.178 109.77 228.093C108.456 228.009 107.992 227.532 107.924 227.304L107.181 228.598C107.357 228.86 108.101 229.428 109.674 229.596Z" fill="#538043"/>
<path d="M107.334 238.694C107.025 235.096 104.087 236.716 103.476 236.769C98.9847 239.411 100.252 249.787 97.9958 250.984C94.8433 252.658 94.3225 252.47 93.4094 254.114C91.7276 257.141 93.8757 262.282 99.8713 258.489C102.012 257.136 104.569 254.623 106.211 251.887C107.228 250.191 106.777 248.607 106.837 245.643C106.897 242.68 107.653 242.408 107.334 238.694Z" fill="#71993E"/>
<path d="M101.502 243.457C101.563 243.22 101.651 242.987 101.75 242.759C101.784 242.384 101.998 241.658 102.041 241.492C102.161 241.015 102.251 240.371 102.5 239.961C102.607 239.786 102.691 239.613 102.794 239.443C102.912 239.246 103.051 239.126 103.18 238.947C103.281 238.807 103.508 238.712 103.638 238.622C103.789 238.519 104 238.503 104.145 238.54C104.393 238.603 104.764 238.593 104.91 238.878C105.076 239.204 104.974 239.774 104.791 240.285C104.674 241.085 104.244 242.843 103.289 246.141C103.17 246.292 98.9486 250.911 101.348 243.946C101.334 243.909 101.342 243.87 101.388 243.83C101.374 243.869 101.361 243.907 101.348 243.946C101.349 243.949 101.35 243.952 101.352 243.955C101.403 243.764 101.474 243.57 101.502 243.457Z" fill="#81A651"/>
<path d="M116.828 252.62C118.263 252.749 120.95 253.364 122.312 254.377L125.038 254.622L126.673 254.769C128.962 254.975 129.428 254.412 132.356 254.676C135.284 254.939 137.027 256.016 138.344 258.789C139.791 261.838 139.386 264.927 139.19 267.107C138.994 269.287 136.949 274.086 135.666 276.351C133.831 279.593 132.989 279.847 131.112 280.624C129.591 281.254 126.199 280.919 125.274 280.099C124.836 279.712 123.789 279.506 122.767 279.874C120.547 280.672 117.938 279.57 114.682 278.194L114.534 278.132C111.209 276.728 108.796 273.229 108.133 271.512C107.47 269.795 105.999 266.532 106.214 264.141C106.876 256.783 107.745 256.847 109.633 254.842C111.52 252.837 115.394 252.491 116.828 252.62Z" fill="#931F1F"/>
<path fill-rule="evenodd" clip-rule="evenodd" d="M127.362 251.343C127.467 251.236 127.728 251.002 127.937 250.924C128.197 250.827 129.524 249.238 130.077 248.576C130.417 248.168 130.523 247.734 130.644 247.241C130.718 246.935 130.799 246.605 130.945 246.244C130.995 246.121 131.039 246.006 131.08 245.898C131.354 245.183 131.529 244.726 132.781 243.507C133.934 242.384 136.021 241.868 136.947 241.638C136.264 242.434 135.369 243.602 134.646 244.665C134.211 245.304 133.858 245.823 133.692 246.022C133.505 246.246 133.204 246.681 132.881 247.147C132.334 247.937 131.725 248.816 131.503 248.913C131.374 248.97 131.159 249.164 130.898 249.401C130.442 249.815 129.842 250.359 129.297 250.532C128.612 250.751 127.721 251.164 127.362 251.343Z" fill="#628456"/>
<path d="M125.743 253.498C126.047 252.882 126.796 251.59 127.362 251.343M127.362 251.343C128.069 251.035 130.678 251.731 132.698 250.226C134.718 248.722 135.346 248.078 136.024 245.542C136.567 243.514 136.848 242.17 136.947 241.638M127.362 251.343C127.467 251.236 127.728 251.002 127.937 250.924C128.197 250.827 129.524 249.238 130.077 248.576C130.417 248.168 130.523 247.734 130.644 247.241C130.718 246.935 130.799 246.605 130.945 246.244C130.995 246.121 131.039 246.006 131.08 245.898C131.354 245.183 131.529 244.726 132.781 243.507C133.934 242.384 136.021 241.868 136.947 241.638M127.362 251.343C127.721 251.164 128.612 250.751 129.297 250.532C129.842 250.359 130.442 249.815 130.898 249.401C131.159 249.164 131.374 248.97 131.503 248.913C131.725 248.816 132.334 247.937 132.881 247.147C133.204 246.681 133.505 246.246 133.692 246.022C133.858 245.823 134.211 245.304 134.646 244.665C135.369 243.602 136.264 242.434 136.947 241.638" stroke="#628456"/>
<path d="M133.089 246.669C134.122 245.316 135.698 243.133 137.022 241.768C137.138 242.168 136.675 244.162 136.639 244.393C136.481 245.395 135.905 247.495 135.43 248.501C134.954 249.507 133.299 250.473 131.826 251.004C130.648 251.428 128.666 251.295 127.823 251.175C127.667 251.165 127.723 250.992 129.199 250.382C131.044 249.62 132.056 248.022 133.089 246.669Z" fill="#859C27" stroke="#628456"/>
<path d="M124.403 256.179L125.078 248.68C125.812 248.471 127.228 248.499 127.021 250.277C127.016 250.367 127.004 250.463 126.982 250.552C126.692 252.389 125.549 255.56 124.987 256.98L124.403 256.179Z" fill="#6D4635"/>
<path d="M124.436 255.81L125.049 248.993C125.408 248.776 126.083 248.746 125.915 250.364C125.909 250.446 125.899 250.533 125.886 250.614C125.676 252.289 125.007 255.205 124.684 256.513L124.436 255.81Z" fill="#5B3B2D"/>
<path d="M117.025 253.297C118.296 253.411 121.286 253.921 122.491 254.834L123.987 255.921C124.759 255.99 125.77 255.712 126.78 255.22C127.79 254.728 130.106 254.473 133.309 254.761C136.511 255.049 137.446 255.966 138.607 258.469C139.885 261.222 139.521 264.015 139.344 265.986C139.167 267.957 137.731 272.565 136.207 274.346C134.883 275.893 134.829 276.492 132.337 277.326C131.425 277.631 128.092 277.849 126.993 277.75L124.772 277.551C122.652 277.36 120.424 277.253 117.48 275.99C114.536 274.726 112.404 271.568 111.82 270.017C111.235 268.466 109.936 265.519 110.131 263.359C110.729 256.707 111.499 256.764 113.175 254.948C114.85 253.133 115.754 253.183 117.025 253.297Z" fill="#B32222"/>
<path d="M117.842 253.37C118.919 253.467 120.851 253.894 122.606 254.658C124.361 255.422 125.495 255.652 125.495 255.652C125.495 255.652 125.945 255.537 127.086 255.061C128.228 254.585 130.828 254.538 133.54 254.782C136.253 255.026 137.247 255.115 138.874 257.918C140.5 260.72 139.66 262.479 139.514 264.099C139.368 265.719 137.837 269.283 136.876 270.965C135.501 273.373 134.87 273.56 133.462 274.137C132.321 274.604 130.487 274.749 129.663 274.675L126.447 274.385C124.661 274.225 123.517 273.32 121.022 272.274C118.526 271.229 116.609 269.524 115.667 268.395C114.724 267.266 114.356 265.255 114.264 262.609C114.126 258.641 114.383 256.818 115.798 255.329C116.237 254.868 116.766 253.273 117.842 253.37Z" fill="#C92121"/>
<path d="M117.561 254.059C116.763 254.372 115.606 255.422 115.328 255.672L113.803 256.744L113.234 263.066L112.852 267.318L110.874 266.7C110.54 265.736 109.864 263.51 109.839 262.321C109.808 260.835 110.385 257.48 111.195 255.795C112.006 254.109 114.072 253.141 115.969 252.817C117.866 252.493 119.403 253.126 121.212 253.783C123.021 254.441 123.12 254.559 123.74 255C124.36 255.44 124.954 255.549 125.866 255.191C126.595 254.905 128.997 254.593 129.983 254.627C129.819 254.814 128.09 255.259 126.823 256.156C125.555 257.053 124.7 256.753 124.43 256.49C123.369 256.065 121.384 254.403 120.395 254.314C119.632 254.246 118.358 253.746 117.561 254.059Z" fill="#B32222"/>
<path d="M130.93 259.497C131.411 257.343 133.985 258.197 135.211 258.893C135.763 259.089 136.916 259.739 137.111 260.767C137.355 262.052 136.951 264.049 136.289 265.912C135.626 267.775 134.363 268.321 133.437 269.117C132.511 269.912 131.053 269.122 129.669 267.02C128.284 264.917 130.328 262.19 130.93 259.497Z" fill="#EB3333"/>
<path d="M132.885 261.315C132.876 259.733 133.983 259.862 134.537 260.124C134.664 260.113 135.123 260.281 135.937 261.044C136.752 261.807 136.441 263.215 136.184 263.824C135.796 264.408 134.679 265.694 133.315 266.166C131.609 266.757 132.895 263.292 132.885 261.315Z" fill="#FF4E4E"/>
<path d="M143.494 264.41L156.354 256.286C156.635 256.932 155.675 259.201 149.59 263.105C144.845 266.15 142.284 267.535 141.155 268.045C147.886 265.489 161.107 260.699 164.85 260.217C168.715 259.721 168.075 260.084 167.272 260.328L142.094 268.978C151.033 267.703 169.666 265.151 172.682 265.142C175.698 265.133 152.082 268.871 139.897 270.742L137.431 267.048L153.814 251.967C156.609 249.575 159.399 250.223 143.494 264.41Z" fill="#1C570D"/>
<path d="M85.9718 287.47C93.0209 282.978 118.462 271.702 130.301 266.625C132.764 265.378 137.88 263.708 138.639 267.005C139.588 271.125 141.838 268.687 141.462 272.547C141.161 275.635 139.131 277.254 138.154 277.677C117.823 282.813 78.9228 291.962 85.9718 287.47Z" fill="#E35F00"/>
<path d="M86.2446 287.285C93.2937 282.793 118.461 271.702 130.301 266.625C132.764 265.378 137.88 263.708 138.639 267.004C139.588 271.125 141.838 268.687 141.462 272.547C141.161 275.635 137.447 269.628 136.168 266.892C115.837 272.028 79.1956 291.777 86.2446 287.285Z" fill="#C25200"/>
<path d="M135.672 266.579C135.811 266.665 135.966 266.718 136.108 266.8C136.273 266.894 136.398 267.041 136.564 267.14C136.638 267.184 136.694 267.222 136.759 267.27C136.907 267.378 136.73 267.37 136.632 267.331C135.786 266.993 134.825 267.031 133.924 266.99C133.867 266.987 133.519 266.982 133.541 266.957C133.573 266.92 133.681 266.917 133.726 266.919" stroke="#C25200" stroke-width="0.5" stroke-linecap="round"/>
<path d="M134.086 268.73C134.118 268.014 134.021 267.122 134.366 266.48L132.597 267.528C132.58 267.883 132.731 268.158 132.789 268.513C132.853 268.903 132.992 269.209 133.153 269.572C133.395 270.116 133.556 270.702 133.733 271.268C133.908 271.828 134.246 272.382 134.608 272.845C134.777 273.062 134.94 273.157 135.217 273.17C135.335 273.175 135.489 273.199 135.405 273.03C135.033 272.283 134.574 271.459 134.37 270.61C134.211 269.952 134.055 269.417 134.086 268.73Z" fill="#C25200" stroke="#C25200" stroke-width="0.5" stroke-linecap="round"/>
<path d="M129.483 269.861C129.51 269.27 129.406 268.534 129.745 268.007L127.991 268.857C127.977 269.151 128.13 269.379 128.19 269.671C128.257 269.993 128.398 270.247 128.561 270.547C128.806 270.997 128.971 271.482 129.152 271.95C129.331 272.413 129.671 272.872 130.036 273.257C130.206 273.437 130.368 273.517 130.644 273.529C130.762 273.534 130.916 273.556 130.83 273.415C130.455 272.797 129.991 272.114 129.781 271.413C129.618 270.869 129.458 270.427 129.483 269.861Z" fill="#C25200" stroke="#C25200" stroke-width="0.5" stroke-linecap="round"/>
<path d="M124.034 272.104C124.058 271.572 123.951 270.907 124.287 270.433L122.537 271.192C122.525 271.457 122.679 271.663 122.74 271.928C122.808 272.219 122.95 272.448 123.115 272.72C123.362 273.128 123.529 273.565 123.712 273.989C123.893 274.408 124.235 274.823 124.601 275.172C124.772 275.336 124.935 275.408 125.211 275.421C125.329 275.426 125.482 275.446 125.396 275.319C125.018 274.759 124.551 274.14 124.338 273.507C124.173 273.015 124.011 272.615 124.034 272.104Z" fill="#C25200" stroke="#C25200" stroke-width="0.5" stroke-linecap="round"/>
<path d="M103.568 279.716C103.582 279.399 103.528 279.004 103.705 278.721L102.789 279.179C102.782 279.336 102.862 279.458 102.893 279.615C102.928 279.788 103.001 279.924 103.086 280.085C103.214 280.326 103.299 280.586 103.393 280.837C103.486 281.086 103.664 281.331 103.853 281.538C103.942 281.634 104.027 281.677 104.171 281.683C104.232 281.686 104.312 281.698 104.268 281.622C104.072 281.291 103.831 280.924 103.722 280.548C103.637 280.257 103.554 280.02 103.568 279.716Z" fill="#C25200" stroke="#C25200" stroke-width="0.5" stroke-linecap="round"/>
<path d="M99.6018 281.672C99.6142 281.398 99.5582 281.057 99.7334 280.814L98.8205 281.203C98.8144 281.339 98.8945 281.445 98.9268 281.581C98.9624 281.73 99.0367 281.848 99.1227 281.988C99.2517 282.197 99.3387 282.422 99.4343 282.639C99.529 282.855 99.7079 283.068 99.8988 283.247C99.9882 283.331 100.073 283.369 100.217 283.375C100.278 283.378 100.359 283.388 100.314 283.323C100.116 283.035 99.8725 282.717 99.7611 282.392C99.6746 282.14 99.5898 281.934 99.6018 281.672Z" fill="#C25200" stroke="#C25200" stroke-width="0.5" stroke-linecap="round"/>
<path d="M103.568 279.716C103.582 279.399 103.528 279.004 103.705 278.721L102.789 279.179C102.782 279.336 102.862 279.458 102.893 279.615C102.928 279.788 103.001 279.924 103.086 280.085C103.214 280.326 103.299 280.586 103.393 280.837C103.486 281.086 103.664 281.331 103.853 281.538C103.942 281.634 104.027 281.677 104.171 281.683C104.232 281.686 104.312 281.698 104.268 281.622C104.072 281.291 103.831 280.924 103.722 280.548C103.637 280.257 103.554 280.02 103.568 279.716Z" fill="#C25200" stroke="#C25200" stroke-width="0.5" stroke-linecap="round"/>
<path d="M95.7753 283.5C95.7857 283.27 95.7392 282.982 95.8853 282.777L95.1244 283.106C95.1192 283.22 95.186 283.309 95.2128 283.424C95.2424 283.55 95.3043 283.649 95.3759 283.766C95.4833 283.943 95.5558 284.132 95.6353 284.315C95.7142 284.496 95.8631 284.676 96.0222 284.827C96.0966 284.898 96.1674 284.929 96.2874 284.935C96.3385 284.937 96.4054 284.946 96.368 284.89C96.2034 284.648 96.0005 284.381 95.9077 284.107C95.8358 283.894 95.7652 283.721 95.7753 283.5Z" fill="#C25200" stroke="#C25200" stroke-width="0.5" stroke-linecap="round"/>
<path d="M107.62 278.79C107.638 278.402 107.565 277.917 107.799 277.57L106.58 278.127C106.572 278.32 106.678 278.471 106.721 278.664C106.767 278.876 106.866 279.043 106.98 279.241C107.151 279.538 107.267 279.857 107.393 280.166C107.519 280.472 107.756 280.774 108.01 281.028C108.129 281.147 108.242 281.2 108.434 281.209C108.516 281.212 108.623 281.227 108.563 281.134C108.301 280.726 107.977 280.275 107.83 279.813C107.716 279.455 107.603 279.163 107.62 278.79Z" fill="#C25200" stroke="#C25200" stroke-width="0.5" stroke-linecap="round"/>
<path d="M111.453 276.829C111.472 276.397 111.401 275.859 111.638 275.473L110.416 276.097C110.406 276.312 110.512 276.478 110.553 276.692C110.599 276.928 110.697 277.113 110.81 277.333C110.98 277.662 111.094 278.016 111.219 278.358C111.342 278.697 111.579 279.032 111.831 279.313C111.95 279.444 112.062 279.502 112.255 279.511C112.336 279.515 112.443 279.53 112.384 279.427C112.124 278.976 111.802 278.476 111.657 277.964C111.545 277.567 111.434 277.243 111.453 276.829Z" fill="#C25200" stroke="#C25200" stroke-width="0.5" stroke-linecap="round"/>
<path d="M115.392 275.452C115.415 274.962 115.335 274.352 115.601 273.915L114.226 274.623C114.215 274.866 114.334 275.055 114.381 275.298C114.432 275.565 114.542 275.775 114.669 276.023C114.86 276.396 114.988 276.797 115.128 277.185C115.268 277.569 115.533 277.949 115.817 278.267C115.95 278.416 116.077 278.482 116.293 278.491C116.385 278.496 116.506 278.513 116.439 278.397C116.146 277.885 115.785 277.319 115.622 276.738C115.496 276.288 115.371 275.921 115.392 275.452Z" fill="#C25200" stroke="#C25200" stroke-width="0.5" stroke-linecap="round"/>
<path d="M119.565 273.369C119.587 272.879 119.501 272.269 119.781 271.832L118.332 272.537C118.321 272.78 118.446 272.969 118.496 273.212C118.551 273.479 118.668 273.689 118.803 273.938C119.005 274.312 119.141 274.713 119.29 275.101C119.438 275.486 119.72 275.866 120.02 276.185C120.161 276.334 120.295 276.401 120.523 276.411C120.62 276.415 120.747 276.433 120.677 276.316C120.366 275.804 119.983 275.237 119.81 274.656C119.676 274.205 119.543 273.838 119.565 273.369Z" fill="#C25200" stroke="#C25200" stroke-width="0.5" stroke-linecap="round"/>
<path d="M149.587 279.446L169.287 272.685C168.969 272.013 164.248 273.552 156.967 275.475C151.709 276.864 148.867 277.817 147.538 278.354C154.277 275.3 166.882 272.708 169.8 270.206C172.855 267.586 167.349 270.303 166.603 270.748L147.157 277.095C154.326 271.122 164.173 267.819 166.258 265.507C168.344 263.195 154.124 269.491 144.248 277.539L144.921 280.016C142.26 280.437 140.62 280.898 145.124 280.765L145.471 282.041L167.061 279.526C170.975 279.054 175.14 278.026 150.007 279.418C149.878 279.425 149.737 279.435 149.587 279.446Z" fill="#21660F"/>
<path d="M88.4519 284.607C96.3887 281.985 123.865 277.319 136.589 275.307C139.283 274.704 144.653 274.342 144.578 277.724C144.486 281.952 147.265 280.141 145.952 283.79C144.902 286.71 142.536 287.78 141.485 287.95C120.515 287.932 80.5152 287.229 88.4519 284.607Z" fill="#E35F00"/>
<path d="M90.0558 284.34C89.827 284.402 89.6028 284.427 89.3627 284.43C89.1215 284.432 88.8913 284.5 88.6587 284.543C88.5157 284.57 88.3678 284.614 88.2321 284.661C88.1289 284.697 88.0328 284.747 87.929 284.781C87.8997 284.79 87.8732 284.809 87.845 284.821C87.8062 284.838 87.7584 284.862 87.7263 284.887C87.6866 284.917 87.6426 284.929 87.6067 284.966C87.5827 284.99 87.53 285.04 87.5211 285.073C87.5053 285.13 87.5138 285.275 87.6066 285.275C87.7764 285.344 87.8707 285.44 88.0526 285.476C88.467 285.557 88.9327 285.729 89.3627 285.743" stroke="#D05700" stroke-width="0.5" stroke-linecap="round"/>
<path d="M88.8532 284.474C96.7899 281.852 123.865 277.319 136.589 275.307C139.283 274.704 144.652 274.342 144.578 277.724C144.485 281.951 147.265 280.141 145.952 283.79C144.902 286.709 143.537 278.452 141.939 276.995C120.97 276.977 80.9164 287.096 88.8532 284.474Z" fill="#D05700"/>
<path d="M141.404 288.079C139.934 288.28 87.0509 287.746 87.318 285.209C87.3815 284.605 91.7919 286.41 106.881 287.011C119.968 287.532 138.307 287.122 141.338 286.41C142.395 286.162 143.774 284.525 143.876 283.79C143.978 283.056 143.051 281.736 142.607 280.468C142.163 279.199 144.578 274.658 144.578 277.724C144.578 280.79 147.266 280.141 145.952 283.79C144.902 286.71 142.875 287.879 141.404 288.079Z" fill="#C25200" stroke="#C25200" stroke-width="0.5"/>
<path d="M141.807 276.582C141.921 276.7 142.057 276.789 142.176 276.903C142.312 277.035 142.397 277.208 142.534 277.346C142.594 277.406 142.639 277.457 142.691 277.519C142.807 277.66 142.638 277.608 142.553 277.547C141.816 277.012 140.875 276.812 140.012 276.551C139.957 276.534 139.621 276.444 139.648 276.425C139.688 276.397 139.794 276.421 139.837 276.434" stroke="#D05700" stroke-width="0.5" stroke-linecap="round"/>
<path d="M139.741 278.278C139.948 277.591 140.073 276.703 140.566 276.165L138.593 276.746C138.49 277.087 138.568 277.391 138.537 277.748C138.503 278.142 138.563 278.473 138.63 278.865C138.731 279.451 138.742 280.059 138.775 280.651C138.807 281.237 138.999 281.857 139.236 282.395C139.347 282.646 139.481 282.779 139.746 282.859C139.859 282.893 140.003 282.955 139.962 282.769C139.786 281.955 139.543 281.042 139.554 280.17C139.562 279.493 139.542 278.936 139.741 278.278Z" fill="#D05700" stroke="#D05700" stroke-width="0.5" stroke-linecap="round"/>
<path d="M135.002 278.242C135.173 277.677 135.253 276.938 135.711 276.51L133.801 276.903C133.716 277.184 133.808 277.443 133.795 277.741C133.78 278.07 133.854 278.35 133.939 278.681C134.066 279.178 134.106 279.688 134.167 280.186C134.226 280.679 134.444 281.208 134.702 281.67C134.823 281.886 134.961 282.004 135.225 282.084C135.338 282.118 135.482 282.176 135.434 282.019C135.221 281.327 134.94 280.551 134.908 279.82C134.884 279.253 134.837 278.785 135.002 278.242Z" fill="#D05700" stroke="#D05700" stroke-width="0.5" stroke-linecap="round"/>
<path d="M129.168 279.078C129.322 278.568 129.382 277.897 129.824 277.52L127.941 277.826C127.864 278.08 127.962 278.318 127.957 278.589C127.952 278.888 128.033 279.145 128.126 279.449C128.265 279.905 128.319 280.37 128.392 280.825C128.465 281.276 128.695 281.763 128.964 282.191C129.089 282.392 129.229 282.502 129.494 282.582C129.606 282.616 129.751 282.674 129.699 282.529C129.469 281.893 129.169 281.179 129.118 280.512C129.079 279.995 129.02 279.568 129.168 279.078Z" fill="#D05700" stroke="#D05700" stroke-width="0.5" stroke-linecap="round"/>
<path d="M107.459 281.427C107.55 281.123 107.595 280.727 107.837 280.496L106.836 280.715C106.791 280.865 106.838 281.003 106.829 281.163C106.82 281.339 106.858 281.489 106.901 281.666C106.965 281.931 106.984 282.204 107.014 282.47C107.043 282.734 107.155 283.016 107.288 283.263C107.35 283.378 107.422 283.44 107.56 283.482C107.619 283.5 107.694 283.531 107.669 283.447C107.561 283.077 107.417 282.663 107.403 282.272C107.393 281.968 107.37 281.718 107.459 281.427Z" fill="#D05700" stroke="#D05700" stroke-width="0.5" stroke-linecap="round"/>
<path d="M103.134 282.348C103.213 282.086 103.242 281.741 103.472 281.548L102.491 281.701C102.452 281.831 102.504 281.954 102.502 282.094C102.499 282.247 102.542 282.38 102.591 282.536C102.665 282.771 102.694 283.01 102.733 283.244C102.772 283.476 102.893 283.727 103.034 283.948C103.1 284.051 103.173 284.109 103.311 284.15C103.37 284.168 103.445 284.198 103.418 284.123C103.297 283.796 103.139 283.428 103.111 283.085C103.089 282.819 103.057 282.599 103.134 282.348Z" fill="#D05700" stroke="#D05700" stroke-width="0.5" stroke-linecap="round"/>
<path d="M107.459 281.427C107.55 281.123 107.595 280.727 107.837 280.496L106.836 280.715C106.791 280.865 106.838 281.003 106.829 281.163C106.82 281.339 106.858 281.489 106.901 281.666C106.965 281.931 106.984 282.204 107.014 282.47C107.043 282.734 107.155 283.016 107.288 283.263C107.35 283.378 107.422 283.44 107.56 283.482C107.619 283.5 107.694 283.531 107.669 283.447C107.561 283.077 107.417 282.663 107.403 282.272C107.393 281.968 107.37 281.718 107.459 281.427Z" fill="#D05700" stroke="#D05700" stroke-width="0.5" stroke-linecap="round"/>
<path d="M98.9751 283.18C99.0419 282.959 99.0674 282.669 99.2594 282.507L98.4412 282.638C98.4081 282.747 98.4508 282.85 98.4488 282.968C98.4465 283.097 98.4821 283.208 98.5226 283.34C98.5834 283.537 98.6071 283.739 98.6393 283.936C98.6711 284.131 98.7714 284.342 98.8884 284.527C98.9432 284.614 99.0041 284.662 99.1191 284.696C99.1681 284.711 99.2308 284.736 99.208 284.673C99.108 284.398 98.9771 284.089 98.9545 283.801C98.937 283.577 98.9111 283.392 98.9751 283.18Z" fill="#D05700" stroke="#D05700" stroke-width="0.5" stroke-linecap="round"/>
<path d="M111.615 281.526C111.727 281.153 111.775 280.665 112.088 280.387L110.769 280.627C110.714 280.812 110.78 280.984 110.774 281.182C110.767 281.399 110.821 281.585 110.883 281.805C110.976 282.135 111.009 282.473 111.056 282.803C111.103 283.13 111.259 283.482 111.442 283.791C111.528 283.935 111.625 284.014 111.809 284.07C111.887 284.093 111.988 284.134 111.953 284.029C111.799 283.569 111.596 283.053 111.566 282.569C111.544 282.193 111.506 281.883 111.615 281.526Z" fill="#D05700" stroke="#D05700" stroke-width="0.5" stroke-linecap="round"/>
<path d="M115.811 280.566C115.937 280.152 116 279.613 116.324 279.297L114.986 279.602C114.924 279.807 114.986 279.995 114.973 280.213C114.96 280.452 115.009 280.656 115.065 280.896C115.148 281.257 115.172 281.628 115.209 281.99C115.246 282.349 115.392 282.732 115.568 283.067C115.65 283.223 115.746 283.307 115.93 283.363C116.008 283.386 116.108 283.428 116.076 283.313C115.934 282.812 115.745 282.249 115.731 281.716C115.719 281.303 115.691 280.963 115.811 280.566Z" fill="#D05700" stroke="#D05700" stroke-width="0.5" stroke-linecap="round"/>
<path d="M119.969 280.2C120.11 279.73 120.183 279.12 120.549 278.761L119.042 279.11C118.971 279.343 119.04 279.555 119.026 279.801C119.01 280.073 119.065 280.303 119.127 280.576C119.221 280.984 119.246 281.404 119.287 281.814C119.327 282.221 119.492 282.654 119.689 283.033C119.781 283.21 119.888 283.305 120.095 283.367C120.183 283.394 120.296 283.44 120.26 283.311C120.102 282.743 119.89 282.106 119.875 281.503C119.863 281.035 119.832 280.649 119.969 280.2Z" fill="#D05700" stroke="#D05700" stroke-width="0.5" stroke-linecap="round"/>
<path d="M124.525 279.206C124.667 278.737 124.734 278.124 125.112 277.769L123.534 278.097C123.464 278.33 123.539 278.544 123.528 278.791C123.516 279.064 123.577 279.296 123.646 279.571C123.751 279.982 123.784 280.405 123.833 280.818C123.882 281.227 124.061 281.665 124.274 282.048C124.374 282.227 124.488 282.324 124.706 282.39C124.8 282.418 124.918 282.467 124.879 282.336C124.704 281.763 124.472 281.12 124.447 280.514C124.427 280.044 124.389 279.656 124.525 279.206Z" fill="#D05700" stroke="#D05700" stroke-width="0.5" stroke-linecap="round"/>
<path d="M142.154 285.913C142.602 286.059 143.059 286.164 143.523 286.268C143.755 286.461 143.619 286.421 143.45 286.591C143.256 286.786 142.756 286.689 142.473 286.766C142.052 286.882 141.625 286.924 141.189 286.995C141.103 287.01 141.036 287.093 140.937 287.049C140.887 287.028 141.049 286.833 141.068 286.807C141.118 286.735 141.11 286.651 141.11 286.572L141.11 285.763C141.11 285.638 141.015 285.284 141.276 285.378C141.465 285.446 141.646 285.624 141.827 285.713C141.952 285.775 142.004 285.864 142.154 285.913Z" fill="#C25200"/>
<path d="M143.639 286.294C143.136 286.181 142.639 286.071 142.154 285.913C142.004 285.864 141.952 285.775 141.827 285.713C141.646 285.624 141.465 285.446 141.276 285.378C141.015 285.284 141.11 285.638 141.11 285.763C141.11 286.033 141.11 286.302 141.11 286.572C141.11 286.651 141.118 286.735 141.068 286.807C141.049 286.833 140.887 287.028 140.937 287.049C141.036 287.093 141.103 287.01 141.189 286.995C141.625 286.924 142.052 286.882 142.473 286.766C142.756 286.689 143.256 286.786 143.45 286.591C143.621 286.419 143.759 286.462 143.513 286.26" stroke="#C25200" stroke-width="0.5" stroke-linecap="round"/>
<path d="M104.922 286.819C105.154 286.892 105.392 286.96 105.634 287.028C105.749 287.085 105.679 287.064 105.584 287.073C105.475 287.083 105.214 287.012 105.061 286.994C104.835 286.966 104.608 286.926 104.375 286.89C104.329 286.883 104.291 286.889 104.24 286.871C104.214 286.862 104.307 286.848 104.317 286.845C104.346 286.839 104.345 286.825 104.348 286.812L104.375 286.679C104.38 286.659 104.342 286.59 104.476 286.635C104.574 286.667 104.663 286.716 104.756 286.75C104.82 286.774 104.845 286.794 104.922 286.819Z" fill="#C25200"/>
<path d="M105.694 287.045C105.432 286.971 105.173 286.898 104.922 286.819C104.845 286.794 104.82 286.774 104.756 286.75C104.663 286.716 104.574 286.667 104.476 286.635C104.342 286.59 104.38 286.659 104.375 286.679C104.366 286.723 104.357 286.767 104.348 286.812C104.345 286.825 104.346 286.839 104.317 286.845C104.307 286.848 104.214 286.862 104.24 286.871C104.291 286.889 104.329 286.883 104.375 286.89C104.608 286.926 104.835 286.966 105.061 286.994C105.214 287.012 105.475 287.083 105.584 287.073C105.68 287.063 105.751 287.086 105.628 287.026" stroke="#C25200" stroke-width="0.5" stroke-linecap="round"/>
<path d="M109.478 286.975C109.746 287.066 110.023 287.145 110.304 287.224C110.437 287.311 110.355 287.285 110.242 287.326C110.112 287.373 109.808 287.293 109.63 287.293C109.364 287.292 109.098 287.266 108.826 287.248C108.772 287.245 108.726 287.267 108.667 287.243C108.638 287.231 108.748 287.18 108.76 287.173C108.795 287.154 108.794 287.125 108.799 287.098L108.84 286.825C108.847 286.783 108.807 286.654 108.963 286.711C109.076 286.752 109.178 286.829 109.285 286.876C109.36 286.909 109.387 286.944 109.478 286.975Z" fill="#C25200"/>
<path d="M110.374 287.244C110.069 287.158 109.768 287.074 109.478 286.975C109.387 286.944 109.36 286.909 109.285 286.876C109.178 286.829 109.076 286.752 108.963 286.711C108.807 286.654 108.847 286.783 108.84 286.825C108.827 286.916 108.813 287.007 108.799 287.098C108.794 287.125 108.795 287.154 108.76 287.173C108.748 287.18 108.638 287.231 108.667 287.243C108.726 287.267 108.772 287.245 108.826 287.248C109.098 287.266 109.364 287.292 109.63 287.293C109.808 287.293 110.112 287.373 110.242 287.326C110.357 287.284 110.439 287.312 110.298 287.22" stroke="#C25200" stroke-width="0.5" stroke-linecap="round"/>
<path d="M100.66 286.634C100.835 286.698 101.016 286.755 101.199 286.812C101.285 286.867 101.232 286.848 101.157 286.866C101.072 286.886 100.873 286.827 100.756 286.818C100.582 286.805 100.408 286.778 100.229 286.756C100.194 286.752 100.164 286.761 100.125 286.745C100.106 286.737 100.179 286.714 100.187 286.711C100.21 286.702 100.21 286.686 100.213 286.671L100.243 286.521C100.248 286.498 100.223 286.425 100.325 286.463C100.399 286.492 100.465 286.539 100.535 286.57C100.583 286.592 100.601 286.613 100.66 286.634Z" fill="#C25200"/>
<path d="M101.245 286.826C101.046 286.764 100.849 286.703 100.66 286.634C100.601 286.613 100.583 286.592 100.535 286.57C100.465 286.539 100.399 286.492 100.325 286.463C100.223 286.425 100.248 286.498 100.243 286.521C100.233 286.571 100.223 286.621 100.213 286.671C100.21 286.686 100.21 286.702 100.187 286.711C100.179 286.714 100.106 286.737 100.125 286.745C100.164 286.761 100.194 286.752 100.229 286.756C100.408 286.778 100.582 286.805 100.756 286.818C100.873 286.827 101.072 286.886 101.157 286.866C101.233 286.848 101.287 286.867 101.195 286.81" stroke="#C25200" stroke-width="0.5" stroke-linecap="round"/>
<path d="M113.067 286.809C113.115 286.835 113.268 286.906 113.454 286.99C113.515 287.061 113.476 287.041 113.415 287.078C113.346 287.12 113.202 287.063 113.113 287.067C113.073 287.069 113.034 287.069 112.994 287.067C113.427 287.172 114.172 287.347 114.182 287.354C114.209 287.372 112.69 287.05 112.717 287.051C112.81 287.056 112.902 287.065 112.994 287.067C112.815 287.024 112.689 286.993 112.691 286.991C112.71 286.975 112.712 286.951 112.717 286.928L112.764 286.703C112.771 286.668 112.763 286.564 112.835 286.606C112.888 286.637 112.932 286.697 112.981 286.733C113.015 286.758 113.025 286.787 113.067 286.809Z" fill="#C25200"/>
<path d="M114.345 287.387C114.2 287.325 113.203 286.883 113.067 286.809C113.025 286.787 113.015 286.758 112.981 286.733C112.932 286.697 112.888 286.637 112.835 286.606C112.763 286.564 112.771 286.668 112.764 286.703C112.748 286.778 112.733 286.853 112.717 286.928C112.712 286.951 112.71 286.975 112.691 286.991C112.684 286.998 114.169 287.345 114.182 287.354C114.209 287.372 112.69 287.05 112.717 287.051C112.851 287.058 112.981 287.073 113.113 287.067C113.202 287.063 113.346 287.12 113.415 287.078C113.476 287.041 113.515 287.061 113.453 286.99" stroke="#C25200" stroke-width="0.5" stroke-linecap="round"/>
<path d="M117.196 286.943C117.245 286.964 117.402 287.022 117.591 287.091C117.656 287.144 117.616 287.128 117.559 287.153C117.493 287.18 117.347 287.133 117.259 287.132C117.22 287.132 117.181 287.13 117.141 287.128C117.577 287.221 118.326 287.379 118.336 287.384C118.364 287.398 116.839 287.103 116.866 287.105C116.959 287.112 117.05 287.122 117.141 287.128C116.961 287.089 116.834 287.061 116.836 287.06C116.854 287.049 116.855 287.031 116.858 287.015L116.889 286.854C116.893 286.829 116.878 286.753 116.953 286.786C117.007 286.811 117.054 286.856 117.105 286.885C117.141 286.904 117.153 286.925 117.196 286.943Z" fill="#C25200"/>
<path d="M118.499 287.415C118.352 287.364 117.335 287.002 117.196 286.943C117.153 286.925 117.141 286.904 117.105 286.885C117.054 286.856 117.007 286.811 116.953 286.786C116.878 286.753 116.893 286.829 116.889 286.854C116.878 286.908 116.868 286.962 116.858 287.015C116.855 287.031 116.854 287.049 116.836 287.06C116.83 287.064 118.322 287.377 118.336 287.384C118.364 287.398 116.839 287.103 116.866 287.105C116.999 287.115 117.128 287.131 117.259 287.132C117.347 287.133 117.493 287.18 117.559 287.153C117.617 287.128 117.656 287.144 117.59 287.09" stroke="#C25200" stroke-width="0.5" stroke-linecap="round"/>
<path d="M121.292 287.072C121.522 287.181 121.76 287.28 122.002 287.379C122.111 287.473 122.041 287.441 121.935 287.471C121.814 287.506 121.552 287.404 121.393 287.389C121.156 287.366 120.921 287.319 120.681 287.28C120.633 287.272 120.589 287.289 120.539 287.261C120.515 287.247 120.618 287.208 120.631 287.202C120.664 287.187 120.666 287.159 120.673 287.133L120.741 286.876C120.751 286.836 120.73 286.709 120.863 286.776C120.959 286.825 121.042 286.907 121.132 286.961C121.195 286.999 121.215 287.035 121.292 287.072Z" fill="#C25200"/>
<path d="M122.062 287.404C121.8 287.296 121.541 287.19 121.292 287.072C121.215 287.035 121.195 286.999 121.132 286.961C121.042 286.907 120.959 286.825 120.863 286.776C120.73 286.709 120.751 286.836 120.741 286.876C120.718 286.962 120.696 287.047 120.673 287.133C120.666 287.159 120.664 287.187 120.631 287.202C120.618 287.208 120.515 287.247 120.539 287.261C120.589 287.289 120.633 287.272 120.681 287.28C120.921 287.319 121.156 287.366 121.393 287.389C121.552 287.404 121.814 287.506 121.935 287.471C122.042 287.441 122.113 287.474 121.997 287.375" stroke="#C25200" stroke-width="0.5" stroke-linecap="round"/>
<path d="M127.254 286.873C127.687 287.035 128.134 287.166 128.587 287.297C128.801 287.474 128.669 287.428 128.487 287.546C128.278 287.681 127.788 287.552 127.501 287.585C127.072 287.633 126.644 287.623 126.205 287.635C126.119 287.637 126.044 287.696 125.949 287.652C125.902 287.629 126.079 287.491 126.1 287.472C126.156 287.42 126.154 287.353 126.161 287.289L126.228 286.646C126.238 286.546 126.173 286.255 126.425 286.356C126.608 286.43 126.772 286.59 126.945 286.68C127.065 286.742 127.109 286.819 127.254 286.873Z" fill="#C25200"/>
<path d="M128.7 287.329C128.208 287.188 127.723 287.048 127.254 286.873C127.109 286.819 127.065 286.742 126.945 286.68C126.772 286.59 126.608 286.43 126.425 286.356C126.173 286.255 126.238 286.546 126.228 286.646C126.205 286.86 126.183 287.075 126.161 287.289C126.154 287.353 126.156 287.42 126.1 287.472C126.079 287.491 125.902 287.629 125.949 287.652C126.044 287.696 126.119 287.637 126.205 287.635C126.644 287.623 127.072 287.633 127.501 287.585C127.788 287.552 128.278 287.681 128.487 287.546C128.672 287.426 128.805 287.475 128.577 287.289" stroke="#C25200" stroke-width="0.5" stroke-linecap="round"/>
<path d="M138.076 286.483C138.523 286.599 138.981 286.684 139.445 286.767C139.676 286.921 139.54 286.889 139.371 287.025C139.177 287.181 138.677 287.103 138.394 287.165C137.973 287.258 137.546 287.291 137.111 287.349C137.025 287.36 136.957 287.426 136.858 287.392C136.809 287.375 136.97 287.219 136.989 287.198C137.039 287.14 137.031 287.073 137.031 287.01L137.031 286.363C137.031 286.263 136.937 285.979 137.197 286.054C137.387 286.109 137.567 286.251 137.748 286.323C137.874 286.372 137.926 286.444 138.076 286.483Z" fill="#C25200"/>
<path d="M139.561 286.788C139.057 286.697 138.56 286.609 138.076 286.483C137.926 286.444 137.874 286.372 137.748 286.323C137.567 286.251 137.387 286.109 137.197 286.054C136.937 285.979 137.031 286.263 137.031 286.363C137.031 286.578 137.031 286.794 137.031 287.01C137.031 287.073 137.039 287.14 136.989 287.198C136.97 287.219 136.809 287.375 136.858 287.392C136.957 287.426 137.025 287.36 137.111 287.349C137.546 287.291 137.973 287.258 138.394 287.165C138.677 287.103 139.177 287.181 139.371 287.025C139.543 286.887 139.68 286.922 139.434 286.76" stroke="#C25200" stroke-width="0.5" stroke-linecap="round"/>
<path d="M133.131 286.823C133.634 286.939 134.149 287.023 134.671 287.107C134.931 287.261 134.778 287.229 134.588 287.365C134.37 287.521 133.807 287.443 133.489 287.505C133.015 287.598 132.534 287.631 132.045 287.688C131.948 287.7 131.872 287.766 131.76 287.732C131.705 287.714 131.887 287.558 131.908 287.538C131.965 287.48 131.955 287.413 131.955 287.35L131.955 286.703C131.955 286.603 131.849 286.319 132.143 286.394C132.356 286.449 132.558 286.591 132.762 286.662C132.903 286.712 132.962 286.784 133.131 286.823Z" fill="#C25200"/>
<path d="M134.801 287.128C134.234 287.037 133.676 286.949 133.131 286.823C132.962 286.784 132.903 286.712 132.762 286.662C132.558 286.591 132.356 286.449 132.143 286.394C131.849 286.319 131.955 286.603 131.955 286.703C131.955 286.918 131.955 287.134 131.955 287.35C131.955 287.413 131.965 287.48 131.908 287.538C131.887 287.558 131.705 287.714 131.76 287.732C131.872 287.766 131.948 287.7 132.045 287.688C132.534 287.631 133.015 287.598 133.489 287.505C133.807 287.443 134.37 287.521 134.588 287.365C134.781 287.227 134.936 287.262 134.659 287.1" stroke="#C25200" stroke-width="0.5" stroke-linecap="round"/>
<path d="M22.944 227.876C21.6187 228.38 20.592 229.164 19.864 230.228C19.136 231.273 18.772 232.561 18.772 234.092C18.772 234.783 18.8373 235.268 18.968 235.548C19.0987 235.809 19.164 235.959 19.164 235.996C18.156 235.996 17.4 235.791 16.896 235.38C16.4107 234.951 16.168 234.251 16.168 233.28C16.168 232.085 16.6533 230.928 17.624 229.808C18.6133 228.669 19.8733 227.755 21.404 227.064C22.9347 226.355 24.4653 226 25.996 226C26.2573 226 26.6307 226.019 27.116 226.056L27.368 243.276L33.248 226.14H35.208L27.424 247H23.392L22.944 227.876ZM37.9026 231.488C37.2866 231.488 36.7639 231.273 36.3346 230.844C35.9052 230.415 35.6906 229.892 35.6906 229.276C35.6906 228.66 35.9052 228.137 36.3346 227.708C36.7639 227.26 37.2866 227.036 37.9026 227.036C38.5186 227.036 39.0412 227.26 39.4706 227.708C39.9186 228.137 40.1426 228.66 40.1426 229.276C40.1426 229.892 39.9186 230.415 39.4706 230.844C39.0412 231.273 38.5186 231.488 37.9026 231.488ZM35.9986 247.168C35.1026 247.168 34.3746 246.888 33.8146 246.328C33.2732 245.768 33.0026 244.928 33.0026 243.808C33.0026 243.341 33.0772 242.735 33.2266 241.988L35.1306 233H39.1626L37.1466 242.52C37.0719 242.8 37.0346 243.099 37.0346 243.416C37.0346 243.789 37.1186 244.06 37.2866 244.228C37.4732 244.377 37.7719 244.452 38.1826 244.452C38.7239 244.452 39.2279 244.228 39.6946 243.78C40.1612 243.313 40.4972 242.716 40.7026 241.988H41.8786C41.1879 244.004 40.3012 245.376 39.2186 246.104C38.1359 246.813 37.0626 247.168 35.9986 247.168ZM43.4634 247.168C42.5674 247.168 41.8394 246.888 41.2794 246.328C40.7381 245.768 40.4674 244.928 40.4674 243.808C40.4674 243.341 40.5421 242.735 40.6914 241.988L42.3714 234.12H41.4474L41.6714 233H42.5954L43.4354 229.136L47.5794 228.576L46.6274 233H48.3074L48.0834 234.12H46.4034L44.6114 242.52C44.5367 242.8 44.4994 243.099 44.4994 243.416C44.4994 243.789 44.5834 244.06 44.7514 244.228C44.9381 244.377 45.2367 244.452 45.6474 244.452C46.1887 244.452 46.6927 244.228 47.1594 243.78C47.6261 243.313 47.9621 242.716 48.1674 241.988H49.3434C48.6527 244.004 47.7661 245.376 46.6834 246.104C45.6007 246.813 44.5274 247.168 43.4634 247.168ZM51.5163 247.168C50.4523 247.168 49.5656 246.804 48.8563 246.076C48.1469 245.348 47.7922 244.209 47.7922 242.66C47.7922 241.279 48.0629 239.832 48.6043 238.32C49.1643 236.789 49.9856 235.501 51.0683 234.456C52.1696 233.392 53.4763 232.86 54.9883 232.86C55.7536 232.86 56.3229 232.991 56.6963 233.252C57.0696 233.513 57.2563 233.859 57.2563 234.288V234.484L57.5643 233H61.5963L59.5803 242.52C59.5056 242.8 59.4683 243.099 59.4683 243.416C59.4683 244.219 59.8509 244.62 60.6163 244.62C61.1389 244.62 61.5869 244.377 61.9603 243.892C62.3523 243.407 62.6603 242.772 62.8843 241.988H64.0603C63.3696 244.004 62.5109 245.376 61.4843 246.104C60.4763 246.813 59.4589 247.168 58.4323 247.168C57.6483 247.168 57.0136 246.953 56.5283 246.524C56.0616 246.076 55.7816 245.432 55.6883 244.592C55.1469 245.357 54.5403 245.983 53.8683 246.468C53.2149 246.935 52.4309 247.168 51.5163 247.168ZM53.3363 244.452C53.8029 244.452 54.2603 244.237 54.7083 243.808C55.1749 243.36 55.4923 242.753 55.6603 241.988L57.0043 235.66C57.0043 235.417 56.9109 235.184 56.7243 234.96C56.5376 234.717 56.2483 234.596 55.8563 234.596C55.1096 234.596 54.4376 235.035 53.8403 235.912C53.2429 236.771 52.7763 237.816 52.4403 239.048C52.1043 240.261 51.9363 241.335 51.9363 242.268C51.9363 243.201 52.0669 243.799 52.3283 244.06C52.6083 244.321 52.9443 244.452 53.3363 244.452ZM65.0225 231.964H69.0545L68.6065 234.064C69.5399 233.261 70.6319 232.86 71.8825 232.86C72.9279 232.86 73.7585 233.205 74.3745 233.896C74.9905 234.587 75.2985 235.716 75.2985 237.284C75.2985 238.759 75.0839 240.252 74.6545 241.764C74.2252 243.257 73.4972 244.536 72.4705 245.6C71.4439 246.645 70.0905 247.168 68.4105 247.168C67.2159 247.168 66.4225 246.832 66.0305 246.16L64.5745 252.992L60.3465 254L65.0225 231.964ZM67.5425 244.732C68.4385 244.732 69.1759 244.312 69.7545 243.472C70.3519 242.632 70.7812 241.633 71.0425 240.476C71.3225 239.3 71.4625 238.208 71.4625 237.2C71.4625 235.651 70.9959 234.876 70.0625 234.876C69.7265 234.876 69.3812 234.997 69.0265 235.24C68.6905 235.483 68.3919 235.819 68.1305 236.248L66.4785 244.088C66.6279 244.517 66.9825 244.732 67.5425 244.732ZM78.7642 247.168C77.8682 247.168 77.1402 246.888 76.5802 246.328C76.0389 245.768 75.7682 244.928 75.7682 243.808C75.7682 243.341 75.8429 242.735 75.9922 241.988L77.8962 233H81.9282L79.9122 242.52C79.8562 242.8 79.8282 243.061 79.8282 243.304C79.8282 244.069 80.1082 244.452 80.6682 244.452C81.1909 244.452 81.6389 244.237 82.0122 243.808C82.3855 243.36 82.6842 242.753 82.9082 241.988L84.8122 233H88.8442L86.8282 242.52C86.7535 242.8 86.7162 243.099 86.7162 243.416C86.7162 243.789 86.8002 244.06 86.9682 244.228C87.1549 244.377 87.4535 244.452 87.8642 244.452C88.3869 244.452 88.8349 244.228 89.2082 243.78C89.6002 243.332 89.9082 242.735 90.1322 241.988H91.3082C90.6175 244.004 89.7589 245.376 88.7322 246.104C87.7242 246.813 86.7069 247.168 85.6802 247.168C84.8775 247.168 84.2335 246.944 83.7482 246.496C83.2815 246.048 83.0015 245.385 82.9082 244.508C82.2735 245.535 81.6015 246.235 80.8922 246.608C80.2015 246.981 79.4922 247.168 78.7642 247.168ZM80.4162 253.468C79.8002 253.468 79.2775 253.253 78.8482 252.824C78.4189 252.395 78.2042 251.872 78.2042 251.256C78.2042 250.64 78.4189 250.108 78.8482 249.66C79.2775 249.231 79.8002 249.016 80.4162 249.016C81.0322 249.016 81.5549 249.231 81.9842 249.66C82.4322 250.108 82.6562 250.64 82.6562 251.256C82.6562 251.872 82.4322 252.395 81.9842 252.824C81.5549 253.253 81.0322 253.468 80.4162 253.468Z" fill="#C25200"/>
</svg>
